<?xml version="1.0" encoding="utf-8"?>
<!-- Generator: Adobe Illustrator 23.0.2, SVG Export Plug-In . SVG Version: 6.00 Build 0)  -->
<svg version="1.1" xmlns="http://www.w3.org/2000/svg" xmlns:xlink="http://www.w3.org/1999/xlink" x="0px" y="0px"
	 viewBox="0 0 819 670" style="enable-background:new 0 0 819 670;" xml:space="preserve">
<style type="text/css">
	.st0{fill:none;stroke:#C2C2C2;stroke-width:5;stroke-miterlimit:10;}
	.st1{fill:none;stroke:#F73131;stroke-width:5;stroke-miterlimit:10;}
	.st2{fill:none;stroke:url(#cirkel2_1_);stroke-width:5;stroke-miterlimit:10;}
	.st3{fill:none;stroke:#0DFF00;stroke-width:5;stroke-miterlimit:10;}
	.st4{fill:none;stroke:#00FFCE;stroke-width:5;stroke-miterlimit:10;}
	.st5{fill:none;stroke:#0062FF;stroke-width:5;stroke-miterlimit:10;}
	.st6{fill:none;stroke:#C000FF;stroke-width:5;stroke-miterlimit:10;}
	.st7{fill:url(#line2_1_);}
	.st8{fill:url(#line1_1_);}
	.st9{fill:url(#line3_1_);}
	.st10{fill:url(#line4_1_);}
	.st11{fill:url(#line5_1_);}
</style>
<g id="grey_x5F_lines">
	<path class="st0" d="M75.9,624.2C36.1,562.3,13,488.6,13,409.5c0-28.1,2.9-55.5,8.5-82c0.1-0.7,0.3-1.4,0.4-2.1"/>
	<path class="st0" d="M33.1,284.5c32.1-96.9,100.4-177.3,189-225.1"/>
	<path class="st0" d="M260.8,41.2c0.9-0.4,1.8-0.7,2.7-1.1C309,22,358.6,12,410.5,12C464,12,515,22.6,561.6,41.7"/>
	<path class="st0" d="M600,60c0.8,0.5,1.7,0.9,2.5,1.4c86.2,47.7,152.9,126.4,184.8,221.2"/>
	<path class="st0" d="M798.8,324.1c0.2,0.8,0.4,1.6,0.5,2.4c5.7,26.8,8.7,54.5,8.7,83c0,79.1-23.1,152.8-62.9,214.7"/>
</g>
<g id="circles">
	<circle id="cirkel1" class="st1 cirkel1" data-num="1" cx="88" cy="642" r="21.5"/>
	<circle id="cirkel2" class="st2 cirkel2" data-num="2" cx="27" cy="306" r="21.5"/>
	<circle id="cirkel3" class="st3 cirkel3" data-num="3" cx="242" cy="48" r="21.5"/>
	<circle id="cirkel4" class="st4 cirkel4" data-num="4" cx="584" cy="48" r="21.5"/>
	<circle id="cirkel5" class="st5 cirkel5" data-num="5" cx="793" cy="305" r="21.5"/>
	<circle id="cirkel6" class="st6 cirkel6" data-num="6" cx="733" cy="642" r="21.5"/>
	<linearGradient id="cirkel2_1_" gradientUnits="userSpaceOnUse" x1="3" y1="306" x2="51" y2="306">
		<stop  offset="4.587239e-03" style="stop-color:#FF5500"/>
		<stop  offset="1" style="stop-color:#FC5603"/>
	</linearGradient>
</g>
<g id="colored_x5F_lines">
	<linearGradient id="line2_1_" gradientUnits="userSpaceOnUse" x1="31.1016" y1="170.7661" x2="224.7354" y2="170.7661">
		<stop  offset="4.587239e-03" style="stop-color:#FC5400"/>
		<stop  offset="1" style="stop-color:#43F900"/>
	</linearGradient>
	<path id="line2" class="st7" d="M35.9,285.2l-4.8-1.4c3.5-12,23.8-74.8,76-134.4c48.8-55.7,82.3-74.5,109.1-89.6c2-1.1,4-2.3,6-3.4
		l2.5,4.3c-2,1.1-4,2.3-6,3.4c-26.5,14.9-59.6,33.5-107.8,88.6C59.3,211.5,39.4,273.4,35.9,285.2z"/>
	<linearGradient id="line1_1_" gradientUnits="userSpaceOnUse" x1="10.3859" y1="476.3557" x2="77.6934" y2="476.3557">
		<stop  offset="4.587239e-03" style="stop-color:#FF5500"/>
		<stop  offset="1" style="stop-color:#FF0000"/>
	</linearGradient>
	<path id="line1" class="st8" d="M73.3,625.7c-1.5-2.8-3.2-5.8-5-9C51.4,586.5,23,536,13,456.8c-6.7-53,0.9-104.1,6-129.8l4.9,1
		c-5.1,25.4-12.6,75.9-6,128.2c9.9,78.3,37.9,128.2,54.7,158c1.8,3.2,3.5,6.2,5,9.1L73.3,625.7z"/>
	<linearGradient id="line3_1_" gradientUnits="userSpaceOnUse" x1="262.4712" y1="26.8168" x2="564.502" y2="26.8168">
		<stop  offset="4.587239e-03" style="stop-color:#00FF00"/>
		<stop  offset="1" style="stop-color:#00FFE6"/>
	</linearGradient>
	<path id="line3" class="st9" d="M562.5,44.8C531.8,31.3,477,16.2,415.4,14c-58.8-2.1-123.8,16.5-150.9,28.8l-2.1-4.6
		C297,22.6,362.4,7.1,415.6,9c62.3,2.2,117.8,17.6,148.9,31.2L562.5,44.8z"/>
	<linearGradient id="line4_1_" gradientUnits="userSpaceOnUse" x1="600.2217" y1="170.8096" x2="789.8789" y2="170.8096">
		<stop  offset="4.587239e-03" style="stop-color:#00FFEC"/>
		<stop  offset="1" style="stop-color:#0062FF"/>
	</linearGradient>
	<path id="line4" class="st10" d="M785.1,283.3c-10.7-33.3-35.7-84.7-73.5-129.1c-36.3-42.7-68.3-65.9-111.4-91.5l2.6-4.3
		c43.5,25.9,75.9,49.3,112.6,92.5c48.2,56.6,69.2,114.5,74.5,130.9L785.1,283.3z"/>
	<linearGradient id="line5_1_" gradientUnits="userSpaceOnUse" x1="742.3291" y1="477.4045" x2="810.6321" y2="477.4045">
		<stop  offset="0.4611" style="stop-color:#B400FF"/>
		<stop  offset="0.5254" style="stop-color:#AE03FF"/>
		<stop  offset="0.6082" style="stop-color:#9E0CFF"/>
		<stop  offset="0.7013" style="stop-color:#841AFF"/>
		<stop  offset="0.8019" style="stop-color:#5F2EFF"/>
		<stop  offset="0.9073" style="stop-color:#3048FF"/>
		<stop  offset="1" style="stop-color:#0062FF"/>
	</linearGradient>
	<path id="line5" class="st11" d="M746.7,627.7l-4.3-2.5c2.7-4.8,5.5-9.6,8.3-14.2c20-34,37.4-66.1,50.4-144.1
		c9-54,3.1-99.1-2.4-126c-1-5-1.9-9.2-2.5-13l4.9-0.9c0.7,3.7,1.5,8,2.5,12.9c5.6,27.3,10.9,71.8,3.5,127
		c-9,67-31.9,112.2-52.1,146.6C752.2,618.2,749.4,623,746.7,627.7z"/>
</g>
</svg>
