<?xml version="1.0" encoding="utf-8"?>
<!-- Generator: Adobe Illustrator 23.0.2, SVG Export Plug-In . SVG Version: 6.00 Build 0)  -->
<svg version="1.1" id="Layer_1" xmlns="http://www.w3.org/2000/svg" xmlns:xlink="http://www.w3.org/1999/xlink" x="0px" y="0px"
	 viewBox="0 0 1280 1024" style="enable-background:new 0 0 1280 1024;" xml:space="preserve">
<style type="text/css">
	.st0{fill:none;stroke:#DDDDDD;stroke-width:5;stroke-miterlimit:10;}
	.st1{fill:#FFFFFF;stroke:#000000;stroke-miterlimit:10;}
	.st2{fill:#FFFFFF;stroke:#BABABA;stroke-width:5;stroke-miterlimit:10;}
	.st3{fill:#FFFFFF;stroke:#0DFF00;stroke-width:5;stroke-miterlimit:10;}
	.st4{fill:#FFFFFF;stroke:#C000FF;stroke-width:5;stroke-miterlimit:10;}
	.st5{fill:#FFFFFF;stroke:#F73131;stroke-width:5;stroke-miterlimit:10;}
	.st6{fill:#FFFFFF;stroke:#0062FF;stroke-width:5;stroke-miterlimit:10;}
	.st7{fill:#FFFFFF;stroke:url(#cirkel2_1_);stroke-width:5;stroke-miterlimit:10;}
	.st8{fill:#FFFFFF;stroke:#00FFCE;stroke-width:5;stroke-miterlimit:10;}
</style>
<path class="st0" d="M1011,459.9c0.2,0.9,0.4,1.7,0.6,2.6c5.5,26.5,8.5,53.9,8.5,82c0,79.4-23.3,153.3-63.4,215.4"/>
<path class="st0" d="M814.8,196.5c86.3,47.8,152.9,126.7,184.7,221.6"/>
<path class="st0" d="M475.5,175.1C521,157,570.6,147,622.5,147c53.5,0,104.6,10.6,151.2,29.8c0.6,0.2,1.2,0.5,1.8,0.7"/>
<path class="st0" d="M245.1,419.5c32-96.7,100.1-176.9,188.4-224.7c1.1-0.6,2.1-1.1,3.2-1.7"/>
<path class="st0" d="M300.4,777.5C253,712,225,631.5,225,544.5c0-27.4,2.8-54.2,8.1-80.1c0.2-1.1,0.4-2.2,0.7-3.2"/>
<path class="st1" d="M945,777"/>
<path class="st2" d="M240.5,654.5"/>
<circle id="cirkel1" class="st5 cirkel1" data-num="1" cx="300" cy="778" r="21.5"/>
<circle id="cirkel2" class="st7 cirkel2" data-num="2" cx="239" cy="442" r="21.5"/>
<circle id="cirkel3" class="st3 cirkel3" data-num="3" cx="454" cy="184" r="21.5"/>
<circle id="cirkel4" class="st8 cirkel4" data-num="4" cx="796" cy="184" r="21.5"/>
<circle id="cirkel5" class="st6 cirkel5" data-num="5" cx="1005" cy="441" r="21.5"/>
<circle id="cirkel6" class="st4 cirkel6" data-num="6" cx="945" cy="778" r="21.5"/>
<linearGradient id="cirkel2_1_" gradientUnits="userSpaceOnUse" x1="215" y1="442" x2="263" y2="442">
	<stop  offset="4.587239e-03" style="stop-color:#FF5500"/>
	<stop  offset="1" style="stop-color:#FC5603"/>
</linearGradient>
</svg>
