<svg xmlns="http://www.w3.org/2000/svg" viewBox="0 0 278 278.39">
  <g id="Layer_2" data-name="Layer 2">
    <g id="Layer_1-2" data-name="Layer 1">
      <g>
        <path d="M126,.47a146.36,146.36,0,0,0-27,5.3c-9.5,2.7-21.6,7.8-21,8.8.3.4-.2,1.1-1.1,1.4s-1.2.2-.9-.4c1.3-2.1-1.5-.8-10,4.5-32.3,20.3-54.4,51.4-63.3,88.8-2.3,9.9-2.6,13.3-2.7,29.7,0,14.2.4,20.4,1.8,26.9,7.3,33.7,23.9,61.5,49,81.7,48.3,38.8,114.1,41.7,165.9,7.2,11.2-7.5,29.1-25.1,36.5-35.9,8.1-11.9,16.9-30.8,19.8-42.6,2.5-10.1,5.6-29.4,4.9-30.2-.5-.5-.9,1-3.2,12.9-1.1,5.8-2.8,14.1-3.6,18.5-3.6,18.4-21.9,47.9-34.2,55.2-3.4,2-5.4,2.8-5.4,2a4.14,4.14,0,0,1,.9-2.3c1.6-1.5,4.3-14.6,4.1-19.8-.1-3.7.7-6.6,3.1-11.4,4.2-8.6,4.4-15.8.5-22.4-2-3.5-2.5-5.2-1.8-6.5a14.91,14.91,0,0,0,.8-5.8c-.1-3.9-.2-4-3.3-3.8-2.4.2-3.5-.2-4.3-1.7-1.3-2.4-3.4-2-9.2,1.6a16.32,16.32,0,0,1-6.9,2.4,13.83,13.83,0,0,0-5.9,1.7c-2.8,1.6-3,1.6-6.7-.8a41.84,41.84,0,0,0-5.6-3.2,6,6,0,0,1-2.6-3,17,17,0,0,0-4.3-5.2c-3.9-3.2-4.9-7-3.6-12.7.5-2.3.6-4.8.2-5.7a6.35,6.35,0,0,1-.5-2.9,1,1,0,0,0-.9-1.2c-1.4,0-1.3-1.4.5-5.6a28.42,28.42,0,0,0,1.4-3.9c.1-1.7,3.7-7.3,5.9-9.1,1.8-1.5,2.5-3.1,2.7-6.4.2-2.7.9-4.8,2-5.6a5.18,5.18,0,0,0,1.9-3c.2-1.3,1.2-1.8,3.8-1.9a10.62,10.62,0,0,0,6.7-2.8,17.15,17.15,0,0,1,4.4-2.9,19.21,19.21,0,0,0,6-1.6c3.1-1.3,6.4-1.6,5.4-.5-.4.3-.2,1.2.3,1.8,1.3,1.6.2,4.5-1.6,4.5-.8,0-1.4.4-1.4,1,0,1.3,1.7,1.3,2.5,0,.7-1.1,8.6-.2,9.5,1,.3.4,2,1,3.8,1.3,3.1.6,3.2.6,3-2.6l-.3-3.2,5.1.3c4,.3,5.3,0,5.7-1.2a2.73,2.73,0,0,1,2.2-1.6c1.8,0,1.6-1-1.5-9-1.4-3.5-2-4.1-2.5-2.8-.4,1-1.2,1.8-1.7,1.8a3.69,3.69,0,0,0-2.2,1.3c-.6.7-1,1.1-.9.9s-1.5-1.9-3.4-3.7c-2.9-2.7-3.2-3.4-2-4.1a3.75,3.75,0,0,0,1.7-1.6c.9-3.9,1.5-4.8,2.9-4.6,5,.8,4.6-3.5-.5-5.7-2.1-.9-3.6-2.3-4-3.9-.7-2.9-2.4-2.5-2.4.5a1.79,1.79,0,0,0,1.5,1.9c.9,0,1.2.6.8,1.6-.6,1.6-.7,1.6-1.8,0-1.5-1.9-3.5-2.1-3.5-.3,0,.8,1.1,3.6,2.5,6.3,2.9,5.8,2.9,5.4,1.1,5.4a3.78,3.78,0,0,0-2.5,1.4c-1,1.2-.7,1.8,1.3,3.1,1.4,1,2.3,2.1,2,2.7s0,1.6.8,2.5c3.2,3.9-2.9-.7-6.7-5.1-2.7-3-5.1-4.8-7.2-5.2-1.8-.3-3.3-1-3.3-1.5s-.7-.9-1.5-.9-1.5-.5-1.5-1.1-.4-.8-1-.4c-1.9,1.2.3,3.4,6.1,6.1,4.1,2,5.5,3.1,4.5,3.6-1.4.8-8-1.7-11.9-4.4-1.5-1.1-2-1-3.3.7a3.94,3.94,0,0,1-3.4,1.7c-2.1-.3-3.6,1.3-2,2.3.6.4.1,1.8-1.2,3.6-1.6,2.1-1.9,3.2-1.1,4,1.5,1.5-.5,5.9-2.7,5.9a4.42,4.42,0,0,0-2.8,1.2c-.8.8-1.5.8-2.5,0a4.25,4.25,0,0,0-3.4-.6c-2.1.6-3.7-2.2-3.3-5.9a8.67,8.67,0,0,0-1.4-4.2c-1.8-2.7-1.6-2.9,6.5-4,4.2-.5,4.6-.8,4.2-2.8-.7-2.6-4.1-5.6-6.5-5.7-1,0-1.8-.5-1.8-1s.9-1,2.1-1,1.7-.5,1.4-1,.1-1,1-1c1.4,0,3.3-3.4,3.9-6.7.4-2.2,4.5-5.4,7.3-5.7,1.5-.2,2.9-.8,3.1-1.5a2,2,0,0,1,1.8-1.1c1.9,0,1.8-1.9-.3-4.3-1.7-2-1.7-2,0-1.4,1.3.5,1.7.3,1.4-.5a2.21,2.21,0,0,0-2.1-1.2c-2.1.2-2.1-2.5,0-3.3a5.81,5.81,0,0,0,2.5-3.1c.7-1.9.6-2.7-.8-3.7-1-.8-2-1.1-2.3-.8s.3,1.1,1.3,1.8c1.7,1.2,1.7,1.4-.5,3.5-3.6,3.4-5.8,4.4-5.8,2.6a3.57,3.57,0,0,0-2-2.6,4,4,0,0,1-2-3.5c0-1.6-.6-2.5-1.5-2.5-1.7,0-2,1.6-.5,2.5a1.1,1.1,0,0,1,.5,1.5c-.9,1.5.7,4.1,3.6,5.5,1.7.9,2.6,2.1,2.3,2.9a1.78,1.78,0,0,0,.5,2.1c.6.3,1.1.1,1.1-.6s.2-1,.5-.7c.8.8-2.7,7.8-3.6,7.2-.5-.2-.6-1-.4-1.7s-1-2.3-2.6-3.6l-3-2.4-.6,2.2c-.7,2.8-1.9,2.7-5.5-.9-2.2-2.2-2.8-3.5-2.2-4.8,1-2.2.8-9.3-.3-10.1s-1.3-4.2-.2-3.5c.5.3.9-.3.9-1.4,0-1.6.8-1.8,6.3-1.7,3.5.1,6.9.5,7.5.9,2,1.2,1.3,2.9-.8,2.3-1.1-.3-2-.1-2,.4s.9.9,1.9.9,2.3.4,2.6,1a3.11,3.11,0,0,0,2.3,1c1.5,0,1.5-.2.2-1s-1.3-1,0-1,1.1-.3-.2-1.1a3.53,3.53,0,0,1-1.8-2.8,4.68,4.68,0,0,0-1.4-3.1,5.93,5.93,0,0,1-1.8-3.3c-.4-2.9-9.2-7.6-22.8-12.1C165,1.37,143.5-1.13,126,.47Zm41.7,6c14.9,3.4,26,7.7,28.6,11.1,1.3,1.7,3.1,3,4,3.1,1.4,0,1.3.2-.3.8a4.41,4.41,0,0,1-2.8.4c-1.5-.9-6.4,1.8-7.7,4.2a8.84,8.84,0,0,0-.6,5.7c1,4.6,1.1,8,.2,9.9-1,2.2,3.2,7.9,7.7,10.2,3.5,1.8,4.5,3.5,3,5s-11.3-6.6-11.3-9.4a2.86,2.86,0,0,0-1-2.4c-.6-.3-.7.1-.4.9s.1,1.6-.5,1.6a1,1,0,0,1-1.1-1c0-.5-1.2.2-2.7,1.6a8.32,8.32,0,0,0-3,6.7c-.1,2.3-.3,5.3-.4,6.6a6.83,6.83,0,0,0,2,4.4c1.6,1.6,2.5,1.8,4.3,1,2-.9,2.6-.5,5,2.8,1.5,2,3.6,4,4.7,4.4,3.2,1,2.5,2.5-1.2,2.5-4.7,0-7.4,3.1-5.9,6.6a12.65,12.65,0,0,1,1.2,5c0,3.1,3.5,8.4,5.6,8.4,1.9,0,1.8,1.9-.2,4.1-.9,1-1.8,3.6-2.1,5.9-.5,3.4-.9,4.1-2.4,3.7a3,3,0,0,0-2.9.8c-.7.8-2.4,1.2-4,1-2.3-.3-2.8,0-2.3,1.3s.2,1.4-1.3.9c-1.8-.7-1.8-.6-.2.6,1,.8,1.5,1.7,1.1,2s.6.7,2,.7c2.8,0,3.7,2.5,1.8,4.5s-3.3,8.5-2.2,9.9c.9,1.1,1.5,8.6,1,12.6-.6,4.8.3,7.3,4.5,11.3a40.35,40.35,0,0,1,5.5,6.4,10.19,10.19,0,0,0,3.8,3.6c1.6.8,4.2,2.2,6,3.3,3,1.8,3.3,1.8,6.8.1a19,19,0,0,1,6.5-1.7c1.7,0,5.1-1.3,7.7-2.9,4.6-2.9,4.8-2.9,6.1-1a4.73,4.73,0,0,0,3.3,1.9c1.6,0,1.9.7,1.9,5.2a16.83,16.83,0,0,0,2,8.6c3.1,5.1,2.7,13.5-1,21.4-2,4.2-3,7.9-3,11,0,4.7-1.3,12.2-3.2,19-.9,3.2-.8,4.1.6,5.7,1.7,1.9,1.5,2.1-6,8.1-14.4,11.5-26.3,18-42.7,23.5-15.2,5.1-26.7,6.8-44.8,6.9-14,0-15.9-.3-19-2.1-2.4-1.5-4-1.8-5.5-1.3-1.2.5-4.2.4-6.7-.2-4.6-.9-5.9-2.1-3.4-3.1.6-.3-.2-.6-2-.6-5.4-.2-18.3-6.8-18.3-9.4,0-.6-.8-1.6-1.7-2.4s-1.2-1.2-.5-.8c1.4.7,1.5.4.6-2-.5-1.2-.9-1.3-1.4-.5-.9,1.4-4.6-5.9-5.3-10.5-.3-1.7-1.6-7.1-3-12s-2.7-10.3-2.9-11.9c-.2-2.2-1.8-4.1-6.2-7.6-5.8-4.4-7.2-6.3-13.9-18.4-1.7-3.2-3.8-6.8-4.4-8-1.1-1.8-1-2.3.5-3.4s1.4-1.4.3-2.1c-1.5-1-.7-8.1.9-8.1.6,0,1-.6,1-1.4a2.53,2.53,0,0,1,1.5-2c1.9-.7,1.8-7.7-.2-12.4-1.4-3.3-3.3-3.5-3.3-.4,0,1.1-1,.6-3.5-1.8-1.9-1.9-3.5-4-3.5-4.8s-.4-1-1-.7-1-.5-1-1.9c0-3.6-2-7.5-4.3-8.2-1-.3-2.8-2.6-3.8-5-1.2-2.7-2.4-4.1-3.3-3.8-1.6.6-6.3-6-7.6-10.7a9.19,9.19,0,0,1-.1-5.9c.6-1.4,1.2-7,1.4-12.5A100.76,100.76,0,0,1,19,86.57c.5-1.8.4-2.1-.3-1.1-.6.8-1.6,5.3-2.3,10s-1.6,9-2,9.5-.9,4-.9,7.6c0,5.6.5,7.4,3.3,12,1.7,3,4.2,5.9,5.4,6.5a7.54,7.54,0,0,1,3.4,3.8,12.88,12.88,0,0,0,3.5,4.4c1.3.8,2.9,3.3,3.4,5.5,1.2,4.4,10.2,14.4,11.9,13.3,2.1-1.3,1.2,7.5-1.1,10.8-3.3,4.7-3.6,15-.4,19.7,1.3,1.9,4,6.6,6.1,10.5,4.4,8.3,5.6,9.8,11.4,14,4.3,3.2,4.5,3.5,7.3,14.6,1.6,6.3,3.2,12.9,3.5,14.8s2.7,7.1,5.4,11.7,4.5,8.4,4.1,8.4a72.34,72.34,0,0,1-8.4-4.4c-25-14.2-45.1-35.5-56.7-59.9-8.6-18.2-12-32.7-12.8-54.2-.4-13.4-.2-17.9,1.5-28,2-11.3,6.5-26.9,9.1-31.1,1.3-2.1,1.2-.4-.9,11.4-1.2,6.4-.8,9.8,1,8.7.5-.3.9-1.8,1-3.3a41.72,41.72,0,0,1,1.2-10.2c1.3-3.5,4.8-15.6,4.8-16.2a37.42,37.42,0,0,1,2.5-6.1c2.4-5.3,7.3-12.2,13.1-18.2,1.6-1.7,2.8-3.3,2.7-3.6-.3-1,10.6-13.1,15.9-17.6,6.3-5.5,19.5-13.6,20.8-12.8.5.3.8,2,.5,3.7-.7,4-.8,4.1-.6,5.6a.72.72,0,0,0,1.1.7,2,2,0,0,0,.9-1.8c-.3-2.8.2-3.6,1.8-3,1,.4,1.4.2.9-.5-.3-.6.2-1.5,1.1-2.1,1.7-1,1.7-1-.2-1.2-1.5,0-1.1-.4,1.4-1.5,3.6-1.6,5-1.2,3.4.8a16.87,16.87,0,0,0-1.7,3.3c-.6,1.6-.5,1.8.5.7a5.32,5.32,0,0,1,2.9-1.2c.9,0,.4.7-1.3,1.8-2.1,1.3-2.6,2.3-2.2,3.8s-.1,2.4-1.1,2.8c-1.3.5-1.4.4-.6-.7,1.4-1.7.6-2.8-1.6-2-1.1.5-1.3.3-.7-.7s.4-1.1-.3-.6c-3.5,2.1,1.2,6.5,4.8,4.6,1.1-.6,2-1.5,2-2s.9-1.4,2-2c1.6-.9,1.8-.8,1.4.5-.4.8-1,1.5-1.5,1.5s-.6.7-.2,1.6a2.38,2.38,0,0,1-.8,2.6c-1,.7-.9.8.6.3a40.74,40.74,0,0,1,4.5-1.3c2.4-.5,2.5-.4.7,1.6s-5.7,3.6-5.7,2.2c0-.5-2.2.3-5,1.6a30.1,30.1,0,0,1-6.2,2.4c-2.2,0-7.9,4-7.3,5.1.4.5.1,1.6-.5,2.4-1,1.2-.9,1.5.4,1.5A1.48,1.48,0,0,1,70.5,49a4.25,4.25,0,0,0,1.8,2.8C74,53,75,58,73.3,57c-.4-.3-.8.4-.8,1.5,0,3.1,2.9,2.6,4.1-.7a8.54,8.54,0,0,1,4.2-4.2c2-1,3.1-2.2,3-3.3a6.08,6.08,0,0,1,1.8-3.8c2-2,2.6-4.5.9-3.4-.5.3-1,.1-1-.4s-.7-1.1-1.7-1.1-1.4-.3-1.1-.6c.7-.7,9.7,2.3,11.5,3.8a3.55,3.55,0,0,1,.7,3.3c-.8,3.3,1.4,4.1,4.1,1.5l2.3-2.1.6,4.5a13,13,0,0,0,3.9,7.7c3.1,3.1,3.1,3.2,1.4,6.1s-1.6,3,.3,3.5c1.3.3,2,1.2,1.8,2.2-.2,1.2-1.6,1.6-5.1,1.7-2.6.1-4.7-.1-4.7-.5a17.2,17.2,0,0,1,3-3.5c3.5-3.4,3.4-4.1-.5-2.6a17.44,17.44,0,0,1-7.4.4c-3.9-.5-5.6-.2-9.7,1.9-2.7,1.5-4.2,2.6-3.4,2.7a4,4,0,0,0,2.5-.9c1.6-1.5,8.5-2.5,8.5-1.2,0,.6-1,1.1-2.2,1.1s-1.8.4-1.3.8c2.7,2,1.3,3.8-4.8,5.7-4.6,1.5-6.2,2.4-6.1,3.8s-.6,1.7-3.2,1.7c-2.3,0-3.7.6-4.4,2-.6,1.1-1.5,1.8-2.1,1.5s-.9.2-1,1.2c0,1.6-.1,1.6-.9-.2-.9-2.1-1-1.8-1.5,3-.1,1.6-.7,3.1-1.4,3.3a.82.82,0,0,0-.5,1.3c.3.5.2.9-.3.8-2.3-.4-4.2.4-7.3,2.9-2.9,2.5-3.4,3.5-3.7,8.3a33.73,33.73,0,0,1-.8,6.9c-1,2.4-2.6-.9-2.4-5,.2-5.8-.1-7.1-1.1-6.5-.6.3-1.7-.1-2.6-.9-2-2.1-4.2-2-4.6.1-.3,1.5-.6,1.4-2.5-.6-2.9-3.1-5.6-2.1-9,3.2-2.5,4-4.4,13.5-3.5,17.9.6,2.9,5.6,2.3,7-.7,1.2-2.6,2.7-3.1,5-1.6,1.1.6.9,1.5-.7,4.5a15,15,0,0,0-2.1,5.1c0,.8-.5,1.5-1.1,1.5s-.7.4-.4,1a3.94,3.94,0,0,0,2.9,1c3.1,0,5.6,2.9,4.6,5.5-2.6,6.2.1,14,4.4,12.9a3.13,3.13,0,0,1,3.8,1.5c1.6,2.3,2.8,1.6,4.1-2.2.4-1,1.1-1.6,1.5-1.3s2.1-.2,3.7-1c2.8-1.4,5.1-1,2.6.5q-1.35.9-.3,1.5c.6.4,1.7,0,2.4-.7,1-1.1,1.5-1.2,2.5-.1a4.2,4.2,0,0,1,1.3,2.3c0,.6,1.1,1.1,2.4,1.1s2.8.5,3.1,1,1.7.7,3,.4c2.7-.7,3.5-.1,10.8,7.3,4.1,4.2,5.8,5.3,8.4,5.3,3.8,0,10.3,5.1,10.3,8.1,0,1,.5,1.9,1,1.9,1.7,0,1.1,2.7-.7,3.4-1.3.5-1.4.9-.3,1.9.9.9,1.4.9,1.7.1.5-1.3,4.3-.6,4.3.7,0,.6-.7,1.2-1.5,1.5s-1.5,1.1-1.5,1.7,1,.1,2.3-1c2.1-2,2.4-2,6-.6,2,.8,3.7,2,3.7,2.7s2.3,1.2,5.8,1.4c4.1.2,6.7,1,9.3,2.7,1.9,1.4,4.4,2.5,5.6,2.5a3,3,0,0,1,2.7,1.6c1.4,3.6.4,6.1-4.4,11.1-2.8,2.9-4.7,5.8-4.5,6.6s-.1,3-1,5-1.3,3.7-1,3.7-.2,1.4-1.2,3c-1.8,3.2-2.4,3.4-8.8,4.5-5.5.9-8.5,3-8.5,6.1,0,1.6-1.5,4-4.5,6.9-4.3,4.1-4.7,4.3-8.1,3.3-4.4-1.2-5.3-.6-1.9,1.2s2.6,3.5-1.9,3.5c-3.1,0-3.6.3-3.2,1.8s0,1.6-1.5,1.2c-1.8-.6-1.9-.5-.7,1.4s1.1,2.3-.2,3.1-1.1,1.1.8,1.6,2,.9,1.1,2c-.7.8-1,1.6-.8,1.8,1.4,1.2,7.1,3.6,8.6,3.6s1.6-.2-.2-1.6c-1.1-.8-2.5-1.8-3.2-2.2s-1.4-2.3-1.8-4.3c-.6-3.4-.5-3.7,2.2-4.6,5.6-2,17.1-13,17.9-17.2.5-2.6,1.2-3,6.5-4.1,7.5-1.6,10.9-5.2,12.9-13.5,1-4.5,2.6-7.5,6.2-11.8q4.8-5.85,4.8-8.7c0-3.3-3.4-8-5.8-8-1,0-3.3-1.1-5.2-2.3a21.91,21.91,0,0,0-8.1-3,33.53,33.53,0,0,1-9.1-3,60.41,60.41,0,0,0-6.7-3c-1.3-.3-2.9-2.2-4.1-4.9-2.7-6.2-8.2-10.8-12.9-10.8-2.8,0-10.1-6.7-10.1-9.4-.1-2.1-.1-2.1-1.5-.2-.8,1.1-1.8,1.6-2.2,1.1s-.2-1,.5-1.2a2.14,2.14,0,0,0,1.2-1.7,1.5,1.5,0,0,0-1.2-1.4c-10.1-.7-12.1-1.2-14.5-3.3-3.3-3.2-11.2-3.3-14.6-.1-1.6,1.5-2.7,1.8-3.7,1.2a9,9,0,0,0-3.9-1c-2.3,0-2.4-.1-1.8-6.6s.6-6.7-2.4-9.5-3-2.8-1.4-5.9c1.1-2.1,2.1-3,3.1-2.6a11.54,11.54,0,0,0,2.9.6c2.5,0,4.6,3.1,4,5.9-.7,3.5,2.6,7.1,4.9,5.2,1.1-.9,2.1-.8,4.7.7a16.44,16.44,0,0,0,7.2,1.6c2-.1,4,.2,4.3.7,1.1,1.8,4.1.9,5.2-1.6,1-2.1.9-2.6-.8-3.5a9.07,9.07,0,0,0-2.9-1c-1.4,0-6.7-5-6.4-6.1.2-.4-1.5-2.3-3.7-4s-3.7-3.6-3.3-4.2.1-.7-.5-.3-1.4-.4-1.8-1.6a6.42,6.42,0,0,0-1.8-3c-.6-.5-.1-.8,1.3-.8,1.8,0,2.2.4,1.6,1.7-.5,1.5-.4,1.6.7.5s.9-1.7-1-3.2-2.3-2.7-2-5.2c.3-2.8,1-3.7,5.3-5.9a16.42,16.42,0,0,0,7.1-6.3c2.3-4,6.8-7.6,9.6-7.6a4.41,4.41,0,0,0,3-1.8c2-2.8,3.7-3.5,5.4-2.2,1.8,1.6,9.3-.3,13-3.3,2.2-1.7,3-1.8,7-.8,3.7,1,4.7.9,5.9-.3,1.9-1.9,1.9-7,.1-8.5q-1.5-1.2-.9-4.5c.4-2.6,0-3.9-1.7-5.6a18,18,0,0,1-3.6-6.6c-1.4-4.7-1.3-4.9,5.6-10.3l2.5-1.9-1.9-3.9c-1-2.1-2.5-5-3.2-6.5-1.8-3.3-1.7-3.5.2-4.2a5,5,0,0,1,3.7.9,8.69,8.69,0,0,0,3.9,1.5c1.4,0,1.8.8,1.8,4a19.84,19.84,0,0,1-1.1,6.4c-1.8,3.8,2.9,13.2,7.5,15.1,5.2,2.2,6.2,1.9,9.5-2.9,2.1-3,4.1-4.7,6.1-5.1,1.6-.4,3.3-1.1,3.6-1.6.6-1.1,3.3-2.2,7.7-3.3,1.9-.4,2.6-.3,2.2.4-.3.5.7,2.4,2.4,4a9,9,0,0,0,12.5.9c5.6-4.4,1.6-9.3-6.7-8.3-3.9.5-4.8.4-4.2-.6,1.2-2,1.4-10.3.2-12.5a16.12,16.12,0,0,1-1.1-4.9c-.1-3.1-.1-3.1-8.5-4.3a54.45,54.45,0,0,0-13.8-.3,19.08,19.08,0,0,1-10.1-.6c-5.5-1.7-18-1.9-21.6-.3-2,1-2.8.9-4.1-.5a5.65,5.65,0,0,0-3.3-1.6c-5.9,0,11.6-5,24.8-7C129.1,3.07,157.9,4.17,167.7,6.47Zm-70.2,8.4c0,.5-1.1.7-2.5.5a3.81,3.81,0,0,0-3.7,1c-1,1.3-1,1.4-.1.8,1.4-.8,4.7,1.2,5.1,3.1.4,2.2-2,1.4-2.5-.8-.3-1.1-.9-1.6-1.2-1s-1.6.8-2.8.5c-1.9-.5-2-.9-1.1-2.9s1.8-2.4,4.9-2.2C95.8,14,97.5,14.37,97.5,14.87Zm9.6,2.2c-.4,1.4-.2,2.5.4,2.5a1.08,1.08,0,0,0,1-1c0-.6.8-1.1,1.8-1.1,1.6-.1,1.6-.2-.1-.6-.9-.2-1.5-.8-1.2-1.2.6-1.1,9.8-.3,13.2,1.1s13.3,1.8,14.9.6c1.3-.9,11.4.2,11.4,1.2,0,.5-1,.6-2.2.4-2.1-.4-2.1-.3-.3.4,1.2.6,2.8.4,4.5-.5,4-2,5.8-1.7,3.2.7-2.2,2-2.9,4.1-1.4,3.9,1.8-.3,3.2.2,3.2,1.1,0,.5-.8.6-1.7.3-1.5-.6-1.6-.5-.3.9a3.37,3.37,0,0,0,3,1c1.1-.4,1-.1-.3,1.2-1,1-2.4,1.5-3.2,1.2s-1.5,0-1.5.7,1.2,1.8,2.8,2.3l2.7,1-3.5,2.2a14.65,14.65,0,0,1-6.1,2.2,6.89,6.89,0,0,0-4.4,2c-1,1.1-2.6,2-3.4,1.8-2.9-.4-6,1.2-5.4,2.8.3.7,0,1.4-.6,1.4s-1.7,1.3-2.2,3-1.7,3-2.5,3c-3.4,0-7.2-3.1-8.8-7.1-1.9-4.7-1.3-7.9,1.5-7.9,1,0,1.9-.5,1.9-1.1s-.9-.8-2-.4-2,.2-2-.4,1-1.1,2.3-1.1c2-.1,2.1-.2.5-1.4a5.34,5.34,0,0,1-1.8-3.9c0-2.6-1.6-3.7-5.6-3.7-1.3,0-2.4-.5-2.4-1s.6-1,1.3-1,.7-.4-.3-1-.8-1,1.6-1a15.18,15.18,0,0,0,6-1.5c2.9-1.5,2.9-1.5.4-1.5a38,38,0,0,0-8,2c-3,1-5.9,1.6-6.4,1.3s-.6-.1-.1.7c.6,1,.4,1.2-.9.7a10.3,10.3,0,0,0-3.2-.7c-.8,0-1.4-.4-1.4-.9s.9-.8,2-.6,2,0,2-.5-.8-1-1.7-1.2c-1.5-.3-1.5-.4.1-2.1C106.4,13.77,107.8,14.17,107.1,17.07Zm94,.6c.9,1.5-2.3,1-3.5-.5-1-1.2-.8-1.3.9-.9A5.22,5.22,0,0,1,201.1,17.67Zm-99.6-.1a1,1,0,0,1-1,1c-.5,0-1,.9-1,2,0,1.5.7,2,2.5,2,1.4,0,2.5.4,2.5,1,0,1.3-1,1.3-4.8-.1-2.3-.8-2.9-1.5-2.4-2.7C98.5,17.47,101.5,15.27,101.5,17.57Zm-9.4,4.9c-.4.5.4.7,1.6.3,1.4-.3,1.9-.1,1.4.6s-2.2,1.1-4.1,1c-3.5-.1-4.6-1.2-2.2-2.1C90.8,21.37,92.7,21.47,92.1,22.47Zm114.4,1.1c0,.5-.2,1-.4,1s-.8-.5-1.1-1-.1-1,.4-1A1,1,0,0,1,206.5,23.57Zm-105.2,2c1.4,0,2.2.6,2.2,1.6s1,2.5,2.2,3.6c1.9,1.6,2,2.1.8,2.9-1.6,1-1.5,1,3,3.9,1.3.9,1.3,1.1,0,2-1.9,1.3-4,1.3-4,0,0-.6-.7-1-1.6-1-1.3,0-1.4.3-.4,1.5,1.6,1.9.5,5.4-1.2,3.7-2.1-2.1-3.2-1.3-1.2.9l1.9,2.2-3.2-1.7a11.4,11.4,0,0,1-4.3-3.6,4,4,0,0,0-3.1-2c-1.2,0-1.7-.4-1.3-1.1s1.6-.8,2.8-.5a5.55,5.55,0,0,0,4.4-1.3c2.1-1.5,2.2-2,1.2-4.3-.8-1.6-1.8-2.4-2.9-2.1a5,5,0,0,1-3.5-1c-1.7-1.3-1.7-1.4-.1-3.1A4.23,4.23,0,0,1,96.9,25,21.21,21.21,0,0,0,101.3,25.57Zm-3.3,9a2.14,2.14,0,0,1-1.6,1,1,1,0,0,1-.9-1c0-.6.7-1,1.6-1S98.3,34,98,34.57Zm-10.5,4.3c0,1.5-.3,1.8-.8.9a2.11,2.11,0,0,0-2.5-.6c-2.2.8-2.2-.5,0-2.2C86.4,35.47,87.5,36.07,87.5,38.87Zm74.3,1.6c3.2-.9,6.7-.4,6.7,1,0,1.1-4.7,3.1-7.4,3.1-1.3,0-2.7-.7-3-1.6a1.56,1.56,0,0,0-2.2-1c-1.4.5-1.5.4-.4-.9.8-1,1.7-1.2,2.3-.6S159.9,41.07,161.8,40.47Zm-79.9,2c1.7,1.9,1.7,2.1-.1,4.4a16.14,16.14,0,0,1-3.7,3.7c-1.6,1-2.2.9-3.7-1.1-2.8-3.6-2.3-5.8,1.4-7.4C79.9,40.27,79.9,40.27,81.9,42.47Zm123.6,11.2a.88.88,0,0,1-.8.9c-1.5,0-3.2-2.4-3.2-4.5.1-1.9.1-1.9,2,.4A8.85,8.85,0,0,1,205.5,53.67Zm-19.4-2.5c-.4,1.2-.2,1.5.9,1,.8-.3,1.5,0,1.5.7,0,1.3,7.2,6.7,8.9,6.7.6,0,1.1.8,1.1,1.8,0,1.3-1.3,2.4-3.9,3.4-3.3,1.3-3.9,1.3-3.4.2.3-.8.1-1.4-.4-1.4s-.9-.9-.9-2,.4-2,.9-2,.4-.7-.3-1.5-1.5-1.3-1.7-1.1-1.4-.4-2.6-1.5a7.4,7.4,0,0,0-3.4-1.9,1.24,1.24,0,0,1-1.3-1.2c0-.6.3-.9.6-.5s1.3,0,2.1-.8C186.1,49.07,186.9,49.17,186.1,51.17ZM80.5,52c0,.3-.4.8-1,1.1s-1,.1-1-.4a1.1,1.1,0,0,1,1-1.1C80.1,51.57,80.5,51.77,80.5,52Zm106.4,8.3c.5,1.6.1,2.5-1.4,3.3-1.2.6-2.2,1-2.3.8s-.7-1.2-1.3-2.3c-.9-1.6-.7-2.3.9-3.8C185,56.37,185.9,56.77,186.9,60.27Zm54.8,6.5c-.7.7-1.2.8-1.2.2a2.41,2.41,0,0,1,.7-1.7.84.84,0,0,1,1.2-.2C242.6,65.37,242.3,66.17,241.7,66.77ZM96,68.57c.3.5.2,1-.4,1a2.34,2.34,0,0,1-1.6-1c-.3-.6-.2-1,.4-1A2,2,0,0,1,96,68.57Zm0,6c1.2-1,1.5-1,1.5.2,0,.9-2.2,2.1-5.6,3.2-6.5,2-8.3,1.5-3.1-1,2.1-1,3.3-2.2,3-2.8s.1-.5,1,.3C94.2,75.57,94.8,75.57,96,74.57Zm14.5,0c0,.5-.7,1-1.6,1s-1.2-.5-.9-1a1.9,1.9,0,0,1,1.6-1A.92.92,0,0,1,110.5,74.57Zm109.5,5c1.7,3.3,1.9,5,.6,5-.5,0-1.2-1.1-1.5-2.4s-.9-3.1-1.2-4C216.8,75.47,218.4,76.47,220,79.57Zm-3.2,3.5c.9,1.9,1.3,3.5.8,3.5a9.87,9.87,0,0,0-2.5.6c-1.2.5-1.5.2-1-1.1.6-1.5.3-1.6-1.7-1s-2.2.6-1-.8c.7-.9,1.8-1.4,2.5-1s.6.1-.1-.9c-1.2-1.4-.8-2.8.7-2.8C214.8,79.57,215.9,81.17,216.8,83.07Zm14.4.5c-.2,3.1-1.2,3.6-3.6,2.1-1.1-.7-.9-1,.8-1.6s2-1.2,1.5-2.7c-.4-1.3-.2-1.8.5-1.4C230.9,80.37,231.3,82,231.2,83.57Zm21.3-2a1,1,0,0,1-1,1,1.08,1.08,0,0,1-1-1,1,1,0,0,1,1-1A.94.94,0,0,1,252.5,81.57Zm-26.5,1a2.34,2.34,0,0,1-1.6,1c-.6,0-.7-.5-.4-1a2,2,0,0,1,1.6-1C226.2,81.57,226.3,82,226,82.57Zm9.5,1.1c0,.5,1.6,1.7,3.5,2.4l3.4,1.5L240.2,91c-1.7,2.6-2.6,3.2-3.9,2.5a8.7,8.7,0,0,0-3.6-.9c-2.7,0-3.4-2.4-1.1-3.8a5,5,0,0,0,1.9-3.7c0-1.4.5-2.5,1-2.5A1,1,0,0,1,235.5,83.67ZM251.1,85a5.08,5.08,0,0,1,1.4,2c0,1.1-3.9,2.6-5.4,2-1.2-.5-1.3-1-.4-3C248,83.17,249,83,251.1,85Zm-6.1.6a2.14,2.14,0,0,1-1.6,1,1,1,0,0,1-.9-1c0-.6.7-1,1.6-1S245.3,85,245,85.57ZM37.1,103.67c.3.6,1.8.9,3.3.6,3.8-.8,4.7.2,5.3,5.5.5,4.5.4,4.9-2.5,6.3-2.5,1.3-3.7,1.3-6,.4-2.5-1.1-3.1-.9-5.7,1.6l-3,2.9v-5.3c0-6.3,3.1-13.1,6-13.1A3.5,3.5,0,0,1,37.1,103.67Zm152,10.6c-1,1-1.9-.5-1-1.8.6-1.1.8-1.1,1.2,0A2.09,2.09,0,0,1,189.1,114.27Zm-3.7.2c.9.6.6.8-1.3.8-1.4,0-2.3-.3-2-.8C182.8,113.37,183.6,113.37,185.4,114.47Zm-130.9,2.3c0,1.8-.2,2-.9.8a2.51,2.51,0,0,1-.5-2.2C54,114,54.5,114.47,54.5,116.77Zm-1.7,5.5c2.9,2.6,5.4,4.9,5.6,5s.2.5-.1.8c-.9.9-5.8-.6-5.2-1.6a.55.55,0,0,0-.5-.9,1.23,1.23,0,0,1-1.1-1.3c0-1.5-6.7-5.3-7.7-4.4-.3.4,0,.7.7.7s1.1.2.8.5a2.43,2.43,0,0,1-2.2-.1c-1.3-.5-1.4-.9-.5-2C44.6,116.47,47.5,117.47,52.8,122.27Zm5.4-2.4a14,14,0,0,0,3.7,3.1l3,1.9-2.3.9c-1.3.5-2.6.6-2.9.3s0-.5.6-.5a1.13,1.13,0,0,0,1.2-1c0-.6-.6-1-1.4-1a2.34,2.34,0,0,1-2-1.6c-.3-.8-1-1.2-1.6-.9s-1-.1-1-.9C55.5,118.27,57.1,118.07,58.2,119.87Zm8.6,11.5c2.5,2.2,2.1,2.7-1.5,2.5a18.8,18.8,0,0,1-3.3-.3,5.76,5.76,0,0,0-1.8-.5,4.86,4.86,0,0,1-2.5-1.1c-.4-.4.1-.4,1.2,0,1.5.5,1.7.2,1.3-1.4s-.2-1.9,2.1-1.4A14.53,14.53,0,0,1,66.8,131.37Zm-12.7.9c-.8.8-3.6-.5-3.6-1.7,0-.7.6-.7,2.1,0C53.7,131.27,54.4,132,54.1,132.27Zm19.4,2.3c1.2.8,1.1,1-.7,1-1.3,0-2.3-.5-2.3-1C70.5,133.27,71.6,133.27,73.5,134.57Zm43,140c0,.5-.6,1-1.4,1a2.82,2.82,0,0,1-2.1-1c-.3-.6.3-1,1.4-1S116.5,274,116.5,274.57Z"/>
        <path d="M172.9,14c-5.9,2.6-5.3,6.2,1.6,8.5,3.1,1,3.6.9,5.9-1.4l2.5-2.5-2.9-3C176.7,12.17,177,12.17,172.9,14Zm4.6,1.6c0,.5-.7,1-1.6,1-1.2,0-1.1.5.7,2,1.3,1,1.9,1.9,1.2,2a2.53,2.53,0,0,1-1.8-1,1.22,1.22,0,0,0-1.6-.5c-.5.4-1.7.1-2.6-.4-1.7-1-1.7-1,0-1.1.9,0,1.7-.4,1.7-.9s.8-1.2,1.8-1.4,1.8-.5,2-.6S177.5,15,177.5,15.57Z"/>
        <path d="M62.1,32.07c-2.1,1.6-.9,2.4,2,1.6,1.7-.5,1.9-.9,1-1.7S63.4,31.17,62.1,32.07Z"/>
        <path d="M176.7,45.27a3,3,0,0,0,1.8,2.1c1.3.5,1.3.3,0-1.3s-1.3-1.8.3-1.2c1.1.4,1.6.3,1.2-.3C179,42.87,176.3,43.47,176.7,45.27Z"/>
        <path d="M56.5,51.67c-1.3,2.4-.4,4.1,1,1.9,1-1.6,1.3-4,.5-4A5.32,5.32,0,0,0,56.5,51.67Z"/>
        <path d="M57.7,63.67c-2.9.9-3.7,3.3-.9,2.7a6.66,6.66,0,0,1,3.4,1c2.5,1.4,3.4.5,2.6-2.6C62.2,62.37,62.3,62.37,57.7,63.67Z"/>
        <path d="M56.5,71.57c-2.9,3.1-3.8,5-2.2,5,.4,0,2-1.6,3.6-3.6,2.1-2.7,3.1-3.3,4-2.4s.8,1.3-.1,1.8a1.35,1.35,0,0,0-.4,2c.6,1,1.1,1,2.1-.2.7-.9,1.6-1.3,2.1-1s.9-.1.9-.9a2.46,2.46,0,0,0-1.7-2,20.63,20.63,0,0,1-3.5-1.2C60,68.57,58.6,69.27,56.5,71.57Z"/>
        <path d="M62.1,77c-2.2.7-3.6,1.5-3,1.8,1.3.8,6.4-.2,6.4-1.3,0-.5,1.1-.7,2.4-.3s2.7.1,3-.5C71.8,75.27,67.2,75.37,62.1,77Z"/>
        <path d="M80.3,140.27a11.69,11.69,0,0,0,.3,4.3c.7,3.5.7,3.5.6-.8S80.9,139,80.3,140.27Z"/>
        <path d="M82.9,143.77c0,2.6.5,4.3,1,3.8s.4-2.5-.2-4.7l-1-3.8Z"/>
        <path d="M60.1,152.47c-.4.7-.5,1.5-.2,1.8.9.9,1.9-.4,1.4-1.8C60.9,151.37,60.7,151.37,60.1,152.47Z"/>
        <path d="M105.6,263.87c-1.5,1.9-.3,4.9,1.8,4.5a2.59,2.59,0,0,0,1.6-2.7C109,262.77,107.3,262,105.6,263.87Zm2.9,1.7c0,.5-.7,1-1.6,1s-1.2-.5-.9-1a1.9,1.9,0,0,1,1.6-1A.92.92,0,0,1,108.5,265.57Z"/>
        <path d="M151,33.57c-.3.5.1,1,1,1s1.3-.5,1-1-.8-1-1-1S151.3,33,151,33.57Z"/>
        <path d="M95,26.57c-.3.5-.2,1,.4,1a2.34,2.34,0,0,0,1.6-1c.3-.6.2-1-.4-1A2,2,0,0,0,95,26.57Z"/>
        <path d="M100.3,27.27a2,2,0,0,0,1.9-.1c.4-.3-.2-.6-1.3-.5S99.5,27,100.3,27.27Z"/>
        <path d="M220,38.57a2.14,2.14,0,0,0,1.6,1,1,1,0,0,0,.9-1c0-.6-.7-1-1.6-1S219.7,38,220,38.57Z"/>
        <path d="M243.5,51.17c0,1.4,2.6,5.3,6.4,9.5,2.3,2.5,4.9,5.5,5.8,6.7s2.2,2.2,2.8,2.2c1.5,0-10.5-17.6-12.5-18.4S243.5,50.37,243.5,51.17Zm5.5,4.4c1,1.1,1.3,2,.7,2s-1.6-.9-2.2-2-.9-2-.7-2A9.54,9.54,0,0,1,249,55.57Z"/>
        <path d="M254.5,70.57a1.1,1.1,0,0,0,1.1,1c.5,0,.7-.5.4-1s-.8-1-1.1-1S254.5,70,254.5,70.57Z"/>
        <path d="M246.5,74.57a1.08,1.08,0,0,0,1,1,1,1,0,0,0,1-1,.94.94,0,0,0-1-1A1,1,0,0,0,246.5,74.57Z"/>
        <path d="M264.5,83.47c0,1.3,5.2,10.3,5.7,9.8.2-.3-.7-2.8-2.1-5.6C265.6,82.77,264.5,81.47,264.5,83.47Z"/>
        <path d="M256.8,92.27c-.8.3.1,2.3,2.6,5.7,4.3,5.8,8.1,12.5,8.1,14.2a4.31,4.31,0,0,0,1.5,2.4,4.37,4.37,0,0,1,1.5,2.7,9.18,9.18,0,0,0,2,4,9.33,9.33,0,0,1,2,4.4c0,2.1,1.8,2.6,2.5.6a14.61,14.61,0,0,0-.4-4.7l-.9-3.5-.2,3c-.2,2.9-.2,2.9-1.5-1.1-1.9-5.9-7.4-16.3-11.2-21-1.8-2.3-3.3-4.6-3.3-5.2C259.5,92.37,258.3,91.77,256.8,92.27Z"/>
        <path d="M250.5,95.07c0,.8.5,1.5,1,1.5s1-.7,1-1.5-.4-1.5-1-1.5S250.5,94.27,250.5,95.07Z"/>
        <path d="M220.5,95.67c0,.5.5.7,1,.4s1-.8,1-1.1-.4-.4-1-.4A1.1,1.1,0,0,0,220.5,95.67Z"/>
        <path d="M243.5,97.57a1.1,1.1,0,0,0,1.1,1c.5,0,.7-.5.4-1s-.8-1-1.1-1S243.5,97,243.5,97.57Z"/>
        <path d="M243.2,136.37c-.3.4.1,1.5.8,2.5.8,1.2,1.5,1.4,2,.8a2.51,2.51,0,0,0-.9-2.6C244.3,136.27,243.4,135.87,243.2,136.37Z"/>
        <path d="M271.7,149.07c0,1.6.2,2.2.5,1.2a7.56,7.56,0,0,0,0-3C271.9,146.67,271.7,147.37,271.7,149.07Z"/>
        <path d="M266.5,157.67c0,.5.5.7,1,.4s1-.8,1-1.1-.4-.4-1-.4A1.1,1.1,0,0,0,266.5,157.67Z"/>
        <path d="M264.1,172.57a12.74,12.74,0,0,0,.2,5.9c1.2,3.4,1.9.7,1.2-4.9l-.6-4.5Z"/>
        <path d="M262.2,181.27a2.41,2.41,0,0,0-.7,1.7c0,.6.5.5,1.2-.2s.9-1.4.7-1.7A.84.84,0,0,0,262.2,181.27Z"/>
        <path d="M266.2,183.27c-.4,1.5-1,3.9-1.3,5.2-.5,1.6-.4,2.2.4,1.8.5-.4,1.3-2.5,1.7-4.8C267.8,180.87,267.1,179.07,266.2,183.27Z"/>
        <path d="M256.5,199.07c-.7.9-1.1,1.8-.8,2s1.1-.1,1.8-1,1.1-1.8.8-2S257.2,198.17,256.5,199.07Z"/>
        <path d="M250.1,208.17c-1.5,1.4-2.5,2.9-2.2,3.2s1.8-.7,3.2-2.2C254.6,205.77,253.7,204.87,250.1,208.17Z"/>
        <path d="M241,208.57c-.3.5-.2,1,.4,1a2.34,2.34,0,0,0,1.6-1c.3-.6.2-1-.4-1A2,2,0,0,0,241,208.57Z"/>
      </g>
    </g>
  </g>
</svg>
