<?xml version="1.0" standalone="no"?>
<!DOCTYPE svg PUBLIC "-//W3C//DTD SVG 20010904//EN"
 "http://www.w3.org/TR/2001/REC-SVG-20010904/DTD/svg10.dtd">
<svg version="1.0" xmlns="http://www.w3.org/2000/svg"
 width="900.000000pt" height="900.000000pt" viewBox="0 0 900.000000 900.000000"
 preserveAspectRatio="xMidYMid meet">
<metadata>
Created by potrace 1.10, written by Peter Selinger 2001-2011
</metadata>
<g transform="translate(0.000000,900.000000) scale(0.100000,-0.100000)"
fill="#000000" stroke="none">
<path d="M6395 6111 c-91 -18 -173 -74 -232 -158 -13 -18 -23 -38 -23 -45 0
-7 -7 -22 -15 -32 -11 -14 -15 -47 -15 -117 0 -104 19 -165 73 -238 21 -27
123 -107 259 -204 10 -6 68 -48 129 -92 281 -202 361 -260 456 -327 197 -140
274 -200 271 -209 -2 -5 -1329 -10 -3433 -12 -3248 -2 -3432 -3 -3458 -19 -14
-10 -31 -18 -37 -18 -34 0 -169 -137 -170 -172 0 -7 -7 -22 -15 -32 -21 -27
-21 -217 -1 -254 8 -15 17 -34 21 -42 25 -62 97 -132 173 -168 l57 -27 3423
-3 c2840 -2 3422 -4 3422 -16 0 -12 -107 -107 -210 -186 -25 -19 -57 -45 -70
-56 -63 -54 -219 -182 -260 -213 -25 -19 -49 -39 -55 -45 -9 -10 -176 -145
-314 -255 -127 -101 -176 -165 -210 -272 -21 -68 -7 -188 31 -260 29 -56 139
-159 169 -159 8 0 23 -7 33 -15 28 -21 224 -21 252 0 10 8 25 15 32 15 16 0
60 31 137 95 33 28 83 68 110 90 64 51 72 57 185 151 52 44 115 95 140 114 25
19 56 44 70 56 46 40 214 179 260 214 25 19 56 44 70 56 46 40 214 179 260
214 25 19 56 44 70 56 46 40 214 179 260 214 25 19 56 44 70 56 46 41 215 179
260 214 62 48 150 132 150 144 0 5 6 17 13 25 54 66 62 234 14 332 -27 56 -78
116 -132 157 -43 32 -198 144 -224 162 -13 8 -75 53 -139 99 -222 161 -341
246 -446 321 -58 41 -143 102 -188 136 -46 33 -105 75 -133 94 -27 19 -54 38
-60 43 -13 10 -174 127 -204 147 -13 8 -78 56 -146 105 -325 237 -403 291
-453 314 -48 23 -166 34 -227 22z"/>
</g>
</svg>
