<!--?xml version="1.0" standalone="no"?-->

<svg version="1.0" xmlns="http://www.w3.org/2000/svg" width="20%" height="100%" viewBox="0 0 300.000000 314.000000" preserveAspectRatio="xMidYMid meet">
<metadata>
Created by potrace 1.10, written by Peter Selinger 2001-2011
</metadata>
<g transform="translate(0.000000,314.000000) scale(0.100000,-0.100000)" fill="#000000" stroke="none">
<path class="path" d="M1375 2991 c-94 -10 -174 -25 -270 -53 -95 -27 -216 -78 -210 -88 3
-4 -2 -11 -11 -14 -8 -3 -12 -2 -9 4 13 21 -15 8 -100 -45 -323 -203 -544
-514 -633 -888 -23 -99 -26 -133 -27 -297 0 -142 4 -204 18 -269 73 -337 239
-615 490 -817 483 -388 1141 -417 1659 -72 112 75 291 251 365 359 81 119 169
308 198 426 25 101 56 294 49 302 -5 5 -9 -10 -32 -129 -11 -58 -28 -141 -36
-185 -36 -184 -219 -479 -342 -552 -34 -20 -54 -28 -54 -20 0 7 4 17 9 23 16
15 43 146 41 198 -1 37 7 66 31 114 42 86 44 158 5 224 -20 35 -25 52 -18 65
5 10 9 36 8 58 -1 39 -2 40 -33 38 -24 -2 -35 2 -43 17 -13 24 -34 20 -92 -16
-21 -13 -52 -24 -69 -24 -17 0 -44 -8 -59 -17 -28 -16 -30 -16 -67 8 -21 14
-46 28 -56 32 -9 4 -21 17 -26 30 -5 13 -24 36 -43 52 -39 32 -49 70 -36 127
5 23 6 48 2 57 -4 9 -6 22 -5 29 1 6 -3 12 -9 12 -14 0 -13 14 5 56 8 19 14
37 14 39 1 17 37 73 59 91 18 15 25 31 27 64 2 27 9 48 20 56 9 7 18 20 19 30
2 13 12 18 38 19 22 0 46 10 67 28 18 15 38 28 44 29 24 3 32 5 60 16 31 13
64 16 54 5 -4 -3 -2 -12 3 -18 13 -16 2 -45 -16 -45 -8 0 -14 -4 -14 -10 0
-13 17 -13 25 0 7 11 86 2 95 -10 3 -4 20 -10 38 -13 31 -6 32 -6 30 26 l-3
32 51 -3 c40 -3 53 0 57 12 4 9 14 16 22 16 18 0 16 10 -15 90 -14 35 -20 41
-25 28 -4 -10 -12 -18 -17 -18 -6 0 -16 -6 -22 -13 -6 -7 -10 -11 -9 -9 1 2
-15 19 -34 37 -29 27 -32 34 -20 41 9 5 16 12 17 16 9 39 15 48 29 46 50 -8
46 35 -5 57 -21 9 -36 23 -40 39 -7 29 -24 25 -24 -5 0 -10 7 -19 15 -19 9 0
12 -6 8 -16 -6 -16 -7 -16 -18 0 -15 19 -35 21 -35 3 0 -8 11 -36 25 -63 29
-58 29 -54 11 -54 -7 0 -19 -6 -25 -14 -10 -12 -7 -18 13 -31 14 -10 23 -21
20 -27 -3 -5 0 -16 8 -25 32 -39 -29 7 -67 51 -27 30 -51 48 -72 52 -18 3 -33
10 -33 15 0 5 -7 9 -15 9 -8 0 -15 5 -15 11 0 5 -4 8 -10 4 -19 -12 3 -34 61
-61 41 -20 55 -31 45 -36 -14 -8 -80 17 -119 44 -15 11 -20 10 -33 -7 -8 -11
-23 -19 -34 -17 -21 3 -36 -13 -20 -23 6 -4 1 -18 -12 -36 -16 -21 -19 -32
-11 -40 15 -15 -5 -59 -27 -59 -9 0 -21 -5 -28 -12 -8 -8 -15 -8 -25 0 -7 6
-22 9 -34 6 -21 -6 -37 22 -33 59 1 10 -6 29 -14 42 -18 27 -16 29 65 40 42 5
46 8 42 28 -7 26 -41 56 -65 57 -10 0 -18 5 -18 10 0 6 9 10 21 10 11 0 17 5
14 10 -3 6 1 10 10 10 14 0 33 34 39 67 4 22 45 54 73 57 15 2 29 8 31 15 2 6
10 11 18 11 19 0 18 19 -3 43 -17 20 -17 20 0 14 13 -5 17 -3 14 5 -2 7 -12
12 -21 12 -21 -2 -21 25 0 33 8 3 20 17 25 31 7 19 6 27 -8 37 -10 8 -20 11
-23 8 -3 -2 3 -11 13 -18 17 -12 17 -14 -5 -35 -36 -34 -58 -44 -58 -26 0 9
-9 20 -20 26 -12 6 -20 21 -20 35 0 16 -6 25 -15 25 -17 0 -20 -16 -5 -25 6
-4 8 -10 5 -15 -9 -15 7 -41 36 -55 17 -9 26 -21 23 -29 -3 -8 -1 -17 5 -21 6
-3 11 -1 11 6 0 7 2 10 5 7 8 -8 -27 -78 -36 -72 -5 2 -6 10 -4 17 2 7 -10 23
-26 36 l-30 24 -6 -22 c-7 -28 -19 -27 -55 9 -22 22 -28 35 -22 48 10 22 8 93
-3 101 -11 8 -13 42 -2 35 5 -3 9 3 9 14 0 16 8 18 63 17 35 -1 69 -5 75 -9
20 -12 13 -29 -8 -23 -11 3 -20 1 -20 -4 0 -5 9 -9 19 -9 11 0 23 -4 26 -10 3
-5 14 -10 23 -10 15 0 15 2 2 10 -13 9 -13 10 0 10 12 1 11 3 -2 11 -10 5 -18
18 -18 28 0 10 -6 24 -14 31 -8 6 -16 21 -18 33 -4 29 -92 76 -228 121 -175
58 -390 83 -565 67z m417 -60 c149 -34 260 -77 286 -111 13 -17 31 -30 40 -31
14 0 13 -2 -3 -8 -11 -5 -24 -6 -28 -4 -15 9 -64 -18 -77 -42 -8 -14 -10 -36
-6 -57 10 -46 11 -80 2 -99 -10 -22 32 -79 77 -102 35 -18 45 -35 30 -50 -15
-16 -113 66 -113 94 0 10 -4 21 -10 24 -6 3 -7 -1 -4 -9 3 -9 1 -16 -5 -16 -6
0 -11 4 -11 10 0 5 -12 -2 -27 -16 -21 -19 -29 -37 -30 -67 -1 -23 -3 -53 -4
-66 0 -13 8 -33 20 -44 16 -16 25 -18 43 -10 20 9 26 5 50 -28 15 -20 36 -40
47 -44 32 -10 25 -25 -12 -25 -47 0 -74 -31 -59 -66 7 -13 12 -36 12 -50 0
-31 35 -84 56 -84 19 0 18 -19 -2 -41 -9 -10 -18 -36 -21 -59 -5 -34 -9 -41
-24 -37 -10 3 -23 -1 -29 -8 -7 -8 -24 -12 -40 -10 -23 3 -28 0 -23 -13 5 -12
2 -14 -13 -9 -18 7 -18 6 -2 -6 10 -8 15 -17 11 -20 -3 -4 6 -7 20 -7 28 0 37
-25 18 -45 -18 -21 -33 -85 -22 -99 9 -11 15 -86 10 -126 -6 -48 3 -73 45
-113 24 -23 48 -52 55 -64 6 -12 23 -28 38 -36 16 -8 42 -22 60 -33 30 -18 33
-18 68 -1 19 9 49 17 65 17 17 0 51 13 77 29 46 29 48 29 61 10 7 -10 22 -19
33 -19 16 0 19 -7 19 -52 0 -35 7 -64 20 -86 31 -51 27 -135 -10 -214 -20 -42
-30 -79 -30 -110 0 -47 -13 -122 -32 -190 -9 -32 -8 -41 6 -57 17 -19 15 -21
-60 -81 -144 -115 -263 -180 -427 -235 -152 -51 -267 -68 -448 -69 -140 0
-159 3 -190 21 -24 15 -40 18 -55 13 -12 -5 -42 -4 -67 2 -46 9 -59 21 -34 31
6 3 -2 6 -20 6 -54 2 -183 68 -183 94 0 6 -8 16 -17 24 -10 8 -12 12 -5 8 14
-7 15 -4 6 20 -5 12 -9 13 -14 5 -9 -14 -46 59 -53 105 -3 17 -16 71 -30 120
-14 50 -27 103 -29 119 -2 22 -18 41 -62 76 -58 44 -72 63 -139 184 -17 32
-38 68 -44 80 -11 18 -10 23 5 34 14 10 14 14 3 21 -15 10 -7 81 9 81 6 0 10
6 10 14 0 8 7 16 15 20 19 7 18 77 -2 124 -14 33 -33 35 -33 4 0 -11 -10 -6
-35 18 -19 19 -35 40 -35 48 0 7 -4 10 -10 7 -6 -3 -10 5 -10 19 0 36 -20 75
-43 82 -10 3 -28 26 -38 50 -12 27 -24 41 -33 38 -16 -6 -63 60 -76 107 -7 22
-7 43 -1 59 6 14 12 70 14 125 3 55 8 111 12 125 5 18 4 21 -3 11 -6 -8 -16
-53 -23 -100 -6 -47 -16 -90 -20 -95 -5 -6 -9 -40 -9 -76 0 -56 5 -74 33 -120
17 -30 42 -59 54 -65 12 -5 28 -22 34 -38 7 -16 23 -35 35 -44 13 -8 29 -33
34 -55 12 -44 102 -144 119 -133 21 13 12 -75 -11 -108 -33 -47 -36 -150 -4
-197 13 -19 40 -66 61 -105 44 -83 56 -98 114 -140 43 -32 45 -35 73 -146 16
-63 32 -129 35 -148 3 -19 27 -71 54 -117 26 -46 45 -84 41 -84 -4 0 -42 20
-84 44 -250 142 -451 355 -567 599 -86 182 -120 327 -128 542 -4 134 -2 179
15 280 20 113 65 269 91 311 13 21 12 4 -9 -114 -12 -64 -8 -98 10 -87 5 3 9
18 10 33 0 38 6 84 12 102 13 35 48 156 48 162 0 4 11 32 25 61 24 53 73 122
131 182 16 17 28 33 27 36 -3 10 106 131 159 176 63 55 195 136 208 128 5 -3
8 -20 5 -37 -7 -40 -8 -41 -6 -56 0 -7 6 -10 11 -7 6 4 10 12 9 18 -3 28 2 36
18 30 10 -4 14 -2 9 5 -3 6 2 15 11 21 17 10 17 10 -2 12 -15 0 -11 4 14 15
36 16 50 12 34 -8 -5 -7 -13 -22 -17 -33 -6 -16 -5 -18 5 -7 7 6 20 12 29 12
9 0 4 -7 -13 -18 -21 -13 -26 -23 -22 -38 3 -15 -1 -24 -11 -28 -13 -5 -14 -4
-6 7 14 17 6 28 -16 20 -11 -5 -13 -3 -7 7 5 9 4 11 -3 6 -35 -21 12 -65 48
-46 11 6 20 15 20 20 0 5 9 14 20 20 16 9 18 8 14 -5 -4 -8 -10 -15 -15 -15
-4 0 -6 -7 -2 -16 3 -9 0 -20 -8 -26 -10 -7 -9 -8 6 -3 11 4 31 10 45 13 24 5
25 4 7 -16 -19 -21 -57 -36 -57 -22 0 5 -22 -3 -50 -16 -27 -13 -56 -24 -62
-24 -22 0 -79 -40 -73 -51 4 -5 1 -16 -5 -24 -10 -12 -9 -15 4 -15 9 0 16 -6
16 -14 0 -8 8 -21 18 -28 17 -12 27 -62 10 -52 -4 3 -8 -4 -8 -15 0 -31 29
-26 41 7 5 15 23 33 42 42 20 10 31 22 30 33 0 11 7 27 18 38 20 20 26 45 9
34 -5 -3 -10 -1 -10 4 0 6 -7 11 -17 11 -9 0 -14 3 -11 6 7 7 97 -23 115 -38
7 -6 10 -20 7 -33 -8 -33 14 -41 41 -15 l23 21 6 -45 c5 -32 17 -55 39 -77 31
-31 31 -32 14 -61 -17 -29 -16 -30 3 -35 13 -3 20 -12 18 -22 -2 -12 -16 -16
-51 -17 -26 -1 -47 1 -47 5 0 3 14 19 30 35 35 34 34 41 -5 26 -15 -6 -49 -8
-74 -4 -39 5 -56 2 -97 -19 -27 -15 -42 -26 -34 -27 9 0 20 4 25 9 16 15 85
25 85 12 0 -6 -10 -11 -22 -11 -13 0 -18 -4 -13 -8 27 -20 13 -38 -48 -57 -46
-15 -62 -24 -61 -38 1 -13 -6 -17 -32 -17 -23 0 -37 -6 -44 -20 -6 -11 -15
-18 -21 -15 -5 4 -9 -2 -10 -12 0 -16 -1 -16 -9 2 -9 21 -10 18 -15 -30 -1
-16 -7 -31 -14 -33 -6 -2 -9 -8 -5 -13 3 -5 2 -9 -3 -8 -23 4 -42 -4 -73 -29
-29 -25 -34 -35 -37 -83 -1 -30 -5 -61 -8 -69 -10 -24 -26 9 -24 50 2 58 -1
71 -11 65 -6 -3 -17 1 -26 9 -20 21 -42 20 -46 -1 -3 -15 -6 -14 -25 6 -29 31
-56 21 -90 -32 -25 -40 -44 -135 -35 -179 6 -29 56 -23 70 7 12 26 27 31 50
16 11 -6 9 -15 -7 -45 -12 -20 -21 -43 -21 -51 0 -8 -5 -15 -11 -15 -5 0 -7
-4 -4 -10 3 -5 16 -10 29 -10 31 0 56 -29 46 -55 -26 -62 1 -140 44 -129 17 4
28 0 38 -15 16 -23 28 -16 41 22 4 10 11 16 15 13 5 -3 21 2 37 10 28 14 51
10 26 -5 -9 -6 -10 -11 -3 -15 6 -4 17 0 24 7 10 11 15 12 25 1 7 -7 13 -17
13 -23 0 -6 11 -11 24 -11 14 0 28 -5 31 -10 3 -6 17 -7 30 -4 27 7 35 1 108
-73 41 -42 58 -53 84 -53 38 0 103 -51 103 -81 0 -10 5 -19 10 -19 17 0 11
-27 -7 -34 -13 -5 -14 -9 -3 -19 9 -9 14 -9 17 -1 5 13 43 6 43 -7 0 -6 -7
-12 -15 -15 -8 -4 -15 -11 -15 -17 0 -6 10 -1 23 10 21 20 24 20 60 6 20 -8
37 -20 37 -27 0 -6 23 -12 58 -14 41 -2 67 -10 93 -27 19 -14 44 -25 56 -25
11 0 24 -7 27 -16 14 -36 4 -61 -44 -111 -28 -29 -47 -58 -45 -66 3 -7 -1 -30
-10 -50 -8 -20 -13 -37 -10 -37 4 0 -2 -14 -12 -30 -18 -32 -24 -34 -88 -45
-55 -9 -85 -30 -85 -61 0 -16 -15 -40 -45 -69 -43 -41 -47 -43 -81 -33 -44 12
-53 6 -19 -12 35 -19 26 -35 -19 -35 -31 0 -36 -3 -32 -18 3 -14 0 -16 -15
-12 -18 6 -19 5 -7 -14 11 -18 11 -23 -2 -31 -12 -8 -11 -11 8 -16 18 -5 20
-9 11 -20 -7 -8 -10 -16 -8 -18 14 -12 71 -36 86 -36 16 1 16 2 -2 16 -11 8
-25 18 -32 22 -6 4 -14 23 -18 43 -6 34 -5 37 22 46 56 20 171 130 179 172 5
26 12 30 65 41 75 16 109 52 129 135 10 45 26 75 62 118 32 39 48 68 48 87 0
33 -34 80 -58 80 -10 0 -33 11 -52 23 -19 13 -56 27 -81 30 -26 4 -67 17 -91
30 -25 13 -55 26 -67 30 -13 3 -29 22 -41 49 -27 62 -82 108 -129 108 -28 0
-101 67 -101 94 -1 21 -1 21 -15 2 -8 -11 -18 -16 -22 -11 -5 4 -2 10 5 12 6
3 12 10 12 17 0 7 -6 13 -12 14 -101 7 -121 12 -145 33 -33 32 -112 33 -146 1
-16 -15 -27 -18 -37 -12 -8 5 -26 10 -39 10 -23 0 -24 1 -18 66 6 65 6 67 -24
95 -30 28 -30 28 -14 59 11 21 21 30 31 26 9 -3 22 -6 29 -6 25 0 46 -31 40
-59 -7 -35 26 -71 49 -52 11 9 21 8 47 -7 20 -10 50 -17 72 -16 20 1 40 -2 43
-7 11 -18 41 -9 52 16 10 21 9 26 -8 35 -10 5 -23 10 -29 10 -14 0 -67 50 -64
61 2 4 -15 23 -37 40 -22 18 -37 36 -33 42 3 6 1 7 -5 3 -6 -3 -14 4 -18 16
-4 13 -12 26 -18 30 -6 5 -1 8 13 8 18 0 22 -4 16 -17 -5 -15 -4 -16 7 -5 11
11 9 17 -10 32 -18 15 -23 27 -20 52 3 28 10 37 53 59 33 17 57 38 71 63 23
40 68 76 96 76 9 0 23 8 30 18 20 28 37 35 54 22 18 -16 93 3 130 33 22 17 30
18 70 8 37 -10 47 -9 59 3 19 19 19 70 1 85 -10 8 -13 23 -9 45 4 26 0 39 -17
56 -13 13 -29 42 -36 66 -14 47 -13 49 56 103 l25 19 -19 39 c-10 21 -25 50
-32 65 -18 33 -17 35 2 42 9 3 25 -1 37 -9 12 -8 29 -15 39 -15 14 0 18 -8 18
-40 0 -21 -5 -50 -11 -64 -18 -38 29 -132 75 -151 52 -22 62 -19 95 29 21 30
41 47 61 51 16 4 33 11 36 16 6 11 33 22 77 33 19 4 26 3 22 -4 -3 -5 7 -24
24 -40 36 -37 85 -40 125 -9 56 44 16 93 -67 83 -39 -5 -48 -4 -42 6 12 20 14
103 2 125 -5 10 -10 33 -11 49 -1 31 -1 31 -85 43 -54 7 -103 8 -138 3 -40 -7
-65 -5 -101 6 -55 17 -180 19 -216 3 -20 -10 -28 -9 -41 5 -9 9 -24 16 -33 16
-59 0 116 50 248 70 96 15 384 4 482 -19z m-702 -84 c0 -5 -11 -7 -25 -5 -15
3 -30 -1 -37 -10 -10 -13 -10 -14 -1 -8 14 8 47 -12 51 -31 4 -22 -20 -14 -25
8 -3 11 -9 16 -12 10 -4 -6 -16 -8 -28 -5 -19 5 -20 9 -11 29 9 20 18 24 49
22 22 -1 39 -5 39 -10z m96 -22 c-4 -14 -2 -25 4 -25 5 0 10 5 10 10 0 6 8 11
18 11 16 1 16 2 -1 6 -9 2 -15 8 -12 12 6 11 98 3 132 -11 33 -13 133 -18 149
-6 13 9 114 -2 114 -12 0 -5 -10 -6 -22 -4 -21 4 -21 3 -3 -4 12 -6 28 -4 45
5 40 20 58 17 32 -7 -22 -20 -29 -41 -14 -39 18 3 32 -2 32 -11 0 -5 -8 -6
-17 -3 -15 6 -16 5 -3 -9 8 -8 22 -13 30 -10 11 4 10 1 -3 -12 -10 -10 -24
-15 -32 -12 -8 3 -15 0 -15 -7 0 -7 12 -18 28 -23 l27 -10 -35 -22 c-19 -12
-47 -22 -61 -22 -14 0 -34 -9 -44 -20 -10 -11 -26 -20 -34 -18 -29 4 -60 -12
-54 -28 3 -7 0 -14 -6 -14 -7 0 -17 -13 -22 -30 -6 -16 -17 -30 -25 -30 -34 0
-72 31 -88 71 -19 47 -13 79 15 79 10 0 19 5 19 11 0 6 -9 8 -20 4 -11 -4 -20
-2 -20 4 0 6 10 11 23 11 20 1 21 2 5 14 -10 7 -18 25 -18 39 0 26 -16 37 -56
37 -13 0 -24 5 -24 10 0 6 6 10 13 10 8 0 7 4 -3 10 -11 7 -8 10 16 10 18 0
45 7 60 15 29 15 29 15 4 15 -14 -1 -50 -9 -80 -20 -30 -10 -59 -16 -64 -13
-5 4 -6 1 -1 -7 6 -10 4 -12 -9 -7 -10 4 -24 7 -32 7 -8 0 -14 4 -14 9 0 6 9
8 20 6 11 -2 20 0 20 5 0 5 -8 10 -17 12 -15 3 -15 4 1 21 25 25 39 21 32 -8z
m940 -6 c9 -15 -23 -10 -35 5 -10 12 -8 13 9 9 11 -3 23 -9 26 -14z m-996 1
c0 -5 -4 -10 -10 -10 -5 0 -10 -9 -10 -20 0 -15 7 -20 25 -20 14 0 25 -4 25
-10 0 -13 -10 -13 -48 1 -23 8 -29 15 -24 27 12 33 42 55 42 32z m-94 -49 c-4
-5 4 -7 16 -3 14 3 19 1 14 -6 -4 -6 -22 -11 -41 -10 -35 1 -46 12 -22 21 20
9 39 8 33 -2z m1144 -11 c0 -5 -2 -10 -4 -10 -3 0 -8 5 -11 10 -3 6 -1 10 4
10 6 0 11 -4 11 -10z m-1052 -20 c14 0 22 -6 22 -16 0 -9 10 -25 22 -36 19
-16 20 -21 8 -29 -16 -10 -15 -10 30 -39 13 -9 13 -11 0 -20 -19 -13 -40 -13
-40 0 0 6 -7 10 -16 10 -13 0 -14 -3 -4 -15 16 -19 5 -54 -12 -37 -21 21 -32
13 -12 -9 l19 -22 -32 17 c-18 9 -37 25 -43 36 -6 11 -20 20 -31 20 -12 0 -17
4 -13 11 3 6 16 8 28 5 12 -3 31 2 44 13 21 15 22 20 12 43 -8 16 -18 24 -29
21 -9 -2 -24 2 -35 10 -17 13 -17 14 -1 31 11 11 26 15 39 12 12 -3 31 -6 44
-6z m-33 -90 c-3 -5 -10 -10 -16 -10 -5 0 -9 5 -9 10 0 6 7 10 16 10 8 0 12
-4 9 -10z m-105 -43 c0 -15 -3 -18 -8 -9 -5 7 -16 10 -25 6 -22 -8 -22 5 0 22
22 15 33 9 33 -19z m743 -16 c32 9 67 4 67 -10 0 -11 -47 -31 -74 -31 -13 0
-27 7 -30 16 -4 10 -12 14 -22 10 -14 -5 -15 -4 -4 9 8 10 17 12 23 6 5 -5 21
-6 40 0z m-799 -20 c17 -19 17 -21 -1 -44 -10 -14 -27 -31 -37 -37 -16 -10
-22 -9 -37 11 -28 36 -23 58 14 74 41 18 41 18 61 -4z m1236 -112 c0 -5 -4 -9
-8 -9 -15 0 -32 24 -32 45 1 19 1 19 20 -4 11 -13 20 -27 20 -32z m-194 25
c-4 -12 -2 -15 9 -10 8 3 15 0 15 -7 0 -13 72 -67 89 -67 6 0 11 -8 11 -18 0
-13 -13 -24 -39 -34 -33 -13 -39 -13 -34 -2 3 8 1 14 -4 14 -5 0 -9 9 -9 20 0
11 4 20 9 20 5 0 4 7 -3 15 -7 9 -15 13 -17 11 -3 -3 -14 4 -26 15 -11 10 -27
19 -34 19 -7 0 -13 5 -13 12 0 6 3 9 6 5 4 -3 13 0 21 8 19 20 27 19 19 -1z
m-1056 -8 c0 -3 -4 -8 -10 -11 -5 -3 -10 -1 -10 4 0 6 5 11 10 11 6 0 10 -2
10 -4z m1064 -83 c5 -16 1 -25 -14 -33 -12 -6 -22 -10 -23 -8 -1 2 -7 12 -13
23 -9 16 -7 23 9 38 22 19 31 15 41 -20z m548 -65 c-7 -7 -12 -8 -12 -2 0 6 3
14 7 17 3 4 9 5 12 2 2 -3 -1 -11 -7 -17z m-1457 -18 c3 -5 2 -10 -4 -10 -5 0
-13 5 -16 10 -3 6 -2 10 4 10 5 0 13 -4 16 -10z m0 -60 c12 10 15 10 15 -2 0
-9 -22 -21 -56 -32 -65 -20 -83 -15 -31 10 21 10 33 22 30 28 -4 6 1 5 10 -3
14 -11 20 -11 32 -1z m145 0 c0 -5 -7 -10 -16 -10 -8 0 -12 5 -9 10 3 6 10 10
16 10 5 0 9 -4 9 -10z m1095 -50 c17 -33 19 -50 6 -50 -5 0 -12 11 -15 24 -3
13 -9 31 -12 40 -11 27 5 17 21 -14z m-32 -35 c9 -19 13 -35 8 -35 -5 0 -17
-3 -25 -6 -12 -5 -15 -2 -10 11 6 15 3 16 -17 10 -21 -7 -22 -6 -10 8 7 9 18
14 25 10 7 -4 6 -1 -1 9 -12 14 -8 28 7 28 3 0 14 -16 23 -35z m144 -5 c-2
-31 -12 -36 -36 -21 -11 7 -9 10 8 16 16 5 20 12 15 27 -4 13 -2 18 5 14 5 -4
9 -20 8 -36z m213 20 c0 -5 -4 -10 -10 -10 -5 0 -10 5 -10 10 0 6 5 10 10 10
6 0 10 -4 10 -10z m-265 -10 c-3 -5 -11 -10 -16 -10 -6 0 -7 5 -4 10 3 6 11
10 16 10 6 0 7 -4 4 -10z m95 -11 c0 -5 16 -17 35 -24 l34 -15 -22 -34 c-17
-26 -26 -32 -39 -25 -9 5 -25 9 -36 9 -27 0 -34 24 -11 38 10 7 19 23 19 37 0
14 5 25 10 25 6 0 10 -5 10 -11z m156 -13 c8 -8 14 -17 14 -20 0 -11 -39 -26
-54 -20 -12 5 -13 10 -4 30 13 28 23 30 44 10z m-61 -6 c-3 -5 -10 -10 -16
-10 -5 0 -9 5 -9 10 0 6 7 10 16 10 8 0 12 -4 9 -10z m-2079 -181 c3 -6 18 -9
33 -6 38 8 47 -2 53 -55 5 -45 4 -49 -25 -63 -25 -13 -37 -13 -60 -4 -25 11
-31 9 -57 -16 l-30 -29 0 53 c0 63 31 131 60 131 10 0 22 -5 26 -11z m1520
-106 c-10 -10 -19 5 -10 18 6 11 8 11 12 0 2 -7 1 -15 -2 -18z m-37 -2 c9 -6
6 -8 -13 -8 -14 0 -23 3 -20 8 7 11 15 11 33 0z m-1309 -23 c0 -18 -2 -20 -9
-8 -6 8 -7 18 -5 22 9 14 14 9 14 -14z m-17 -55 c29 -26 54 -49 56 -50 2 -2 2
-5 -1 -8 -9 -9 -58 6 -52 16 3 5 0 9 -5 9 -6 0 -11 6 -11 13 0 15 -67 53 -77
44 -3 -4 0 -7 7 -7 7 0 11 -2 8 -5 -3 -3 -13 -3 -22 1 -13 5 -14 9 -5 20 20
25 49 15 102 -33z m54 24 c4 -7 21 -21 37 -31 l30 -19 -23 -9 c-13 -5 -26 -6
-29 -3 -3 3 0 5 6 5 7 0 12 5 12 10 0 6 -6 10 -14 10 -8 0 -17 7 -20 16 -3 8
-10 12 -16 9 -5 -3 -10 1 -10 9 0 19 16 21 27 3z m86 -115 c25 -22 21 -27 -15
-25 -18 1 -33 2 -33 3 0 1 -8 3 -18 5 -11 2 -22 7 -25 11 -4 4 1 4 12 0 15 -5
17 -2 13 14 -4 17 -2 19 21 14 15 -4 35 -14 45 -22z m-127 -9 c-8 -8 -36 5
-36 17 0 7 6 7 21 0 11 -7 18 -14 15 -17z m194 -23 c12 -8 11 -10 -7 -10 -13
0 -23 5 -23 10 0 13 11 13 30 0z m430 -1400 c0 -5 -6 -10 -14 -10 -8 0 -18 5
-21 10 -3 6 3 10 14 10 12 0 21 -4 21 -10z" class="svg-elem-1"></path>
<path d="M1844 2856 c-59 -26 -53 -62 16 -85 31 -10 36 -9 59 14 l25 25 -29
30 c-33 34 -30 34 -71 16z m46 -16 c0 -5 -7 -10 -16 -10 -12 0 -11 -5 7 -20
13 -10 19 -19 12 -20 -6 0 -15 5 -18 10 -4 6 -11 8 -16 5 -5 -4 -17 -1 -26 4
-17 10 -17 10 0 11 9 0 17 4 17 9 0 5 8 12 18 14 9 3 18 5 20 6 1 0 2 -3 2 -9z" class="svg-elem-2"></path>
<path d="M736 2675 c-21 -16 -9 -24 20 -16 17 5 19 9 10 17 -9 8 -17 8 -30 -1z" class="svg-elem-3"></path>
<path d="M1882 2543 c2 -9 10 -19 18 -21 13 -5 13 -3 0 13 -14 17 -13 18 3 12
11 -4 16 -3 12 3 -10 17 -37 11 -33 -7z" class="svg-elem-4"></path>
<path d="M680 2479 c-13 -24 -4 -41 10 -19 10 16 13 40 5 40 -2 0 -9 -9 -15
-21z" class="svg-elem-5"></path>
<path d="M692 2359 c-29 -9 -37 -33 -9 -27 7 1 22 -3 34 -10 25 -14 34 -5 26
26 -6 24 -5 24 -51 11z" class="svg-elem-6"></path>
<path d="M680 2280 c-29 -31 -38 -50 -22 -50 4 0 20 16 36 36 21 27 31 33 40
24 8 -8 8 -13 -1 -18 -7 -4 -9 -13 -4 -20 6 -10 11 -10 21 2 7 9 16 13 21 10
5 -3 9 1 9 9 0 8 -8 17 -17 20 -10 2 -26 8 -35 12 -13 5 -27 -2 -48 -25z" class="svg-elem-7"></path>
<path d="M736 2226 c-22 -7 -36 -15 -30 -18 13 -8 64 2 64 13 0 5 11 7 24 3
13 -3 27 -1 30 5 9 14 -37 13 -88 -3z" class="svg-elem-8"></path>
<path d="M918 1593 c-2 -5 -1 -24 3 -43 7 -35 7 -35 6 8 -1 42 -3 48 -9 35z" class="svg-elem-9"></path>
<path d="M944 1558 c0 -26 5 -43 10 -38 5 5 4 25 -2 47 l-10 38 2 -47z" class="svg-elem-10"></path>
<path d="M716 1471 c-4 -7 -5 -15 -2 -18 9 -9 19 4 14 18 -4 11 -6 11 -12 0z" class="svg-elem-11"></path>
<path d="M1171 357 c-15 -19 -3 -49 18 -45 9 2 16 13 16 27 0 29 -17 37 -34
18z m29 -17 c0 -5 -7 -10 -16 -10 -8 0 -12 5 -9 10 3 6 10 10 16 10 5 0 9 -4
9 -10z" class="svg-elem-12"></path>
<path d="M1625 2660 c-3 -5 1 -10 10 -10 9 0 13 5 10 10 -3 6 -8 10 -10 10 -2
0 -7 -4 -10 -10z" class="svg-elem-13"></path>
<path d="M1065 2730 c-3 -5 -2 -10 4 -10 5 0 13 5 16 10 3 6 2 10 -4 10 -5 0
-13 -4 -16 -10z" class="svg-elem-14"></path>
<path d="M1118 2723 c7 -3 16 -2 19 1 4 3 -2 6 -13 5 -11 0 -14 -3 -6 -6z" class="svg-elem-15"></path>
<path d="M2315 2610 c3 -5 10 -10 16 -10 5 0 9 5 9 10 0 6 -7 10 -16 10 -8 0
-12 -4 -9 -10z" class="svg-elem-16"></path>
<path d="M2550 2484 c0 -14 26 -53 64 -95 23 -25 49 -55 58 -67 10 -12 22 -22
28 -22 15 0 -105 176 -125 184 -20 7 -25 8 -25 0z m55 -44 c10 -11 13 -20 7
-20 -6 0 -16 9 -22 20 -6 11 -9 20 -7 20 2 0 12 -9 22 -20z" class="svg-elem-17"></path>
<path d="M2660 2290 c0 -5 5 -10 11 -10 5 0 7 5 4 10 -3 6 -8 10 -11 10 -2 0
-4 -4 -4 -10z" class="svg-elem-18"></path>
<path d="M2580 2250 c0 -5 5 -10 10 -10 6 0 10 5 10 10 0 6 -4 10 -10 10 -5 0
-10 -4 -10 -10z" class="svg-elem-19"></path>
<path d="M2760 2161 c0 -13 52 -103 57 -98 2 3 -7 28 -21 56 -25 49 -36 62
-36 42z" class="svg-elem-20"></path>
<path d="M2683 2073 c-8 -3 1 -23 26 -57 43 -58 81 -125 81 -142 0 -6 7 -17
15 -24 8 -7 15 -19 15 -27 0 -8 9 -26 20 -40 11 -14 20 -34 20 -44 0 -21 18
-26 25 -6 2 6 0 28 -4 47 l-9 35 -2 -30 c-2 -29 -2 -29 -15 11 -19 59 -74 163
-112 210 -18 23 -33 46 -33 52 0 14 -12 20 -27 15z" class="svg-elem-21"></path>
<path d="M2620 2045 c0 -8 5 -15 10 -15 6 0 10 7 10 15 0 8 -4 15 -10 15 -5 0
-10 -7 -10 -15z" class="svg-elem-22"></path>
<path d="M2320 2039 c0 -5 5 -7 10 -4 6 3 10 8 10 11 0 2 -4 4 -10 4 -5 0 -10
-5 -10 -11z" class="svg-elem-23"></path>
<path d="M2550 2020 c0 -5 5 -10 11 -10 5 0 7 5 4 10 -3 6 -8 10 -11 10 -2 0
-4 -4 -4 -10z" class="svg-elem-24"></path>
<path d="M2547 1632 c-3 -4 1 -15 8 -25 8 -12 15 -14 20 -8 3 6 0 18 -9 26 -8
8 -17 12 -19 7z" class="svg-elem-25"></path>
<path d="M2832 1505 c0 -16 2 -22 5 -12 2 9 2 23 0 30 -3 6 -5 -1 -5 -18z" class="svg-elem-26"></path>
<path d="M2780 1419 c0 -5 5 -7 10 -4 6 3 10 8 10 11 0 2 -4 4 -10 4 -5 0 -10
-5 -10 -11z" class="svg-elem-27"></path>
<path d="M2756 1270 c-4 -19 -3 -46 2 -59 12 -34 19 -7 12 49 l-6 45 -8 -35z" class="svg-elem-28"></path>
<path d="M2737 1183 c-4 -3 -7 -11 -7 -17 0 -6 5 -5 12 2 6 6 9 14 7 17 -3 3
-9 2 -12 -2z" class="svg-elem-29"></path>
<path d="M2777 1163 c-4 -15 -10 -39 -13 -52 -5 -16 -4 -22 4 -18 5 4 13 25
17 48 8 46 1 64 -8 22z" class="svg-elem-30"></path>
<path d="M2680 1005 c-7 -9 -11 -18 -8 -20 3 -3 11 1 18 10 7 9 11 18 8 20 -3
3 -11 -1 -18 -10z" class="svg-elem-31"></path>
<path d="M2616 914 c-15 -14 -25 -29 -22 -32 3 -3 18 7 32 22 35 34 26 43 -10
10z" class="svg-elem-32"></path>
<path d="M2525 910 c-3 -5 -2 -10 4 -10 5 0 13 5 16 10 3 6 2 10 -4 10 -5 0
-13 -4 -16 -10z" class="svg-elem-33"></path>
</g>
</svg>

