<svg height="512pt" viewBox="0 0 512 512" width="512pt" xmlns="http://www.w3.org/2000/svg"><path d="m110.933594 68.265625c-4.710938 0-8.535156-3.820313-8.535156-8.53125v-51.199219c0-4.710937 3.824218-8.535156 8.535156-8.535156 4.710937 0 8.53125 3.824219 8.53125 8.535156v51.199219c0 4.710937-3.820313 8.53125-8.53125 8.53125zm0 0" fill="#556080"/><path d="m136.535156 128h-51.203125v-42.667969c0-14.136719 11.460938-25.597656 25.601563-25.597656s25.601562 11.460937 25.601562 25.597656zm0 0" fill="#7383bf"/><path d="m153.601562 170.667969h-85.335937v-59.734375h85.335937zm0 0" fill="#556080"/><path d="m469.332031 503.464844h-68.265625v-247.464844h68.265625zm0 0" fill="#7383bf"/><path d="m153.601562 281.601562h93.863282v153.597657h-93.863282zm0 0" fill="#556080"/><path d="m238.933594 221.867188h85.332031v204.800781h-85.332031zm0 0" fill="#7383bf"/><path d="m153.601562 418.132812h170.664063v85.332032h-170.664063zm0 0" fill="#3e4860"/><path d="m409.601562 503.464844h-102.402343v-409.597656h102.402343zm0 0" fill="#556080"/><path d="m170.667969 503.464844h-119.46875v-341.332032h119.46875zm0 0" fill="#7383bf"/><path d="m503.464844 512h-494.929688c-4.710937 0-8.535156-3.824219-8.535156-8.535156 0-4.707032 3.824219-8.53125 8.535156-8.53125h494.929688c4.710937 0 8.535156 3.824218 8.535156 8.53125 0 4.710937-3.824219 8.535156-8.535156 8.535156zm0 0" fill="#afb6bb"/><path d="m264.535156 25.601562c-3.371094 0-6.574218.691407-9.515625 1.875-2.953125-10.886718-12.800781-18.941406-24.621093-18.941406-11.816407 0-21.664063 8.054688-24.617188 18.941406-2.945312-1.183593-6.144531-1.875-9.515625-1.875-14.140625 0-25.597656 11.457032-25.597656 25.597657s11.457031 25.601562 25.597656 25.601562h68.269531c14.136719 0 25.597656-11.460937 25.597656-25.601562s-11.460937-25.597657-25.597656-25.597657zm0 0" fill="#afb6bb"/><g fill="#ebba16"><path d="m85.332031 230.398438c-4.710937 0-8.53125-3.820313-8.53125-8.53125v-17.066407c0-4.710937 3.820313-8.535156 8.53125-8.535156 4.710938 0 8.535157 3.824219 8.535157 8.535156v17.066407c0 4.710937-3.824219 8.53125-8.535157 8.53125zm0 0"/><path d="m136.535156 230.398438c-4.710937 0-8.535156-3.820313-8.535156-8.53125v-17.066407c0-4.710937 3.824219-8.535156 8.535156-8.535156 4.707032 0 8.53125 3.824219 8.53125 8.535156v17.066407c0 4.710937-3.824218 8.53125-8.53125 8.53125zm0 0"/><path d="m110.933594 264.535156c-4.710938 0-8.535156-3.824218-8.535156-8.535156v-17.066406c0-4.710938 3.824218-8.535156 8.535156-8.535156 4.710937 0 8.53125 3.824218 8.53125 8.535156v17.066406c0 4.710938-3.820313 8.535156-8.53125 8.535156zm0 0"/><path d="m85.332031 298.667969c-4.710937 0-8.53125-3.824219-8.53125-8.535157v-17.066406c0-4.710937 3.820313-8.53125 8.53125-8.53125 4.710938 0 8.535157 3.820313 8.535157 8.53125v17.066406c0 4.710938-3.824219 8.535157-8.535157 8.535157zm0 0"/><path d="m136.535156 298.667969c-4.710937 0-8.535156-3.824219-8.535156-8.535157v-17.066406c0-4.710937 3.824219-8.53125 8.535156-8.53125 4.707032 0 8.53125 3.820313 8.53125 8.53125v17.066406c0 4.710938-3.824218 8.535157-8.53125 8.535157zm0 0"/><path d="m110.933594 332.800781c-4.710938 0-8.535156-3.824219-8.535156-8.535156v-17.066406c0-4.710938 3.824218-8.53125 8.535156-8.53125 4.710937 0 8.53125 3.820312 8.53125 8.53125v17.066406c0 4.710937-3.820313 8.535156-8.53125 8.535156zm0 0"/><path d="m85.332031 366.933594c-4.710937 0-8.53125-3.824219-8.53125-8.535156v-17.066407c0-4.710937 3.820313-8.53125 8.53125-8.53125 4.710938 0 8.535157 3.820313 8.535157 8.53125v17.066407c0 4.710937-3.824219 8.535156-8.535157 8.535156zm0 0"/><path d="m136.535156 366.933594c-4.710937 0-8.535156-3.824219-8.535156-8.535156v-17.066407c0-4.710937 3.824219-8.53125 8.535156-8.53125 4.707032 0 8.53125 3.820313 8.53125 8.53125v17.066407c0 4.710937-3.824218 8.535156-8.53125 8.535156zm0 0"/><path d="m110.933594 401.066406c-4.710938 0-8.535156-3.824218-8.535156-8.53125v-17.070312c0-4.707032 3.824218-8.53125 8.535156-8.53125 4.710937 0 8.53125 3.824218 8.53125 8.53125v17.070312c0 4.707032-3.820313 8.53125-8.53125 8.53125zm0 0"/><path d="m85.332031 435.199219c-4.710937 0-8.53125-3.820313-8.53125-8.53125v-17.066407c0-4.710937 3.820313-8.535156 8.53125-8.535156 4.710938 0 8.535157 3.824219 8.535157 8.535156v17.066407c0 4.710937-3.824219 8.53125-8.535157 8.53125zm0 0"/><path d="m136.535156 435.199219c-4.710937 0-8.535156-3.820313-8.535156-8.53125v-17.066407c0-4.710937 3.824219-8.535156 8.535156-8.535156 4.707032 0 8.53125 3.824219 8.53125 8.535156v17.066407c0 4.710937-3.824218 8.53125-8.53125 8.53125zm0 0"/><path d="m110.933594 469.332031c-4.710938 0-8.535156-3.820312-8.535156-8.53125v-17.066406c0-4.710937 3.824218-8.535156 8.535156-8.535156 4.710937 0 8.53125 3.824219 8.53125 8.535156v17.066406c0 4.710938-3.820313 8.53125-8.53125 8.53125zm0 0"/></g><path d="m221.867188 469.332031h-17.066407c-4.710937 0-8.535156-3.820312-8.535156-8.53125 0-4.710937 3.824219-8.535156 8.535156-8.535156h17.066407c4.710937 0 8.53125 3.824219 8.53125 8.535156 0 4.710938-3.820313 8.53125-8.53125 8.53125zm0 0" fill="#fff"/><path d="m273.066406 469.332031h-17.066406c-4.710938 0-8.535156-3.820312-8.535156-8.53125 0-4.710937 3.824218-8.535156 8.535156-8.535156h17.066406c4.710938 0 8.535156 3.824219 8.535156 8.535156 0 4.710938-3.824218 8.53125-8.535156 8.53125zm0 0" fill="#fff"/><path d="m341.332031 477.867188c-4.710937 0-8.53125-3.824219-8.53125-8.535157v-290.132812c0-4.710938 3.820313-8.53125 8.53125-8.53125 4.710938 0 8.535157 3.820312 8.535157 8.53125v290.132812c0 4.710938-3.824219 8.535157-8.535157 8.535157zm0 0" fill="#ebba16"/><path d="m341.332031 153.601562c-4.710937 0-8.53125-3.824218-8.53125-8.535156v-17.066406c0-4.710938 3.820313-8.535156 8.53125-8.535156 4.710938 0 8.535157 3.824218 8.535157 8.535156v17.066406c0 4.710938-3.824219 8.535156-8.535157 8.535156zm0 0" fill="#ebba16"/><path d="m375.464844 426.667969c-4.707032 0-8.53125-3.824219-8.53125-8.535157v-290.132812c0-4.710938 3.824218-8.535156 8.53125-8.535156 4.710937 0 8.535156 3.824218 8.535156 8.535156v290.132812c0 4.710938-3.824219 8.535157-8.535156 8.535157zm0 0" fill="#ebba16"/><path d="m375.464844 477.867188c-4.707032 0-8.53125-3.824219-8.53125-8.535157v-17.066406c0-4.710937 3.824218-8.53125 8.53125-8.53125 4.710937 0 8.535156 3.820313 8.535156 8.53125v17.066406c0 4.710938-3.824219 8.535157-8.535156 8.535157zm0 0" fill="#ebba16"/><path d="m273.066406 392.535156c-4.710937 0-8.53125-3.824218-8.53125-8.535156v-128c0-4.710938 3.820313-8.535156 8.53125-8.535156 4.710938 0 8.535156 3.824218 8.535156 8.535156v128c0 4.710938-3.824218 8.535156-8.535156 8.535156zm0 0" fill="#fff"/><path d="m204.800781 384c-4.710937 0-8.535156-3.824219-8.535156-8.535156v-51.199219c0-4.710937 3.824219-8.53125 8.535156-8.53125 4.710938 0 8.53125 3.820313 8.53125 8.53125v51.199219c0 4.710937-3.820312 8.535156-8.53125 8.535156zm0 0" fill="#fff"/></svg>