<?xml version="1.0" encoding="utf-8"?>
<svg id="master-artboard" viewBox="0 0 1400 980" version="1.1" xmlns="http://www.w3.org/2000/svg" x="0px" y="0px" enable-background="new 0 0 1400 980" width="1400px" height="980px">
<radialGradient id="SVGID_1_" cx="700" cy="490" r="847.0053" gradientTransform="matrix(1 0 0 0.7587 0 118.2581)" gradientUnits="userSpaceOnUse">
		<stop offset="0" style="stop-color:#FFFFFF"/>
		<stop offset="0.4665" style="stop-color:#FCFCFD"/>
		<stop offset="0.7632" style="stop-color:#F4F4F5"/>
		<stop offset="1" style="stop-color:#E6E7E8"/>
		
		
		
	</radialGradient><radialGradient id="SVGID_2_" cx="237.5024" cy="387.4306" r="140.0309" gradientTransform="matrix(0.9269 0 0 0.1586 6.3629 371.8666)" gradientUnits="userSpaceOnUse">
			<stop offset="0" style="stop-color:#BCBEC0"/>
			<stop offset="0.3615" style="stop-color:#DADBDC"/>
			<stop offset="0.7638" style="stop-color:#F5F5F5"/>
			<stop offset="1" style="stop-color:#FFFFFF"/>
			
			
			
		</radialGradient><radialGradient id="SVGID_3_" cx="567.3645" cy="387.4306" r="140.0309" gradientTransform="matrix(0.9269 0 0 0.1586 6.3629 371.8666)" gradientUnits="userSpaceOnUse">
			<stop offset="0" style="stop-color:#BCBEC0"/>
			<stop offset="0.3615" style="stop-color:#DADBDC"/>
			<stop offset="0.7638" style="stop-color:#F5F5F5"/>
			<stop offset="1" style="stop-color:#FFFFFF"/>
			
			
			
		</radialGradient><radialGradient id="SVGID_4_" cx="915.097" cy="387.4306" r="140.0309" gradientTransform="matrix(0.9269 0 0 0.1586 6.3629 371.8666)" gradientUnits="userSpaceOnUse">
			<stop offset="0" style="stop-color:#BCBEC0"/>
			<stop offset="0.3615" style="stop-color:#DADBDC"/>
			<stop offset="0.7638" style="stop-color:#F5F5F5"/>
			<stop offset="1" style="stop-color:#FFFFFF"/>
			
			
			
		</radialGradient><radialGradient id="SVGID_5_" cx="571.1757" cy="1017.1311" r="140.0309" gradientTransform="matrix(0.9269 0 0 0.1586 6.3629 662.5869)" gradientUnits="userSpaceOnUse">
			<stop offset="0" style="stop-color:#BCBEC0"/>
			<stop offset="0.3615" style="stop-color:#DADBDC"/>
			<stop offset="0.7638" style="stop-color:#F5F5F5"/>
			<stop offset="1" style="stop-color:#FFFFFF"/>
			
			
			
		</radialGradient><radialGradient id="SVGID_6_" cx="911.6156" cy="980.6629" r="140.0309" gradientTransform="matrix(0.9269 0 0 0.1586 6.3629 645.7502)" gradientUnits="userSpaceOnUse">
			<stop offset="0" style="stop-color:#BCBEC0"/>
			<stop offset="0.3615" style="stop-color:#DADBDC"/>
			<stop offset="0.7638" style="stop-color:#F5F5F5"/>
			<stop offset="1" style="stop-color:#FFFFFF"/>
			
			
			
		</radialGradient><radialGradient id="SVGID_7_" cx="241.7092" cy="980.6629" r="140.0309" gradientTransform="matrix(0.9269 0 0 0.1586 6.3629 645.7502)" gradientUnits="userSpaceOnUse">
			<stop offset="0" style="stop-color:#BCBEC0"/>
			<stop offset="0.3615" style="stop-color:#DADBDC"/>
			<stop offset="0.7638" style="stop-color:#F5F5F5"/>
			<stop offset="1" style="stop-color:#FFFFFF"/>
			
			
			
		</radialGradient><radialGradient id="SVGID_8_" cx="1243.5259" cy="1017.1311" r="140.0309" gradientTransform="matrix(0.9269 0 0 0.1586 6.3629 662.5869)" gradientUnits="userSpaceOnUse">
			<stop offset="0" style="stop-color:#BCBEC0"/>
			<stop offset="0.3615" style="stop-color:#DADBDC"/>
			<stop offset="0.7638" style="stop-color:#F5F5F5"/>
			<stop offset="1" style="stop-color:#FFFFFF"/>
			
			
			
		</radialGradient><path d="M 1284.099998 823.900024 A 125.099998 25.9 0 0 1 1159 849.800024 A 125.099998 25.9 0 0 1 1033.900002 823.900024 A 125.099998 25.9 0 0 1 1159 798.000025 A 125.099998 25.9 0 0 1 1284.099998 823.900024 Z" fill="url(#SVGID_8_)" transform="matrix(0.9999999999999999, 0, 0, 0.9999999999999999, -500.59535361510916, -325.53166058786)"/><radialGradient id="SVGID_9_" cx="1259.1985" cy="356.5247" r="140.0309" gradientTransform="matrix(0.9269 0 0 0.1586 6.3629 357.5979)" gradientUnits="userSpaceOnUse">
			<stop offset="0" style="stop-color:#BCBEC0"/>
			<stop offset="0.3615" style="stop-color:#DADBDC"/>
			<stop offset="0.7638" style="stop-color:#F5F5F5"/>
			<stop offset="1" style="stop-color:#FFFFFF"/>
			
			
			
		</radialGradient><path d="M 1281.199997 643.900024 A 107.699997 107.699997 0 0 1 1173.5 751.600021 A 107.699997 107.699997 0 0 1 1065.800003 643.900024 A 107.699997 107.699997 0 0 1 1173.5 536.200027 A 107.699997 107.699997 0 0 1 1281.199997 643.900024 Z" fill-rule="evenodd" clip-rule="evenodd" fill="#3EB1CB" transform="matrix(0.9999999999999999, 0, 0, 0.9999999999999999, -500.59535361510916, -325.53166058786)"/><g transform="matrix(0.9999999999999999, 0, 0, 0.9999999999999999, -500.59535361510916, -325.53166058786)">
					<path fill="#F1EA81" d="M1259,581.9c-1.6-2.5-5.4-3-7.5-5C1251,580.8,1255.8,585.8,1259,581.9z"/>
					<path fill="#F1EA81" d="M1178.9,540.6c3.4,1.3,6.9,1.2,7.5,1.3C1187,539,1179.6,538,1178.9,540.6z"/>
					<path fill="#F1EA81" d="M1185.1,538.1c0.3-0.5,0.6-0.8,0.9-1.1c-0.7-0.1-1.5-0.2-2.2-0.2&#10;&#9;&#9;&#9;&#9;&#9;&#9;C1184.8,537.1,1185.3,537.5,1185.1,538.1z"/>
					<path fill="#F1EA81" d="M1187.6,545.6c-0.5-2.8-6.9-1.2-6.3,1.3C1184.3,547.2,1186.2,546.6,1187.6,545.6z"/>
					<path fill="#F1EA81" d="M1180.1,663.2c3.5,1.9,4.9,0.1,11.3,0C1190.9,657.2,1181,659.3,1180.1,663.2z"/>
					<path fill="#F1EA81" d="M1267.7,678.2c3.7-0.5,6.2-2.2,7.5-5c0.5,0.8,0.9,1.7,1.2,2.5c3.1-10.1,4.8-20.7,4.8-31.8&#10;&#9;&#9;&#9;&#9;&#9;&#9;c0-3.6-0.2-7.1-0.5-10.6C1263,637.4,1258.6,664.1,1267.7,678.2z"/>
					<path fill="#F1EA81" d="M1177.6,539.3c-3.6-2.1-5.3-1-13.8-2.5C1163.4,541.9,1174.9,541.5,1177.6,539.3z"/>
					<path fill="#F1EA81" d="M1238.9,698.3c-4.4-4.3-13.6-3.9-20-6.3c1.6-12.9-16.9-5.7-16.3-17.5c-2.5,2.4-10.8,2.7-16.3-2.5&#10;&#9;&#9;&#9;&#9;&#9;&#9;c-3.5,2.3-9.4,2.3-10,7.5c-3.5-2.5-5.1-2.2-10-1.3c-3-2.9,0.2-6.2,0-10c3.8,1.9-1,5.5,0,8.8c2.4-0.5,0.1-5.7,5-3.8&#10;&#9;&#9;&#9;&#9;&#9;&#9;c-0.5-3.3-4-3.5-2.5-8.8c2.4,0.5,4.5-0.9,2.5-1.3c1.1-3,3.1,3.4,7.5,1.3c-2.8-3.5-8.1-4.4-12.5-6.3c3.9-6.3,10.1,7.6,17.5,0&#10;&#9;&#9;&#9;&#9;&#9;&#9;c-5.3,0.4-9.3-6-18.8-5c2.1-2.5-0.1-1.6,0-5c2.4,0.1,0.9,4.1,3.8,3.8c0.9-3.9-3.4-2.4-2.5-6.3c-7.1,3.7-12.6-2.2-17.5-2.5&#10;&#9;&#9;&#9;&#9;&#9;&#9;c-1.2,1-1.5,4.4,1.3,6.3c-0.8,2.7-5.5-1.1-3.8-5c-2.6,0.3-0.3,5.5-2.5,6.3c-4.2-5.8,9-12.9,13.8-6.3c-1-5.4,7.2-3.6,10-2.5&#10;&#9;&#9;&#9;&#9;&#9;&#9;c-0.8,5.4,2.2,7,3.8,10c2.4-1.9,0.1-8.9,0-15c12.4-6,14.8-21.9,27.5-27.5c1.5,0.2,1.1,2.3,1.3,3.8c3.5-1.5,7.4-2.6,10-5&#10;&#9;&#9;&#9;&#9;&#9;&#9;c-2.9-1.4-9.4,0-6.3-7.5c-2.6-0.5-3.3,0.9-5,1.3c-3-1.8,6.5-4.1,7.4-0.5c0-2.3,5.1-2,8.8-3.2c-0.7,2.6-2.6,4-3.8,6.3&#10;&#9;&#9;&#9;&#9;&#9;&#9;c2.1,2.1,6.8,1.6,8.8,3.8c1.4-1.4,1.1-7.5-3.8-6.3c4.5-12.6-9-12.6-7.5-23.8c-1.6-3.5-2.6,3.9-6.3,2.5&#10;&#9;&#9;&#9;&#9;&#9;&#9;c-1.1-5.9-4.4-9.8-10-11.3c-3.7,4.4-4.7,8.8-3.8,15c-7-0.8-2.4,10.2-8.8,10c3.9-10.8-10.6-12.3-15-18.8&#10;&#9;&#9;&#9;&#9;&#9;&#9;c2.1-7.9,11.4-8.6,16.3-13.8c2.2,0.9,0.2,2.3,0,3.8c1.5,3.8,4.8-1.8,6.3,1.3c2.5-1-3-4.4-3.8-6.3c4.9,3.9,6.2-5.8,13.8-6.3&#10;&#9;&#9;&#9;&#9;&#9;&#9;c1,4,1.1,2.6-1.3,5c1.1,4.9,4.6-4.1,5,0c-0.8,3.8-3.4,5.7-8.8,5c4.1,3,8.8,5.4,12.5,8.8c1.4-1.1-0.3-4,3.8-1.3&#10;&#9;&#9;&#9;&#9;&#9;&#9;c0.2-3.1-0.6-5.2-2.5-6.3c1.2-3.9,3.4,1.4,3.8,2.5c5.8-1.6,2.5-6.9-2.5-7.5c3.1-8.9-15.6-20-22.5-11.3&#10;&#9;&#9;&#9;&#9;&#9;&#9;c-0.9,3.4,2.6,2.4,3.8,3.8c-0.4,2.6-3.4,2.5-3.8,5c-2-3-4.9-5.2-3.8-11.3c-2.2-0.9-0.2-2.3,0-3.8c-6.8,3.4-10.3-4.3-13.8,2.5&#10;&#9;&#9;&#9;&#9;&#9;&#9;c-1.5-1.9-5.2-1.5-5-5c-6.7-1.3-8.7,2.1-12.5,3.8c1.1,3.7,4-0.7,6.3,0c0.7,2.6-5.5,4.3-2.5,5c-9.6-2.4-16.4,1.1-29.7-1.2&#10;&#9;&#9;&#9;&#9;&#9;&#9;c-10,5.2-19.2,11.9-27.1,19.9c-2.8,5.4-5.7,12.1-10.8,16.4c7.5-3.8,12.4-10.1,18.8-15c20.6,14.1-3.2,40,3.8,57.6&#10;&#9;&#9;&#9;&#9;&#9;&#9;c1,2.5,4.1,2.7,5,5c3,7.4,1.3,16.9,8.8,21.3c1.7-1.8-2-8.8-3.8-11.3c7.9,1.3,7.2,22,18.8,23.8c-0.1,2.4-4.1,0.9-3.8,3.8&#10;&#9;&#9;&#9;&#9;&#9;&#9;c2.4,6.9,28.7,16.8,22.5,2.5c4,2.6,4.5,7.6,0,10c2.1-0.5,2.4,1,2.5,2.5c2.7-1.9-0.9-3.1,1.3-6.3c3.4-0.1,9.8,7.6,11.3,1.3&#10;&#9;&#9;&#9;&#9;&#9;&#9;c6.8,7.2-3.7,16.6-3.8,21.3c5,7.9,9.8,16.1,18.8,20c1.7,11-5.8,25-0.5,30.1c2.9-0.3,5.7-0.8,8.5-1.3&#10;&#9;&#9;&#9;&#9;&#9;&#9;C1206.5,733.9,1231.8,724.3,1238.9,698.3z M1171.4,550.6c-3.1-2.5-2.4-5.8,2.5-6.3c1.3,1.2,0.4,4.6,3.8,3.8&#10;&#9;&#9;&#9;&#9;&#9;&#9;c-3,2.4,3,7.7-3.8,7.5c3.1-3,2.4-5.9-2.5-3.8c3.9,4.6-8.3,2.5-8.8,0C1165,550.8,1167.4,553.8,1171.4,550.6z"/>
					<path fill="#F1EA81" d="M1225.2,558.1c0.6,2-5.6,5.9,0,3.8c-3.8,3.9,0.6,17.3,7.5,21.3c3-2,2.7-7.3,5-10&#10;&#9;&#9;&#9;&#9;&#9;&#9;c5,0.4,6.9-2.2,12.5-1.3c0.3-3-1.9-3.7-2.4-5.9c-10.6-10.1-23.2-18.1-37.3-23.2C1213.7,549.6,1223.3,552.3,1225.2,558.1z"/>
					<path fill="#F1EA81" d="M1191.4,538.1c-4.6,0.2-3.1,1.8-2.5,5c2.6,2,6.6,2.6,11.3,2.5c-5.5-3.7,4.6-1,9.2-3.3&#10;&#9;&#9;&#9;&#9;&#9;&#9;c-4.7-1.7-9.6-3-14.6-4c0.6,0.3,1.1,0.7,1.7,1C1196,541.9,1186.9,540.9,1191.4,538.1z"/>
					<path fill="#F1EA81" d="M1177.6,645.7h-3.8c-0.4,2.5,1.7,2.5,2.5,3.8c-2.9,0.4-2.9,3.4,0,3.8&#10;&#9;&#9;&#9;&#9;&#9;&#9;C1175.5,649.4,1178.5,649.5,1177.6,645.7z"/>
					<path fill="#F1EA81" d="M1269,596.9c-1.9,2.3-2.4,5.9-2.5,10c6.4-7,0,2,7.5,2.5c-3.5,5.4-0.1,4.2,0,11.3h-5c3,2-1,11,3.8,11.3&#10;&#9;&#9;&#9;&#9;&#9;&#9;c6.5,1.1,1.5-9.4,6.2-10c-1-4.7-2.3-9.4-3.9-13.8C1271.1,606.3,1270.8,600.8,1269,596.9z"/>
					<path fill="#F1EA81" d="M1279.1,622.3c0.1,0.5,0.2,1,0.3,1.5C1279.2,623.3,1279.2,622.8,1279.1,622.3z"/>
				</g>
</svg>