<svg xmlns="http://www.w3.org/2000/svg" viewBox="0 0 655.22 677.05">
  <defs>
    <style>
      .cls-1 {
        fill: #fff;
      }

      .cls-1, .cls-2 {
        stroke: #fff;
        stroke-miterlimit: 10;
      }

      .cls-2 {
        fill: none;
      }
    </style>
  </defs>
  <g id="Layer_2" data-name="Layer 2">
    <g id="Layer_1-2" data-name="Layer 1">
      <path class="cls-1" d="M356.65,411.75c-3.27.68-7,1.87-10.75,2.07-2.25.12-5.44-.63-6.69-2.19-2.13-2.67-6.09-5.42-3-9.93,1.39-2,2.66-4.18,4-6.28,4.85-7.74,3.48-13.7-4.11-18.7-4.46-2.93-9.94-4.78-8.66-12.38.9-5.33,3.68-7,8.23-7.76,5.12-.8,10.89-1.29,12.82-7a24.49,24.49,0,0,0,.84-12.45c-1.31-5.88-1.69-10.76,4.88-13.12,2.14-.77,5.19-1.14,7.06-.19,17,8.57,17,8.72,28.63-6.71,2.48-3.27,5.21-3,8.59-2.37s6.41,1.11,6.93,5.4c.26,2.26,1.17,4.43,1.69,6.66,2,8.56,8.49,12.41,17,10,8.89-2.53,10.57-2.29,14.55,4.11,1.11,1.79,1,4.95.33,7.11-1,3-3.11,5.66-4.6,8.53a12.15,12.15,0,0,0,4.66,16.21,39.44,39.44,0,0,0,4.39,2.7c4,1.78,5.94,4.34,5,9s-2.61,7.67-8.16,8.59a26.5,26.5,0,0,0-12.33,6c-4.73,4.11-2.9,10-1.24,15,1.48,4.47,1,7.3-3,10.29-4.17,3.12-7.52,3.64-11.76.43-3.92-3-7.93-5.48-13.57-4.78-5.87.73-7.66,5-10.21,9-4.86,7.5-6.14,8-13.78,5.2-5.33-1.92-4.52-7-5.45-11C367.53,417.39,362.16,411.79,356.65,411.75Zm9.36-38.3c-.11,12.22,9,21.78,20.92,21.86a21.1,21.1,0,0,0,21.38-20.82v-.65c0-11.92-8.92-20.89-21-21.18A20.78,20.78,0,0,0,366,372.89v.56Z"/>
      <path class="cls-1" d="M315.31,388.49c-4.22-.63-6.86-1.09-9.51-1.41-5.76-.69-10.09,2.2-11.6,7.74-.55,2-.58,4.26-1.47,6.1s-2.43,4.84-4.06,5.12a14.81,14.81,0,0,1-8.76-1.44c-2-1-3-3.81-4.5-5.79a10.2,10.2,0,0,0-14.1-2.54c-1.77,1.13-3.33,2.89-5.25,3.4-2.26.6-5.36,1-7.09-.06-2-1.28-3.22-4.16-4.21-6.58-.5-1.24.28-3,.44-4.5,1-10.28-.67-12.51-10.54-15.46-3.07-.92-7.22,0-8.47-5.21-1.18-4.9-.39-7.55,4.08-10.21,9.8-5.84,10.28-9.68,4.11-19.46-1.83-2.9-4.42-5.64-1.71-9.85s6.23-4.37,10.41-3.73c11,1.71,13.75-.24,16.25-11,.84-3.64,1.51-7.08,6.58-8.12s7.32,1.26,9.11,4.78c4.42,8.67,12.46,9.88,20.39,3.24,2.91-2.45,5.29-3.33,9-.79s4.82,5.45,4,9.63c-2.32,11.21-.48,14,10.46,16.84,3.53.92,7.4,1.08,8.3,6.32.86,5.05-1.55,7.27-5.14,9.66-9,6-9.72,11-3.12,19.87,2,2.74,4,5.44,1.3,8.68A53.81,53.81,0,0,1,315.31,388.49ZM295.44,356c0-9.62-8.17-18.1-17.66-18.23-9.85-.13-18.94,8.86-18.78,18.57.15,9.09,9.16,17.92,18.31,18A18.21,18.21,0,0,0,295.44,356Z"/>
      <path class="cls-1" d="M286.77,246.61c-.69-1.72-2.49-4.78-3-8.06-.41-2.4,0-5.88,1.52-7.4,1.74-1.74,5.08-2.25,7.8-2.51,1.73-.16,3.58,1.16,5.39,1.76,6.34,2.09,11.24-.16,13.77-6.33a36.06,36.06,0,0,0,1.39-3.76c1-3.72,3.07-5.66,7.29-5.89s6.16,1.4,7.79,5c5.29,11.52,8.69,12.8,19.76,7.7,3.16-1.45,5.9-2.28,8.89.52s3.81,5.43,2.35,9.57c-1.3,3.67-2,8.16-1.08,11.81.65,2.57,4.4,4.42,6.91,6.43a10.32,10.32,0,0,0,3.18,1.26c3.67,1.24,5.45,3.55,5.48,7.66s-2.08,5.72-5.33,7.13c-10.93,4.72-12.47,8.62-7.46,19.51,1.76,3.83,2.32,6.77-1.18,10.14s-6.53,2.33-10,1c-9.59-3.77-14.31-1.78-17.74,7.69-1.29,3.56-1.82,7.14-7.19,7.36-5.17.2-6.95-2.39-8.72-6.36-4.39-9.82-8.46-11.28-18.47-6.84-3.37,1.49-6.16,3.13-9.84-.13-3.9-3.43-3.18-6.79-1.87-10.77,3.51-10.6,1.91-13.9-8.66-17.9-3.49-1.32-5.74-3.11-6-7.33s1.76-6.45,5.19-7.89C282.27,257.67,287.11,255.13,286.77,246.61ZM321.54,283c10.56.1,18.16-7.45,18.4-18.29.21-9.22-7.85-17.34-17.4-17.53-10.55-.2-18.14,7.41-18.29,18.33A17.42,17.42,0,0,0,321.54,283Z"/>
      <path class="cls-1" d="M176.75,116.61c-6.18,7.09.53,11.92,1.61,17.52.56,2.93,1.68,5.23-2,7.16-1.51.8-2.24,3.67-2.72,5.74-.74,3.14-.77,6.43-1.45,9.59-.29,1.38-1.46,3.69-2.19,3.67-7.56-.19-8.89,6.89-12.88,10.76-2.3,2.24-4,4.42-7.72,2-1.37-.88-4-.4-5.82.16-2.89.89-5.52,2.71-8.43,3.47-1.81.48-5.22.4-5.71-.56-2.51-4.86-6.92-3.74-10.9-4.51-4.39-.84-10.68.33-9.91-7.67.09-.94-1.9-2.15-3-3.12-2.89-2.47-6-4.75-8.7-7.39-.88-.85-1.71-3.19-1.24-3.79,3.08-3.91,1.15-7-.84-10.44a24.45,24.45,0,0,1-2.67-8.1c-.21-1.25.95-2.8,1.67-4.11,1.24-2.25,3.12-4.28,3.81-6.67.9-3.07.65-6.46,1.39-9.59.33-1.43,2-3.77,2.82-3.65,5.25.76,6.79-3.16,9.08-6.34a46.32,46.32,0,0,1,4.85-5.63c.74-.75,2.4-1.77,2.84-1.48,6.73,4.55,11.75-1.78,17.6-2.49,2-.24,4.2.89,6.27,1.53,3.87,1.2,7.66,2.71,11.58,3.71,4.13,1,8.89.59,8.77,7.26,0,1.6,3.3,3.26,5.09,4.89ZM151,133.9a15.78,15.78,0,0,0-15.9-15.43c-8.08-.08-15.08,7.26-14.91,15.62s7.3,15.43,15.42,15.21C143.9,149.08,151.07,141.93,151,133.9Z"/>
      <path class="cls-1" d="M560.9,104.22l-11.73.89c.86,1.93,1,3.22,1.76,3.8,8.56,6.71,8.54,15.9,7.73,25.46a11.11,11.11,0,0,0,1.24,5.3c2.39,5.18,1.21,7.87-4.2,8a16.34,16.34,0,0,0-13.8,7.76,9,9,0,0,0-1,6.72c2.34,8.12-1.78,18.11-9.47,21.07-1.2.47-3.42-.24-4.51-1.18q-28-24-55.85-48.22c-3.06-2.65-3-5.09-.37-8.25,4.11-4.93,7.72-10.19,15.51-7.66a4.11,4.11,0,0,0,3.69-1.24c3.73-5.32,10.23-8.89,10.75-16.27.33-4.67,3.92-3.7,6.73-4.16,2.32-.38,4.66-.67,7-1.18,8.3-1.84,16.47-3.2,23.7,3.2,3.45,3,6.88,5.61,11.06.4.92-1.14,4.72-1.09,6.42-.16,2.16,1.17,3.52,3.8,5.23,5.8Zm-31.07,5.64c0-5.09-4.34-9.07-9.8-9a8.29,8.29,0,0,0-8.12,8.47v0a9.45,9.45,0,0,0,9.31,9c5.17.13,8.55-3.21,8.56-8.47ZM551,131.14a7.63,7.63,0,0,0-7.25-8h-.19a7.22,7.22,0,0,0-7.37,7.09h0c.09,3.85,4,8.17,7.57,7.88,4.23-.44,7-2.68,7.19-7Zm-55.59-7.37c2.45-3.58,4.34-6.22,6-9,.12-.2-1.55-1.45-2.39-2.22-2.13,2.49-4.33,4.92-6.27,7.54-.26.26,1.14,1.69,2.61,3.68Zm48.66,24.16c-1.5-1.36-2.82-2.67-2.89-2.61a93.53,93.53,0,0,0-6.94,7,22,22,0,0,0,2.18,2.54ZM509.9,120.27c-2-1.19-3.66-2.48-3.85-2.29-2.29,2.3-4.35,4.82-6.46,7.28,1,.64,2.53,2,2.82,1.8C504.82,125.17,507,123,509.9,120.27Zm3,2.27c-2.23,2.71-4.12,4.89-5.74,7.25-.16.22,1.39,1.62,2.15,2.48,2-2.23,4.09-4.43,6-6.77.1-.16-1.17-1.44-2.41-3ZM524,143.67c2-2.71,3.71-4.84,5.14-7.15.15-.25-1.25-1.47-1.93-2.24-2,2.12-4,4.2-5.78,6.42A23.4,23.4,0,0,0,524,143.67Zm6.54,5.91c2.18-3,4-5.3,5.52-7.75.1-.15-1.36-1.29-2.1-2-2,2.13-4,4.23-5.77,6.49-.16.22,1.09,1.54,2.35,3.24Zm-13.35-11c2.11-3,3.66-5.18,5-7.46a11,11,0,0,0-2.47-1.93,37.8,37.8,0,0,0-5,5.65c-.25.28,1.13,1.73,2.47,3.69Z"/>
      <path class="cls-1" d="M618.8,474.61c-2.94,5.43-5.93,10.84-8.82,16.3-1.51,2.86-3.4,5.7-4,8.78-.3,1.47,1.54,4.05,3.11,5.1,3.44,2.33,7.55,3.71,10.93,6.1,1.45,1,1.79,3.63,2.63,5.51-2,.21-4,.83-5.84.54-3.34-.51-7.1-5.66-9.76-.15-2.42,5,3.78,4.92,6,7.29,1.19,1.29,2.9,3,2.77,4.38s-2,3.15-3.49,3.78c-3.26,1.36-4.17,2.86-3.2,6.55.57,2.18-.8,5.31-2.23,7.35-.57.82-3.67,0-5.6-.32-.7-.1-1.31-.76-2-1.09-9.75-4.55-9.86-4.6-15.36,4.81-1.64,2.81-3.29,3.27-6,1.82s-4.65-2.87-2.79-6.2c.09-.17.15-.36.25-.52,6.26-10.4,4-10-6.54-15.57-3-1.6-5.06-.84-6.51,2.16-.82,1.71-2,3.29-2.7,5-1.58,3.76-4,3.22-7,1.79s-3-3.35-1.87-6.08c4.43-10.38,4.36-10.36-5.91-15.66-7-3.58-13.79-7.4-20.78-10.92-3.25-1.63-3.94-3.33-2.2-6.76s3.68-3.47,6.87-2.18A59.74,59.74,0,0,0,540.9,500c1.24.2,3.4-1.65,4.1-3.07.4-.79-1-3-2.16-3.94-3.85-3-6-6-1.19-10a2.15,2.15,0,0,0,.33-.46c6.22-9.73,6.27-9.84,16.63-4.29,3.58,1.92,6.64,3.32,10.53.55,2.12-1.51,8.75,5.12,9,8.55a25.27,25.27,0,0,0,1.1,4.46c1.86-.63,4.49-.7,5.43-2a76.65,76.65,0,0,0,6.44-11.41c1.27-2.6,1.78-5.81,5.92-4s4,4.52,2,7.87c-1,1.82-2.3,3.68-2.64,5.67s-.13,5.56.74,5.86a10.33,10.33,0,0,0,7.16-.32,6.8,6.8,0,0,0,3.14-5.14c0-7.25,7.13-9.32,9-15C617.28,473.73,618,474.17,618.8,474.61Z"/>
      <path class="cls-1" d="M208.12,587c6,2.13,10.48,3.73,14.95,5.3,11,3.86,22,7.5,32.84,11.65,6.61,2.52,7.41,4.45,5.28,11-1.65,5.07-1.93,11-7.9,13.83-1,.48-1.72,3.14-1.41,4.53,1.84,8.27-.67,14.61-6.83,20.4-2,1.89-1.82,6.23-2.36,9.5-.33,2,.17,4.15-.24,6.12-.9,4.32-3.07,5.92-7.83,4.15-15.82-5.86-31.83-11.23-47.66-17.08-1.88-.69-4.55-3.29-4.37-4.68a10,10,0,0,1,4.22-6.26c3.36-2.13,6.17-8.63,5.06-12.72a13.81,13.81,0,0,1-.17-7.41c3.33-10.53,6.86-21,10.79-31.33C203.52,591.25,206.27,589.21,208.12,587Zm13.78,48.13c1.14-7.51,2.89-14.24,6.8-20.4.78-1.23.66-3.08.7-4.65,0-.29-1.66-1-1.8-.84a11.65,11.65,0,0,0-2.79,3.88c-1.15,3.58-1.69,7.37-2.88,10.94-1.86,5.58-4.06,11.06-6.28,17-7.21-7.07-10.33-10-5.12-18.17.64-1-.57-3.16-.92-4.78-1.22.52-3.49,1.08-3.48,1.57.14,5.18-1.12,11.58,1.43,15.27,5.08,7.33,5.81,14.15,3.06,22.07-.43,1.24-.18,2.71-.24,4.08a41,41,0,0,0,4.94-10.53c2.41-6.7,5.78-12.92,13.41-14.25,6.09-1.06,9.19-4.72,11.38-9.76a10.48,10.48,0,0,0,.5-4.12c0-.23-1.69-.83-1.89-.61-1,1-2.33,2.3-2.36,3.52-.14,4.47-2.21,7.19-6.44,8.27C227.55,634.24,225.12,634.54,221.9,635.13Zm20.37-30.84c-1.73-1.56-3-3.52-3.92-3.37-1.41.24-2.57,1.94-3.83,3,1.15,1.24,2.11,3.06,3.5,3.49.81.26,2.32-1.63,4.23-3.12Zm9.17,3c-2.3-1.58-3.6-3.16-5-3.23-1.18-.07-2.45,1.6-3.68,2.49,1.3,1.32,2.41,3.1,4,3.76.73.26,2.37-1.53,4.66-3.07Zm8.67,3.31c-2.26-1.78-3.51-3.47-4.94-3.64-1-.13-2.26,1.82-3.4,2.84,1.13,1.17,2.11,2.94,3.46,3.31,1,.23,2.52-1.28,4.86-2.56Z"/>
      <path class="cls-1" d="M297.26,31.9V47a12.05,12.05,0,0,0,3.7,9c3.41,3.67,5.22,8.81,8.83,13.55.25-5.52.62-11,.71-16.55,0-3.23-.42-6.46-.57-9.7-.21-4.23,2.07-5.74,6.27-5s8.68.89,13,1.3l.36-2.8c-4.07-.67-8.23-1-12.18-2.15-2-.55-3.57-2.45-5.34-3.74,1.76-.84,3.71-2.69,5.23-2.39,17.16,3.43,34.24,7.22,51.37,10.8,3,.63,3.78,1.91,3.74,5.08-.12,8.26-1.49,16.53,2.38,24.71,1.51,3.19-.4,8.07-1,12.13-.28,1.85-1.46,3.55-1.77,5.39-1.37,8.08-1.31,8.19-9.7,8.3q-35.76.48-71.53.78c-7.3.06-7.87-.62-8.05-7.77-.17-6.49,0-13-.39-19.46-.35-6.16,5-8.61,8.09-12.2a14.55,14.55,0,0,0,4-10.67c-.13-4.6,0-9.2,0-13.81Zm41.51,19.16v-.6c-6.68,0-13.37-.28-20,.18-1.8.12-4.49,2.2-4.94,3.88-.78,2.89-1.43,7,3,8,3.52.79,3.93,2.85,4,5.79.23,10.52.29,10.52,10.91,10.76,1.71,0,3.71.51,5.08-.19,1.83-.92,4.23-2.59,4.55-4.29,2.23-11.91,6-15.7,18.13-17.77,1.53-.26,2.82-1.93,4.23-3-1.45-.94-2.86-2.61-4.34-2.67C352.51,50.9,345.64,51.06,338.77,51.06Zm29.5,24.06c2.21-2.26,4.75-4.16,4.49-4.7-1.12-2.29-3.07-4.18-4.71-6.22-1.38,1.87-3.44,3.59-3.86,5.65C364,71,366.35,72.76,368.27,75.12ZM350,73.43c2.1-1.92,4.68-3.52,4.46-4.22C353.72,67,352,65,350.61,63c-1.69,2-3.62,3.84-4.84,6.08C345.53,69.51,348,71.45,350,73.43ZM358.9,89.6c1.58-2.17,3.7-4,3.36-4.83-.86-2-2.83-3.63-4.36-5.4-1.61,1.9-3.23,3.8-4.84,5.71ZM358.8,58c-1.75,2.21-4,4.06-3.67,4.83.83,2,2.8,3.49,4.32,5.19,1.56-1.72,3.55-3.26,4.41-5.27.21-.6-2.71-2.56-5.11-4.75Zm-9.56,14.24c-2,2.42-4.06,4-3.78,4.82.79,2.2,2.54,4.06,3.91,6.06,1.34-1.68,3.48-3.23,3.77-5.08.16-1.32-2-3.1-3.95-5.8ZM367.47,74c-2,2.52-4.09,4.12-3.84,5.16.45,1.86,2.31,3.39,3.58,5.06,1.52-1.72,3.44-3.27,4.35-5.28.25-.66-2.05-2.5-4.14-4.94Z"/>
      <path class="cls-1" d="M467.64,639.21a25.49,25.49,0,0,1-8.93,22.08c-13.13,11.59-28.07,18.54-46.09,13.7-8.58-2.31-14.6-8.39-18.14-16.37-6.19-14-11.82-28.16-17.82-42.19-1.61-3.78-1.62-6,2.86-8,12.55-5.56,12.54-5.86,18.13,6.38,4.12,9,7.84,18.21,11.89,27.25a45.42,45.42,0,0,0,4.53,7.89c6.17,8.61,13.18,10.27,22.83,5.62a17,17,0,0,0,8.86-21.11c-3.24-9.55-7.5-18.76-11.34-28.11-1.74-4.22-3.58-8.4-5.33-12.62a5,5,0,0,1-.59-2.2c.47-8.22,8.76-5.94,12.85-9.39,2.41-2,4.57-.74,5.78,2.14,6.5,15.47,13.15,30.88,19.47,46.42C467.64,633.26,467.33,636.36,467.64,639.21Zm-30.55-33.74c5-3.68,9.76-5.54,11.58-9s-4.82-12.76-7.46-11.77c-3.64,1.37-9.4,4-9.54,6.34C431.42,595.29,434.69,599.67,437.09,605.47Zm-39.77,12.59c-2.73-3.72-4.79-8.88-8.46-10.6-2.08-1-8.05,2.92-10,6s4.4,12.1,7.13,12.09C389.9,625.58,396.1,621.52,397.32,618.06Z"/>
      <path class="cls-1" d="M126.62,357.38c-1.22-7.37-5.41-11.83-13.26-13.23-2.19-.39-4.2-3.46-5.7-5.71-2.58-3.88-4.27-8.41-7.12-12.06-3.57-4.56-4.93-8.48-2.86-14.55,3-8.73,5.37-18,5.77-27.17.31-7.11-2.86-14.35-4.35-21.55-.39-1.94-1.06-5.15-.23-5.71a8.06,8.06,0,0,1,6.2-.54c7.82,2.54,15.88,4.75,23.14,8.48a59.72,59.72,0,0,1,22.91,20.16c1.58,2.41,1.29,4.38-2,5a13.48,13.48,0,0,1-2.82.45c-15.57-.27-26.91,8.39-37.85,17.88-7.31,6.34-7,12.78,1.07,18.15,1.16.77,3.69.52,5-.24a25.84,25.84,0,0,0,7.17-5.6c6.41-7.66,16.48-7.19,24.45-11.33,1.08-.56,3.25.28,4.58,1.05,3.05,1.75,5.88,3.89,8.84,5.82,2.56,1.66,3.61,11.86.75,14.32-10.55,9.05-21.43,17.72-32.22,26.5C128,357.67,127.45,357.47,126.62,357.38Zm-3.55-31.88-1.78-1.6c-3.21,3.11-6.53,6.14-9.54,9.44-.48.52.17,2.4.77,3.36.19.31,2.36,0,2.85-.6C118.07,332.67,120.53,329.05,123.07,325.5Z"/>
      <path class="cls-1" d="M514.3,466.16H446.43c1.82-7.3,6.72-11.32,12.66-11.6,3.17-.15,6.3-1.41,9.47-1.48,4.37-.1,8.77.41,13.15.75,1.57.12,3.13.46,5.9.9l-6-19.57c-5.15-1.83-9.32-3.67-13.68-4.72-3.18-.77-6.61-.51-9.94-.7l-.21-1.43a17.38,17.38,0,0,1,3.7-.83c5.35,0,10.7.15,16,.14,4.42,0,8.85-.54,11,4.93.31.78,4.6,1.21,5.18.43,1.91-2.61,3.86-5.75,4.16-8.85.5-5.26-6.87-14.93-11.94-16.37-4.74-1.34-6.6,2.39-7.59,5.82-1.44,5-2.27,8-7.27,2.25-2.52-2.88-6.86-4.11-10.14-6.42-.84-.58-1.5-2.82-1.05-3.61,3.17-5.46,6.69-10.72,10-16.09,3.48-5.63,7.61-9.22,15.06-7.47,2.26.53,5.32-1.38,7.73-2.69,3.16-1.73,6-4.13,9.09-5.92,1-.57,2.59-.11,3.91-.12-.47,1.28-.57,3-1.49,3.76-3.08,2.54-6.48,4.7-9.71,7.06-7.25,5.3-7.2,10.65.11,15.58,12.81,8.66,20.42,20.1,18.16,36.15a30.78,30.78,0,0,1-4.79,12.53c-3.23,4.75-3.06,8.2,1.19,11.85A64.13,64.13,0,0,1,514.3,466.16Z"/>
      <path class="cls-1" d="M111.1,481.55a55.82,55.82,0,0,1-4.2,5c-1.85,1.66-4.44,2.53-3.29,6.13.31.95-1.91,3.13-3.38,4.17-16.81,11.82-35.41,19.53-55.82,21.82-6.17.7-12.7-1.77-19.92-2.92,1.09-2.24,1.52-4.52,2.9-5.69,4.81-4.08,6-9.52,7.66-15.28,7.41-25.38,37.74-34.12,58.22-17.38,2.09,1.72,5.52,1.9,8.38,2.56S107.27,480.92,111.1,481.55Z"/>
      <path class="cls-1" d="M420.09,259.9c6.84,0,12.34-.34,17.77.13,2.8.25,5.51,1.82,8.18,3a71.43,71.43,0,0,1,7.83,3.91,26.65,26.65,0,0,1,3.84,3.36,24.86,24.86,0,0,1-3.37,3.28c-1.06.7-3.15.45-3.65,1.29-6.54,11.05-18.09,8-27.72,9.58-8.21,1.32-16.74.71-25.12.8-4.89.06-10-7.79-9.22-12.56.7-4,.11-8.29.1-12.45,0-1.49-.38-3.11.07-4.46,3.51-10.55,8-20.46,16.19-28.5,3.56-3.48,5.61-8.49,8.61-12.61.9-1.25,2.69-1.85,4.08-2.74.49,1.49,1.08,3,1.46,4.49.56,2.25.33,5,1.55,6.74,6.69,9.56,6.76,19.43,2.22,29.74C422.1,254.74,421.4,256.67,420.09,259.9Zm-2.35-33.78c-4.15,5.48-3.71,11.8.65,15.46,2.53,2.12,4.79,1.47,4.65-1.53C422.81,235.18,423.08,229.74,417.74,226.12Z"/>
      <path class="cls-1" d="M469.9,223.49c-3.74,3.09-4.67,5.73-.81,9a45.94,45.94,0,0,1,7.07,7.48c1.23,1.67,1.52,4,2.23,6.09-1.87-.75-4-1.13-5.55-2.33a55.57,55.57,0,0,1-7.35-7.2c-2.68-3.12-5.15-3.65-8-.35a5.89,5.89,0,0,1-2.2,1.79,51.88,51.88,0,0,1-5.3,1.31c.52-1.76,1-3.55,1.61-5.26.25-.66,1.28-1.05,1.47-1.7.6-2.06,2.07-5,1.22-6.13-2.43-3.27-4,.21-5.78,1.64-1,.86-1.78,2.27-2.93,2.67-1.34.46-3,.09-4.49.08.2-1.36,0-3,.68-4,1.12-1.72,3.08-2.92,4.16-4.66.65-1,.79-3.59.29-3.86a6.57,6.57,0,0,0-4.45-.4c-1.16.32-1.91,2-3.08,2.46a52.75,52.75,0,0,1-6.23,1.93c.82-2.05,1.55-4.15,2.5-6.13.4-.82,1.69-1.31,1.86-2.11.36-1.68.94-4,.13-5.05s-3.21-1.09-4.92-1.14a29,29,0,0,0-5.08.69,43.93,43.93,0,0,0,1-5.06,13.38,13.38,0,0,0-.27-4.37c-1-3.75.17-5.06,4-4,4.94,1.32,6.39.05,5.34-4.81-1-4.49.06-5.83,4.6-3.84,1.1.48,3.29-.3,4.31-1.23a4.39,4.39,0,0,0,.67-3.9c-1.71-4.45-.4-5.54,4.08-4.69,1.76.33,3.75-.69,5.65-.89,1.21-.14,2.87-.34,3.55.3s.09,2.28.11,3.49c0,2.13.1,4.26.16,6.39,1.7-.12,3.78.34,5-.48,2.49-1.64,3.39-4,.85-6.72-.57-.61-.35-2.54.21-3.42a3,3,0,0,1,2.94-.64c3,2.12,6.4,4.11,8.57,7,2.32,3.06,4.08,4.19,7.45,1.87.88-.6,2.39-.27,3.61-.37.1,1.37.29,2.74.28,4.11,0,2.06-.21,4.12-.33,6.17,1.94-.82,4.15-1.29,5.75-2.54,2.54-2,4.49-4.73,7-6.69,1.46-1.12,3.64-1.32,5.49-1.93-.51,2.05-.51,4.47-1.66,6.05-2,2.74-4.71,5-7.15,7.4-2,2-3.74,3.88-1,6.75.57.6.36,3.08-.17,3.35-1.05.53-2.58,0-3.9.12-1.91.18-4.45-.11-5.54,1s-1,3.67-1.19,5.61a25.43,25.43,0,0,0,.21,4.09,35.39,35.39,0,0,0-4.12,0c-2.05.21-4.09.61-6.13.94a42.45,42.45,0,0,0,1.58,5.3c.4,1,1.74,1.66,2.08,2.67s.51,2.83-.1,3.45a3.54,3.54,0,0,1-3.4.12A79.56,79.56,0,0,1,469.9,223.49Zm7.74-32.77c-2-1.68-3.91-3.7-4.3-3.45a41.46,41.46,0,0,0-5.51,5c1.13,1,2.7,3.2,3.32,2.95,2.11-.87,3.84-2.55,6.53-4.5Zm-24.43,7.11c1.64-2.59,3.65-4.37,3.43-5.79s-2.58-2.76-4-4.12c-1.23,1.48-3.4,2.94-3.43,4.45s2.14,3,4,5.46Zm26.18,7.95a60.09,60.09,0,0,0,5.49-6.64c.2-.31-1.93-2.08-3-3.17a45,45,0,0,0-5,5.59c-.26.46,1.29,2.17,2.55,4.22ZM457.17,202c2.16,1.5,4,3.38,4.57,3a11.52,11.52,0,0,0,3.63-4.35c.15-.27-2.2-2.65-2.83-2.43-1.64.58-3,2.05-5.33,3.73Zm13.16,12.79c1.75-2.12,3.42-3.44,4-5.13.24-.74-1.82-2.23-2.83-3.37-1.41,1.28-3.27,2.35-4,3.94-.37.72,1.48,2.45,2.87,4.56ZM449,202c-2.45-1.72-3.94-3.47-5.62-3.69-1-.13-2.29,2.18-3.45,3.4,1.49,1.15,2.85,2.83,4.53,3.27,1,.24,2.48-1.53,4.58-3Zm3.89,13.41c1.49-2,3.16-3.31,3.08-4.48s-1.79-2.45-2.79-3.67c-1.23,1.15-3.14,2.15-3.48,3.52C449.43,211.78,451.31,213.28,452.9,215.43Zm13.33,4c-2-1.57-3.5-3.56-4.34-3.31-1.48.46-2.54,2.29-3.77,3.54,1.18,1,2.34,2.84,3.57,2.9s2.5-1.63,4.51-3.11Z"/>
      <path class="cls-1" d="M109.74,208.36c3.72,1.59,6.4,2.27,8.54,3.74,7.22,5,14.37,10,21.3,15.39,3,2.34,4.9,1.07,6.8-1.08,4.68-5.3,9.18-10.75,13.93-16,2.37-2.6,2.18-4.66.37-7.59a23.67,23.67,0,0,1-3-8.94c-.52-3.69,1.5-5.15,4.84-3q10,6.44,19.72,13.23c3.52,2.47,2.87,5.07-1.05,5.91a25.5,25.5,0,0,1-10,0c-3.58-.71-5.46-.3-7.05,3.44a146.59,146.59,0,0,1-9.24,17.76c-2.43,4.05-1.16,5.91,2.49,8.12,7.34,4.43,14.5,9.22,21.51,14.17,5.71,4.05,6.56,8.21,3.32,13.13-3.49,5.31-7.29,5.93-13.74,1.74-6.89-4.47-13.61-9.19-20.34-13.88-3-2.08-5.47-2.6-8.73,0-1.38,1.09-5,.85-6.58-.26s-2.31-4.28-1.82-6.12c1-3.72-.29-5.71-3.15-7.64-7.43-5-15-9.91-22-15.57-2.12-1.72-3.8-6.21-3.07-8.64C103.72,213.2,107.32,210.94,109.74,208.36Z"/>
      <path class="cls-1" d="M548.23,231.35a27.29,27.29,0,0,1-27.47,27.09h-.06c-14.81-.23-26.1-12-26.29-26.82-.22-17.17,12.78-27.26,26.88-27.25A27,27,0,0,1,548.23,231.35Zm-27.6,4.32c3.62-2.06,7.23-4,10.69-6.18a2.57,2.57,0,0,0,.26-2.47c-.71-.67-2.16-1.33-2.92-1-5.72,2.28-10.94,2.29-15.85-2.05-.64-.56-2.58.35-3.92.58a15.34,15.34,0,0,0,1.82,3.56,28.61,28.61,0,0,0,9.92,7.59Z"/>
      <path class="cls-1" d="M148.58,513.43c0-7.26.17-14.52-.06-21.77-.16-5,1.36-7.31,6.86-7,6.85.42,13.74,0,20.62,0,9.9-.08,17,6.28,17.3,16.17.39,12,.18,24,.49,36,.1,4.14-2,5.62-5.48,5.64-11.83.08-23.67.14-35.49-.28-1.4-.05-3.76-3.06-3.85-4.79-.42-8-.19-16-.19-24.06Zm13.14-4.3-.18-1.9a42.62,42.62,0,0,0,6.34-1.17c1.24-.4,2.21-1.62,3.29-2.47-1.06-.89-2-2.35-3.19-2.54-2.61-.41-5.56-.85-7.91,0-2,.72-4.49,3.06-4.75,5a63.37,63.37,0,0,0,.08,14.24c.12,1.42,1.9,2.68,2.92,4,.91-1.23,2.55-2.44,2.58-3.69.1-4.72,2.86-6.28,6.7-5.48,1.71.36,3.37,2.66,4.38,4.47,2.67,4.77,7.51,6.62,12,4.2,3.2-1.72,5.19-9.41,3.29-12.67-2.24-3.84-8.73-5.63-12-2.39C170.35,513.67,166.21,510.18,161.72,509.13Z"/>
      <path class="cls-1" d="M186.51,459.21c-5.32-.53-4.4-3.44-2-6.11,4.18-4.55,10.25-6.07,15.24-3.53,10.68,5.44,21.94,7.11,33.54,8,.46,0,.88.53,2.7,1.68-4.69-.5-7.85-1.12-11-1.07-1.9,0-3.79,1.07-5.68,1.66,1.06,1.41,1.87,3.14,3.21,4.17,5.59,4.29,11.38,8.33,17,12.54,6.34,4.72,9,4.15,12.72-2.93a8.92,8.92,0,0,1,2.41-3.47c.25,1,.88,2,.66,2.84s-1.42,1.17-2,1.88c-5.72,6.5-5.54,7.91,1.46,12.77,2.91,2,5.78,4.13,8.67,6.2l1.68-.79c-.46-3.06-.92-6.12-1.36-9.18l.91-.39c1.21,2.73,2.76,5.38,3.57,8.23,2.2,7.77,4.15,15.62,6,23.47a5.36,5.36,0,0,1-.57,3.86c-.88,1.28-2.46,2.09-3.74,3.1-.7-1.34-1.74-2.6-2-4-.72-3.28-.21-7.15-1.78-9.85-3.71-6.36-11.52-7.28-17.12-2-3.31,3.15-5.44,2.8-8.71.36C228.73,498,217,489.44,205.25,481c-3-2.2-4-4-1.95-8,4.61-8.8-1.18-17.54-11-17-2,.11-4,2.16-6,3.32Z"/>
      <path class="cls-1" d="M35.07,322.36c-.57,3.55-1,6.26-1.48,8.93-.13.69-.75,1.84-1.15,1.84-7.53.1-14.8,5.56-22.49,1.15-.85-.49-2-1.82-1.87-2.43,2.14-7.71-3.4-13.43-5-20.14-.26-1.11-.8-2.15-1.12-3.24C-1.4,297.08,1,289,9.41,283.83s22.36-3.66,29.28,3.44c5,5.16,5,11.67,3.94,18.26-.27,1.69-1.35,3.61-.86,5C44.29,317.58,39.26,319.92,35.07,322.36Z"/>
      <path class="cls-1" d="M620.74,322.6c-1.68-1.26-3.77-2.83-5.84-4.41-.59-.46-1.71-1.13-1.62-1.44,2.49-8.87-4.54-18.17,1.68-27.05,4.09-5.85,16.56-10.56,25.27-8.32,9.25,2.37,15.08,9.45,14.45,18.59-.32,4.68-1.86,9.28-3,13.89-1.34,5.66-2.73,11.31-4.26,16.93-.36,1.32-1.27,3.48-2.06,3.54-4.73.37-9.65,4.95-14.27-.31-.42-.48-1.39-.5-2.11-.72-2.45-.75-5.86-.78-7.09-2.44C620.52,329,621.07,325.67,620.74,322.6Z"/>
      <path class="cls-1" d="M448.07,127.41c-4.81,6.93,3.18,6.7,4.74,10.55l4-3.14c.24.7.7,1.39.52,1.64-5.59,7.92-11.28,15.78-16.85,23.72a55.1,55.1,0,0,0-3.24,5.88c-1,1.8-1.89,3.61-3.15,6-2.72-1.55-5-2.73-7.2-4.14q-10-6.51-20-13.17c-5-3.34-4.74-5.72.21-9,1.74-1.16,3.7-3.25,4-5.16,1.46-9.61,8.54-15.88,13.48-23.38.78-1.17,4.41-1.78,5.81-1C436.36,119.54,442,123.47,448.07,127.41Z"/>
      <path class="cls-1" d="M466.84,510.85a26.87,26.87,0,0,0,.69,3.77c.6,1.84,1.41,3.6,2.13,5.39,1.74-1,3.69-1.64,5.18-2.89,2.69-2.26,5.09-4.85,8.53-8.19.88,4.86,1.5,8.33,2.13,11.8h1.73c.3-2.09.77-4.17.88-6.27.16-3-.32-6.18.24-9.13.36-1.89,2.1-3.52,3.22-5.27,1.06,1.69,2.79,3.27,3.05,5.07.84,5.67.63,5.7,7,5.22,0,9.93.15,19.83-.17,29.71,0,1.27-2.48,3.52-3.82,3.54-14.32.21-28.64.11-43-.06-1.35,0-3.84-1-3.86-1.62-.16-5.81-1.67-12.51.66-17.24,2.85-5.77,9-9.9,13.78-14.74Z"/>
      <path class="cls-1" d="M442,299.46c-.08-7.44,4.64-12.7,12.11-14.24a45.12,45.12,0,0,0,11-3.76c5.29-2.66,10.23-1.75,15.3.28,3.4,1.37,6.71,3.13,10.24,4,9.25,2.27,13.95,8.14,12.81,16.65-.93,6.9-8.25,12.72-15.71,12.18a15,15,0,0,1-5.87-1.9c-6.17-3.34-12.2-3.36-18.58-.43C452.27,317.3,442.13,311.1,442,299.46Zm55.79.74c-2.86-3-6.24-8.43-8-7.94-3.59,1-6.31,5.13-9.3,8.06,0,.05,1.16,1.28,1.7,2,4.37,6,8.84,6.48,13.48.3C496.36,301.78,497.1,301,497.81,300.2Zm-40.19,2.47c-2.74-2-4.37-4.15-5.67-4-1.7.25-3.13,2.33-4.67,3.62,1.37,1.31,2.62,3.47,4.14,3.69S454.62,304.38,457.62,302.67Z"/>
      <path class="cls-1" d="M256,134.05c1.45-.43,4.22-1.13,6.9-2.1,4-1.45,5.18-4,3.16-8.06-1.14-2.31-2.28-5.19-1.88-7.55.74-4.44.14-7.78-3.6-10.58-.66-.5-.74-3.09-.11-3.73,1.21-1.21,3.13-1.7,4.75-2.48.37,1.3.77,2.6,1.09,3.91s.09,3.05.84,3.62c5.46,4.09,9,10.71,17.28,11.08,6.79.3,5.34,7.34,7,11.49,1.56,3.89-1,7.34-4.63,8.67-4.18,1.5-7.58-.13-10.14-4.13-.86-1.33-3.9-2.39-5.48-1.94-7.6,2.16-15,5.08-22.57,7.32-4,1.17-6.6,2.51-7.75,7.13-.54,2.22-4.28,4.29-7,5.17-3.6,1.17-5.84-1.31-7.47-4.61a8.7,8.7,0,0,0-4.44-4.08c-3.2-1.1-4.17-3.24-2.77-5.66,5.29-9.16,9.75-19.4,21.84-21.62,2.26-.41,5.56-.51,6.86.78,1.09,1.09.42,4.55-.26,6.7C245.52,130.21,248.12,134.42,256,134.05Z"/>
      <path class="cls-1" d="M392.76,135.47c-8,16.08-15.72,31.56-23.42,47.05l1.49,1.57L402,177.27c-2.7,6-4.74,10.76-7,15.43-3,6.36-6.38,12.58-9.31,19-1.4,3.05-4.33,6.24-.54,9.81.38.36-.13,2.3-.78,3-2.52,2.72-5.27,5.24-7.93,7.83l-1.73-.51c-.21-4.06-.45-8.11-.59-12.17a1.92,1.92,0,0,1,.85-1.4c9.89-5.35,8-15.94,10.41-24.4,1.2-4.15-3.24-3.11-5.59-2.46-5.69,1.58-11.27,3.56-16.93,5.25-2.11.63-4.32.93-7.87,1.66,2.74-7.53,4.88-13.9,7.37-20.13,4.82-12,9.83-24,14.78-36C380.08,135,383.27,133.48,392.76,135.47Z"/>
      <path class="cls-1" d="M558.24,425.14c-1.29-2.21-2.22-4.47-3.72-6.26-4.19-5-3.18-9.59,1.93-13.4,4.3-3.21,7.81-7.54,11.47-11.55a4.52,4.52,0,0,0,1-3.72c-1.67-5-1.06-9.49,1.24-14.3,1.72-3.57-1.51-5.85-6.66-4.82-5.58,1.11-9.86-1.4-13-5.3-3.4-4.15-3.56-9.05-.71-13.89,3.34-5.67,9.67-8,15.64-5.48,6.47,2.67,9.62,8.72,7.93,15.21-2.16,8.31-1.25,10,6.45,13.34,4.09,1.79,7,4.64,6.38,9.7-.59,4.89-3.5,7.31-8.16,8.15-8.7,1.57-13.66,9.43-11.55,17.61.47,1.83.47,4.77-.63,5.84-6.06,5.86-6.18,11.49-1.11,18.08,1,1.28.31,5.13-1,6.51a7.22,7.22,0,0,1-6.48,1.52c-1.81-.72-3.24-3.47-3.88-5.62-.36-1.23,1.19-3,1.86-4.55C556.15,430,557.09,427.81,558.24,425.14Z"/>
      <path class="cls-1" d="M100.54,358.85A12.63,12.63,0,0,1,85.83,371.1c-2.09-.3-5.43,0-6.27,1.27s.32,4.28.7,6.5,1.17,4.37,1.2,6.57c.05,2.68-1.7,6.17-.55,7.9,2.86,4.32,6.38,8.68,10.64,11.5,6.72,4.45,8,8.33,2.75,14.2-4.33,4.85-4.48,8.25-.45,13.5,2.67,3.49,2.7,6.84-.92,9.44s-6.93,1.13-8.59-2.33c-.86-1.78-.37-4.89.66-6.76,3.55-6.4,3.28-9.17-.63-14.94a12.08,12.08,0,0,1-1.45-8.44c1.29-6.14-3.75-15.33-10.09-16.31-5.32-.83-9.22-2.86-9.69-8.64-.44-5.62,2.64-8.66,7.88-10.35,5.52-1.78,6.72-5.22,5-11.17-1.62-5.52-1-10.54,3.8-14.5,3.64-3,7.47-4.52,12.1-2.46C98.16,348.88,100.61,352.48,100.54,358.85Z"/>
      <path class="cls-1" d="M559.07,266.21c-4.17,3.19-8.36,6.36-12.51,9.58-2.26,1.75-4.58,3.45-6.65,5.41-2.6,2.45-2.52,5.06.46,7.21,3.71,2.69,7.31,5.63,11.36,7.69,2.06,1,5,.67,7.52.46,2.28-.18,4.51-1,8-1.86l-12.6,21.2c-.9-2.37-2.16-4.17-2.16-6,0-4.74-2.54-7.29-6.43-9.19-3.08-1.5-6-3.27-9.07-4.87-4.57-2.42-6.85-1.36-8,4.14s-1.79,11.3-2.8,16.93c-.39,2.14-1.16,4.21-1.76,6.32l-1.81.17c-.71-2.53-1.78-5-2.08-7.61-1-8.72-1.93-17.45-2.41-26.2-.22-4.15-1.84-6.75-5.37-8.66a46.9,46.9,0,0,1-8.13-5.3c-1.18-1-1.46-3.09-2.15-4.68,1.87-.5,4-1.82,5.57-1.33a30.8,30.8,0,0,1,8,4.41c3.9,2.72,7.69,2.54,11.89.74,8.06-3.44,16.2-6.67,24.37-9.83,1.85-.72,4-.77,5.93-1.13C558.51,264.67,558.79,265.42,559.07,266.21Z"/>
      <path class="cls-1" d="M107.46,438.17c3.83-4.79,6.73-3.53,10.06.92A182,182,0,0,0,130,453.24a41.29,41.29,0,0,0,4.84,3.9c.33-3.62-.27-7,1.08-9.32a18.77,18.77,0,0,1,7.57-6.78c2.55-1.27,5.91-.93,10.29-1.47.75-4.78,2.06-10.9,2.56-17.1.3-3.67,1.6-4.52,5-4.21s6.95,0,10.43,0c-2-3.26-3.72-6.73-6.09-9.69-1.33-1.67-3.93-2.27-5.56-3.78a4.83,4.83,0,0,1-1.29-3.86,3.77,3.77,0,0,1,2.81-2.24,4.54,4.54,0,0,1,3.16,1.78c6.51,8.35,13,16.73,19.27,25.26,1.15,1.56,1.3,3.85,1.91,5.8a38.63,38.63,0,0,1-6-2.15c-2.81-1.53-6.74-5.54-7.87-4.82a49.85,49.85,0,0,0-11.89,11.11c-.58.72,2.22,4.87,4.15,6.71,3.62,3.46,3.21,5.93-.72,8.59-3.29,2.23-5.92,7.73-10.38,1.38a51.66,51.66,0,0,0-4.6-5.09c-2.14-2.29-4.24-3.8-7.19-.84-2.74,2.74-2.73,4.94-.06,7.78,9.62,10.19,8.91,8.63-1.09,17a73.08,73.08,0,0,0-6.79,6.13c-3.62,3.87-6.57,3.41-9.84-.55-6.78-8.2-13.77-16.25-20.74-24.29-5.31-6.13-5.36-6.09,1.2-11.11-2.67,2.5-4.83,5.24-1.21,8.44,2.93,2.6,5.46,1.38,7.37-1.63-.69,2.38-2.72,5.6-1.84,7,2.6,4.1,7.09,7,9.48,11.23,4.76,8.31,9,6.09,14.5.91,3.06-2.9,3.38-4.71.42-7.78-3.64-3.77-6.65-8.15-10.13-12.1a83.92,83.92,0,0,0-9.63-9.78C112.06,436.8,109.39,437.94,107.46,438.17Z"/>
      <path class="cls-1" d="M41.44,526.58C64.88,523.36,85.63,514.92,105,502c2.36,14.72-6.69,29.68-20.72,35.86C68.75,544.67,52.16,540.6,41.44,526.58Z"/>
      <path class="cls-1" d="M268.9,583.12l4.65-6.46,1.54.54c-1.75,4.68-3.14,9.56-5.49,13.92-.55,1-4.61.93-6.65.21-12.77-4.49-25.43-9.29-38.11-14-7.85-2.92-15.67-5.91-23.51-8.87-4.23-1.6-5.54-4.24-3.31-8.48,1.9-3.59,3.5-7.34,6.42-10.56l-1.12,9.46c8.2-8.84,14.48-1.69,20.7.31,13.2,4.25,25.79,10.43,39,14.4C268.66,575.25,266.71,579.25,268.9,583.12Zm-1.74-2.67c-3.19-2.55-5-5.14-6.57-5-2.08.23-3.94,2.57-5.89,4,1.47,1.92,2.8,5.25,4.43,5.4,2,.22,4.29-2.18,8-4.4ZM211.9,569.37c2.39-3.34,4.8-5.26,4.81-7.2,0-1.5-3.18-4.4-4.58-4.19-1.87.28-4.35,2.76-4.73,4.67C207.12,564.12,209.64,566.16,211.9,569.37Z"/>
      <path class="cls-1" d="M183.07,234.29c2.49-6,44.86-36.59,50.17-36-7.53,6.19-1.68,8.78,2.55,12.12,4.94,3.89,9.44,8.35,14.47,12.1,3,2.21,6.69,3.32,9.81,5.33,1.7,1.09,3.56,2.86,4,4.64.24,1-2.44,3.83-3.63,3.73-1.74-.15-3.61-1.93-4.91-3.46-2.15-2.51-3.47-5.86-5.89-8-6.55-5.81-13.34-11.39-20.41-16.55-1.54-1.12-5-.85-7,.12-3.23,1.65-1.24,4.14.23,6.19,4.91,6.82,9.69,13.73,14.8,20.38,1.54,2,4.12,3.17,6,5,1.51,1.43,3.72,3.23,3.71,4.85s-2.35,3.23-3.88,4.62a62.56,62.56,0,0,1-5.14,3.9c-1.33,1-2.69,1.9-4,2.91-1.9,1.46-3.79,3-5.65,4.49-.72.59-1.24,1.75-2,1.89-3.66.66-6.38,1.75-8.09,5.81-1.28,3-7.53,1.6-7.42-1.75.22-7-5-10.84-8-15.88-1.79-2.92-3.93-5.63-6-8.38C193.38,237.74,191.05,231.53,183.07,234.29Zm46.18,15.46c-.41-1.69-.39-3-1-3.86-5.9-8.2-11.74-16.46-18.05-24.34-.91-1.13-4.84-1.23-6.18-.21s-2,4.59-1.14,6a155.36,155.36,0,0,0,10.2,14.49,71.38,71.38,0,0,0,8,9.69c1.37,1.29,4.1,1.5,6.18,1.43C228,252.92,228.7,250.67,229.25,249.75Zm9.64-7.53a45.77,45.77,0,0,0-2.9-5.77c-2.85-4-5.91-7.94-8.87-11.9-2.51-3.35-4.72-7-7.68-9.91-1.12-1.1-4.34-1.13-5.94-.33-1.22.62-2.47,4.07-1.85,5,5.93,8.62,12.1,17.09,18.62,25.27,1,1.31,4.12,1.4,6.22,1.29.82-.07,1.52-2.2,2.41-3.65ZM220,256.13a12.27,12.27,0,0,0-.86-2.86c-6.17-8.41-12.27-16.89-18.77-25-.82-1-4.49-1-5.75-.07s-2,4.28-1.19,5.57c2.87,4.89,6.41,9.38,9.73,14,2.42,3.39,4.56,7.07,7.46,10,1.48,1.49,4.36,2.16,6.59,2.13,1,0,2-2.65,2.79-3.77Z"/>
      <path class="cls-1" d="M382.4,538.87c6.12,14.83,11.71,28.74,17.62,42.51,2,4.62,1.26,7.19-3.86,8.33s-10,2.51-14.92,3.9c-4.61,1.28-7-.49-7.36-5.14-.31-4.18-.58-8.38-.66-12.58,0-1.21.43-3.3,1.12-3.5,5-1.52,4.39-5.25,3.26-8.62-1-3-3-5.56-4.58-8.31a21.67,21.67,0,0,1-2-3.2c-1-2.81-1.79-5.7-3-9.56Z"/>
      <path class="cls-1" d="M250.4,411.53l-9.73,5.08c1.61,6.07,3.22,12.2,5,18.75a26.36,26.36,0,0,1-37.21-2.27l-.29-.33c-2.76-3.26-2.55-5.83.31-8.94,3.32-3.61,5.63-8.29,9.34-11.33,3.35-2.73,8-4,12.09-5.66a2.69,2.69,0,0,1,2.38,1.06c1.62,6.07,5.62,3.31,9.1,2.61,2.76-.55,5.54-1,8.31-1.5Z"/>
      <path class="cls-1" d="M428.29,491.41c9.48.33,19.42,11.38,18.87,21-.53,9.18-11.52,18.94-20.86,18.54-9.55-.41-19.37-11.38-18.75-20.92C408.18,500.26,418.44,491.07,428.29,491.41Zm-8.17,19.19c-.12,4.21,3.42,8.32,6.94,7.93,4.15-.46,7.13-2.88,7.73-7.14.51-3.59-3.69-7.36-7.87-7.37-4.58,0-6,3.22-6.8,6.58Z"/>
      <path class="cls-1" d="M394.9,500.67c-2.54-14.21,7.1-25.21,11.9-37.75,2.35-6.12,4.27-12.42,6.89-18.41.49-1.12,3.41-1.64,5.2-1.62,2.21,0,4.41.9,6.62,1.42v-7.14c4.57-1.6,8.81.52,11.62,6.61-.64.29-1.26.62-1.91.85-1.8.62-3.62,1.21-5.43,1.81,1,1.59,1.69,3.66,3.11,4.68,3.55,2.52,3.54,3.79.33,7.28-6.28,6.83-11.6,14.57-16.94,22.19C410.4,489,405.23,497.88,394.9,500.67Zm31.77-38.31c-2.33-3.39-3.56-7.16-5.75-7.83s-5.27,1.81-8,2.91c1.58,2.8,2.54,6.67,4.93,8,1.63,1,5.25-1.67,8.79-3Z"/>
      <path class="cls-1" d="M272.59,198c0-5.32-.08-10.65,0-16,.08-4.58,2.27-7.58,7-8.19a39.76,39.76,0,0,1,6.81-.44c8.92.44,11,2.51,11.17,11.39.14,8.55.08,17.12,0,25.67-.15,11.92-2.33,13.93-14.17,13.44-7.59-.32-10.48-3.33-10.58-11,0-2.48,0-4.95-.05-7.43s0-4.94,0-7.42Zm12.3-4.29c4.21-.2,9.12,1.12,10.13-5.36,1.2-7.73-1-10.29-9.08-10.35-9.3-.06-10.68,1.07-10.32,8.44.28,6.44,1.28,7.21,9.28,7.27Z"/>
      <path class="cls-1" d="M353.29,590.79c-1.59-9,.94-18.71-2.58-27.48h-2.18q-1,13.49-2,27l-1.84.12c-.36-2-1.08-4-1-6,.77-27.07,1.54-54.15,2.6-81.21.16-4.3,1.68-8.55,2.57-12.83h2.56c.84,3.48,2.31,6.94,2.42,10.44.62,19.44.87,38.9,1.34,58.35.19,7.62.78,15.24.87,22.86,0,3-.81,6-1.25,9Z"/>
      <path class="cls-1" d="M537.05,414.37c-1,1.62-1.93,3.06-2.84,4.5l5.36,2.73L533,423.92c1.69,1.48,2.71,3.14,3.87,3.25,4.41.4,5.21,3.07,5.07,6.73-.12,3.24.09,6.51-.22,9.74-.49,5.27-3.88,8.59-8.29,8.54s-7.55-3.42-7.72-9c-.38-12.79-.44-25.59-.78-38.38-.09-3.53-.71-7-1.15-11.25H542.4c-.21,4-.13,7.79-.76,11.48a5.79,5.79,0,0,1-3.24,3.77C533.8,410.41,535,412.44,537.05,414.37Z"/>
      <path class="cls-1" d="M187.37,340.08c7.53,5.61,7.76,5.59,16.42-1.73,1.55-1.31,2.88-2.92,4.54-4.06a42.81,42.81,0,0,1,5.4-2.75c6.66,6.72,6.66,8.89-.85,14.22q-22.11,15.69-44.47,31c-7.22,4.94-8.72,4.37-13.32-3.8,2.37-2.88,6.76-5.66,2.39-10.23,5.45,4.43,6.79,4.12,14.18-1.7,4.49-3.54,2.47-6.91.45-10.49,5.64,6,5.52,5.83,15-.33C192.64,346.67,188.58,343.47,187.37,340.08Z"/>
      <path class="cls-1" d="M508.27,332c3.82,2.32,7.1,1.43,10.44-1.29,2.17-1.78,4.78-4,7.32-4.14,3.79-.25,8.44.07,11.3,2.13,2.27,1.63,2.4,6.23,3.49,9.51l-1.92-.41c-.94.94-2.64,1.84-2.69,2.82-.29,6.66-.45,13.34-.13,20,.07,1.47,2.24,2.84,3.66,4.51,0-.19,0,.47-.13.48-9.52.78-19,1.79-28.56,2.14-4.87.18-9.77-.93-14.68-1.26-3.94-.26-5.8-1.91-5.72-6.08.14-7.24.07-14.5-.21-21.73-.18-4.65.25-10,4.67-11.21,3.47-.92,8,1.94,12,3.23.66.22,1.15,1,1.72,1.48-2.64-1.07-5.22-2.31-7.93-3.16-3.43-1.07-6.23-.49-6.2,4,0,6.08,0,12.18.52,18.23a8.47,8.47,0,0,0,3.18,5.52c3.07,2.16,6.69,3.54,10.09,5.24,2.9,1.46,4.46.42,4.43-2.69-.07-5.87.1-11.8-.69-17.6C511.76,338.32,509.64,335.21,508.27,332Zm22,6.13h-.71c0-2.09.38-4.28-.14-6.22-.33-1.23-1.93-2.89-3.08-3-4-.35-10.86,5.84-11,9.93-.27,6.64-.21,13.3,0,19.94a4.61,4.61,0,0,0,2,3.56c2.52,1.07,12.84-6.52,12.94-9.44.08-4.91,0-9.84,0-14.77Z"/>
      <path class="cls-1" d="M459.18,325.17c4.44-.22,8-.67,11.54-.42,1.09.08,2.73,2,2.93,3.23,1.76,11.29,3.29,22.62,4.82,33.94,1.27,9.4.53,10.22-8.92,10.31H469c-17.33.14-15.19.9-12.71-16.46.17-1.19,1-3,1.9-3.27,7.86-2.09,5.8-9.34,4-12.38C459.31,335.34,460.9,330.77,459.18,325.17Z"/>
      <path class="cls-1" d="M382.12,124.34H367.26c-5.7,0-7.73-2.15-7.81-8.09-.08-6.78,2-9.66,7.58-9.74q15.42-.2,30.86,0c5.57,0,8.3,3.37,8.15,9.4-.14,5.7-2.78,8.36-8.49,8.43-5.14.06-10.29,0-15.43,0Z"/>
      <path class="cls-1" d="M244.07,267.67c12.17,3.65,15.65,9.17,13.69,20.41-.38,2.23-.2,4.57-.69,6.77-.26,1.18-1.39,2.17-2.13,3.24-1.11-1-3-2-3.21-3.18-1.7-9.47-1.61-9.77-11.1-9.55-20.94.5-41.87,1.4-62.82,1.85-2.06,0-5.34-1.47-6-3.09-1.69-4.11.79-6,6.11-5.75,17.9.71,35.81,1.36,53.71,1.84a75.53,75.53,0,0,0,12.56-.91c1.89-.27,5-1.37,5.15-2.41.25-1.86-1.2-4.05-2.22-5.95C246.55,269.83,245.44,269.06,244.07,267.67Z"/>
      <path class="cls-1" d="M339.83,189.37l-4.26,3.3c-.84-1.56-1.6-3.15-2.52-4.66-1.07-1.76-1.93-3.91-3.49-5.06-5-3.69-5.13-8.91-5.05-14.22a6.52,6.52,0,0,1,1.47-3.62c2.52-3.3,12.21-6.45,15.45-5.19,8.23,3.21,12.53,8.48,11.78,15.55-.27,2.62-2,5.15-3.37,7.59-1,1.8-2.44,3.33-3.53,5.07-.93,1.5-1.65,3.12-2.46,4.69Z"/>
      <path class="cls-1" d="M306.23,442.78q6.12,6.56,12.23,13.13c.37.4.65.87,1.4,1.9-8.18,9.92-16.07,20.19-24.78,29.72-3.95,4.33-6.22-1.51-9.06-3.92l4.37.25L285.13,478c3.78-.39,6.87-1.28,9.8-.91,6.75.86,8.33.14,11.94-8.55-2.37,1.52-4,2-4.66,3.08-2.78,4.35-7,4.07-11.24,3.85-1,0-1.94-1.33-2.91-2,.94-.63,1.81-1.6,2.84-1.81a37.72,37.72,0,0,1,5.52-.35l.18-1.58-10.7-1.4.14.15,20.25-25.54Z"/>
      <path class="cls-1" d="M316.9,4.43c2.22-.8,4.68-1.24,6.62-2.49,5.39-3.47,14.25-.33,15.73,5.81,1.27,5.21-1.94,9.86-8.59,11-6.17,1.09-12.17,3.45-18.92.66-4.23-1.74-10-2.33-12.25,4.52-.27.85-3.47,1.74-4.29,1.16a5.77,5.77,0,0,1-2-4.59c.69-5.77,4.75-9.53,9.37-12.14,4.27-2.42,9.17-3.72,13.8-5.5Z"/>
      <path class="cls-1" d="M207.23,300.25c-7.25,0-14.5-.11-21.75,0-6.69.13-7.58,1.69-5.54,8,.63,2,1.25,5.57.49,6a17.71,17.71,0,0,1-8.1,1.94c-.86,0-2.48-2.24-2.59-3.55-.44-5.31-.43-10.66-.59-16-.1-3.35,1.35-4.86,4.84-4.64,12.67.8,25.34,1.63,38,2.12,8.58.34,17.18,0,25.76.27,1.59.05,3.82,1,4.5,2.28a4.51,4.51,0,0,1-1.05,4.62c-1,.81-3.25.35-4.93.23-9.67-.7-19.34-1.46-29-2.2Z"/>
      <path class="cls-2" d="M209.29,372.07c10.23,0,12.62,3.65,8.81,13.33-4.6,11.69-17.45,21-29,20.89-8.65-.06-11.33-3.56-9.15-11.93C183.29,381.74,196.05,372,209.29,372.07Zm-8.56,27.6c-7.82-2.4-11-7.56-11.23-14.8-5.77,3.63-9.76,12.62-7.85,16.05C184,405.22,192.26,405.13,200.73,399.67Zm12.8-8.93c1.25-4.3,2.8-8.51,3.47-12.86.15-1-2.71-3.32-4.32-3.45-4.58-.37-9.75-1.7-12.34,2.2Z"/>
      <path class="cls-1" d="M81.13,300.2c-.67,24.89-6.23,45.87-21.53,63.47-.5.58-.91,1.37-1.54,1.67a43.48,43.48,0,0,1-4.27,1.54c.09-1.63-.35-3.56.36-4.85,5.46-10,12.38-19.36,16.48-29.85,7.5-19.18,6.17-38.89-.53-58.25-.25-.72-.84-1.45-.78-2.13a36.72,36.72,0,0,1,.92-4.53c1.3.78,3.32,1.26,3.77,2.37a96,96,0,0,1,5.1,15.12C80.36,290.5,80.67,296.44,81.13,300.2Z"/>
      <path class="cls-1" d="M573.46,302.67c2.22-10.17,4.24-20.4,6.83-30.48.5-1.95,3.22-3.33,4.92-5,.16,2.26,1,4.78.37,6.75a90.4,90.4,0,0,0-4.47,43.35c2.38,16.38,9.34,30.47,19.45,43.29,1.18,1.49,1.31,3.81,1.92,5.74-2-.73-4.7-.88-5.91-2.3-14.92-17.58-22.2-37.95-21.69-61Z"/>
      <path class="cls-1" d="M406.51,562.41c-1-.6-4.09-1.53-5.44-3.6a113.42,113.42,0,0,1-10-18.33c-1.69-4.12,1.45-6.74,5.32-8.68C400,530,403.47,530,405.62,533a115,115,0,0,1,9.93,17C418.59,556.33,414.59,562.67,406.51,562.41Z"/>
      <path class="cls-1" d="M339.9,140.45c-.87,1.88-1.67,3.59-2.4,5.15L329,139.05c3.09-7.52,6.39-15.53,9.53-23.14-2.8.48-5.77,1.94-7.77,1.09-2.89-1.23-2.7-9.74.21-14.9.34,2.39.56,4,.79,5.54s.44,2.89.67,4.37c8.38-2.11,8.34-2.09,10.73,5.85.36,1.21,1.41,2.2,2,3.36,1.62,3.27,3.37,6.49,4.67,9.89a76.52,76.52,0,0,1,2.19,8.71c-1.76,1.37-4.07,3.15-6.72,5.18Z"/>
      <path class="cls-1" d="M205.65,148.67l-7.06-6.44c3.15-3.81,6.23-5,10.07-1.37,5.7,5.33,6.07,7.92,2.06,12.13-3.38,3.56-6.33,7.54-9.75,11-4.54,4.66-11.48,5.36-14.78,1.81-3.45-3.71-2.74-9.52,1.77-14.36,1-.91,1.9-1.86,2.78-2.86,3.45-4.56,6.9-5.61,10.8-.43.65.86,2.07,1.15,3.13,1.71Z"/>
      <path class="cls-2" d="M508.27,332c1.37,3.21,3.49,6.32,3.94,9.66.79,5.8.62,11.73.69,17.6,0,3.11-1.53,4.15-4.43,2.69-3.4-1.7-7-3.08-10.09-5.24a8.47,8.47,0,0,1-3.18-5.52c-.53-6-.48-12.15-.52-18.23,0-4.44,2.77-5,6.2-4,2.71.85,5.29,2.09,7.93,3.16Z"/>
      <path class="cls-1" d="M325.5,514.89V583l2.25.19c.53-4.15,1.47-8.3,1.53-12.45.32-23.1.42-46.21.62-69.31a7.38,7.38,0,0,1,1.44-4.62,40.9,40.9,0,0,1,.48,4.42c.12,25,.28,50,.2,75a68.08,68.08,0,0,1-1.7,14.15c-.4,1.82-2.5,3.27-3.82,4.9-1.1-1.63-3-3.2-3.16-4.89-.77-10.82-1.66-21.67-1.52-32.49.17-12.58,1.29-25.16,2.14-37.72.12-1.78,1.06-3.51,1.62-5.26Z"/>
      <path class="cls-2" d="M107.46,438.17c1.93-.23,4.6-1.37,5.65-.52a83.92,83.92,0,0,1,9.63,9.78c3.48,4,6.49,8.33,10.13,12.1,3,3.07,2.64,4.88-.42,7.78-5.46,5.18-9.74,7.4-14.5-.91-2.39-4.18-6.88-7.13-9.48-11.23-.88-1.39,1.15-4.61,1.84-7q-2.7-3.63-5.41-7.27Z"/>
      <path class="cls-1" d="M494.73,489.74l-3.23,3.46c-1.11-1.82-2.9-3.53-3.2-5.47-.8-5.32-2.72-6.51-7.64-4-11.42,5.93-13.67,5.56-22.13-3.59-3.87-4.19-7.56-4.32-12.59-.92-1.44,1-3.53,1-5.33,1.43.45-2,.29-4.52,1.46-5.92,5.22-6.27,15-6.05,20.64.14,6.44,7.09,7.79,7.32,15.93,2.77C487.68,472.61,494.9,477.14,494.73,489.74Z"/>
      <path class="cls-1" d="M64.56,305.2A85.07,85.07,0,0,1,47,351.43c-.58.76-1.15,1.74-1.95,2.05a23.93,23.93,0,0,1-4.34.91c.08-1.5-.36-3.33.33-4.45,3.26-5.33,7.45-10.17,10.19-15.73,8.77-17.85,9-36.26,2.53-54.94-.48-1.4.27-3.22.45-4.85,1.39,1,3.69,1.85,4,3.16C60.55,286.72,62.49,296,64.56,305.2Z"/>
      <path class="cls-1" d="M591.34,304c1.81-8.51,3.43-17.06,5.58-25.48.42-1.63,2.88-2.74,4.41-4.08.15,1.87.9,3.94.36,5.59-8.22,24.86-4.62,47.62,11.49,68.39,1.13,1.45,1.07,3.81,1.57,5.75-1.88-.82-4.36-1.14-5.53-2.55C597.9,337.94,592.38,322,591.34,304Z"/>
      <path class="cls-1" d="M252.15,445c3.21-6.89,4.14-14.1,11.51-17.56,4.17-1.95,7.92-2.29,11.93-.11a38.19,38.19,0,0,0,3.55,1.81c6.7,2.78,7.11,4.62,1.17,8.82C272.1,443.79,263.08,447,252.15,445Z"/>
      <path class="cls-1" d="M209.59,533.37c1.7-3.73,2.89-7.84,5.32-11,1.08-1.41,5-1.8,7.06-1.09,11.38,3.83,22.61,8.12,33.86,12.31,7.33,2.73,14.61,5.58,21.91,8.35,7,2.67,7.76,4.06,5.39,11.06-.77,2.28-1.79,4.47-2.91,7.22-.46-1-.91-1.48-.84-1.88,1.67-9.49-2.82-13.84-11.69-16.56-13.29-4.09-26.19-9.44-39.18-14.44-10.21-3.93-8.69-2.64-16,5-.5.52-1,1.07-1.45,1.61Z"/>
      <path class="cls-1" d="M378.16,505.73l-9.87-3.79c1.09-4.51,2.1-9.28,3.43-14s3-9.38,4.61-14.39l9.06.62C382.77,484.75,378.3,494.94,378.16,505.73Z"/>
      <path class="cls-2" d="M359.6,442.87a11.5,11.5,0,0,1-11.52,11.48h-.29c-6,0-11.26-5.63-11.24-12.11s4.87-11.23,11.78-11.34C354.54,430.79,359.61,436.17,359.6,442.87Zm-2.67-1c-3.46-2.92-6.43-7.26-8.8-7-2.8.37-7,4.66-7.06,7.39-.09,2.49,4.68,7.43,6.87,7.19,3-.25,5.59-4.44,9-7.55Z"/>
      <path class="cls-1" d="M308.08,198.48c-3.33-4.83-3.4-10.63-3.48-16.34-.09-6.4.11-12.81.19-19.22,0-.95-.35-2.2.11-2.8a26.21,26.21,0,0,1,3.67-3.39c1,1.13,2.8,2.21,2.86,3.39.49,9,.82,18.08.79,27.13,0,3.66-1.07,7.32-1.65,11Z"/>
      <path class="cls-1" d="M422.9,620.78c2.28,8.14,7.72,7.13,12.56,7.56-.24,1.71.1,4.39-.82,4.93-3.08,1.81-4.84,3.45-2.93,7.25.39.78-.67,3.2-1.48,3.44-1.24.38-3.61,0-4.17-.91-1.91-3.06-3.56-5.44-7.66-3.15-.66.37-2.91-.56-3.11-1.26-.34-1.19,0-3.6.68-3.9,3.88-1.62,4.11-4.27,3.52-7.89C419.32,625.58,421.05,624,422.9,620.78Z"/>
      <path class="cls-2" d="M138.42,184.75a10.87,10.87,0,0,1,11,11.28c-.27,5.67-5.77,10.47-11.72,10.24-6.18-.25-10.09-4.87-9.86-11.65C128,188.23,131.9,184.67,138.42,184.75Zm8.47,10.5c-3.11-2.61-5.62-6.34-8-6.25s-6.67,3.7-6.81,6,3.78,6.95,5.79,6.88c2.74-.1,5.35-3.72,9-6.63Z"/>
      <path class="cls-1" d="M252.59,165.23c1.3,2.4,2.28,4.22,3.71,6.88l-23.93,12c-1.34-2.46-2.67-4.88-4-7.31Z"/>
      <path class="cls-1" d="M469.14,159l-2.92,5.44c-5.26-3.14-3-8.1-3.15-12.22,0-1.32,1.37-3.77,2.26-3.84,4.87-.36,10.16-1.93,14.43,2.61-6.29,3.69-6.19,3.6-1.72,8.77,1,1.14,1,3.12,1.44,4.72-1.61-.41-3.38-.53-4.79-1.31A49,49,0,0,1,469.14,159Z"/>
      <path class="cls-2" d="M172.11,350.53c2,3.58,4,7-.45,10.49-7.39,5.82-8.73,6.13-14.18,1.7-1.15-1.84-4.38-3.31-1-5.91a56.64,56.64,0,0,1,7-4.44c2.52-1.16,5.34-1.65,8-2.44Z"/>
      <path class="cls-1" d="M297.9,589.17V514.94c4.35,11.67-2.16,24.85,6,37.55.58-.17-.38,0-1.28.43a23.68,23.68,0,0,0-2.87,1.89l6.15,3.06-6.68,4.5,5.62,2.41C295.31,572.06,301.73,581.58,297.9,589.17Z"/>
      <path class="cls-2" d="M172.11,350.53l-.62-.6,1.76-5.3,9.57-6.18,4.73,1.76-.18-.13c1.21,3.39,5.27,6.54-.25,10.12C177.63,356.36,177.75,356.55,172.11,350.53Z"/>
      <path class="cls-1" d="M320.26,422.33c-5.87-3.15-6.5-.21-6.68,4-.07,1.63-1.61,3.19-2.48,4.78a20.29,20.29,0,0,1-2.7-10l-5.62.79c-1.95-6,3.58-7.71,6.19-10.89.69-.85,3.34-1.39,3.83-.87C315.84,413.4,321,415.36,320.26,422.33Z"/>
      <path class="cls-1" d="M111,401.51l-9.21-12.23c5.86.79,30.55,25.75,33.58,35.54Z"/>
      <path class="cls-1" d="M186.34,459.38c1.47-.34,3-.61,4.41-1,4.48-1.35,7.8.38,10.19,4,2.66,4,3,8.23-.75,11.82-3.15,3-6.94,4-11,1.79-4.37-2.36-6.16-6.11-5-11a40.44,40.44,0,0,1,2.32-5.81Zm7,16.39c2.57-3.87,5.3-6.17,5.16-8.28s-3.29-3.79-5.11-5.67c-2,2.1-5,3.92-5.72,6.41-.39,1.38,2.82,3.87,5.71,7.54Z"/>
      <path class="cls-1" d="M265.9,514.67c-.15,5.91-3.89,9.67-9.46,9.53a9.58,9.58,0,0,1-9.18-9.68,9.94,9.94,0,0,1,9.64-9.35C262.34,505.16,266.07,509.11,265.9,514.67Zm-2.56,1c-.06-.78-.11-1.55-.16-2.32-2.41-1.31-4.93-3.78-7.18-3.56-1.86.18-5.05,4-4.69,5.43.52,2.22,3.6,5.24,5.65,5.28s4.29-3,6.42-4.83Z"/>
      <path class="cls-1" d="M260,449.73l23.31-8.65c.2,6.61-3.29,10.22-8.24,12.64S264.29,454.67,260,449.73Z"/>
      <path class="cls-1" d="M560.72,104.3c4.42-.5,8.85-1.37,13.28-1.35,2.59,0,5.18,1.44,7.78,2.23-.13.58-.25,1.16-.38,1.75l-6.41,3,7.09,5.75c-3.12.87-5.62,2.41-7.6,1.91-2.2-.55-5.34-2.76-5.6-4.6-.72-5.13-4.21-6.88-8-8.73Z"/>
      <path class="cls-1" d="M304.9,523.83c0-2.15.41-4.39-.09-6.42-.81-3.3-2.55-6.39-3.23-9.71-.5-2.43-.9-6.14.42-7.34,1.48-1.34,5.92-1.56,7.28-.32s2,6.46,1,7.31c-5,3.93-3.93,9-4,14a21.2,21.2,0,0,1-.34,2.52Z"/>
      <path class="cls-2" d="M254.41,204.94c-4,.05-8-3.7-7.88-7.44.1-4.35,4.45-9.17,8.51-7.9a12.45,12.45,0,0,1,7.09,7.43C263.26,201.2,258.9,204.88,254.41,204.94Zm0-13.52c-2,2.6-4.32,4.34-4,5.42a6.72,6.72,0,0,0,4.1,4.16c1,.27,3.88-2.22,3.86-3.43-.08-1.69-2-3.34-4-6.15Z"/>
      <path class="cls-1" d="M408.46,616c-1.42-1-3.19-1.66-3.48-2.71a4,4,0,0,1,1.64-3.54q7.5-3.54,15.29-6.33c1-.34,2.88.54,3.58,1.46.47.6-.07,3-.78,3.34C419.51,610.93,414.15,613.32,408.46,616Z"/>
      <path class="cls-1" d="M332,466.87c0,7.1.13,13.46-.15,19.82,0,.93-1.9,2.22-3.12,2.51a3.6,3.6,0,0,1-3.08-1.52C323.27,483.15,326.74,471.11,332,466.87Z"/>
      <path class="cls-1" d="M187.55,340.21l-4.73-1.76c.44-3.12.88-6.25,1.43-10.09-.06,0,1.71-.52,1.87-.22,2.78,5.46,5.92,2,8.88.41,2.17-1.14,4.19-2.56,6.28-3.86l.87,1.51c-3.31,1.9-6.64,3.78-9.94,5.7S186.76,336.13,187.55,340.21Z"/>
      <path class="cls-2" d="M310.69,553.79v35.36H310V553.67Z"/>
      <path class="cls-2" d="M104.9,440.92q2.71,3.63,5.41,7.27c-1.91,3-4.44,4.22-7.37,1.62-3.62-3.2-1.46-5.94,1.21-8.44A5.14,5.14,0,0,1,104.9,440.92Z"/>
      <path class="cls-2" d="M314.8,104.47l-11.75-1c-.1-.83-.19-1.67-.29-2.51,2.79-.47,5.62-1.45,8.36-1.22,1.68.13,3.2,2.11,4.8,3.27Z"/>
      <path class="cls-2" d="M182.14,443.16l-20.45,17.73-1-1.14,20.49-17.9Z"/>
      <path class="cls-1" d="M313.36,514.2c-.33,4.65-.78,9.29-.94,13.94s0,9.44-1.07,14.15v-28Z"/>
      <path class="cls-2" d="M111.31,410.07a56,56,0,0,1,5.62,3.68,26.72,26.72,0,0,1-2.09,3.44l-5.29-4.6Z"/>
      <path class="cls-1" d="M173.25,344.67l-1.76,5.3c-2.69.79-5.51,1.28-8,2.44a56.64,56.64,0,0,0-7,4.44Z"/>
      <path class="cls-1" d="M115.42,393.45a31.63,31.63,0,0,1-3.07-5c-.13-.32,2.14-2.09,2.34-2a13.75,13.75,0,0,1,3.44,3.77C118.32,390.57,116.74,391.92,115.42,393.45Z"/>
      <path class="cls-2" d="M325.58,515V497.18l1.6.07c-.57,5.87-1.14,11.73-1.7,17.62Z"/>
      <path class="cls-2" d="M285.9,468.28c-.77,1.89-1.61,3.75-2.28,5.67-.8,2.27-1.45,4.59-2.11,6.73-4.32-2.87-3.42-5.93,4.54-12.25Z"/>
      <path class="cls-2" d="M130.78,401.41c-1.73,1.25-3.21,2.73-3.57,2.5a13.48,13.48,0,0,1-3.51-3.71c-.13-.19,1.54-2.16,1.82-2A45.62,45.62,0,0,1,130.78,401.41Z"/>
      <path class="cls-1" d="M100.77,398.18l4.67,4.17c-.65.78-1.33,1.53-2,2.24-1.66-1.23-3.18-2.64-4.73-4Z"/>
      <path class="cls-2" d="M306.33,442.89l11.57-2.34.17,1.46c-3.76,1.76-7.44,4.25-11.81.79Z"/>
      <path class="cls-2" d="M366,373.45a20.77,20.77,0,0,1,20.75-20.79h.53c12.1.29,21,9.26,21,21.18a21.11,21.11,0,0,1-20.74,21.46h-.65C375.05,395.23,365.9,385.67,366,373.45Z"/>
      <path class="cls-2" d="M295.44,356a18.21,18.21,0,0,1-18.12,18.3h0c-9.15,0-18.16-8.87-18.31-18-.16-9.71,8.93-18.7,18.78-18.57C287.27,337.88,295.49,346.36,295.44,356Z"/>
      <path class="cls-2" d="M321.54,283a17.42,17.42,0,0,1-17.29-17.49c.15-10.92,7.74-18.53,18.29-18.33,9.55.19,17.61,8.31,17.4,17.53C339.7,275.54,332.1,283.09,321.54,283Z"/>
      <path class="cls-2" d="M151,133.9c.08,8-7.06,15.18-15.39,15.4-8.12.22-15.25-6.82-15.42-15.21s6.83-15.7,14.91-15.62A15.78,15.78,0,0,1,151,133.9Z"/>
      <path class="cls-2" d="M529.78,109.86c0,5.26-3.39,8.6-8.61,8.5a9.45,9.45,0,0,1-9.31-9,8.29,8.29,0,0,1,8.07-8.52H520C525.44,100.79,529.79,104.77,529.78,109.86Z"/>
      <path class="cls-2" d="M551,131.14c-.23,4.29-3,6.57-7.24,6.93-3.55.29-7.48-4-7.57-7.88a7.22,7.22,0,0,1,7.36-7.09h0a7.64,7.64,0,0,1,7.45,7.81A1.69,1.69,0,0,0,551,131.14Z"/>
      <path class="cls-2" d="M495.37,123.77c-1.48-2-2.87-3.42-2.68-3.68,1.94-2.62,4.14-5,6.27-7.54.84.77,2.51,2,2.39,2.22C499.71,117.55,497.82,120.19,495.37,123.77Z"/>
      <path class="cls-2" d="M544,147.93l-7.65,6.92a22,22,0,0,1-2.18-2.54,93.53,93.53,0,0,1,6.94-7C541.21,145.26,542.53,146.57,544,147.93Z"/>
      <path class="cls-2" d="M509.9,120.27c-2.91,2.71-5.08,4.9-7.49,6.79-.29.23-1.85-1.16-2.82-1.8,2.11-2.46,4.17-5,6.46-7.28C506.24,117.79,507.9,119.08,509.9,120.27Z"/>
      <path class="cls-2" d="M512.9,122.54c1.23,1.52,2.5,2.8,2.38,3-1.88,2.34-3.95,4.54-6,6.77-.76-.86-2.31-2.26-2.15-2.48C508.79,127.43,510.68,125.25,512.9,122.54Z"/>
      <path class="cls-2" d="M524,143.67a23.67,23.67,0,0,1-2.57-3c1.83-2.22,3.82-4.3,5.78-6.42.68.77,2.08,2,1.93,2.24C527.69,138.81,526,140.94,524,143.67Z"/>
      <path class="cls-2" d="M530.52,149.56c-1.26-1.7-2.51-3-2.35-3.22,1.8-2.26,3.81-4.36,5.77-6.49.74.67,2.2,1.81,2.1,2C534.47,144.26,532.7,146.59,530.52,149.56Z"/>
      <path class="cls-2" d="M517.17,138.53c-1.34-2-2.72-3.41-2.49-3.74a37.8,37.8,0,0,1,5-5.65,11,11,0,0,1,2.47,1.93C520.83,133.35,519.28,135.5,517.17,138.53Z"/>
      <path class="cls-2" d="M221.9,635.13c3.24-.59,5.67-.89,8-1.48,4.23-1.08,6.3-3.8,6.44-8.27,0-1.22,1.4-2.47,2.36-3.52.2-.22,1.88.38,1.89.61a10.48,10.48,0,0,1-.5,4.12c-2.19,5-5.29,8.7-11.38,9.76-7.63,1.33-11,7.55-13.41,14.25a41,41,0,0,1-4.94,10.53c.06-1.37-.19-2.84.24-4.08,2.75-7.92,2-14.74-3.06-22.07-2.55-3.69-1.29-10.09-1.43-15.27,0-.49,2.26-1,3.48-1.57.35,1.62,1.56,3.79.92,4.78-5.21,8.16-2.09,11.1,5.12,18.17,2.22-6,4.42-11.45,6.28-17,1.19-3.57,1.73-7.36,2.88-10.94a11.65,11.65,0,0,1,2.79-3.88c.14-.16,1.81.55,1.8.84,0,1.57.08,3.42-.7,4.65C224.77,620.89,223,627.67,221.9,635.13Z"/>
      <path class="cls-2" d="M242.25,604.29c-1.91,1.49-3.42,3.41-4.25,3.15-1.39-.43-2.35-2.25-3.5-3.49,1.26-1.09,2.42-2.79,3.83-3C239.24,600.77,240.52,602.73,242.25,604.29Z"/>
      <path class="cls-2" d="M251.42,607.24c-2.29,1.54-3.93,3.33-4.69,3-1.57-.66-2.68-2.44-4-3.76,1.23-.89,2.5-2.56,3.68-2.49C247.82,604.08,249.12,605.67,251.42,607.24Z"/>
      <path class="cls-2" d="M260.09,610.55c-2.34,1.28-3.85,2.79-4.88,2.51-1.35-.37-2.33-2.14-3.46-3.31,1.14-1,2.4-3,3.4-2.84C256.58,607.08,257.83,608.77,260.09,610.55Z"/>
      <path class="cls-2" d="M338.77,51.06c6.87,0,13.74-.16,20.6.13,1.48.06,2.89,1.73,4.34,2.67-1.41,1-2.7,2.69-4.23,3-12.12,2.07-15.9,5.86-18.13,17.77-.32,1.7-2.72,3.37-4.55,4.29-1.37.7-3.37.23-5.08.19-10.62-.24-10.68-.24-10.91-10.76-.06-2.94-.47-5-4-5.79-4.44-1-3.79-5.1-3-8,.45-1.68,3.14-3.76,4.94-3.88,6.65-.46,13.34-.18,20-.18Z"/>
      <path class="cls-2" d="M368.27,75.12c-1.92-2.36-4.32-4.09-4.08-5.27.42-2.06,2.48-3.78,3.86-5.65,1.64,2,3.59,3.93,4.71,6.22C373,71,370.48,72.86,368.27,75.12Z"/>
      <path class="cls-2" d="M350,73.43c-2-2-4.45-3.92-4.21-4.37C347,66.82,348.92,65,350.61,63c1.35,2.05,3.11,4,3.83,6.23C354.66,69.91,352.08,71.51,350,73.43Z"/>
      <path class="cls-2" d="M358.9,89.6l-5.84-4.52,4.84-5.71c1.53,1.77,3.5,3.35,4.36,5.4C362.55,85.58,360.43,87.43,358.9,89.6Z"/>
      <path class="cls-2" d="M358.75,58c2.4,2.19,5.32,4.15,5.06,4.75-.86,2-2.85,3.55-4.41,5.27-1.52-1.7-3.49-3.21-4.32-5.19C354.76,62,357,60.16,358.75,58Z"/>
      <path class="cls-2" d="M349.19,72.19c1.92,2.7,4.11,4.44,3.9,5.8-.29,1.85-2.43,3.4-3.77,5.08-1.37-2-3.12-3.86-3.91-6.06C345.13,76.23,347.21,74.61,349.19,72.19Z"/>
      <path class="cls-2" d="M367.42,74c2.09,2.44,4.39,4.28,4.09,4.94-.91,2-2.83,3.56-4.35,5.28-1.27-1.67-3.13-3.2-3.58-5.06C363.33,78.16,365.45,76.56,367.42,74Z"/>
      <path class="cls-2" d="M437.09,605.47c-2.4-5.77-5.67-10.18-5.42-14.38.14-2.37,5.9-5,9.54-6.34,2.64-1,9.3,8.34,7.46,11.77S442.11,601.79,437.09,605.47Z"/>
      <path class="cls-1" d="M397.32,618.06c-1.22,3.46-7.4,7.52-11.31,7.53-2.73,0-9-9-7.13-12.09s7.9-7,10-6C392.53,609.18,394.59,614.34,397.32,618.06Z"/>
      <path class="cls-2" d="M123.07,325.5c-2.54,3.55-5,7.17-7.7,10.6-.49.62-2.66.91-2.85.6-.6-1-1.25-2.84-.77-3.36,3-3.3,6.33-6.33,9.54-9.44Z"/>
      <path class="cls-2" d="M417.74,226.12c5.34,3.62,5.07,9.06,5.3,13.93.14,3-2.12,3.65-4.65,1.53C414,237.92,413.59,231.6,417.74,226.12Z"/>
      <path class="cls-2" d="M477.68,190.72c-2.69,1.95-4.42,3.63-6.49,4.46-.62.25-2.19-1.9-3.32-3a41.46,41.46,0,0,1,5.51-5C473.77,187,475.64,189,477.68,190.72Z"/>
      <path class="cls-2" d="M453.25,197.83c-1.9-2.43-4-4-4-5.46s2.2-3,3.43-4.45c1.42,1.36,3.74,2.57,4,4.12S454.9,195.24,453.25,197.83Z"/>
      <path class="cls-2" d="M479.43,205.78c-1.26-2.05-2.81-3.76-2.5-4.22a45,45,0,0,1,5-5.59c1.05,1.09,3.18,2.86,3,3.17A60.18,60.18,0,0,1,479.43,205.78Z"/>
      <path class="cls-2" d="M457.21,202c2.29-1.68,3.68-3.15,5.37-3.73.63-.22,3,2.16,2.83,2.43a11.52,11.52,0,0,1-3.63,4.35C461.25,205.37,459.37,203.49,457.21,202Z"/>
      <path class="cls-2" d="M470.37,214.78c-1.39-2.08-3.24-3.84-2.9-4.56.77-1.59,2.63-2.66,4-3.94,1,1.14,3.07,2.63,2.83,3.37C473.79,211.34,472.12,212.67,470.37,214.78Z"/>
      <path class="cls-2" d="M449.05,202c-2.1,1.45-3.58,3.22-4.54,3-1.68-.44-3-2.12-4.53-3.27,1.16-1.22,2.46-3.53,3.45-3.4C445.11,198.55,446.6,200.3,449.05,202Z"/>
      <path class="cls-2" d="M452.9,215.43c-1.56-2.15-3.44-3.65-3.19-4.63.34-1.37,2.25-2.37,3.48-3.52,1,1.22,2.71,2.39,2.79,3.67S454.36,213.4,452.9,215.43Z"/>
      <path class="cls-1" d="M466.2,219.45c-2,1.48-3.32,3.19-4.54,3.13s-2.39-1.86-3.57-2.9c1.23-1.25,2.29-3.08,3.77-3.54C462.7,215.89,464.23,217.88,466.2,219.45Z"/>
      <path class="cls-2" d="M520.63,235.67a28.61,28.61,0,0,1-9.92-7.59,15.34,15.34,0,0,1-1.82-3.56c1.34-.23,3.28-1.14,3.92-.58,4.91,4.34,10.13,4.33,15.85,2.05.76-.3,2.21.36,2.92,1a2.57,2.57,0,0,1-.26,2.47C527.9,231.67,524.25,233.61,520.63,235.67Z"/>
      <path class="cls-1" d="M161.72,509.13c4.49,1,8.63,4.57,13.61-.43,3.22-3.24,9.71-1.45,11.95,2.39,1.9,3.26-.09,11-3.29,12.67-4.5,2.42-9.34.57-12-4.2-1-1.81-2.67-4.11-4.38-4.47-3.84-.8-6.6.76-6.7,5.48,0,1.25-1.67,2.46-2.58,3.69-1-1.34-2.8-2.6-2.92-4a63.37,63.37,0,0,1-.08-14.24c.26-1.9,2.76-4.24,4.75-5,2.35-.84,5.3-.4,7.91,0,1.17.19,2.13,1.65,3.19,2.54-1.08.85-2,2.07-3.29,2.47a42.62,42.62,0,0,1-6.34,1.17Z"/>
      <path class="cls-2" d="M497.81,300.2c-.71.82-1.45,1.58-2.09,2.43-4.64,6.18-9.11,5.66-13.48-.3-.54-.73-1.74-2-1.7-2,3-2.93,5.71-7.06,9.3-8.06C491.57,291.77,495,297.2,497.81,300.2Z"/>
      <path class="cls-2" d="M457.62,302.67c-3,1.72-4.74,3.54-6.2,3.34s-2.77-2.38-4.14-3.69c1.54-1.29,3-3.37,4.67-3.62C453.25,298.51,454.9,300.67,457.62,302.67Z"/>
      <path class="cls-2" d="M267.12,580.45c-3.7,2.2-6,4.62-8,4.43-1.63-.15-3-3.48-4.43-5.4,1.95-1.43,3.81-3.77,5.89-4C262.09,575.31,263.9,577.9,267.12,580.45Z"/>
      <path class="cls-2" d="M211.9,569.37c-2.28-3.21-4.8-5.25-4.5-6.72.38-1.91,2.86-4.39,4.73-4.67,1.4-.21,4.59,2.69,4.58,4.19C216.72,564.11,214.31,566,211.9,569.37Z"/>
      <path class="cls-2" d="M229.25,249.75c-.55.93-1.24,3.17-2,3.2-2.08.07-4.81-.14-6.18-1.43a71.38,71.38,0,0,1-8-9.69,156.39,156.39,0,0,1-10.17-14.49c-.83-1.41-.12-5.05,1.14-6s5.27-.92,6.18.21c6.31,7.88,12.15,16.14,18.05,24.34C228.9,246.75,228.84,248.06,229.25,249.75Z"/>
      <path class="cls-2" d="M238.9,242.22c-.88,1.41-1.58,3.58-2.4,3.63-2.1.11-5.18,0-6.22-1.29-6.52-8.18-12.69-16.65-18.62-25.27-.62-.91.63-4.36,1.85-5,1.6-.8,4.82-.77,5.94.33,3,2.89,5.17,6.56,7.68,9.91,3,4,6,7.85,8.87,11.9A44.71,44.71,0,0,1,238.9,242.22Z"/>
      <path class="cls-2" d="M220,256.13c-.79,1.12-1.77,3.74-2.79,3.75-2.23,0-5.11-.64-6.59-2.13-2.9-2.93-5-6.61-7.46-10-3.32-4.63-6.86-9.12-9.73-14-.76-1.29,0-4.65,1.19-5.57s4.93-1,5.75.07c6.5,8.14,12.6,16.62,18.77,25A12.57,12.57,0,0,1,220,256.13Z"/>
      <path class="cls-2" d="M420.12,510.6c.8-3.36,2.22-6.6,6.8-6.58,4.18,0,8.38,3.78,7.87,7.37-.6,4.26-3.58,6.68-7.73,7.14C423.54,518.92,420,514.81,420.12,510.6Z"/>
      <path class="cls-2" d="M426.64,462.4c-3.54,1.37-7.16,4-8.79,3.1-2.39-1.35-3.35-5.22-4.93-8,2.7-1.1,5.81-3.57,8-2.91S424.31,459,426.64,462.4Z"/>
      <path class="cls-2" d="M284.9,193.73c-8-.06-9-.83-9.27-7.27-.36-7.37,1-8.5,10.32-8.44,8.12.06,10.28,2.62,9.08,10.35C294,194.85,289.1,193.53,284.9,193.73Z"/>
      <path class="cls-1" d="M530.24,338.13c0,4.93.12,9.86,0,14.78-.1,2.92-10.42,10.51-12.94,9.44a4.61,4.61,0,0,1-2-3.56c-.18-6.64-.24-13.3,0-19.94.16-4.09,7.06-10.28,11-9.93,1.15.1,2.75,1.76,3.08,3,.52,1.94.14,4.13.14,6.22Z"/>
      <path class="cls-1" d="M200.73,399.67c-8.47,5.49-16.69,5.58-19.08,1.25-1.91-3.43,2.08-12.42,7.85-16.05C189.7,392.08,192.9,397.24,200.73,399.67Z"/>
      <path class="cls-1" d="M213.53,390.67l-13.19-14.11c2.59-3.9,7.76-2.57,12.34-2.2,1.61.13,4.47,2.49,4.32,3.45C216.33,382.2,214.78,386.41,213.53,390.67Z"/>
      <path class="cls-1" d="M356.9,441.9c-3.4,3.11-6,7.3-9,7.62-2.19.24-7-4.7-6.87-7.19.1-2.73,4.26-7,7.06-7.39C350.5,434.67,353.47,439,356.9,441.9Z"/>
      <path class="cls-1" d="M146.9,195.25c-3.67,2.91-6.28,6.53-9,6.62-2,.07-5.94-4.55-5.79-6.88s4.3-5.89,6.81-6S143.78,192.67,146.9,195.25Z"/>
      <path class="cls-2" d="M193.38,475.77c-2.89-3.67-6.1-6.16-5.67-7.54.76-2.49,3.69-4.31,5.72-6.41,1.82,1.88,5,3.67,5.11,5.67S196,471.9,193.38,475.77Z"/>
      <path class="cls-2" d="M263.38,515.67c-2.13,1.74-4.29,4.88-6.38,4.83s-5.13-3.06-5.65-5.28c-.36-1.48,2.83-5.25,4.69-5.43,2.25-.22,4.77,2.25,7.18,3.56C263.27,514.16,263.32,514.93,263.38,515.67Z"/>
      <path class="cls-1" d="M254.36,191.42c1.92,2.81,3.88,4.46,3.91,6.15,0,1.21-2.86,3.7-3.86,3.43a6.72,6.72,0,0,1-4.1-4.16C250,195.76,252.32,194,254.36,191.42Z"/>
    </g>
  </g>
</svg>
