<svg xmlns="http://www.w3.org/2000/svg" viewBox="0 0 940 940">
  <defs>
    <style>
      .cls-1, .cls-2 {
        fill: none;
      }

      .cls-1, .cls-3 {
        stroke: #fff;
        stroke-miterlimit: 10;
      }

      .cls-3 {
        fill: #fff;
      }
    </style>
  </defs>
  <g id="Layer_2" data-name="Layer 2">
    <g id="Layer_1-2" data-name="Layer 1">
      <rect class="cls-1" x="0.5" y="0.5" width="939" height="939"/>
      <path class="cls-2" d="M139.34,124H817V810.85H139.34ZM344.65,471.54c-.79-4.08,1.48-6.46,4.66-8.31s6.63-3.8,9.94-5.7l-.87-1.51c-2.09,1.3-4.11,2.72-6.28,3.86-3,1.57-6.1,5.05-8.88-.41-.16-.3-1.93.22-1.87.22-.55,3.84-1,7-1.43,10.09L330.35,476l-16.8,12.18c-3.35,2.6-.12,4.07,1,5.9,4.39,4.58,0,7.36-2.37,10.24,4.6,8.17,6.1,8.74,13.32,3.8q22.38-15.29,44.47-31c7.51-5.33,7.51-7.5.85-14.22a43.5,43.5,0,0,0-5.4,2.75c-1.66,1.14-3,2.75-4.54,4.06-8.66,7.32-8.89,7.34-16.42,1.73ZM262,572.25a5.88,5.88,0,0,0-.74.44c-6.57,5-6.52,5-1.21,11.12,7,8,14,16.09,20.74,24.29,3.27,4,6.22,4.42,9.84.55a74.52,74.52,0,0,1,6.79-6.13c10-8.33,10.71-6.77,1.09-17-2.67-2.84-2.68-5,.06-7.78,2.95-3,5.05-1.45,7.19.84a50.2,50.2,0,0,1,4.6,5.09c4.46,6.35,7.09.85,10.38-1.38,3.93-2.66,4.34-5.13.72-8.59-1.93-1.84-4.73-6-4.15-6.71a49.93,49.93,0,0,1,11.83-11.12c1.13-.72,5.06,3.29,7.87,4.82a39.32,39.32,0,0,0,6,2.15c-.61-2-.76-4.24-1.91-5.8-6.27-8.53-12.76-16.91-19.27-25.26a4.54,4.54,0,0,0-3.16-1.78,3.78,3.78,0,0,0-2.81,2.24,4.87,4.87,0,0,0,1.29,3.86c1.63,1.51,4.23,2.11,5.56,3.78,2.37,3,4.1,6.43,6.09,9.69-3.48,0-7,.3-10.43,0s-4.68.54-5,4.21c-.5,6.2-1.81,12.32-2.56,17.1-4.38.54-7.74.2-10.29,1.47a18.74,18.74,0,0,0-7.57,6.78c-1.35,2.28-.75,5.7-1.08,9.32a41.12,41.12,0,0,1-4.84-3.9,183.36,183.36,0,0,1-12.47-14.15c-3.33-4.45-6.23-5.71-10.06-.92Zm220.68,74.08c-.56,1.75-1.5,3.48-1.62,5.26-.85,12.56-2,25.14-2.14,37.72-.14,10.82.75,21.67,1.52,32.49.12,1.69,2.06,3.26,3.16,4.89,1.32-1.63,3.42-3.08,3.82-4.9a68.24,68.24,0,0,0,1.7-14.15c.08-25-.08-50-.2-75a39,39,0,0,0-.48-4.42,7.42,7.42,0,0,0-1.44,4.62c-.2,23.1-.3,46.21-.62,69.31-.06,4.15-1,8.3-1.53,12.45l-2.25-.19q0-34.07,0-68.18l1.71-17.6-1.6-.07Zm-19.25-72.11Q453.31,587,443.19,599.77c-8,6.31-8.86,9.37-4.54,12.24.66-2.14,1.31-4.46,2.11-6.73.67-1.92,1.51-3.78,2.28-5.67L453.7,601l-.18,1.58a37.37,37.37,0,0,0-5.52.35c-1,.21-1.9,1.18-2.84,1.81,1,.72,1.91,2,2.91,2,4.19.22,8.46.5,11.24-3.85.68-1.07,2.29-1.56,4.66-3.08-3.61,8.69-5.19,9.41-11.94,8.55-2.93-.37-6,.52-9.8.91,2.24,2.53,3.56,4,5.26,5.91l-4.37-.25c2.84,2.41,5.11,8.25,9.06,3.92,8.71-9.53,16.6-19.8,24.78-29.72-.75-1-1-1.5-1.4-1.9q-6.1-6.59-12.2-13.1c4.35,3.45,8,1,11.79-.8l-.17-1.46ZM665.37,463.33l.54.17c-.57-.5-1.06-1.26-1.72-1.48-4-1.29-8.51-4.15-12-3.23-4.42,1.17-4.85,6.56-4.67,11.21.28,7.23.35,14.49.21,21.73-.08,4.17,1.78,5.82,5.72,6.08,4.91.33,9.81,1.44,14.68,1.26,9.53-.35,19-1.36,28.56-2.14.12,0,.18-.67.13-.48-1.42-1.67-3.59-3-3.66-4.51-.32-6.65-.16-13.33.13-20,.05-1,1.75-1.88,2.69-2.82l1.92.41c-1.09-3.28-1.22-7.88-3.49-9.51-2.86-2.06-7.51-2.38-11.3-2.13-2.54.16-5.15,2.36-7.32,4.14C672.47,464.76,669.19,465.65,665.37,463.33ZM343.61,590.54a41.14,41.14,0,0,0-2.32,5.81c-1.15,4.86.64,8.61,5,11,4.05,2.17,7.84,1.2,11-1.79,3.78-3.59,3.41-7.77.75-11.82-2.39-3.66-5.71-5.39-10.19-4-1.45.43-2.94.7-4.41,1,2-1.16,3.91-3.21,5.95-3.32,9.84-.54,15.63,8.2,11,17-2.06,3.92-1.09,5.75,1.95,8,11.75,8.49,23.48,17,35.07,25.7,3.27,2.44,5.4,2.79,8.71-.36,5.6-5.33,13.41-4.41,17.12,2,1.57,2.7,1.06,6.57,1.78,9.85.31,1.42,1.35,2.68,2,4,1.28-1,2.86-1.82,3.74-3.1a5.35,5.35,0,0,0,.57-3.86c-1.88-7.85-3.83-15.7-6-23.47-.81-2.85-2.36-5.5-3.57-8.23l-.91.39q.67,4.59,1.36,9.18l-1.68.79c-2.89-2.07-5.76-4.18-8.67-6.2-7-4.86-7.18-6.27-1.46-12.77.62-.71,1.84-1.13,2-1.88s-.41-1.88-.66-2.84a8.87,8.87,0,0,0-2.41,3.47c-3.72,7.08-6.38,7.65-12.72,2.93-5.65-4.21-11.44-8.25-17-12.54-1.34-1-2.15-2.76-3.21-4.17,1.89-.59,3.78-1.64,5.68-1.66,3.15,0,6.31.57,11,1.07-1.82-1.15-2.24-1.64-2.7-1.68-11.6-.92-22.86-2.59-33.54-8-5-2.54-11.06-1-15.24,3.53C339.21,587.1,338.29,590,343.61,590.54ZM718,235.52c3.78,1.87,7.27,3.62,8,8.75.26,1.84,3.4,4,5.6,4.6,2,.5,4.48-1,7.6-1.91l-7.09-5.75,6.41-3c.13-.59.25-1.17.38-1.75-2.6-.79-5.19-2.22-7.78-2.23-4.43,0-8.86.85-13.28,1.35-1.71-2-3.07-4.63-5.23-5.8-1.7-.93-5.5-1-6.42.16-4.18,5.21-7.61,2.65-11.06-.4-7.23-6.4-15.4-5-23.7-3.2-2.29.51-4.63.8-6.95,1.18-2.81.46-6.4-.51-6.73,4.16-.52,7.38-7,11-10.75,16.27a4.11,4.11,0,0,1-3.62,1.19c-7.79-2.53-11.4,2.73-15.51,7.66-2.64,3.16-2.69,5.6.37,8.25q27.9,24.13,55.85,48.22c1.09.94,3.31,1.65,4.51,1.18,7.69-3,11.81-12.95,9.47-21.07a9,9,0,0,1,1-6.72c3.2-4.72,7.69-7.62,13.8-7.76,5.41-.13,6.59-2.82,4.2-8a11.17,11.17,0,0,1-1.3-5.25c.81-9.56.83-18.75-7.73-25.46-.73-.58-.9-1.87-1.76-3.8C710.61,236.11,714.28,235.83,718,235.52ZM513.75,543.08c5.51,0,10.88,5.64,12.24,11.49.93,4,.12,9.08,5.45,11,7.64,2.77,8.92,2.3,13.78-5.2,2.55-3.94,4.34-8.24,10.21-9,5.64-.7,9.65,1.81,13.57,4.78,4.24,3.21,7.59,2.69,11.76-.43,4-3,4.44-5.82,3-10.29-1.66-5-3.49-10.93,1.24-15a26.56,26.56,0,0,1,12.33-6c5.55-.92,7.18-3.88,8.16-8.59s-1-7.21-5-9a39.79,39.79,0,0,1-4.39-2.7,12.15,12.15,0,0,1-4.66-16.21c1.49-2.87,3.62-5.51,4.6-8.53.69-2.16.78-5.32-.33-7.11-4-6.4-5.66-6.64-14.55-4.11-8.47,2.42-15-1.43-17-10-.52-2.23-1.43-4.4-1.69-6.66-.52-4.29-3.61-4.73-6.93-5.4s-6.11-.9-8.59,2.37c-11.65,15.43-11.67,15.28-28.63,6.71-1.87-.95-4.92-.58-7.06.19-6.57,2.36-6.19,7.24-4.88,13.12a24.32,24.32,0,0,1-.84,12.45c-1.93,5.69-7.7,6.18-12.82,7-4.55.71-7.33,2.43-8.23,7.76-1.28,7.6,4.2,9.45,8.66,12.38,7.59,5,9,11,4.11,18.7-1.32,2.1-2.59,4.23-4,6.28-3.09,4.51.87,7.26,3,9.93,1.25,1.56,4.44,2.31,6.69,2.19C506.77,545,510.48,543.76,513.75,543.08Zm-41.34-23.26a52.94,52.94,0,0,0,4.9-4.78c2.66-3.24.75-5.94-1.3-8.68-6.6-8.83-5.86-13.89,3.12-19.87,3.59-2.39,6-4.61,5.14-9.66-.9-5.24-4.77-5.4-8.3-6.32-10.94-2.82-12.78-5.63-10.46-16.84.86-4.18-.12-7-4-9.63s-6.13-1.66-9,.79c-7.93,6.64-16,5.43-20.39-3.24-1.79-3.52-4.11-5.8-9.11-4.78s-5.74,4.48-6.58,8.12c-2.5,10.77-5.21,12.72-16.25,11-4.18-.64-7.67-.51-10.41,3.73s-.12,6.95,1.71,9.85c6.17,9.78,5.69,13.62-4.11,19.46-4.47,2.66-5.26,5.31-4.08,10.21,1.25,5.22,5.4,4.29,8.47,5.21,9.87,3,11.58,5.18,10.54,15.46-.16,1.52-.94,3.26-.44,4.5,1,2.42,2.2,5.3,4.21,6.58,1.73,1.09,4.83.66,7.09.06,1.92-.51,3.48-2.27,5.25-3.4a10.2,10.2,0,0,1,14.1,2.54c1.49,2,2.53,4.78,4.5,5.79a14.83,14.83,0,0,0,8.76,1.44c1.63-.28,3.1-3.14,4.06-5.12s.92-4.07,1.47-6.1c1.51-5.54,5.84-8.43,11.6-7.74C465.55,518.73,468.19,519.19,472.41,519.82ZM443.87,377.94c.34,8.52-4.5,11.08-9.82,13.31-3.43,1.44-5.43,3.65-5.19,7.89s2.49,6,6,7.33c10.57,4,12.17,7.3,8.66,17.9-1.31,4-2,7.34,1.87,10.77,3.68,3.26,6.47,1.62,9.84.13,10-4.44,14.08-3,18.47,6.84,1.77,4,3.55,6.56,8.72,6.36,5.37-.22,5.9-3.8,7.19-7.36,3.43-9.47,8.15-11.46,17.74-7.69,3.43,1.35,6.58,2.27,10-1s2.94-6.31,1.18-10.14c-5-10.89-3.47-14.79,7.46-19.51,3.25-1.41,5.36-3.09,5.33-7.13s-1.81-6.42-5.48-7.66a10.42,10.42,0,0,1-3.18-1.26c-2.51-2-6.26-3.86-6.91-6.43-.93-3.65-.22-8.14,1.08-11.81,1.46-4.14.66-6.76-2.35-9.57s-5.73-2-8.89-.52c-11.07,5.1-14.47,3.82-19.76-7.7-1.63-3.56-3.64-5.19-7.79-5s-6.25,2.17-7.29,5.89a34.68,34.68,0,0,1-1.39,3.76c-2.53,6.17-7.43,8.42-13.77,6.33-1.81-.6-3.66-1.92-5.39-1.76-2.72.26-6.06.77-7.8,2.51-1.52,1.52-1.93,5-1.52,7.4C441.38,373.16,443.18,376.22,443.87,377.94Zm-110-130-8.86-8c-1.79-1.63-5.12-3.29-5.09-4.89.12-6.67-4.64-6.22-8.77-7.26-3.92-1-7.71-2.51-11.58-3.71-2.07-.64-4.27-1.77-6.27-1.53-5.85.71-10.87,7-17.6,2.49-.44-.29-2.1.73-2.84,1.48a47.21,47.21,0,0,0-4.85,5.63c-2.29,3.18-3.83,7.1-9.08,6.34-.78-.12-2.49,2.22-2.82,3.65-.74,3.13-.49,6.52-1.39,9.59-.69,2.39-2.57,4.42-3.81,6.67-.72,1.31-1.88,2.86-1.67,4.11a24.61,24.61,0,0,0,2.67,8.1c2,3.47,3.92,6.53.84,10.44-.47.6.36,2.94,1.24,3.79,2.74,2.64,5.81,4.92,8.7,7.39,1.13,1,3.12,2.18,3,3.12-.77,8,5.52,6.83,9.91,7.67,4,.77,8.39-.35,10.9,4.51.49,1,3.9,1,5.71.56,2.91-.76,5.54-2.58,8.43-3.47,1.83-.56,4.45-1,5.82-.16,3.69,2.38,5.42.2,7.72-2,4-3.87,5.32-10.95,12.88-10.76.73,0,1.9-2.29,2.19-3.67.68-3.16.71-6.45,1.45-9.59.48-2.07,1.21-4.94,2.72-5.74,3.71-1.93,2.59-4.23,2-7.16C334.38,259.86,327.67,255,333.85,247.94Zm442.05,358c-.76-.44-1.52-.88-2.27-1.33-1.91,5.72-9,7.79-9,15a6.81,6.81,0,0,1-3.14,5.14,10.32,10.32,0,0,1-7.16.32c-.87-.3-1.07-3.9-.74-5.86s1.6-3.85,2.64-5.67c1.92-3.35,2-6.1-2-7.87s-4.65,1.39-5.92,4a76.42,76.42,0,0,1-6.44,11.41c-.94,1.3-3.57,1.37-5.43,2a26.64,26.64,0,0,1-1.1-4.46c-.24-3.43-6.87-10.06-9-8.55-3.89,2.77-6.95,1.37-10.53-.55-10.36-5.55-10.41-5.44-16.63,4.29a1.92,1.92,0,0,1-.33.46c-4.76,4-2.66,7,1.19,10,1.14.91,2.56,3.15,2.16,3.94-.7,1.42-2.86,3.27-4.1,3.07a59.54,59.54,0,0,1-12.23-3.52c-3.19-1.29-5.08-1.34-6.87,2.18s-1.05,5.13,2.2,6.76c7,3.52,13.83,7.34,20.78,10.92,10.27,5.3,10.34,5.28,5.91,15.66-1.17,2.73-1.12,4.65,1.87,6.08s5.38,2,7-1.79c.73-1.75,1.88-3.33,2.7-5,1.45-3,3.51-3.76,6.51-2.16,10.5,5.57,12.8,5.17,6.54,15.57-.1.16-.16.35-.25.52-1.86,3.33.17,4.8,2.79,6.2s4.38,1,6-1.82c5.5-9.41,5.61-9.36,15.36-4.81.69.33,1.3,1,2,1.09,1.93.27,5,1.14,5.6.32,1.43-2,2.8-5.17,2.23-7.35-1-3.69-.06-5.19,3.2-6.55,1.51-.63,3.37-2.39,3.49-3.78s-1.58-3.09-2.77-4.38c-2.17-2.37-8.37-2.26-6-7.29,2.66-5.51,6.42-.36,9.76.15,1.87.29,3.89-.33,5.84-.54-.84-1.88-1.18-4.48-2.63-5.51-3.38-2.39-7.49-3.77-10.93-6.1-1.57-1-3.41-3.63-3.11-5.1.62-3.08,2.51-5.92,4-8.78C770,616.78,773,611.37,775.9,605.94ZM365.22,718.33c-1.85,2.21-4.6,4.25-5.63,6.95-3.93,10.32-7.46,20.8-10.79,31.33A13.94,13.94,0,0,0,349,764c1.11,4.09-1.7,10.59-5.06,12.72a10,10,0,0,0-4.22,6.26c-.18,1.39,2.49,4,4.37,4.68,15.83,5.85,31.84,11.22,47.66,17.08,4.76,1.77,6.93.17,7.83-4.15.41-2-.09-4.12.24-6.12.54-3.27.36-7.61,2.36-9.5,6.16-5.79,8.67-12.13,6.83-20.4-.31-1.39.41-4.05,1.41-4.53,6-2.84,6.25-8.76,7.9-13.83,2.13-6.5,1.33-8.43-5.28-11-10.84-4.15-21.88-7.79-32.84-11.65C375.7,722.06,371.23,720.46,365.22,718.33Zm89.14-555.1-2.89-.1c0,4.61-.1,9.21,0,13.81a14.54,14.54,0,0,1-4,10.67c-3,3.59-8.44,6-8.09,12.2.37,6.48.22,13,.39,19.46.18,7.15.75,7.83,8.05,7.77q35.78-.27,71.53-.78c8.39-.11,8.33-.22,9.7-8.3.31-1.84,1.49-3.54,1.77-5.39.61-4.06,2.52-8.94,1-12.13-3.87-8.18-2.5-16.45-2.38-24.71,0-3.17-.72-4.45-3.74-5.08-17.13-3.58-34.21-7.37-51.37-10.8-1.52-.3-3.47,1.55-5.23,2.39,1.77,1.29,3.37,3.19,5.34,3.74,3.95,1.11,8.11,1.48,12.18,2.15l-.36,2.8c-4.35-.41-8.75-.52-13-1.3s-6.48.74-6.27,5c.15,3.24.61,6.47.57,9.7-.09,5.52-.46,11-.71,16.55-3.61-4.74-5.42-9.88-8.83-13.55a12.07,12.07,0,0,1-3.7-9C454.37,173.29,454.36,168.26,454.36,163.23ZM624.74,770.54c-.31-2.85,0-5.95-1-8.49-6.32-15.54-13-30.95-19.47-46.42-1.21-2.88-3.37-4.17-5.78-2.14-4.09,3.45-12.38,1.17-12.85,9.39a5.1,5.1,0,0,0,.59,2.2c1.75,4.22,3.59,8.4,5.33,12.62,3.84,9.35,8.1,18.56,11.34,28.11A17,17,0,0,1,594,786.92c-9.65,4.65-16.66,3-22.83-5.62a45.42,45.42,0,0,1-4.53-7.89c-4-9-7.77-18.24-11.89-27.25-5.59-12.24-5.58-11.94-18.13-6.38-4.48,2-4.47,4.2-2.86,8,6,14,11.63,28.24,17.82,42.19,3.54,8,9.56,14.06,18.14,16.37,18,4.84,33-2.11,46.09-13.7A25.47,25.47,0,0,0,624.74,770.54Zm-341-281.83c.83.09,1.34.31,1.54.15,10.79-8.78,21.67-17.45,32.22-26.5,2.86-2.46,1.81-12.66-.75-14.32-3-1.93-5.79-4.07-8.84-5.82-1.33-.77-3.5-1.61-4.58-1.05-8,4.14-18,3.67-24.45,11.33a25.86,25.86,0,0,1-7.17,5.6c-1.34.76-3.87,1-5,.24-8.08-5.37-8.38-11.81-1.07-18.15,10.94-9.49,22.28-18.15,37.85-17.88a13.25,13.25,0,0,0,2.82-.45c3.25-.65,3.54-2.62,2-5a59.68,59.68,0,0,0-22.91-20.16c-7.26-3.73-15.32-5.94-23.14-8.48a8.07,8.07,0,0,0-6.2.54c-.83.56-.16,3.77.23,5.71,1.49,7.2,4.66,14.44,4.35,21.55-.4,9.15-2.78,18.44-5.77,27.17-2.07,6.07-.71,10,2.86,14.55,2.85,3.65,4.54,8.18,7.12,12.06,1.5,2.25,3.51,5.32,5.7,5.71C278.31,476.88,282.5,481.34,283.72,488.71ZM671.4,597.49a64.19,64.19,0,0,0-5.19-5.72c-4.25-3.65-4.42-7.1-1.19-11.85a30.71,30.71,0,0,0,4.92-12.53c2.26-16-5.35-27.49-18.16-36.15-7.31-4.93-7.36-10.28-.11-15.58,3.23-2.36,6.63-4.52,9.71-7.06.92-.75,1-2.48,1.49-3.76-1.32,0-2.91-.45-3.91.12-3.14,1.79-5.93,4.19-9.09,5.92-2.41,1.31-5.47,3.22-7.73,2.69-7.45-1.75-11.58,1.84-15.06,7.47-3.33,5.37-6.85,10.63-10,16.09-.45.79.21,3,1.05,3.61,3.28,2.31,7.62,3.54,10.14,6.42,5,5.73,5.83,2.7,7.27-2.25,1-3.43,2.85-7.16,7.59-5.82,5.07,1.44,12.44,11.11,11.94,16.37-.3,3.1-2.25,6.24-4.16,8.85-.58.78-4.87.35-5.18-.43-2.19-5.47-6.62-4.94-11-4.93-5.35,0-10.7-.17-16-.14a17.45,17.45,0,0,0-3.7.83l.21,1.43c3.33.19,6.76-.07,9.94.7,4.36,1.05,8.53,2.89,13.68,4.72l6,19.57c-2.77-.44-4.33-.78-5.9-.9-4.38-.34-8.78-.85-13.15-.75-3.17.07-6.3,1.33-9.47,1.48-5.94.28-10.84,4.3-12.66,11.6ZM268.2,612.88c-3.83-.63-6.68-1-9.45-1.59s-6.29-.84-8.38-2.56c-20.48-16.74-50.81-8-58.22,17.38-1.68,5.76-2.85,11.2-7.66,15.28-1.38,1.17-1.81,3.45-2.9,5.69,7.22,1.15,13.75,3.62,19.92,2.92,20.41-2.29,39-10,55.82-21.87,1.47-1,3.69-3.22,3.38-4.17-1.15-3.6,1.44-4.47,3.29-6.13A54.82,54.82,0,0,0,268.2,612.88Zm309-221.65c1.31-3.26,2-5.16,2.82-7,4.54-10.31,4.47-20.18-2.22-29.74-1.22-1.75-1-4.49-1.55-6.74-.38-1.52-1-3-1.46-4.49-1.39.89-3.18,1.49-4.08,2.74-3,4.12-5.05,9.13-8.61,12.61-8.22,8-12.68,17.95-16.19,28.5-.45,1.35-.07,3-.07,4.46,0,4.16.6,8.41-.1,12.45-.82,4.77,4.33,12.62,9.22,12.56,8.38-.09,16.91.52,25.12-.8,9.63-1.54,21.18,1.47,27.72-9.58.5-.84,2.59-.59,3.65-1.29a24.23,24.23,0,0,0,3.37-3.28,26.34,26.34,0,0,0-3.84-3.36,70.55,70.55,0,0,0-7.83-3.91c-2.67-1.17-5.38-2.74-8.18-3C589.53,390.89,584,391.23,577.19,391.23ZM627,354.82a79.32,79.32,0,0,0,6.57,5.45,3.55,3.55,0,0,0,3.4-.12c.61-.62.46-2.38.1-3.45S635.43,355,635,354a44.92,44.92,0,0,1-1.47-5.44c2-.33,4.08-.73,6.13-.94a35.41,35.41,0,0,1,4.12,0,26.76,26.76,0,0,1-.21-4.09c.19-1.94,0-4.47,1.19-5.61s3.63-.8,5.54-1c1.32-.11,2.85.41,3.9-.12.53-.27.74-2.75.17-3.35-2.71-2.87-1-4.75,1-6.75,2.44-2.42,5.14-4.66,7.15-7.4,1.15-1.58,1.15-4,1.66-6.05-1.85.61-4,.81-5.49,1.93-2.56,2-4.51,4.71-7,6.69-1.6,1.25-3.81,1.72-5.75,2.54.12-2.05.3-4.11.33-6.17,0-1.37-.18-2.74-.28-4.11-1.22.1-2.73-.23-3.61.37-3.37,2.32-5.13,1.19-7.45-1.87-2.17-2.86-5.54-4.85-8.57-7a3,3,0,0,0-2.94.64c-.56.88-.78,2.81-.21,3.42,2.54,2.75,1.64,5.08-.85,6.72-1.24.82-3.32.36-5,.48-.06-2.13-.12-4.26-.16-6.39,0-1.21.49-2.91-.11-3.49s-2.34-.44-3.55-.3c-1.9.2-3.89,1.22-5.65.89-4.48-.85-5.79.24-4.08,4.69a4.38,4.38,0,0,1-.67,3.9c-1,.93-3.21,1.71-4.31,1.23-4.54-2-5.56-.65-4.6,3.84,1,4.86-.4,6.13-5.34,4.81-3.84-1-5,.28-4,4a13.09,13.09,0,0,1,.27,4.37,42.91,42.91,0,0,1-1,5.06,29.66,29.66,0,0,1,5.08-.69c1.71.05,4.11.09,4.92,1.14s.23,3.37-.13,5.05c-.17.8-1.46,1.29-1.86,2.11-1,2-1.68,4.08-2.5,6.13a52.3,52.3,0,0,0,6.23-1.93c1.17-.51,1.92-2.14,3.08-2.46a6.53,6.53,0,0,1,4.45.4c.5.27.36,2.83-.29,3.86-1.08,1.74-3,2.94-4.16,4.66-.68,1.05-.48,2.68-.68,4,1.51,0,3.15.38,4.49-.08,1.15-.4,1.91-1.81,2.93-2.67,1.73-1.43,3.35-4.91,5.78-1.64.85,1.13-.62,4.07-1.22,6.13-.19.65-1.22,1-1.47,1.7-.65,1.71-1.09,3.5-1.61,5.26a52.56,52.56,0,0,0,5.3-1.31,5.87,5.87,0,0,0,2.2-1.79c2.85-3.3,5.32-2.77,8,.35a54.94,54.94,0,0,0,7.35,7.2c1.52,1.2,3.68,1.58,5.55,2.33-.71-2.05-1-4.42-2.23-6.09a45.92,45.92,0,0,0-7.07-7.48C622.37,360.55,623.3,357.91,627,354.82Zm-360.2-15.13c-2.42,2.58-6,4.84-6.94,7.91-.73,2.43,1,6.92,3.07,8.64,6.94,5.66,14.52,10.53,21.95,15.57,2.86,1.93,4.14,3.92,3.15,7.64-.49,1.84.4,5.1,1.82,6.12s5.2,1.35,6.58.26c3.26-2.6,5.75-2.08,8.73,0,6.73,4.69,13.45,9.41,20.34,13.88,6.45,4.19,10.25,3.57,13.74-1.74,3.24-4.92,2.39-9.08-3.32-13.13-7-4.95-14.17-9.74-21.51-14.17-3.65-2.21-4.92-4.07-2.49-8.12a145.72,145.72,0,0,0,9.23-17.75c1.59-3.74,3.47-4.15,7.05-3.44a25.31,25.31,0,0,0,10,0c3.92-.84,4.57-3.44,1.05-5.91q-9.72-6.81-19.72-13.23c-3.34-2.15-5.36-.69-4.84,3a23.68,23.68,0,0,0,3,8.94c1.81,2.93,2,5-.37,7.59-4.75,5.21-9.25,10.66-13.93,16-1.9,2.15-3.77,3.42-6.8,1.08-6.93-5.35-14.08-10.43-21.3-15.39C273.24,342,270.56,341.28,266.84,339.69Zm438.49,23a27,27,0,0,0-26.94-27c-14.1,0-27.1,10.08-26.88,27.25.19,14.84,11.48,26.59,26.29,26.82A27.28,27.28,0,0,0,705.33,362.68ZM305.68,644.76h.2c0,8-.23,16.06.19,24.06.09,1.73,2.45,4.74,3.85,4.79,11.82.42,23.66.36,35.49.28,3.47,0,5.58-1.5,5.48-5.64-.31-12-.1-24-.49-36-.31-9.89-7.4-16.25-17.3-16.17-6.88.05-13.77.42-20.62,0-5.5-.35-7,2-6.86,7C305.85,630.24,305.68,637.5,305.68,644.76ZM192.17,453.69c4.19-2.44,9.22-4.78,6.7-11.84-.49-1.38.59-3.3.86-5,1-6.59,1.1-13.1-3.94-18.26-6.92-7.1-21-8.61-29.28-3.44s-10.81,13.25-7.45,24.64c.32,1.09.86,2.13,1.12,3.24,1.6,6.71,7.14,12.43,5,20.14-.17.61,1,1.94,1.87,2.43,7.69,4.41,15-1.05,22.49-1.15.4,0,1-1.15,1.15-1.84C191.22,460,191.6,457.24,192.17,453.69Zm585.67.24c.33,3-.22,6.38,1.19,8.26,1.23,1.66,4.64,1.69,7.09,2.44.72.22,1.69.24,2.11.72,4.62,5.26,9.54.68,14.27.31.79-.06,1.7-2.22,2.06-3.54,1.53-5.62,2.92-11.27,4.26-16.93,1.1-4.61,2.64-9.21,3-13.89.63-9.14-5.2-16.22-14.45-18.59-8.71-2.24-21.18,2.47-25.27,8.32-6.22,8.88.81,18.18-1.68,27.05-.09.31,1,1,1.62,1.44C774.07,451.1,776.16,452.67,777.84,453.93ZM605.17,258.74c-6.1-3.94-11.71-7.87-17.67-11.19-1.4-.78-5-.17-5.81,1-4.94,7.5-12,13.77-13.48,23.38-.29,1.91-2.25,4-4,5.16-5,3.3-5.18,5.68-.21,9q9.91,6.66,20,13.17c2.17,1.41,4.48,2.59,7.2,4.14,1.26-2.42,2.19-4.23,3.15-6a56.73,56.73,0,0,1,3.24-5.88c5.57-7.94,11.26-15.8,16.85-23.72.18-.25-.28-.94-.52-1.64l-4,3.14C608.35,265.44,600.36,265.67,605.17,258.74Zm18.77,383.44-1.63-1c-4.74,4.84-10.93,9-13.78,14.74-2.33,4.73-.82,11.43-.66,17.24,0,.6,2.51,1.6,3.86,1.62,14.32.17,28.64.27,43,.06,1.34,0,3.77-2.27,3.82-3.54.32-9.88.17-19.78.17-29.71-6.33.48-6.12.45-7-5.22-.26-1.8-2-3.38-3.05-5.07-1.12,1.75-2.86,3.38-3.22,5.27-.56,2.95-.08,6.08-.24,9.13-.11,2.1-.58,4.18-.88,6.27l-1.73,0c-.63-3.47-1.25-6.94-2.13-11.8-3.44,3.34-5.84,5.93-8.53,8.19-1.49,1.25-3.44,1.94-5.18,2.89-.72-1.79-1.53-3.55-2.13-5.39A27.54,27.54,0,0,1,623.94,642.18ZM599.12,430.79c.11,11.64,10.25,17.84,21.26,12.78,6.38-2.93,12.41-2.91,18.58.43a15,15,0,0,0,5.87,1.9c7.46.54,14.78-5.28,15.71-12.18,1.14-8.51-3.56-14.38-12.81-16.65-3.53-.87-6.84-2.63-10.24-4-5.07-2-10-2.94-15.3-.28a45.11,45.11,0,0,1-11,3.76C603.76,418.09,599,423.35,599.12,430.79Zm-186-165.41c-7.92.37-10.52-3.84-8.37-10.67.68-2.15,1.35-5.61.26-6.7-1.3-1.29-4.6-1.19-6.86-.78-12.09,2.22-16.55,12.46-21.84,21.62-1.4,2.42-.43,4.56,2.77,5.66a8.69,8.69,0,0,1,4.44,4.08c1.63,3.3,3.87,5.78,7.47,4.61,2.71-.88,6.45-2.95,7-5.17,1.15-4.62,3.8-6,7.75-7.13,7.58-2.24,15-5.16,22.57-7.32,1.58-.45,4.62.61,5.48,1.94,2.56,4,6,5.63,10.14,4.13,3.68-1.33,6.19-4.78,4.63-8.67-1.66-4.15-.21-11.19-7-11.49-8.23-.37-11.82-7-17.28-11.08-.75-.57-.54-2.39-.84-3.62s-.72-2.61-1.09-3.91c-1.62.78-3.54,1.27-4.75,2.48-.63.64-.55,3.23.11,3.73,3.74,2.8,4.34,6.14,3.6,10.58-.4,2.36.74,5.24,1.88,7.55,2,4.1.84,6.61-3.16,8.06C417.36,264.25,414.59,265,413.14,265.38Zm136.72,1.42c-9.49-2-12.68-.43-15.65,6.75-5,12-10,23.92-14.78,35.95-2.49,6.23-4.63,12.6-7.37,20.13,3.55-.73,5.76-1,7.87-1.66,5.66-1.69,11.24-3.67,16.93-5.25,2.35-.65,6.79-1.69,5.59,2.46-2.43,8.46-.52,19.05-10.41,24.4a1.91,1.91,0,0,0-.85,1.4c.14,4.06.38,8.11.59,12.17l1.73.51c2.66-2.59,5.41-5.11,7.93-7.83.65-.7,1.16-2.64.78-3-3.79-3.57-.86-6.76.54-9.81,2.93-6.41,6.27-12.63,9.31-19,2.24-4.67,4.28-9.44,7-15.43l-31.12,6.82-1.49-1.57C534.14,298.36,541.85,282.88,549.86,266.8ZM715.34,556.47c-1.15,2.67-2.09,4.87-3.05,7.07-.67,1.54-2.22,3.32-1.86,4.55.64,2.15,2.07,4.9,3.88,5.62a7.22,7.22,0,0,0,6.48-1.52c1.29-1.38,2-5.23,1-6.51-5.07-6.59-4.95-12.22,1.11-18.08,1.1-1.07,1.1-4,.63-5.84-2.11-8.18,2.85-16,11.55-17.61,4.66-.84,7.57-3.26,8.16-8.15.61-5.06-2.29-7.91-6.38-9.7-7.7-3.35-8.61-5-6.45-13.34,1.69-6.49-1.46-12.54-7.93-15.21-6-2.47-12.3-.19-15.64,5.48-2.85,4.84-2.69,9.74.71,13.89,3.19,3.9,7.47,6.41,13.05,5.3,5.15-1,8.38,1.25,6.66,4.82-2.3,4.81-2.91,9.28-1.24,14.3a4.51,4.51,0,0,1-1,3.72c-3.66,4-7.17,8.34-11.47,11.55-5.11,3.81-6.12,8.4-1.93,13.4C713.12,552,714.05,554.26,715.34,556.47Zm-457.7-66.29c.07-6.37-2.38-10-8.64-12.77-4.63-2.06-8.46-.54-12.1,2.46-4.79,4-5.42,9-3.8,14.5,1.74,5.95.54,9.39-5,11.17-5.24,1.69-8.32,4.73-7.88,10.35.47,5.78,4.37,7.81,9.69,8.64,6.34,1,11.38,10.17,10.09,16.31a12.11,12.11,0,0,0,1.45,8.44c3.91,5.77,4.18,8.54.63,14.94-1,1.87-1.52,5-.66,6.76,1.66,3.46,5.06,4.88,8.59,2.33s3.59-5.95.92-9.44c-4-5.25-3.88-8.65.45-13.5,5.22-5.87,4-9.75-2.75-14.2-4.26-2.82-7.78-7.18-10.64-11.5-1.15-1.73.6-5.22.55-7.9,0-2.2-.82-4.37-1.2-6.57s-1.62-5.09-.7-6.5,4.18-1.57,6.27-1.27A12.64,12.64,0,0,0,257.64,490.18Zm458.53-92.64c-.28-.79-.56-1.58-.85-2.37-2,.36-4.08.41-5.93,1.13-8.17,3.16-16.31,6.39-24.37,9.83-4.2,1.8-8,2-11.89-.74a30.69,30.69,0,0,0-8-4.41c-1.57-.49-3.7.83-5.57,1.33.69,1.59,1,3.67,2.15,4.68a47.31,47.31,0,0,0,8.13,5.3c3.53,1.91,5.15,4.51,5.37,8.66.48,8.75,1.43,17.48,2.41,26.2.3,2.58,1.37,5.08,2.08,7.61l1.81-.17c.6-2.11,1.37-4.18,1.76-6.32,1-5.63,1.66-11.33,2.8-16.93s3.4-6.56,8-4.14c3,1.6,6,3.37,9.07,4.87,3.89,1.9,6.44,4.45,6.43,9.19,0,1.8,1.26,3.6,2.16,6l12.6-21.2c-3.48.85-5.71,1.68-8,1.86-2.51.21-5.46.59-7.52-.46-4.05-2.06-7.65-5-11.36-7.69-3-2.15-3.06-4.76-.46-7.21,2.07-2,4.39-3.66,6.65-5.41C707.81,403.9,712,400.73,716.17,397.54ZM198.54,657.91c10.72,14,27.31,18.06,42.8,11.24,14-6.18,23.08-21.14,20.72-35.86C242.73,646.25,222,654.69,198.54,657.91ZM426,714.45c-2.15-3.87-.2-7.87-5.83-9.56-13.26-4-25.85-10.15-39.05-14.4-6.22-2-12.5-9.15-20.7-.31l1.12-9.46c-2.92,3.22-4.52,7-6.42,10.56-2.23,4.24-.92,6.88,3.31,8.48,7.84,3,15.66,6,23.51,8.87,12.68,4.74,25.34,9.54,38.11,14,2,.72,6.1.8,6.65-.21,2.35-4.36,3.74-9.24,5.49-13.92l-1.54-.54ZM340.17,365.62c8-2.76,10.31,3.45,13.69,8,2.05,2.75,4.19,5.46,6,8.38,3.08,5,8.26,8.84,8,15.88-.11,3.35,6.14,4.79,7.42,1.75,1.71-4.06,4.43-5.15,8.09-5.81.76-.14,1.28-1.3,2-1.89,1.86-1.53,3.75-3,5.65-4.49,1.31-1,2.67-1.93,4-2.91a61.42,61.42,0,0,0,5.14-3.9c1.53-1.39,3.87-3.06,3.88-4.62s-2.2-3.42-3.71-4.85c-1.87-1.78-4.45-3-6-5-5.11-6.65-9.89-13.56-14.8-20.38-1.47-2.05-3.46-4.54-.23-6.19,1.92-1,5.43-1.24,7-.12,7.07,5.16,13.86,10.74,20.41,16.55,2.42,2.15,3.74,5.5,5.89,8,1.3,1.53,3.17,3.31,4.91,3.46,1.19.1,3.87-2.73,3.63-3.73-.41-1.78-2.27-3.55-4-4.64-3.12-2-6.86-3.12-9.81-5.33-5-3.75-9.53-8.21-14.47-12.1-4.23-3.34-10.08-5.93-2.55-12.12C385,329,342.66,359.66,340.17,365.62ZM539.5,670.2,525.18,674c1.19,3.86,2,6.75,3,9.56a22.14,22.14,0,0,0,2,3.2c1.59,2.75,3.6,5.36,4.58,8.31,1.13,3.37,1.73,7.1-3.26,8.62-.69.2-1.14,2.29-1.12,3.5.08,4.2.35,8.4.66,12.58.35,4.65,2.75,6.42,7.36,5.14,4.95-1.39,9.9-2.78,14.92-3.9s5.84-3.71,3.86-8.33C551.21,698.94,545.62,685,539.5,670.2Zm-132-127.34-.74-2.53c-2.77.49-5.55.95-8.31,1.5-3.48.7-7.48,3.46-9.1-2.61a2.68,2.68,0,0,0-2.38-1.06c-4.13,1.7-8.74,2.93-12.09,5.66-3.71,3-6,7.72-9.34,11.33-2.86,3.11-3.07,5.68-.31,8.94a26.36,26.36,0,0,0,37.5,2.6c-1.74-6.55-3.35-12.68-5-18.75Zm177.89,79.88c-9.85-.34-20.11,8.85-20.74,18.58-.62,9.54,9.2,20.51,18.75,20.92,9.34.4,20.33-9.36,20.86-18.54C604.81,634.12,594.87,623.07,585.39,622.74ZM552,632c10.36-2.83,15.53-11.76,21.39-20.12,5.34-7.62,10.66-15.36,16.94-22.19,3.21-3.49,3.22-4.76-.33-7.28-1.42-1-2.09-3.09-3.11-4.68,1.81-.6,3.63-1.19,5.43-1.81.65-.23,1.27-.56,1.91-.85-2.81-6.09-7.05-8.21-11.62-6.61v7.18c-2.21-.52-4.41-1.4-6.62-1.42-1.79,0-4.71.5-5.2,1.62-2.62,6-4.54,12.29-6.89,18.41C559.07,606.83,549.43,617.83,552,632ZM429.69,329.35h.2c0,2.48,0,4.95,0,7.42s0,5,.05,7.43c.1,7.71,3,10.72,10.58,11,11.84.49,14-1.52,14.17-13.44.1-8.55.16-17.12,0-25.67-.15-8.88-2.25-10.95-11.17-11.39a39.89,39.89,0,0,0-6.81.44c-4.75.61-6.94,3.61-7,8.19C429.61,318.7,429.69,324,429.69,329.35Zm80.7,392.77,1.46.17c.44-3,1.29-6,1.25-9-.09-7.62-.68-15.24-.87-22.86-.47-19.45-.72-38.91-1.34-58.35-.11-3.5-1.58-7-2.42-10.44h-2.56c-.89,4.28-2.41,8.53-2.57,12.83-1.06,27.06-1.83,54.14-2.6,81.21-.06,2,.66,4,1,6.05l1.84-.12q1-13.49,2-27h2.18C511.33,703.41,508.8,713.07,510.39,722.12ZM694.15,545.7c-2-1.93-3.25-4,1.35-5.53a5.76,5.76,0,0,0,3.24-3.77c.63-3.69.55-7.5.76-11.48H680.92c.44,4.21,1.06,7.72,1.15,11.25.34,12.79.4,25.59.78,38.38.17,5.54,3.33,8.9,7.72,9s7.8-3.27,8.29-8.54c.31-3.23.1-6.5.22-9.74.14-3.66-.66-6.33-5.07-6.73-1.16-.11-2.18-1.77-3.87-3.25l6.53-2.32-5.36-2.73C692.22,548.76,693.12,547.32,694.15,545.7Zm-77.87-89.2c1.69,5.6.13,10.17,3,15,1.81,3,3.87,10.29-4,12.38-.88.23-1.73,2.08-1.9,3.27-2.48,17.36-4.62,16.6,12.71,16.46h.58c9.45-.09,10.19-.91,8.92-10.31-1.53-11.32-3.06-22.65-4.82-33.94-.2-1.25-1.84-3.15-2.93-3.23C624.3,455.83,620.72,456.28,616.28,456.5ZM539.22,255.67v0c5.14,0,10.29.05,15.43,0,5.71-.07,8.35-2.73,8.49-8.43.15-6-2.58-9.35-8.15-9.4q-15.43-.15-30.86,0c-5.56.08-7.66,3-7.58,9.74.08,5.94,2.11,8.06,7.81,8.09C529.32,255.69,534.27,255.67,539.22,255.67ZM401.17,399c1.37,1.43,2.48,2.2,3,3.27,1,1.9,2.47,4.09,2.22,5.95-.13,1-3.26,2.14-5.15,2.41a75.61,75.61,0,0,1-12.56.91c-17.9-.48-35.81-1.13-53.71-1.84-5.32-.21-7.8,1.64-6.11,5.75.67,1.62,4,3.13,6,3.09,20.95-.45,41.88-1.35,62.82-1.85,9.49-.22,9.4.08,11.1,9.55.22,1.21,2.1,2.13,3.21,3.18.74-1.07,1.87-2.06,2.13-3.24.49-2.2.31-4.54.69-6.77C416.82,408.13,413.34,402.61,401.17,399Zm95.76-78.26,4,3.49c.81-1.57,1.53-3.19,2.46-4.69,1.09-1.74,2.55-3.27,3.53-5.07,1.33-2.44,3.1-5,3.37-7.59.75-7.07-3.55-12.34-11.78-15.55-3.24-1.26-12.93,1.89-15.45,5.19a6.61,6.61,0,0,0-1.47,3.62c-.08,5.31.08,10.53,5.05,14.22,1.56,1.15,2.42,3.3,3.49,5.06.92,1.51,1.68,3.1,2.52,4.66ZM474,135.76l-.57-1.53c-4.63,1.78-9.53,3.08-13.8,5.5-4.62,2.61-8.68,6.37-9.37,12.14a5.77,5.77,0,0,0,2,4.59c.82.58,4-.31,4.29-1.16,2.25-6.85,8-6.26,12.25-4.52,6.75,2.79,12.75.43,18.92-.66,6.65-1.18,9.86-5.83,8.59-11-1.48-6.14-10.34-9.28-15.73-5.81C478.69,134.52,476.23,135,474,135.76ZM364.33,431.58l.06-.87c9.66.74,19.33,1.5,29,2.2,1.68.12,3.88.6,4.93-.23s1.65-3.52,1.05-4.62-2.91-2.23-4.5-2.28c-8.58-.25-17.18.07-25.76-.27-12.68-.49-25.35-1.32-38-2.12-3.49-.22-4.94,1.29-4.84,4.64.16,5.33.15,10.68.59,16,.11,1.31,1.73,3.58,2.59,3.55a17.72,17.72,0,0,0,8.1-1.94c.76-.44.14-4.05-.49-6-2-6.32-1.15-7.88,5.54-8C349.83,431.47,357.08,431.58,364.33,431.58Zm2.06,71.82c-13.24,0-26,9.67-29.3,22.29-2.18,8.37.5,11.87,9.15,11.93,11.51.07,24.36-9.2,29-20.89C379,507.05,376.62,503.43,366.39,503.4ZM238.23,431.53c-.46-3.76-.77-9.7-2-15.44a95.36,95.36,0,0,0-5.1-15.12c-.45-1.11-2.47-1.59-3.77-2.37a37.88,37.88,0,0,0-.92,4.53c-.06.68.53,1.41.78,2.13,6.7,19.36,8,39.07.53,58.25-4.1,10.49-11,19.87-16.48,29.85-.71,1.29-.27,3.22-.36,4.85a41.69,41.69,0,0,0,4.27-1.54c.63-.3,1-1.09,1.54-1.67C232,477.4,237.56,456.42,238.23,431.53ZM730.56,434l1.42.33c-.51,23.1,6.77,43.47,21.69,61.05,1.21,1.42,3.91,1.57,5.91,2.3-.61-1.93-.74-4.25-1.92-5.74-10.11-12.82-17.07-26.91-19.45-43.29a90.47,90.47,0,0,1,4.47-43.35c.68-2-.21-4.49-.37-6.75-1.7,1.64-4.42,3-4.92,5C734.8,413.64,732.78,423.87,730.56,434ZM563.61,693.74c8.08.29,12.08-6.08,9.08-12.41a115.15,115.15,0,0,0-9.93-17c-2.15-3-5.58-3-9.23-1.19-3.87,1.94-7,4.56-5.32,8.68a114.12,114.12,0,0,0,10,18.33C559.52,692.21,562.64,693.14,563.61,693.74ZM497,271.78l5.41,4.55c2.65-2,5-3.81,6.72-5.18a74.32,74.32,0,0,0-2.19-8.71c-1.3-3.4-3.05-6.62-4.67-9.89-.58-1.16-1.63-2.15-2-3.36-2.39-7.94-2.35-8-10.73-5.85-.23-1.48-.45-2.92-.67-4.37s-.45-3.15-.79-5.54c-2.91,5.16-3.1,13.67-.21,14.9,2,.85,5-.61,7.77-1.09-3.14,7.61-6.44,15.62-9.53,23.14l8.48,6.55C495.31,275.37,496.11,273.66,497,271.78ZM362.75,280l-1,1.24c-1.06-.56-2.48-.85-3.13-1.71-3.9-5.18-7.35-4.13-10.8.43a39.41,39.41,0,0,1-2.78,2.86c-4.51,4.84-5.22,10.65-1.77,14.36,3.3,3.55,10.24,2.85,14.78-1.81,3.42-3.51,6.37-7.49,9.75-11.05,4-4.21,3.64-6.8-2.06-12.13-3.84-3.59-6.92-2.44-10.07,1.37ZM651.83,621.07c.14-12.6-7.05-17.13-16.09-12.06-8.14,4.55-9.49,4.32-15.93-2.77-5.62-6.19-15.42-6.41-20.64-.14-1.17,1.4-1,3.92-1.46,5.92,1.8-.45,3.89-.45,5.33-1.43,5-3.4,8.72-3.27,12.59.92,8.46,9.15,10.71,9.52,22.13,3.59,4.92-2.55,6.84-1.36,7.64,4,.3,1.94,2.09,3.65,3.2,5.47ZM221.66,436.53c-2.07-9.22-4-18.48-6.35-27.62-.34-1.31-2.64-2.12-4-3.16-.18,1.63-.93,3.45-.45,4.85,6.5,18.68,6.24,37.09-2.53,54.94-2.74,5.56-6.93,10.4-10.19,15.73-.69,1.12-.25,3-.33,4.45a23.71,23.71,0,0,0,4.34-.91c.8-.31,1.37-1.29,1.95-2.05A85,85,0,0,0,221.66,436.53Zm526.78-1.17c1,18,6.52,33.91,17.88,47.62,1.17,1.41,3.65,1.73,5.53,2.55-.5-1.94-.44-4.3-1.57-5.75-16.11-20.77-19.71-43.53-11.49-68.39.54-1.65-.21-3.72-.36-5.59-1.53,1.34-4,2.45-4.41,4.08C751.87,418.3,750.25,426.85,748.44,435.36Zm-339.19,141c10.93,1.95,19.95-1.23,28.16-7,5.94-4.2,5.53-6-1.17-8.82a38.19,38.19,0,0,1-3.55-1.81c-4-2.18-7.76-1.84-11.93.11C413.39,562.25,412.46,569.46,409.25,576.35ZM366.69,664.7l1.44.61c.48-.54.95-1.09,1.45-1.61,7.34-7.67,5.82-9,16-5,13,5,25.89,10.35,39.18,14.44,8.87,2.72,13.36,7.07,11.69,16.56-.07.4.38.89.84,1.88,1.12-2.75,2.14-4.94,2.91-7.22,2.37-7,1.65-8.39-5.39-11.06-7.3-2.77-14.58-5.62-21.91-8.35-11.25-4.19-22.48-8.48-33.86-12.31-2.09-.71-6-.32-7.06,1.09C369.58,656.86,368.39,661,366.69,664.7Zm168.57-27.64c.14-10.79,4.61-21,7.23-31.52l-9.06-.62c-1.62,5-3.27,9.66-4.61,14.39s-2.34,9.45-3.43,14ZM516.7,574.2c0-6.7-5.06-12.08-11.27-12-6.91.11-11.76,4.78-11.78,11.34s5.22,12.12,11.24,12.11A11.5,11.5,0,0,0,516.7,574.2ZM465.18,329.81l2.49-.25c.58-3.66,1.63-7.32,1.65-11,0-9.05-.3-18.1-.79-27.13-.06-1.18-1.86-2.26-2.86-3.39a27,27,0,0,0-3.67,3.39c-.46.6-.1,1.85-.11,2.8-.08,6.41-.28,12.82-.19,19.22C461.78,319.18,461.85,325,465.18,329.81ZM580,752.11c-1.89,3.22-3.62,4.8-3.41,6.07.59,3.62.36,6.27-3.52,7.89-.7.3-1,2.71-.68,3.9.2.7,2.45,1.63,3.11,1.26,4.1-2.29,5.75.09,7.66,3.15.56.9,2.93,1.29,4.17.91.81-.24,1.87-2.66,1.48-3.44-1.91-3.8-.15-5.44,2.93-7.25.92-.54.58-3.22.82-4.93C587.76,759.24,582.32,760.25,580,752.11Zm-284.52-436c-6.52-.13-10.41,3.48-10.63,9.87-.23,6.78,3.68,11.4,9.86,11.65,5.95.23,11.45-4.57,11.72-10.24C306.77,321.18,302,316.21,295.52,316.08Zm114.17-19.52-24.22,11.56c1.33,2.43,2.66,4.85,4,7.31l23.93-12C412,300.78,411,299,409.69,296.56Zm216.55-6.23a49,49,0,0,0,5.55,4.17c1.41.78,3.18.9,4.79,1.31-.45-1.6-.46-3.58-1.44-4.72-4.47-5.17-4.57-5.08,1.72-8.77-4.27-4.54-9.56-3-14.43-2.61-.89.07-2.3,2.52-2.26,3.84.12,4.12-2.11,9.08,3.15,12.22ZM455,720.5c3.82-7.59-2.6-17.11,6.9-24.39l-5.62-2.41,6.68-4.5-6.15-3.06a24.28,24.28,0,0,1,2.87-1.89c.9-.39,1.86-.6,1.28-.43-8.12-12.7-1.61-25.88-6-37.55V720.5Zm22.35-166.84c.76-7-4.42-8.93-7.46-12.14-.49-.52-3.14,0-3.83.87-2.61,3.18-8.14,4.91-6.19,10.89l5.62-.79a20.33,20.33,0,0,0,2.7,10c.87-1.59,2.41-3.15,2.48-4.78C470.86,553.45,471.49,550.51,477.36,553.66ZM268.08,532.84l24.37,23.31c-3-9.79-27.72-34.75-33.58-35.54ZM423,646c.13-5.58-3.6-9.53-9-9.5a9.94,9.94,0,0,0-9.64,9.35,9.58,9.58,0,0,0,9.18,9.68C419.15,655.69,422.89,651.93,423,646Zm-5.92-65c4.27,5,10,6.48,15.07,4s8.44-6,8.24-12.64ZM462,655.16l1,0a19.79,19.79,0,0,0,.34-2.52c0-5-1-10,4-14,1.09-.85.51-6-1-7.31s-5.8-1-7.28.32c-1.32,1.2-.92,4.91-.42,7.34.68,3.32,2.42,6.41,3.23,9.71C462.44,650.77,462,653,462,655.16ZM411.51,336.27c4.46-.06,8.85-3.74,7.72-7.91a12.42,12.42,0,0,0-7.09-7.43c-4.06-1.27-8.41,3.55-8.51,7.9C403.54,332.57,407.51,336.32,411.51,336.27Zm154,411.06c5.69-2.68,11.05-5.07,16.25-7.78.71-.37,1.25-2.74.78-3.34-.7-.92-2.62-1.8-3.58-1.46-5.19,1.86-10.3,4-15.29,6.33a4,4,0,0,0-1.64,3.54C562.37,745.67,564.14,746.31,565.56,747.33ZM489.06,598.2c-5.22,4.24-8.69,16.28-6.35,20.81a3.61,3.61,0,0,0,3.08,1.52c1.22-.29,3.08-1.58,3.12-2.51C489.19,611.66,489.06,605.3,489.06,598.2Zm-21.27,86.92-.69-.1v35.45h.69ZM471.9,235.8l1.12-1.42c-1.6-1.16-3.12-3.14-4.8-3.27-2.74-.23-5.57.75-8.36,1.22.1.84.19,1.68.29,2.51ZM339.24,574.49l-1-1.31-20.49,17.9,1,1.14Zm131.22,71-2,.06v28c1-4.71.91-9.43,1.07-14.15S470.13,650.18,470.46,645.53Zm-202-104.13-1.76,2.52,5.29,4.6a25.73,25.73,0,0,0,2.09-3.44A54.32,54.32,0,0,0,268.41,541.4Zm4.11-16.62c1.32-1.53,2.9-2.88,2.71-3.21a13.72,13.72,0,0,0-3.44-3.77c-.2-.14-2.47,1.63-2.34,2A32.11,32.11,0,0,0,272.52,524.78Zm15.36,8a44.79,44.79,0,0,0-5.26-3.25c-.28-.12-1.95,1.85-1.82,2a13.66,13.66,0,0,0,3.51,3.71C284.67,535.47,286.15,534,287.88,532.74Zm-30-3.23-2.11,2.4c1.55,1.37,3.07,2.78,4.73,4a28,28,0,0,0,2.05-2.24Z"/>
      <path class="cls-3" d="M513.75,543.08c-3.27.68-7,1.87-10.75,2.07-2.25.12-5.44-.63-6.69-2.19-2.13-2.67-6.09-5.42-3-9.93,1.39-2,2.66-4.18,4-6.28,4.85-7.74,3.48-13.7-4.11-18.7-4.46-2.93-9.94-4.78-8.66-12.38.9-5.33,3.68-7.05,8.23-7.76,5.12-.8,10.89-1.29,12.82-7a24.32,24.32,0,0,0,.84-12.45c-1.31-5.88-1.69-10.76,4.88-13.12,2.14-.77,5.19-1.14,7.06-.19,17,8.57,17,8.72,28.63-6.71,2.48-3.27,5.21-3,8.59-2.37s6.41,1.11,6.93,5.4c.26,2.26,1.17,4.43,1.69,6.66,2,8.56,8.49,12.41,17,10,8.89-2.53,10.57-2.29,14.55,4.11,1.11,1.79,1,4.95.33,7.11-1,3-3.11,5.66-4.6,8.53a12.15,12.15,0,0,0,4.66,16.21,39.79,39.79,0,0,0,4.39,2.7c4,1.78,5.94,4.34,5,9s-2.61,7.67-8.16,8.59a26.56,26.56,0,0,0-12.33,6c-4.73,4.11-2.9,10-1.24,15,1.48,4.47,1,7.3-3,10.29-4.17,3.12-7.52,3.64-11.76.43-3.92-3-7.93-5.48-13.57-4.78-5.87.73-7.66,5-10.21,9-4.86,7.5-6.14,8-13.78,5.2-5.33-1.92-4.52-7-5.45-11C524.63,548.72,519.26,543.12,513.75,543.08Zm9.36-38.3c-.11,12.22,9,21.78,20.92,21.86a21.1,21.1,0,0,0,21.38-21.47c0-11.92-8.92-20.89-21-21.18A20.77,20.77,0,0,0,523.11,504.78Z"/>
      <path class="cls-3" d="M472.41,519.82c-4.22-.63-6.86-1.09-9.51-1.41-5.76-.69-10.09,2.2-11.6,7.74-.55,2-.58,4.26-1.47,6.1s-2.43,4.84-4.06,5.12a14.83,14.83,0,0,1-8.76-1.44c-2-1-3-3.81-4.5-5.79a10.2,10.2,0,0,0-14.1-2.54c-1.77,1.13-3.33,2.89-5.25,3.4-2.26.6-5.36,1-7.09-.06-2-1.28-3.22-4.16-4.21-6.58-.5-1.24.28-3,.44-4.5,1-10.28-.67-12.51-10.54-15.46-3.07-.92-7.22,0-8.47-5.21-1.18-4.9-.39-7.55,4.08-10.21,9.8-5.84,10.28-9.68,4.11-19.46-1.83-2.9-4.42-5.64-1.71-9.85s6.23-4.37,10.41-3.73c11,1.71,13.75-.24,16.25-11,.84-3.64,1.51-7.08,6.58-8.12s7.32,1.26,9.11,4.78c4.42,8.67,12.46,9.88,20.39,3.24,2.91-2.45,5.29-3.33,9-.79s4.82,5.45,4,9.63c-2.32,11.21-.48,14,10.46,16.84,3.53.92,7.4,1.08,8.3,6.32.86,5.05-1.55,7.27-5.14,9.66-9,6-9.72,11-3.12,19.87,2.05,2.74,4,5.44,1.3,8.68A52.94,52.94,0,0,1,472.41,519.82Zm-19.87-32.51c0-9.62-8.17-18.1-17.66-18.23-9.85-.13-18.94,8.86-18.78,18.57.15,9.09,9.16,17.92,18.31,18A18.21,18.21,0,0,0,452.54,487.31Z"/>
      <path class="cls-3" d="M443.87,377.94c-.69-1.72-2.49-4.78-3.05-8.06-.41-2.4,0-5.88,1.52-7.4,1.74-1.74,5.08-2.25,7.8-2.51,1.73-.16,3.58,1.16,5.39,1.76,6.34,2.09,11.24-.16,13.77-6.33a34.68,34.68,0,0,0,1.39-3.76c1-3.72,3.07-5.66,7.29-5.89s6.16,1.4,7.79,5c5.29,11.52,8.69,12.8,19.76,7.7,3.16-1.45,5.9-2.28,8.89.52s3.81,5.43,2.35,9.57c-1.3,3.67-2,8.16-1.08,11.81.65,2.57,4.4,4.42,6.91,6.43a10.42,10.42,0,0,0,3.18,1.26c3.67,1.24,5.45,3.55,5.48,7.66s-2.08,5.72-5.33,7.13c-10.93,4.72-12.47,8.62-7.46,19.51,1.76,3.83,2.32,6.77-1.18,10.14s-6.53,2.33-10,1c-9.59-3.77-14.31-1.78-17.74,7.69-1.29,3.56-1.82,7.14-7.19,7.36-5.17.2-6.95-2.39-8.72-6.36-4.39-9.82-8.46-11.28-18.47-6.84-3.37,1.49-6.16,3.13-9.84-.13-3.9-3.43-3.18-6.79-1.87-10.77,3.51-10.6,1.91-13.9-8.66-17.9-3.49-1.32-5.74-3.11-6-7.33s1.76-6.45,5.19-7.89C439.37,389,444.21,386.46,443.87,377.94Zm34.77,36.38c10.56.1,18.16-7.45,18.4-18.29.21-9.22-7.85-17.34-17.4-17.53-10.55-.2-18.14,7.41-18.29,18.33A17.43,17.43,0,0,0,478.64,414.32Z"/>
      <path class="cls-3" d="M333.85,247.94c-6.18,7.09.53,11.92,1.61,17.52.56,2.93,1.68,5.23-2,7.16-1.51.8-2.24,3.67-2.72,5.74-.74,3.14-.77,6.43-1.45,9.59-.29,1.38-1.46,3.69-2.19,3.67-7.56-.19-8.89,6.89-12.88,10.76-2.3,2.24-4,4.42-7.72,2-1.37-.88-4-.4-5.82.16-2.89.89-5.52,2.71-8.43,3.47-1.81.48-5.22.4-5.71-.56-2.51-4.86-6.92-3.74-10.9-4.51-4.39-.84-10.68.33-9.91-7.67.09-.94-1.9-2.15-3-3.12-2.89-2.47-6-4.75-8.7-7.39-.88-.85-1.71-3.19-1.24-3.79,3.08-3.91,1.15-7-.84-10.44a24.61,24.61,0,0,1-2.67-8.1c-.21-1.25.95-2.8,1.67-4.11,1.24-2.25,3.12-4.28,3.81-6.67.9-3.07.65-6.46,1.39-9.59.33-1.43,2-3.77,2.82-3.65,5.25.76,6.79-3.16,9.08-6.34a47.21,47.21,0,0,1,4.85-5.63c.74-.75,2.4-1.77,2.84-1.48,6.73,4.55,11.75-1.78,17.6-2.49,2-.24,4.2.89,6.27,1.53,3.87,1.2,7.66,2.71,11.58,3.71,4.13,1,8.89.59,8.77,7.26,0,1.6,3.3,3.26,5.09,4.89Zm-25.76,17.29a15.78,15.78,0,0,0-15.9-15.43c-8.08-.08-15.08,7.26-14.91,15.62s7.3,15.43,15.42,15.21C301,280.41,308.17,273.26,308.09,265.23Z"/>
      <path class="cls-3" d="M718,235.55l-11.73.89c.86,1.93,1,3.22,1.76,3.8,8.56,6.71,8.54,15.9,7.73,25.46A11.17,11.17,0,0,0,717,271c2.39,5.18,1.21,7.87-4.2,8-6.11.14-10.6,3-13.8,7.76a9,9,0,0,0-1,6.72c2.34,8.12-1.78,18.11-9.47,21.07-1.2.47-3.42-.24-4.51-1.18q-28-24-55.85-48.22c-3.06-2.65-3-5.09-.37-8.25,4.11-4.93,7.72-10.19,15.51-7.66A4.11,4.11,0,0,0,647,248c3.73-5.32,10.23-8.89,10.75-16.27.33-4.67,3.92-3.7,6.73-4.16,2.32-.38,4.66-.67,6.95-1.18,8.3-1.84,16.47-3.2,23.7,3.2,3.45,3,6.88,5.61,11.06.4.92-1.14,4.72-1.09,6.42-.16,2.16,1.17,3.52,3.8,5.23,5.8Zm-31.07,5.64c0-5.09-4.34-9.07-9.8-9a8.3,8.3,0,0,0-8.12,8.52,9.46,9.46,0,0,0,9.31,8.95C683.49,249.79,686.87,246.45,686.88,241.19Zm21.18,21.28a7.63,7.63,0,0,0-7.44-8,7.23,7.23,0,0,0-7.37,7.09c.09,3.85,4,8.17,7.57,7.88C705.1,269,707.83,266.76,708.06,262.47Zm-55.59-7.37c2.45-3.58,4.34-6.22,6-9,.12-.2-1.55-1.45-2.39-2.22-2.13,2.49-4.33,4.92-6.27,7.54C649.6,251.68,651,253.11,652.47,255.1Zm48.66,24.16c-1.5-1.36-2.82-2.67-2.89-2.61a93.4,93.4,0,0,0-6.94,7,23.12,23.12,0,0,0,2.18,2.54ZM667,251.6c-2-1.19-3.66-2.48-3.85-2.29-2.29,2.3-4.35,4.82-6.46,7.28,1,.64,2.53,2,2.82,1.8C661.92,256.5,664.09,254.31,667,251.6Zm3,2.27c-2.23,2.71-4.12,4.89-5.74,7.25-.16.22,1.39,1.62,2.15,2.48,2-2.23,4.09-4.43,6-6.77C672.51,256.67,671.24,255.39,670,253.87ZM681.08,275c2-2.71,3.71-4.84,5.14-7.15.15-.25-1.25-1.47-1.93-2.24-2,2.12-3.95,4.2-5.78,6.42A25.24,25.24,0,0,0,681.08,275Zm6.54,5.91c2.18-3,4-5.3,5.52-7.75.1-.15-1.36-1.29-2.1-2-2,2.13-4,4.23-5.77,6.49C685.11,277.87,686.36,279.19,687.62,280.89Zm-13.35-11c2.11-3,3.66-5.18,5-7.46a10.55,10.55,0,0,0-2.47-1.93,38.37,38.37,0,0,0-5,5.65C671.55,266.45,672.93,267.9,674.27,269.86Z"/>
      <path class="cls-3" d="M775.9,605.94c-2.94,5.43-5.93,10.84-8.82,16.3-1.51,2.86-3.4,5.7-4,8.78-.3,1.47,1.54,4.05,3.11,5.1,3.44,2.33,7.55,3.71,10.93,6.1,1.45,1,1.79,3.63,2.63,5.51-2,.21-4,.83-5.84.54-3.34-.51-7.1-5.66-9.76-.15-2.42,5,3.78,4.92,6,7.29,1.19,1.29,2.9,3,2.77,4.38s-2,3.15-3.49,3.78c-3.26,1.36-4.17,2.86-3.2,6.55.57,2.18-.8,5.31-2.23,7.35-.57.82-3.67-.05-5.6-.32-.7-.1-1.31-.76-2-1.09-9.75-4.55-9.86-4.6-15.36,4.81-1.64,2.81-3.29,3.27-6,1.82s-4.65-2.87-2.79-6.2c.09-.17.15-.36.25-.52,6.26-10.4,4-10-6.54-15.57-3-1.6-5.06-.84-6.51,2.16-.82,1.71-2,3.29-2.7,5-1.58,3.76-4,3.22-7,1.79s-3-3.35-1.87-6.08c4.43-10.38,4.36-10.36-5.91-15.66-6.95-3.58-13.79-7.4-20.78-10.92-3.25-1.63-3.94-3.33-2.2-6.76s3.68-3.47,6.87-2.18A59.54,59.54,0,0,0,698,631.31c1.24.2,3.4-1.65,4.1-3.07.4-.79-1-3-2.16-3.94-3.85-3-6-6-1.19-10a1.92,1.92,0,0,0,.33-.46c6.22-9.73,6.27-9.84,16.63-4.29,3.58,1.92,6.64,3.32,10.53.55,2.12-1.51,8.75,5.12,9,8.55a26.64,26.64,0,0,0,1.1,4.46c1.86-.63,4.49-.7,5.43-2a76.42,76.42,0,0,0,6.44-11.41c1.27-2.6,1.78-5.81,5.92-4s4,4.52,2,7.87c-1,1.82-2.3,3.68-2.64,5.67s-.13,5.56.74,5.86a10.32,10.32,0,0,0,7.16-.32,6.81,6.81,0,0,0,3.14-5.14c0-7.25,7.13-9.32,9-15C774.38,605.06,775.14,605.5,775.9,605.94Z"/>
      <path class="cls-3" d="M365.22,718.33c6,2.13,10.48,3.73,14.95,5.3,11,3.86,22,7.5,32.84,11.65,6.61,2.52,7.41,4.45,5.28,11-1.65,5.07-1.93,11-7.9,13.83-1,.48-1.72,3.14-1.41,4.53,1.84,8.27-.67,14.61-6.83,20.4-2,1.89-1.82,6.23-2.36,9.5-.33,2,.17,4.15-.24,6.12-.9,4.32-3.07,5.92-7.83,4.15-15.82-5.86-31.83-11.23-47.66-17.08-1.88-.69-4.55-3.29-4.37-4.68a10,10,0,0,1,4.22-6.26c3.36-2.13,6.17-8.63,5.06-12.72a13.94,13.94,0,0,1-.17-7.41c3.33-10.53,6.86-21,10.79-31.33C360.62,722.58,363.37,720.54,365.22,718.33ZM379,766.46c1.14-7.51,2.89-14.24,6.8-20.4.78-1.23.66-3.08.7-4.65,0-.29-1.66-1-1.8-.84a11.78,11.78,0,0,0-2.79,3.88c-1.15,3.58-1.69,7.37-2.88,10.94-1.86,5.58-4.06,11.06-6.28,17-7.21-7.07-10.33-10-5.12-18.17.64-1-.57-3.16-.92-4.78-1.22.52-3.49,1.08-3.48,1.57.14,5.18-1.12,11.58,1.43,15.27,5.08,7.33,5.81,14.15,3.06,22.07-.43,1.24-.18,2.71-.24,4.08a41,41,0,0,0,4.94-10.53c2.41-6.7,5.78-12.92,13.41-14.25,6.09-1.06,9.19-4.72,11.38-9.76a10.28,10.28,0,0,0,.5-4.12c0-.23-1.69-.83-1.89-.61-1,1-2.33,2.3-2.36,3.52-.14,4.47-2.21,7.19-6.44,8.27C384.65,765.57,382.22,765.87,379,766.46Zm20.37-30.84c-1.73-1.56-3-3.52-3.92-3.37-1.41.24-2.57,1.94-3.83,3,1.15,1.24,2.11,3.06,3.5,3.49C395.93,739,397.44,737.11,399.35,735.62Zm9.17,3c-2.3-1.58-3.6-3.16-5-3.23-1.18-.07-2.45,1.6-3.68,2.49,1.3,1.32,2.41,3.1,4,3.76C404.59,741.9,406.23,740.11,408.52,738.57Zm8.67,3.31c-2.26-1.78-3.51-3.47-4.94-3.64-1-.13-2.26,1.82-3.4,2.84,1.13,1.17,2.11,2.94,3.46,3.31C413.34,744.67,414.85,743.16,417.19,741.88Z"/>
      <path class="cls-3" d="M454.36,163.23c0,5,0,10.06,0,15.09a12.07,12.07,0,0,0,3.7,9c3.41,3.67,5.22,8.81,8.83,13.55.25-5.52.62-11,.71-16.55,0-3.23-.42-6.46-.57-9.7-.21-4.23,2.07-5.74,6.27-5s8.68.89,13,1.3l.36-2.8c-4.07-.67-8.23-1-12.18-2.15-2-.55-3.57-2.45-5.34-3.74,1.76-.84,3.71-2.69,5.23-2.39,17.16,3.43,34.24,7.22,51.37,10.8,3,.63,3.78,1.91,3.74,5.08-.12,8.26-1.49,16.53,2.38,24.71,1.51,3.19-.4,8.07-1,12.13-.28,1.85-1.46,3.55-1.77,5.39-1.37,8.08-1.31,8.19-9.7,8.3q-35.76.48-71.53.78c-7.3.06-7.87-.62-8.05-7.77-.17-6.49,0-13-.39-19.46-.35-6.16,5-8.61,8.09-12.2a14.54,14.54,0,0,0,4-10.67c-.13-4.6,0-9.2,0-13.81Zm41.51,19.16v-.6c-6.68,0-13.37-.28-20,.18-1.8.12-4.49,2.2-4.94,3.88-.78,2.89-1.43,7,3,8,3.52.79,3.93,2.85,4,5.79.23,10.52.29,10.52,10.91,10.76,1.71,0,3.71.51,5.08-.19,1.83-.92,4.23-2.59,4.55-4.29,2.23-11.91,6-15.7,18.13-17.77,1.53-.26,2.82-1.93,4.23-2.95-1.45-.94-2.86-2.61-4.34-2.67C509.61,182.23,502.74,182.39,495.87,182.39Zm29.5,24.06c2.21-2.26,4.75-4.16,4.49-4.7-1.12-2.29-3.07-4.18-4.71-6.22-1.38,1.87-3.44,3.59-3.86,5.65C521.05,202.36,523.45,204.09,525.37,206.45Zm-18.29-1.69c2.1-1.92,4.68-3.52,4.46-4.22-.72-2.25-2.48-4.18-3.83-6.23-1.69,2-3.62,3.84-4.84,6.08C502.63,200.84,505.12,202.78,507.08,204.76ZM516,220.93c1.58-2.17,3.7-4,3.36-4.83-.86-2-2.83-3.63-4.36-5.4-1.61,1.9-3.23,3.8-4.84,5.71Zm-.1-31.65c-1.75,2.21-4,4.06-3.67,4.83.83,2,2.8,3.49,4.32,5.19,1.56-1.72,3.55-3.26,4.41-5.27C521.17,193.43,518.25,191.47,515.85,189.28Zm-9.56,14.24c-2,2.42-4.06,4-3.78,4.82.79,2.2,2.54,4.06,3.91,6.06,1.34-1.68,3.48-3.23,3.77-5.08C510.4,208,508.21,206.22,506.29,203.52Zm18.23,1.85c-2,2.52-4.09,4.12-3.84,5.16.45,1.86,2.31,3.39,3.58,5.06,1.52-1.72,3.44-3.27,4.35-5.28C528.91,209.65,526.61,207.81,524.52,205.37Z"/>
      <path class="cls-3" d="M624.74,770.54a25.47,25.47,0,0,1-8.93,22.08c-13.13,11.59-28.07,18.54-46.09,13.7-8.58-2.31-14.6-8.39-18.14-16.37-6.19-14-11.82-28.16-17.82-42.19-1.61-3.78-1.62-6,2.86-8,12.55-5.56,12.54-5.86,18.13,6.38,4.12,9,7.84,18.21,11.89,27.25a45.42,45.42,0,0,0,4.53,7.89c6.17,8.61,13.18,10.27,22.83,5.62a17,17,0,0,0,8.86-21.11c-3.24-9.55-7.5-18.76-11.34-28.11-1.74-4.22-3.58-8.4-5.33-12.62a5.1,5.1,0,0,1-.59-2.2c.47-8.22,8.76-5.94,12.85-9.39,2.41-2,4.57-.74,5.78,2.14,6.5,15.47,13.15,30.88,19.47,46.42C624.74,764.59,624.43,767.69,624.74,770.54ZM594.19,736.8c5-3.68,9.76-5.54,11.58-8.95s-4.82-12.76-7.46-11.77c-3.64,1.37-9.4,4-9.54,6.34C588.52,726.62,591.79,731,594.19,736.8Zm-39.77,12.59c-2.73-3.72-4.79-8.88-8.46-10.6-2.08-1-8.05,2.92-10,6s4.4,12.1,7.13,12.09C547,756.91,553.2,752.85,554.42,749.39Z"/>
      <path class="cls-3" d="M283.72,488.71c-1.22-7.37-5.41-11.83-13.26-13.23-2.19-.39-4.2-3.46-5.7-5.71-2.58-3.88-4.27-8.41-7.12-12.06-3.57-4.56-4.93-8.48-2.86-14.55,3-8.73,5.37-18,5.77-27.17.31-7.11-2.86-14.35-4.35-21.55-.39-1.94-1.06-5.15-.23-5.71a8.07,8.07,0,0,1,6.2-.54c7.82,2.54,15.88,4.75,23.14,8.48a59.68,59.68,0,0,1,22.91,20.16c1.58,2.41,1.29,4.38-2,5a13.25,13.25,0,0,1-2.82.45c-15.57-.27-26.91,8.39-37.85,17.88-7.31,6.34-7,12.78,1.07,18.15,1.16.77,3.69.52,5-.24a25.86,25.86,0,0,0,7.17-5.6c6.41-7.66,16.48-7.19,24.45-11.33,1.08-.56,3.25.28,4.58,1.05,3.05,1.75,5.88,3.89,8.84,5.82,2.56,1.66,3.61,11.86.75,14.32-10.55,9.05-21.43,17.72-32.22,26.5C285.06,489,284.55,488.8,283.72,488.71Zm-3.55-31.88-1.78-1.6c-3.21,3.11-6.53,6.14-9.54,9.44-.48.52.17,2.4.77,3.36.19.31,2.36,0,2.85-.6C275.17,464,277.63,460.38,280.17,456.83Z"/>
      <path class="cls-3" d="M671.4,597.49H603.53c1.82-7.3,6.72-11.32,12.66-11.6,3.17-.15,6.3-1.41,9.47-1.48,4.37-.1,8.77.41,13.15.75,1.57.12,3.13.46,5.9.9l-6-19.57c-5.15-1.83-9.32-3.67-13.68-4.72-3.18-.77-6.61-.51-9.94-.7l-.21-1.43a17.45,17.45,0,0,1,3.7-.83c5.35,0,10.7.15,16,.14,4.42,0,8.85-.54,11,4.93.31.78,4.6,1.21,5.18.43,1.91-2.61,3.86-5.75,4.16-8.85.5-5.26-6.87-14.93-11.94-16.37-4.74-1.34-6.6,2.39-7.59,5.82-1.44,5-2.27,8-7.27,2.25-2.52-2.88-6.86-4.11-10.14-6.42-.84-.58-1.5-2.82-1.05-3.61,3.17-5.46,6.69-10.72,10-16.09,3.48-5.63,7.61-9.22,15.06-7.47,2.26.53,5.32-1.38,7.73-2.69,3.16-1.73,6-4.13,9.09-5.92,1-.57,2.59-.11,3.91-.12-.47,1.28-.57,3-1.49,3.76-3.08,2.54-6.48,4.7-9.71,7.06-7.25,5.3-7.2,10.65.11,15.58,12.81,8.66,20.42,20.1,18.16,36.15A30.71,30.71,0,0,1,665,579.92c-3.23,4.75-3.06,8.2,1.19,11.85A64.19,64.19,0,0,1,671.4,597.49Z"/>
      <path class="cls-3" d="M268.2,612.88a54.82,54.82,0,0,1-4.2,5c-1.85,1.66-4.44,2.53-3.29,6.13.31.95-1.91,3.13-3.38,4.17C240.52,640,221.92,647.71,201.51,650c-6.17.7-12.7-1.77-19.92-2.92,1.09-2.24,1.52-4.52,2.9-5.69,4.81-4.08,6-9.52,7.66-15.28,7.41-25.38,37.74-34.12,58.22-17.38,2.09,1.72,5.52,1.9,8.38,2.56S264.37,612.25,268.2,612.88Z"/>
      <path class="cls-3" d="M577.19,391.23c6.84,0,12.34-.34,17.77.13,2.8.25,5.51,1.82,8.18,3a70.55,70.55,0,0,1,7.83,3.91,26.34,26.34,0,0,1,3.84,3.36,24.23,24.23,0,0,1-3.37,3.28c-1.06.7-3.15.45-3.65,1.29-6.54,11.05-18.09,8-27.72,9.58-8.21,1.32-16.74.71-25.12.8-4.89.06-10-7.79-9.22-12.56.7-4,.11-8.29.1-12.45,0-1.49-.38-3.11.07-4.46,3.51-10.55,8-20.46,16.19-28.5,3.56-3.48,5.61-8.49,8.61-12.61.9-1.25,2.69-1.85,4.08-2.74.49,1.49,1.08,3,1.46,4.49.56,2.25.33,5,1.55,6.74,6.69,9.56,6.76,19.43,2.22,29.74C579.2,386.07,578.5,388,577.19,391.23Zm-2.35-33.78c-4.15,5.48-3.71,11.8.65,15.46,2.53,2.12,4.79,1.47,4.65-1.53C579.91,366.51,580.18,361.07,574.84,357.45Z"/>
      <path class="cls-3" d="M627,354.82c-3.74,3.09-4.67,5.73-.81,9a45.92,45.92,0,0,1,7.07,7.48c1.23,1.67,1.52,4,2.23,6.09-1.87-.75-4-1.13-5.55-2.33a54.94,54.94,0,0,1-7.35-7.2c-2.68-3.12-5.15-3.65-8-.35a5.87,5.87,0,0,1-2.2,1.79,52.56,52.56,0,0,1-5.3,1.31c.52-1.76,1-3.55,1.61-5.26.25-.66,1.28-1.05,1.47-1.7.6-2.06,2.07-5,1.22-6.13-2.43-3.27-4,.21-5.78,1.64-1,.86-1.78,2.27-2.93,2.67-1.34.46-3,.09-4.49.08.2-1.36,0-3,.68-4,1.12-1.72,3.08-2.92,4.16-4.66.65-1,.79-3.59.29-3.86a6.53,6.53,0,0,0-4.45-.4c-1.16.32-1.91,1.95-3.08,2.46a52.3,52.3,0,0,1-6.23,1.93c.82-2.05,1.55-4.15,2.5-6.13.4-.82,1.69-1.31,1.86-2.11.36-1.68.94-4,.13-5.05s-3.21-1.09-4.92-1.14a29.66,29.66,0,0,0-5.08.69,42.91,42.91,0,0,0,1-5.06,13.09,13.09,0,0,0-.27-4.37c-1-3.75.17-5.06,4-4,4.94,1.32,6.39.05,5.34-4.81-1-4.49.06-5.83,4.6-3.84,1.1.48,3.29-.3,4.31-1.23a4.38,4.38,0,0,0,.67-3.9c-1.71-4.45-.4-5.54,4.08-4.69,1.76.33,3.75-.69,5.65-.89,1.21-.14,2.87-.34,3.55.3s.09,2.28.11,3.49c0,2.13.1,4.26.16,6.39,1.7-.12,3.78.34,5-.48,2.49-1.64,3.39-4,.85-6.72-.57-.61-.35-2.54.21-3.42a3,3,0,0,1,2.94-.64c3,2.12,6.4,4.11,8.57,7,2.32,3.06,4.08,4.19,7.45,1.87.88-.6,2.39-.27,3.61-.37.1,1.37.29,2.74.28,4.11,0,2.06-.21,4.12-.33,6.17,1.94-.82,4.15-1.29,5.75-2.54,2.54-2,4.49-4.73,7-6.69,1.46-1.12,3.64-1.32,5.49-1.93-.51,2.05-.51,4.47-1.66,6.05-2,2.74-4.71,5-7.15,7.4-2,2-3.74,3.88-1,6.75.57.6.36,3.08-.17,3.35-1.05.53-2.58,0-3.9.12-1.91.18-4.45-.11-5.54,1s-1,3.67-1.19,5.61a26.76,26.76,0,0,0,.21,4.09,35.41,35.41,0,0,0-4.12,0c-2.05.21-4.09.61-6.13.94A44.92,44.92,0,0,0,635,354c.4,1,1.74,1.66,2.08,2.67s.51,2.83-.1,3.45a3.55,3.55,0,0,1-3.4.12A79.32,79.32,0,0,1,627,354.82Zm7.74-32.77c-2-1.68-3.91-3.7-4.3-3.45a42.14,42.14,0,0,0-5.51,5c1.13,1.05,2.7,3.2,3.32,2.95C630.36,325.68,632.09,324,634.78,322.05Zm-24.43,7.11c1.64-2.59,3.65-4.37,3.43-5.79s-2.58-2.76-4-4.12c-1.23,1.48-3.4,2.94-3.43,4.45S608.45,326.73,610.35,329.16Zm26.18,7.95a58.74,58.74,0,0,0,5.49-6.64c.2-.31-1.93-2.08-3-3.17a46.26,46.26,0,0,0-5,5.59C633.72,333.35,635.27,335.06,636.53,337.11Zm-22.22-3.79c2.16,1.5,4,3.38,4.57,3.05a11.39,11.39,0,0,0,3.63-4.35c.15-.27-2.2-2.65-2.83-2.43C618,330.17,616.6,331.64,614.31,333.32Zm13.16,12.79c1.75-2.12,3.42-3.44,4-5.13.24-.74-1.82-2.23-2.83-3.37-1.41,1.28-3.27,2.35-4,3.94C624.23,342.27,626.08,344,627.47,346.11Zm-21.32-12.76c-2.45-1.72-3.94-3.47-5.62-3.69-1-.13-2.29,2.18-3.45,3.4,1.49,1.15,2.85,2.83,4.53,3.27C602.57,336.57,604.05,334.8,606.15,333.35ZM610,346.76c1.49-2,3.16-3.31,3.08-4.48s-1.79-2.45-2.79-3.67c-1.23,1.15-3.14,2.15-3.48,3.52C606.53,343.11,608.41,344.61,610,346.76Zm13.33,4c-2-1.57-3.5-3.56-4.34-3.31-1.48.46-2.54,2.29-3.77,3.54,1.18,1,2.34,2.84,3.57,2.9S621.29,352.26,623.3,350.78Z"/>
      <path class="cls-3" d="M266.84,339.69c3.72,1.59,6.4,2.27,8.54,3.74,7.22,5,14.37,10,21.3,15.39,3,2.34,4.9,1.07,6.8-1.08,4.68-5.3,9.18-10.75,13.93-16,2.37-2.6,2.18-4.66.37-7.59a23.68,23.68,0,0,1-3-8.94c-.52-3.69,1.5-5.15,4.84-3q10,6.44,19.72,13.23c3.52,2.47,2.87,5.07-1.05,5.91a25.31,25.31,0,0,1-10,0c-3.58-.71-5.46-.3-7.05,3.44A145.72,145.72,0,0,1,312,362.55c-2.43,4.05-1.16,5.91,2.49,8.12,7.34,4.43,14.5,9.22,21.51,14.17,5.71,4.05,6.56,8.21,3.32,13.13-3.49,5.31-7.29,5.93-13.74,1.74-6.89-4.47-13.61-9.19-20.34-13.88-3-2.08-5.47-2.6-8.73,0-1.38,1.09-5,.85-6.58-.26s-2.31-4.28-1.82-6.12c1-3.72-.29-5.71-3.15-7.64-7.43-5-15-9.91-21.95-15.57-2.12-1.72-3.8-6.21-3.07-8.64C260.82,344.53,264.42,342.27,266.84,339.69Z"/>
      <path class="cls-3" d="M705.33,362.68a27.28,27.28,0,0,1-27.53,27.09c-14.81-.23-26.1-12-26.29-26.82-.22-17.17,12.78-27.26,26.88-27.25A27,27,0,0,1,705.33,362.68ZM677.73,367c3.62-2.06,7.23-4,10.69-6.18a2.55,2.55,0,0,0,.26-2.47c-.71-.67-2.16-1.33-2.92-1-5.72,2.28-10.94,2.29-15.85-2.05-.64-.56-2.58.35-3.92.58a15.3,15.3,0,0,0,1.82,3.56,28.7,28.7,0,0,0,9.92,7.59Z"/>
      <path class="cls-3" d="M305.68,644.76c0-7.26.17-14.52-.06-21.77-.16-5,1.36-7.31,6.86-7,6.85.42,13.74.05,20.62,0,9.9-.08,17,6.28,17.3,16.17.39,12,.18,24,.49,36,.1,4.14-2,5.62-5.48,5.64-11.83.08-23.67.14-35.49-.28-1.4-.05-3.76-3.06-3.85-4.79-.42-8-.19-16-.19-24.06Zm13.14-4.3-.18-1.9a43,43,0,0,0,6.34-1.17c1.24-.4,2.21-1.62,3.29-2.47-1.06-.89-2-2.35-3.19-2.54-2.61-.41-5.56-.85-7.91,0-2,.72-4.49,3.06-4.75,5a64,64,0,0,0,.08,14.24c.12,1.42,1.9,2.68,2.92,4,.91-1.23,2.55-2.44,2.58-3.69.1-4.72,2.86-6.28,6.7-5.48,1.71.36,3.37,2.66,4.38,4.47,2.67,4.77,7.51,6.62,12,4.2,3.2-1.72,5.19-9.41,3.29-12.67-2.24-3.84-8.73-5.63-11.95-2.39C327.45,645,323.31,641.51,318.82,640.46Z"/>
      <path class="cls-3" d="M343.61,590.54c-5.32-.53-4.4-3.44-2-6.11,4.18-4.55,10.25-6.07,15.24-3.53,10.68,5.44,21.94,7.11,33.54,8,.46,0,.88.53,2.7,1.68-4.69-.5-7.85-1.12-11-1.07-1.9,0-3.79,1.07-5.68,1.66,1.06,1.41,1.87,3.14,3.21,4.17,5.59,4.29,11.38,8.33,17,12.54,6.34,4.72,9,4.15,12.72-2.93a8.87,8.87,0,0,1,2.41-3.47c.25,1,.88,2,.66,2.84s-1.42,1.17-2,1.88c-5.72,6.5-5.54,7.91,1.46,12.77,2.91,2,5.78,4.13,8.67,6.2l1.68-.79q-.69-4.59-1.36-9.18l.91-.39c1.21,2.73,2.76,5.38,3.57,8.23,2.2,7.77,4.15,15.62,6,23.47a5.35,5.35,0,0,1-.57,3.86c-.88,1.28-2.46,2.09-3.74,3.1-.7-1.34-1.74-2.6-2-4-.72-3.28-.21-7.15-1.78-9.85-3.71-6.36-11.52-7.28-17.12-2-3.31,3.15-5.44,2.8-8.71.36-11.59-8.7-23.32-17.21-35.07-25.7-3-2.2-4-4-1.95-8,4.61-8.8-1.18-17.54-11-17-2,.11-4,2.16-5.95,3.32Z"/>
      <path class="cls-3" d="M192.17,453.69c-.57,3.55-.95,6.26-1.48,8.93-.13.69-.75,1.84-1.15,1.84-7.53.1-14.8,5.56-22.49,1.15-.85-.49-2-1.82-1.87-2.43,2.14-7.71-3.4-13.43-5-20.14-.26-1.11-.8-2.15-1.12-3.24-3.36-11.39-.92-19.44,7.45-24.64s22.36-3.66,29.28,3.44c5,5.16,5,11.67,3.94,18.26-.27,1.69-1.35,3.61-.86,5C201.39,448.91,196.36,451.25,192.17,453.69Z"/>
      <path class="cls-3" d="M777.84,453.93c-1.68-1.26-3.77-2.83-5.84-4.41-.59-.46-1.71-1.13-1.62-1.44,2.49-8.87-4.54-18.17,1.68-27.05,4.09-5.85,16.56-10.56,25.27-8.32,9.25,2.37,15.08,9.45,14.45,18.59-.32,4.68-1.86,9.28-3,13.89-1.34,5.66-2.73,11.31-4.26,16.93-.36,1.32-1.27,3.48-2.06,3.54-4.73.37-9.65,4.95-14.27-.31-.42-.48-1.39-.5-2.11-.72-2.45-.75-5.86-.78-7.09-2.44C777.62,460.31,778.17,457,777.84,453.93Z"/>
      <path class="cls-3" d="M605.17,258.74c-4.81,6.93,3.18,6.7,4.74,10.55l4-3.14c.24.7.7,1.39.52,1.64-5.59,7.92-11.28,15.78-16.85,23.72a56.73,56.73,0,0,0-3.24,5.88c-1,1.8-1.89,3.61-3.15,6-2.72-1.55-5-2.73-7.2-4.14q-10-6.51-20-13.17c-5-3.34-4.74-5.72.21-9,1.74-1.16,3.7-3.25,4-5.16,1.46-9.61,8.54-15.88,13.48-23.38.78-1.17,4.41-1.78,5.81-1C593.46,250.87,599.07,254.8,605.17,258.74Z"/>
      <path class="cls-3" d="M623.94,642.18a27.54,27.54,0,0,0,.69,3.77c.6,1.84,1.41,3.6,2.13,5.39,1.74-1,3.69-1.64,5.18-2.89,2.69-2.26,5.09-4.85,8.53-8.19.88,4.86,1.5,8.33,2.13,11.8l1.73,0c.3-2.09.77-4.17.88-6.27.16-3-.32-6.18.24-9.13.36-1.89,2.1-3.52,3.22-5.27,1.06,1.69,2.79,3.27,3.05,5.07.84,5.67.63,5.7,7,5.22,0,9.93.15,19.83-.17,29.71,0,1.27-2.48,3.52-3.82,3.54-14.32.21-28.64.11-43-.06-1.35,0-3.84-1-3.86-1.62-.16-5.81-1.67-12.51.66-17.24,2.85-5.77,9-9.9,13.78-14.74Z"/>
      <path class="cls-3" d="M599.12,430.79c-.08-7.44,4.64-12.7,12.11-14.24a45.11,45.11,0,0,0,11-3.76c5.29-2.66,10.23-1.75,15.3.28,3.4,1.37,6.71,3.13,10.24,4,9.25,2.27,13.95,8.14,12.81,16.65-.93,6.9-8.25,12.72-15.71,12.18A15,15,0,0,1,639,444c-6.17-3.34-12.2-3.36-18.58-.43C609.37,448.63,599.23,442.43,599.12,430.79Zm55.79.74c-2.86-3-6.24-8.43-8-7.94-3.59,1-6.31,5.13-9.3,8.06,0,.05,1.16,1.28,1.7,2,4.37,6,8.84,6.48,13.48.3C653.46,433.11,654.2,432.35,654.91,431.53ZM614.72,434c-2.74-2-4.37-4.15-5.67-4-1.7.25-3.13,2.33-4.67,3.62,1.37,1.31,2.62,3.47,4.14,3.69S611.72,435.71,614.72,434Z"/>
      <path class="cls-3" d="M413.14,265.38c1.45-.43,4.22-1.13,6.9-2.1,4-1.45,5.18-4,3.16-8.06-1.14-2.31-2.28-5.19-1.88-7.55.74-4.44.14-7.78-3.6-10.58-.66-.5-.74-3.09-.11-3.73,1.21-1.21,3.13-1.7,4.75-2.48.37,1.3.77,2.6,1.09,3.91s.09,3.05.84,3.62c5.46,4.09,9,10.71,17.28,11.08,6.79.3,5.34,7.34,7,11.49,1.56,3.89-.95,7.34-4.63,8.67-4.18,1.5-7.58-.13-10.14-4.13-.86-1.33-3.9-2.39-5.48-1.94-7.6,2.16-15,5.08-22.57,7.32-3.95,1.17-6.6,2.51-7.75,7.13-.54,2.22-4.28,4.29-7,5.17-3.6,1.17-5.84-1.31-7.47-4.61a8.69,8.69,0,0,0-4.44-4.08c-3.2-1.1-4.17-3.24-2.77-5.66,5.29-9.16,9.75-19.4,21.84-21.62,2.26-.41,5.56-.51,6.86.78,1.09,1.09.42,4.55-.26,6.7C402.62,261.54,405.22,265.75,413.14,265.38Z"/>
      <path class="cls-3" d="M549.86,266.8c-8,16.08-15.72,31.56-23.42,47.05l1.49,1.57,31.12-6.82c-2.7,6-4.74,10.76-7,15.43-3,6.36-6.38,12.58-9.31,19-1.4,3.05-4.33,6.24-.54,9.81.38.36-.13,2.3-.78,3-2.52,2.72-5.27,5.24-7.93,7.83l-1.73-.51c-.21-4.06-.45-8.11-.59-12.17a1.91,1.91,0,0,1,.85-1.4c9.89-5.35,8-15.94,10.41-24.4,1.2-4.15-3.24-3.11-5.59-2.46-5.69,1.58-11.27,3.56-16.93,5.25-2.11.63-4.32.93-7.87,1.66,2.74-7.53,4.88-13.9,7.37-20.13,4.82-12,9.83-24,14.78-35.95C537.18,266.37,540.37,264.81,549.86,266.8Z"/>
      <path class="cls-3" d="M715.34,556.47c-1.29-2.21-2.22-4.47-3.72-6.26-4.19-5-3.18-9.59,1.93-13.4,4.3-3.21,7.81-7.54,11.47-11.55a4.51,4.51,0,0,0,1-3.72c-1.67-5-1.06-9.49,1.24-14.3,1.72-3.57-1.51-5.85-6.66-4.82-5.58,1.11-9.86-1.4-13.05-5.3-3.4-4.15-3.56-9.05-.71-13.89,3.34-5.67,9.67-8,15.64-5.48,6.47,2.67,9.62,8.72,7.93,15.21-2.16,8.31-1.25,10,6.45,13.34,4.09,1.79,7,4.64,6.38,9.7-.59,4.89-3.5,7.31-8.16,8.15-8.7,1.57-13.66,9.43-11.55,17.61.47,1.83.47,4.77-.63,5.84-6.06,5.86-6.18,11.49-1.11,18.08,1,1.28.31,5.13-1,6.51a7.22,7.22,0,0,1-6.48,1.52c-1.81-.72-3.24-3.47-3.88-5.62-.36-1.23,1.19-3,1.86-4.55C713.25,561.34,714.19,559.14,715.34,556.47Z"/>
      <path class="cls-3" d="M257.64,490.18a12.64,12.64,0,0,1-14.71,12.25c-2.09-.3-5.43,0-6.27,1.27s.32,4.28.7,6.5,1.17,4.37,1.2,6.57c.05,2.68-1.7,6.17-.55,7.9,2.86,4.32,6.38,8.68,10.64,11.5,6.72,4.45,8,8.33,2.75,14.2-4.33,4.85-4.48,8.25-.45,13.5,2.67,3.49,2.7,6.84-.92,9.44s-6.93,1.13-8.59-2.33c-.86-1.78-.37-4.89.66-6.76,3.55-6.4,3.28-9.17-.63-14.94a12.11,12.11,0,0,1-1.45-8.44c1.29-6.14-3.75-15.33-10.09-16.31-5.32-.83-9.22-2.86-9.69-8.64-.44-5.62,2.64-8.66,7.88-10.35,5.52-1.78,6.72-5.22,5-11.17-1.62-5.52-1-10.54,3.8-14.5,3.64-3,7.47-4.52,12.1-2.46C255.26,480.21,257.71,483.81,257.64,490.18Z"/>
      <path class="cls-3" d="M716.17,397.54c-4.17,3.19-8.36,6.36-12.51,9.58-2.26,1.75-4.58,3.45-6.65,5.41-2.6,2.45-2.52,5.06.46,7.21,3.71,2.69,7.31,5.63,11.36,7.69,2.06,1.05,5,.67,7.52.46,2.28-.18,4.51-1,8-1.86l-12.6,21.2c-.9-2.37-2.16-4.17-2.16-6,0-4.74-2.54-7.29-6.43-9.19-3.08-1.5-6-3.27-9.07-4.87-4.57-2.42-6.85-1.36-8,4.14s-1.79,11.3-2.8,16.93c-.39,2.14-1.16,4.21-1.76,6.32l-1.81.17c-.71-2.53-1.78-5-2.08-7.61-1-8.72-1.93-17.45-2.41-26.2-.22-4.15-1.84-6.75-5.37-8.66a47.31,47.31,0,0,1-8.13-5.3c-1.18-1-1.46-3.09-2.15-4.68,1.87-.5,4-1.82,5.57-1.33a30.69,30.69,0,0,1,8,4.41c3.9,2.72,7.69,2.54,11.89.74,8.06-3.44,16.2-6.67,24.37-9.83,1.85-.72,4-.77,5.93-1.13C715.61,396,715.89,396.75,716.17,397.54Z"/>
      <path class="cls-3" d="M264.56,569.5c3.83-4.79,6.73-3.53,10.06.92a183.36,183.36,0,0,0,12.47,14.15,41.12,41.12,0,0,0,4.84,3.9c.33-3.62-.27-7,1.08-9.32a18.74,18.74,0,0,1,7.57-6.78c2.55-1.27,5.91-.93,10.29-1.47.75-4.78,2.06-10.9,2.56-17.1.3-3.67,1.6-4.52,5-4.21s6.95,0,10.43,0c-2-3.26-3.72-6.73-6.09-9.69-1.33-1.67-3.93-2.27-5.56-3.78a4.87,4.87,0,0,1-1.29-3.86,3.78,3.78,0,0,1,2.81-2.24,4.54,4.54,0,0,1,3.16,1.78c6.51,8.35,13,16.73,19.27,25.26,1.15,1.56,1.3,3.85,1.91,5.8a39.32,39.32,0,0,1-6-2.15c-2.81-1.53-6.74-5.54-7.87-4.82A49.93,49.93,0,0,0,317.31,567c-.58.72,2.22,4.87,4.15,6.71,3.62,3.46,3.21,5.93-.72,8.59-3.29,2.23-5.92,7.73-10.38,1.38a50.2,50.2,0,0,0-4.6-5.09c-2.14-2.29-4.24-3.8-7.19-.84-2.74,2.74-2.73,4.94-.06,7.78,9.62,10.19,8.91,8.63-1.09,17a74.52,74.52,0,0,0-6.79,6.13c-3.62,3.87-6.57,3.41-9.84-.55-6.78-8.2-13.77-16.25-20.74-24.29-5.31-6.13-5.36-6.09,1.2-11.11-2.67,2.5-4.83,5.24-1.21,8.44,2.93,2.6,5.46,1.38,7.37-1.63-.69,2.38-2.72,5.6-1.84,7,2.6,4.1,7.09,7,9.48,11.23,4.76,8.31,9,6.09,14.5.91,3.06-2.9,3.38-4.71.42-7.78-3.64-3.77-6.65-8.15-10.13-12.1a84,84,0,0,0-9.63-9.78C269.16,568.13,266.49,569.27,264.56,569.5Z"/>
      <path class="cls-3" d="M198.54,657.91c23.44-3.22,44.19-11.66,63.52-24.62,2.36,14.72-6.69,29.68-20.72,35.86C225.85,676,209.26,671.93,198.54,657.91Z"/>
      <path class="cls-3" d="M426,714.45l4.65-6.46,1.54.54c-1.75,4.68-3.14,9.56-5.49,13.92-.55,1-4.61.93-6.65.21-12.77-4.49-25.43-9.29-38.11-14-7.85-2.92-15.67-5.91-23.51-8.87-4.23-1.6-5.54-4.24-3.31-8.48,1.9-3.59,3.5-7.34,6.42-10.56l-1.12,9.46c8.2-8.84,14.48-1.69,20.7.31,13.2,4.25,25.79,10.43,39.05,14.4C425.76,706.58,423.81,710.58,426,714.45Zm-1.74-2.67c-3.19-2.55-5-5.14-6.57-5-2.08.23-3.94,2.57-5.89,4,1.47,1.92,2.8,5.25,4.43,5.4C418.24,716.4,420.52,714,424.22,711.78ZM369,700.7c2.39-3.34,4.8-5.26,4.81-7.2,0-1.5-3.18-4.4-4.58-4.19-1.87.28-4.35,2.76-4.73,4.67C364.22,695.45,366.74,697.49,369,700.7Z"/>
      <path class="cls-3" d="M340.17,365.62c2.49-6,44.86-36.59,50.17-36-7.53,6.19-1.68,8.78,2.55,12.12,4.94,3.89,9.44,8.35,14.47,12.1,2.95,2.21,6.69,3.32,9.81,5.33,1.7,1.09,3.56,2.86,4,4.64.24,1-2.44,3.83-3.63,3.73-1.74-.15-3.61-1.93-4.91-3.46-2.15-2.51-3.47-5.86-5.89-8-6.55-5.81-13.34-11.39-20.41-16.55-1.54-1.12-5.05-.85-7,.12-3.23,1.65-1.24,4.14.23,6.19,4.91,6.82,9.69,13.73,14.8,20.38,1.54,2,4.12,3.17,6,5,1.51,1.43,3.72,3.23,3.71,4.85s-2.35,3.23-3.88,4.62a61.42,61.42,0,0,1-5.14,3.9c-1.33,1-2.69,1.9-4,2.91-1.9,1.46-3.79,3-5.65,4.49-.72.59-1.24,1.75-2,1.89-3.66.66-6.38,1.75-8.09,5.81-1.28,3-7.53,1.6-7.42-1.75.22-7-5-10.84-8-15.88-1.79-2.92-3.93-5.63-6-8.38C350.48,369.07,348.15,362.86,340.17,365.62Zm46.18,15.46c-.41-1.69-.39-3-1-3.86-5.9-8.2-11.74-16.46-18.05-24.34-.91-1.13-4.84-1.23-6.18-.21s-2,4.59-1.14,6a156.91,156.91,0,0,0,10.2,14.49,72,72,0,0,0,8,9.69c1.37,1.29,4.1,1.5,6.18,1.43C385.11,384.25,385.8,382,386.35,381.08Zm9.64-7.53a43.64,43.64,0,0,0-2.9-5.77c-2.85-4-5.91-7.94-8.87-11.9-2.51-3.35-4.72-7-7.68-9.91-1.12-1.1-4.34-1.13-5.94-.33-1.22.62-2.47,4.07-1.85,5,5.93,8.62,12.1,17.09,18.62,25.27,1,1.31,4.12,1.4,6.22,1.29C394.41,377.13,395.11,375,396,373.55Zm-18.88,13.91a11.84,11.84,0,0,0-.86-2.86c-6.17-8.41-12.27-16.89-18.77-25-.82-1-4.49-1-5.75-.07s-2,4.28-1.19,5.57c2.87,4.89,6.41,9.38,9.73,14,2.42,3.39,4.56,7.07,7.46,10,1.48,1.49,4.36,2.16,6.59,2.13C375.34,391.2,376.32,388.58,377.11,387.46Z"/>
      <path class="cls-3" d="M539.5,670.2c6.12,14.83,11.71,28.74,17.62,42.51,2,4.62,1.26,7.19-3.86,8.33s-10,2.51-14.92,3.9c-4.61,1.28-7-.49-7.36-5.14-.31-4.18-.58-8.38-.66-12.58,0-1.21.43-3.3,1.12-3.5,5-1.52,4.39-5.25,3.26-8.62-1-3-3-5.56-4.58-8.31a22.14,22.14,0,0,1-2-3.2c-1-2.81-1.79-5.7-3-9.56Z"/>
      <path class="cls-3" d="M407.5,542.86l-9.73,5.08c1.61,6.07,3.22,12.2,5,18.75a26.36,26.36,0,0,1-37.5-2.6c-2.76-3.26-2.55-5.83.31-8.94,3.32-3.61,5.63-8.29,9.34-11.33,3.35-2.73,8-4,12.09-5.66a2.68,2.68,0,0,1,2.38,1.06c1.62,6.07,5.62,3.31,9.1,2.61,2.76-.55,5.54-1,8.31-1.5Z"/>
      <path class="cls-3" d="M585.39,622.74c9.48.33,19.42,11.38,18.87,21-.53,9.18-11.52,18.94-20.86,18.54-9.55-.41-19.37-11.38-18.75-20.92C565.28,631.59,575.54,622.4,585.39,622.74Zm-8.17,19.19c-.12,4.21,3.42,8.32,6.94,7.93,4.15-.46,7.13-2.88,7.73-7.14.51-3.59-3.69-7.36-7.87-7.37C579.44,635.33,578,638.57,577.22,641.93Z"/>
      <path class="cls-3" d="M552,632c-2.54-14.21,7.1-25.21,11.9-37.75,2.35-6.12,4.27-12.42,6.89-18.41.49-1.12,3.41-1.64,5.2-1.62,2.21,0,4.41.9,6.62,1.42V568.5c4.57-1.6,8.81.52,11.62,6.61-.64.29-1.26.62-1.91.85-1.8.62-3.62,1.21-5.43,1.81,1,1.59,1.69,3.66,3.11,4.68,3.55,2.52,3.54,3.79.33,7.28-6.28,6.83-11.6,14.57-16.94,22.19C567.5,620.28,562.33,629.21,552,632Zm31.77-38.31c-2.33-3.39-3.56-7.16-5.75-7.83s-5.27,1.81-8,2.91c1.58,2.8,2.54,6.67,4.93,8C576.58,597.74,580.2,595.1,583.74,593.73Z"/>
      <path class="cls-3" d="M429.69,329.35c0-5.32-.08-10.65,0-16,.08-4.58,2.27-7.58,7-8.19a39.89,39.89,0,0,1,6.81-.44c8.92.44,11,2.51,11.17,11.39.14,8.55.08,17.12,0,25.67-.15,11.92-2.33,13.93-14.17,13.44-7.59-.32-10.48-3.33-10.58-11,0-2.48,0-4.95-.05-7.43s0-4.94,0-7.42Zm12.3-4.29c4.21-.2,9.12,1.12,10.13-5.36,1.2-7.73-1-10.29-9.08-10.35-9.3-.06-10.68,1.07-10.32,8.44C433,324.23,434,325,442,325.06Z"/>
      <path class="cls-3" d="M510.39,722.12c-1.59-9,.94-18.71-2.58-27.48h-2.18q-1,13.49-2,27l-1.84.12c-.36-2-1.08-4-1-6.05.77-27.07,1.54-54.15,2.6-81.21.16-4.3,1.68-8.55,2.57-12.83h2.56c.84,3.48,2.31,6.94,2.42,10.44.62,19.44.87,38.9,1.34,58.35.19,7.62.78,15.24.87,22.86,0,3-.81,6-1.25,9Z"/>
      <path class="cls-3" d="M694.15,545.7c-1,1.62-1.93,3.06-2.84,4.5l5.36,2.73-6.53,2.32c1.69,1.48,2.71,3.14,3.87,3.25,4.41.4,5.21,3.07,5.07,6.73-.12,3.24.09,6.51-.22,9.74-.49,5.27-3.88,8.59-8.29,8.54s-7.55-3.42-7.72-9c-.38-12.79-.44-25.59-.78-38.38-.09-3.53-.71-7-1.15-11.25H699.5c-.21,4-.13,7.79-.76,11.48a5.76,5.76,0,0,1-3.24,3.77C690.9,541.74,692.1,543.77,694.15,545.7Z"/>
      <path class="cls-3" d="M344.47,471.41c7.53,5.61,7.76,5.59,16.42-1.73,1.55-1.31,2.88-2.92,4.54-4.06a43.5,43.5,0,0,1,5.4-2.75c6.66,6.72,6.66,8.89-.85,14.22q-22.1,15.69-44.47,31c-7.22,4.94-8.72,4.37-13.32-3.8,2.37-2.88,6.76-5.66,2.39-10.23,5.45,4.43,6.79,4.12,14.18-1.7,4.49-3.54,2.47-6.91.45-10.49,5.64,6,5.52,5.83,15-.33C349.74,478,345.68,474.8,344.47,471.41Z"/>
      <path class="cls-3" d="M665.37,463.33c3.82,2.32,7.1,1.43,10.44-1.29,2.17-1.78,4.78-4,7.32-4.14,3.79-.25,8.44.07,11.3,2.13,2.27,1.63,2.4,6.23,3.49,9.51l-1.92-.41c-.94.94-2.64,1.84-2.69,2.82-.29,6.66-.45,13.34-.13,20,.07,1.47,2.24,2.84,3.66,4.51,0-.19,0,.47-.13.48-9.52.78-19,1.79-28.56,2.14-4.87.18-9.77-.93-14.68-1.26-3.94-.26-5.8-1.91-5.72-6.08.14-7.24.07-14.5-.21-21.73-.18-4.65.25-10,4.67-11.21,3.47-.92,8,1.94,12,3.23.66.22,1.15,1,1.72,1.48-2.64-1.07-5.22-2.31-7.93-3.16-3.43-1.07-6.23-.49-6.2,4,0,6.08,0,12.18.52,18.23a8.49,8.49,0,0,0,3.18,5.52c3.07,2.16,6.69,3.54,10.09,5.24,2.9,1.46,4.46.42,4.43-2.69-.07-5.87.1-11.8-.69-17.6C668.86,469.65,666.74,466.54,665.37,463.33Zm22,6.13h-.71c0-2.09.38-4.28-.14-6.22-.33-1.23-1.93-2.89-3.08-3-4-.35-10.86,5.84-11,9.93-.27,6.64-.21,13.3,0,19.94,0,1.25,1,3.12,2,3.56,2.52,1.07,12.84-6.52,12.94-9.44C687.46,479.32,687.34,474.39,687.34,469.46Z"/>
      <path class="cls-3" d="M616.28,456.5c4.44-.22,8-.67,11.54-.42,1.09.08,2.73,2,2.93,3.23,1.76,11.29,3.29,22.62,4.82,33.94,1.27,9.4.53,10.22-8.92,10.31h-.58c-17.33.14-15.19.9-12.71-16.46.17-1.19,1-3,1.9-3.27,7.86-2.09,5.8-9.34,4-12.38C616.41,466.67,618,462.1,616.28,456.5Z"/>
      <path class="cls-3" d="M539.22,255.67c-5,0-9.9,0-14.86,0-5.7,0-7.73-2.15-7.81-8.09-.08-6.78,2-9.66,7.58-9.74q15.42-.2,30.86,0c5.57,0,8.3,3.37,8.15,9.4-.14,5.7-2.78,8.36-8.49,8.43-5.14.06-10.29,0-15.43,0Z"/>
      <path class="cls-3" d="M401.17,399c12.17,3.65,15.65,9.17,13.69,20.41-.38,2.23-.2,4.57-.69,6.77-.26,1.18-1.39,2.17-2.13,3.24-1.11-1.05-3-2-3.21-3.18-1.7-9.47-1.61-9.77-11.1-9.55-20.94.5-41.87,1.4-62.82,1.85-2.06,0-5.34-1.47-6-3.09-1.69-4.11.79-6,6.11-5.75,17.9.71,35.81,1.36,53.71,1.84a75.61,75.61,0,0,0,12.56-.91c1.89-.27,5-1.37,5.15-2.41.25-1.86-1.2-4.05-2.22-5.95C403.65,401.16,402.54,400.39,401.17,399Z"/>
      <path class="cls-3" d="M496.93,320.7,492.67,324c-.84-1.56-1.6-3.15-2.52-4.66-1.07-1.76-1.93-3.91-3.49-5.06-5-3.69-5.13-8.91-5.05-14.22a6.61,6.61,0,0,1,1.47-3.62c2.52-3.3,12.21-6.45,15.45-5.19,8.23,3.21,12.53,8.48,11.78,15.55-.27,2.62-2,5.15-3.37,7.59-1,1.8-2.44,3.33-3.53,5.07-.93,1.5-1.65,3.12-2.46,4.69Z"/>
      <path class="cls-3" d="M463.33,574.11q6.12,6.55,12.23,13.13c.37.4.65.87,1.4,1.9-8.18,9.92-16.07,20.19-24.78,29.72-3.95,4.33-6.22-1.51-9.06-3.92l4.37.25c-1.7-1.91-3-3.38-5.26-5.91,3.78-.39,6.87-1.28,9.8-.91,6.75.86,8.33.14,11.94-8.55-2.37,1.52-4,2-4.66,3.08-2.78,4.35-7.05,4.07-11.24,3.85-1,0-1.94-1.33-2.91-2,.94-.63,1.81-1.6,2.84-1.81a37.37,37.37,0,0,1,5.52-.35l.18-1.58L443,599.61l.14.15,20.25-25.54Z"/>
      <path class="cls-3" d="M474,135.76c2.22-.8,4.68-1.24,6.62-2.49,5.39-3.47,14.25-.33,15.73,5.81,1.27,5.21-1.94,9.86-8.59,11-6.17,1.09-12.17,3.45-18.92.66-4.23-1.74-10-2.33-12.25,4.52-.27.85-3.47,1.74-4.29,1.16a5.77,5.77,0,0,1-2-4.59c.69-5.77,4.75-9.53,9.37-12.14,4.27-2.42,9.17-3.72,13.8-5.5Z"/>
      <path class="cls-3" d="M364.33,431.58c-7.25,0-14.5-.11-21.75,0-6.69.13-7.58,1.69-5.54,8,.63,2,1.25,5.57.49,6a17.72,17.72,0,0,1-8.1,1.94c-.86,0-2.48-2.24-2.59-3.55-.44-5.31-.43-10.66-.59-16-.1-3.35,1.35-4.86,4.84-4.64,12.67.8,25.34,1.63,38,2.12,8.58.34,17.18,0,25.76.27,1.59.05,3.82,1,4.5,2.28s0,3.81-1.05,4.62-3.25.35-4.93.23c-9.67-.7-19.34-1.46-29-2.2Z"/>
      <path class="cls-1" d="M366.39,503.4c10.23,0,12.62,3.65,8.81,13.33-4.6,11.69-17.45,21-29,20.89-8.65-.06-11.33-3.56-9.15-11.93C340.39,513.07,353.15,503.36,366.39,503.4ZM357.83,531c-7.82-2.4-11-7.56-11.23-14.8-5.77,3.63-9.76,12.62-7.85,16.05C341.14,536.55,349.36,536.46,357.83,531Zm12.8-8.93c1.25-4.3,2.8-8.51,3.47-12.86.15-1-2.71-3.32-4.32-3.45-4.58-.37-9.75-1.7-12.34,2.2Z"/>
      <path class="cls-3" d="M238.23,431.53C237.56,456.42,232,477.4,216.7,495c-.5.58-.91,1.37-1.54,1.67a41.69,41.69,0,0,1-4.27,1.54c.09-1.63-.35-3.56.36-4.85,5.46-10,12.38-19.36,16.48-29.85,7.5-19.18,6.17-38.89-.53-58.25-.25-.72-.84-1.45-.78-2.13a37.88,37.88,0,0,1,.92-4.53c1.3.78,3.32,1.26,3.77,2.37a95.36,95.36,0,0,1,5.1,15.12C237.46,421.83,237.77,427.77,238.23,431.53Z"/>
      <path class="cls-3" d="M730.56,434c2.22-10.17,4.24-20.4,6.83-30.48.5-1.95,3.22-3.33,4.92-5,.16,2.26,1.05,4.78.37,6.75a90.47,90.47,0,0,0-4.47,43.35c2.38,16.38,9.34,30.47,19.45,43.29,1.18,1.49,1.31,3.81,1.92,5.74-2-.73-4.7-.88-5.91-2.3-14.92-17.58-22.2-37.95-21.69-61.05Z"/>
      <path class="cls-3" d="M563.61,693.74c-1-.6-4.09-1.53-5.44-3.6a114.12,114.12,0,0,1-10-18.33c-1.69-4.12,1.45-6.74,5.32-8.68,3.65-1.83,7.08-1.85,9.23,1.19a115.15,115.15,0,0,1,9.93,17C575.69,687.66,571.69,694,563.61,693.74Z"/>
      <path class="cls-3" d="M497,271.78c-.87,1.88-1.67,3.59-2.4,5.15l-8.48-6.55c3.09-7.52,6.39-15.53,9.53-23.14-2.8.48-5.77,1.94-7.77,1.09-2.89-1.23-2.7-9.74.21-14.9.34,2.39.56,4,.79,5.54s.44,2.89.67,4.37c8.38-2.11,8.34-2.09,10.73,5.85.36,1.21,1.41,2.2,2,3.36,1.62,3.27,3.37,6.49,4.67,9.89a74.32,74.32,0,0,1,2.19,8.71c-1.76,1.37-4.07,3.15-6.72,5.18Z"/>
      <path class="cls-3" d="M362.75,280l-7.06-6.44c3.15-3.81,6.23-5,10.07-1.37,5.7,5.33,6.07,7.92,2.06,12.13-3.38,3.56-6.33,7.54-9.75,11.05-4.54,4.66-11.48,5.36-14.78,1.81-3.45-3.71-2.74-9.52,1.77-14.36a39.41,39.41,0,0,0,2.78-2.86c3.45-4.56,6.9-5.61,10.8-.43.65.86,2.07,1.15,3.13,1.71Z"/>
      <path class="cls-1" d="M665.37,463.33c1.37,3.21,3.49,6.32,3.94,9.66.79,5.8.62,11.73.69,17.6,0,3.11-1.53,4.15-4.43,2.69-3.4-1.7-7-3.08-10.09-5.24a8.49,8.49,0,0,1-3.18-5.52c-.53-6-.48-12.15-.52-18.23,0-4.44,2.77-5,6.2-4,2.71.85,5.29,2.09,7.93,3.16Z"/>
      <path class="cls-3" d="M482.6,646.22v68.14l2.25.19c.53-4.15,1.47-8.3,1.53-12.45.32-23.1.42-46.21.62-69.31a7.42,7.42,0,0,1,1.44-4.62,39,39,0,0,1,.48,4.42c.12,25,.28,50,.2,75a68.24,68.24,0,0,1-1.7,14.15c-.4,1.82-2.5,3.27-3.82,4.9-1.1-1.63-3-3.2-3.16-4.89-.77-10.82-1.66-21.67-1.52-32.49.17-12.58,1.29-25.16,2.14-37.72.12-1.78,1.06-3.51,1.62-5.26Z"/>
      <path class="cls-1" d="M264.56,569.5c1.93-.23,4.6-1.37,5.65-.52a84,84,0,0,1,9.63,9.78c3.48,4,6.49,8.33,10.13,12.1,3,3.07,2.64,4.88-.42,7.78-5.46,5.18-9.74,7.4-14.5-.91-2.39-4.18-6.88-7.13-9.48-11.23-.88-1.39,1.15-4.61,1.84-7q-2.7-3.63-5.41-7.27Z"/>
      <path class="cls-3" d="M651.83,621.07l-3.23,3.46c-1.11-1.82-2.9-3.53-3.2-5.47-.8-5.32-2.72-6.51-7.64-4-11.42,5.93-13.67,5.56-22.13-3.59-3.87-4.19-7.56-4.32-12.59-.92-1.44,1-3.53,1-5.33,1.43.45-2,.29-4.52,1.46-5.92,5.22-6.27,15-6.05,20.64.14,6.44,7.09,7.79,7.32,15.93,2.77C644.78,603.94,652,608.47,651.83,621.07Z"/>
      <path class="cls-3" d="M221.66,436.53a85,85,0,0,1-17.59,46.23c-.58.76-1.15,1.74-1.95,2.05a23.71,23.71,0,0,1-4.34.91c.08-1.5-.36-3.33.33-4.45,3.26-5.33,7.45-10.17,10.19-15.73,8.77-17.85,9-36.26,2.53-54.94-.48-1.4.27-3.22.45-4.85,1.39,1,3.69,1.85,4,3.16C217.65,418.05,219.59,427.31,221.66,436.53Z"/>
      <path class="cls-3" d="M748.44,435.36c1.81-8.51,3.43-17.06,5.58-25.48.42-1.63,2.88-2.74,4.41-4.08.15,1.87.9,3.94.36,5.59-8.22,24.86-4.62,47.62,11.49,68.39,1.13,1.45,1.07,3.81,1.57,5.75-1.88-.82-4.36-1.14-5.53-2.55C755,469.27,749.48,453.37,748.44,435.36Z"/>
      <path class="cls-3" d="M409.25,576.35c3.21-6.89,4.14-14.1,11.51-17.56,4.17-1.95,7.92-2.29,11.93-.11a38.19,38.19,0,0,0,3.55,1.81c6.7,2.78,7.11,4.62,1.17,8.82C429.2,575.12,420.18,578.3,409.25,576.35Z"/>
      <path class="cls-3" d="M366.69,664.7c1.7-3.73,2.89-7.84,5.32-11,1.08-1.41,5-1.8,7.06-1.09,11.38,3.83,22.61,8.12,33.86,12.31,7.33,2.73,14.61,5.58,21.91,8.35,7,2.67,7.76,4.06,5.39,11.06-.77,2.28-1.79,4.47-2.91,7.22-.46-1-.91-1.48-.84-1.88,1.67-9.49-2.82-13.84-11.69-16.56-13.29-4.09-26.19-9.44-39.18-14.44-10.21-3.93-8.69-2.64-16,5-.5.52-1,1.07-1.45,1.61Z"/>
      <path class="cls-3" d="M535.26,637.06l-9.87-3.79c1.09-4.51,2.1-9.28,3.43-14s3-9.38,4.61-14.39l9.06.62C539.87,616.08,535.4,626.27,535.26,637.06Z"/>
      <path class="cls-1" d="M516.7,574.2a11.5,11.5,0,0,1-11.81,11.48c-6,0-11.26-5.63-11.24-12.11s4.87-11.23,11.78-11.34C511.64,562.12,516.71,567.5,516.7,574.2Zm-2.67-1c-3.46-2.92-6.43-7.26-8.8-7-2.8.37-7,4.66-7.06,7.39-.09,2.49,4.68,7.43,6.87,7.19C508,580.53,510.63,576.34,514,573.23Z"/>
      <path class="cls-3" d="M465.18,329.81c-3.33-4.83-3.4-10.63-3.48-16.34-.09-6.4.11-12.81.19-19.22,0-.95-.35-2.2.11-2.8a27,27,0,0,1,3.67-3.39c1,1.13,2.8,2.21,2.86,3.39.49,9,.82,18.08.79,27.13,0,3.66-1.07,7.32-1.65,11Z"/>
      <path class="cls-3" d="M580,752.11c2.28,8.14,7.72,7.13,12.56,7.56-.24,1.71.1,4.39-.82,4.93-3.08,1.81-4.84,3.45-2.93,7.25.39.78-.67,3.2-1.48,3.44-1.24.38-3.61,0-4.17-.91-1.91-3.06-3.56-5.44-7.66-3.15-.66.37-2.91-.56-3.11-1.26-.34-1.19,0-3.6.68-3.9,3.88-1.62,4.11-4.27,3.52-7.89C576.42,756.91,578.15,755.33,580,752.11Z"/>
      <path class="cls-1" d="M295.52,316.08c6.43.13,11.25,5.1,11,11.28-.27,5.67-5.77,10.47-11.72,10.24-6.18-.25-10.09-4.87-9.86-11.65C285.11,319.56,289,316,295.52,316.08Zm8.47,10.5c-3.11-2.61-5.62-6.34-8-6.25s-6.67,3.7-6.81,6,3.78,6.95,5.79,6.88C297.71,333.11,300.32,329.49,304,326.58Z"/>
      <path class="cls-3" d="M409.69,296.56c1.3,2.4,2.28,4.22,3.71,6.88l-23.93,12c-1.34-2.46-2.67-4.88-4-7.31Z"/>
      <path class="cls-3" d="M626.24,290.33l-2.92,5.44c-5.26-3.14-3-8.1-3.15-12.22,0-1.32,1.37-3.77,2.26-3.84,4.87-.36,10.16-1.93,14.43,2.61-6.29,3.69-6.19,3.6-1.72,8.77,1,1.14,1,3.12,1.44,4.72-1.61-.41-3.38-.53-4.79-1.31A49,49,0,0,1,626.24,290.33Z"/>
      <path class="cls-1" d="M329.21,481.86c2,3.58,4,6.95-.45,10.49-7.39,5.82-8.73,6.13-14.18,1.7-1.15-1.84-4.38-3.31-1-5.91a57.71,57.71,0,0,1,7-4.44c2.52-1.16,5.34-1.65,8-2.44Z"/>
      <path class="cls-3" d="M455,720.5V646.27c4.35,11.67-2.16,24.85,6,37.55.58-.17-.38,0-1.28.43a24.28,24.28,0,0,0-2.87,1.89L463,689.2l-6.68,4.5,5.62,2.41C452.41,703.39,458.83,712.91,455,720.5Z"/>
      <path class="cls-1" d="M329.21,481.86l-.62-.6,1.76-5.3,9.57-6.18,4.73,1.76-.18-.13c1.21,3.39,5.27,6.54-.25,10.12C334.73,487.69,334.85,487.88,329.21,481.86Z"/>
      <path class="cls-3" d="M477.36,553.66c-5.87-3.15-6.5-.21-6.68,4-.07,1.63-1.61,3.19-2.48,4.78a20.33,20.33,0,0,1-2.7-10l-5.62.79c-1.95-6,3.58-7.71,6.19-10.89.69-.85,3.34-1.39,3.83-.87C472.94,544.73,478.12,546.69,477.36,553.66Z"/>
      <path class="cls-3" d="M268.08,532.84l-9.21-12.23c5.86.79,30.55,25.75,33.58,35.54Z"/>
      <path class="cls-3" d="M343.44,590.71c1.47-.34,3-.61,4.41-1,4.48-1.35,7.8.38,10.19,4,2.66,4,3,8.23-.75,11.82-3.15,3-6.94,4-11,1.79-4.37-2.36-6.16-6.11-5-11a41.14,41.14,0,0,1,2.32-5.81Zm7,16.39c2.57-3.87,5.3-6.17,5.16-8.28s-3.29-3.79-5.11-5.67c-2,2.1-5,3.92-5.72,6.41C344.38,600.94,347.59,603.43,350.48,607.1Z"/>
      <path class="cls-3" d="M423,646c-.15,5.91-3.89,9.67-9.46,9.53a9.58,9.58,0,0,1-9.18-9.68,9.94,9.94,0,0,1,9.64-9.35C419.44,636.49,423.17,640.44,423,646Zm-2.56,1c-.06-.78-.11-1.55-.16-2.32-2.41-1.31-4.93-3.78-7.18-3.56-1.86.18-5.05,4-4.69,5.43.52,2.22,3.6,5.24,5.65,5.28S418.35,648.78,420.48,647Z"/>
      <path class="cls-3" d="M417.12,581.06l23.31-8.65c.2,6.61-3.29,10.22-8.24,12.64S421.39,586,417.12,581.06Z"/>
      <path class="cls-3" d="M717.82,235.63c4.42-.5,8.85-1.37,13.28-1.35,2.59,0,5.18,1.44,7.78,2.23-.13.58-.25,1.16-.38,1.75l-6.41,3,7.09,5.75c-3.12.87-5.62,2.41-7.6,1.91-2.2-.55-5.34-2.76-5.6-4.6-.72-5.13-4.21-6.88-8-8.73Z"/>
      <path class="cls-3" d="M462,655.16c0-2.15.41-4.39-.09-6.42-.81-3.3-2.55-6.39-3.23-9.71-.5-2.43-.9-6.14.42-7.34,1.48-1.34,5.92-1.56,7.28-.32s2,6.46,1,7.31c-5,3.93-3.93,9-4,14a19.79,19.79,0,0,1-.34,2.52Z"/>
      <path class="cls-1" d="M411.51,336.27c-4,.05-8-3.7-7.88-7.44.1-4.35,4.45-9.17,8.51-7.9a12.42,12.42,0,0,1,7.09,7.43C420.36,332.53,416,336.21,411.51,336.27Zm-.05-13.52c-2,2.6-4.32,4.34-4,5.42a6.72,6.72,0,0,0,4.1,4.16c1,.27,3.88-2.22,3.86-3.43C415.34,327.21,413.38,325.56,411.46,322.75Z"/>
      <path class="cls-3" d="M565.56,747.33c-1.42-1-3.19-1.66-3.48-2.71a4,4,0,0,1,1.64-3.54c5-2.36,10.1-4.47,15.29-6.33,1-.34,2.88.54,3.58,1.46.47.6-.07,3-.78,3.34C576.61,742.26,571.25,744.65,565.56,747.33Z"/>
      <path class="cls-3" d="M489.06,598.2c0,7.1.13,13.46-.15,19.82,0,.93-1.9,2.22-3.12,2.51a3.61,3.61,0,0,1-3.08-1.52C480.37,614.48,483.84,602.44,489.06,598.2Z"/>
      <path class="cls-3" d="M344.65,471.54l-4.73-1.76c.44-3.12.88-6.25,1.43-10.09-.06,0,1.71-.52,1.87-.22,2.78,5.46,5.92,2,8.88.41,2.17-1.14,4.19-2.56,6.28-3.86l.87,1.51c-3.31,1.9-6.64,3.78-9.94,5.7S343.86,467.46,344.65,471.54Z"/>
      <path class="cls-1" d="M467.79,685.12v35.36h-.69V685Z"/>
      <path class="cls-1" d="M262,572.25q2.72,3.63,5.41,7.27c-1.91,3-4.44,4.22-7.37,1.62-3.62-3.2-1.46-5.94,1.21-8.44A5.51,5.51,0,0,1,262,572.25Z"/>
      <path class="cls-1" d="M471.9,235.8l-11.75-1c-.1-.83-.19-1.67-.29-2.51,2.79-.47,5.62-1.45,8.36-1.22,1.68.13,3.2,2.11,4.8,3.27Z"/>
      <path class="cls-1" d="M339.24,574.49l-20.45,17.73-1-1.14,20.49-17.9Z"/>
      <path class="cls-3" d="M470.46,645.53c-.33,4.65-.78,9.29-.94,13.94s0,9.44-1.07,14.15v-28Z"/>
      <path class="cls-1" d="M268.41,541.4a54.32,54.32,0,0,1,5.62,3.68,25.73,25.73,0,0,1-2.09,3.44l-5.29-4.6Z"/>
      <path class="cls-3" d="M330.35,476l-1.76,5.3c-2.69.79-5.51,1.28-8,2.44a57.71,57.71,0,0,0-7,4.44Z"/>
      <path class="cls-3" d="M272.52,524.78a32.11,32.11,0,0,1-3.07-5c-.13-.32,2.14-2.09,2.34-2a13.72,13.72,0,0,1,3.44,3.77C275.42,521.9,273.84,523.25,272.52,524.78Z"/>
      <path class="cls-1" d="M482.68,646.33V628.51l1.6.07c-.57,5.87-1.14,11.73-1.7,17.62Z"/>
      <path class="cls-1" d="M443,599.61c-.77,1.89-1.61,3.75-2.28,5.67-.8,2.27-1.45,4.59-2.11,6.73-4.32-2.87-3.42-5.93,4.54-12.25Z"/>
      <path class="cls-1" d="M287.88,532.74c-1.73,1.25-3.21,2.73-3.57,2.5a13.66,13.66,0,0,1-3.51-3.71c-.13-.19,1.54-2.16,1.82-2A44.79,44.79,0,0,1,287.88,532.74Z"/>
      <path class="cls-3" d="M257.87,529.51l4.67,4.17a28,28,0,0,1-2.05,2.24c-1.66-1.23-3.18-2.64-4.73-4Z"/>
      <path class="cls-1" d="M463.43,574.22,475,571.88l.17,1.46c-3.76,1.76-7.44,4.25-11.81.79Z"/>
      <path class="cls-1" d="M523.11,504.78A20.77,20.77,0,0,1,544.39,484c12.1.29,21,9.26,21,21.18A21.1,21.1,0,0,1,544,526.64C532.15,526.56,523,517,523.11,504.78Z"/>
      <path class="cls-1" d="M452.54,487.31a18.21,18.21,0,0,1-18.13,18.3c-9.15,0-18.16-8.87-18.31-18-.16-9.71,8.93-18.7,18.78-18.57C444.37,469.21,452.59,477.69,452.54,487.31Z"/>
      <path class="cls-1" d="M478.64,414.32a17.43,17.43,0,0,1-17.29-17.49c.15-10.92,7.74-18.53,18.29-18.33,9.55.19,17.61,8.31,17.4,17.53C496.8,406.87,489.2,414.42,478.64,414.32Z"/>
      <path class="cls-1" d="M308.09,265.23c.08,8-7.06,15.18-15.39,15.4-8.12.22-15.25-6.82-15.42-15.21s6.83-15.7,14.91-15.62A15.78,15.78,0,0,1,308.09,265.23Z"/>
      <path class="cls-1" d="M686.88,241.19c0,5.26-3.39,8.6-8.61,8.5a9.46,9.46,0,0,1-9.31-8.95,8.3,8.3,0,0,1,8.12-8.52C682.54,232.12,686.89,236.1,686.88,241.19Z"/>
      <path class="cls-1" d="M708.06,262.47c-.23,4.29-3,6.57-7.24,6.93-3.55.29-7.48-4-7.57-7.88a7.23,7.23,0,0,1,7.37-7.09A7.63,7.63,0,0,1,708.06,262.47Z"/>
      <path class="cls-1" d="M652.47,255.1c-1.48-2-2.87-3.42-2.68-3.68,1.94-2.62,4.14-5,6.27-7.54.84.77,2.51,2,2.39,2.22C656.81,248.88,654.92,251.52,652.47,255.1Z"/>
      <path class="cls-1" d="M701.13,279.26l-7.65,6.92a23.12,23.12,0,0,1-2.18-2.54,93.4,93.4,0,0,1,6.94-7C698.31,276.59,699.63,277.9,701.13,279.26Z"/>
      <path class="cls-1" d="M667,251.6c-2.91,2.71-5.08,4.9-7.49,6.79-.29.23-1.85-1.16-2.82-1.8,2.11-2.46,4.17-5,6.46-7.28C663.34,249.12,665,250.41,667,251.6Z"/>
      <path class="cls-1" d="M670,253.87c1.23,1.52,2.5,2.8,2.38,3-1.88,2.34-3.95,4.54-6,6.77-.76-.86-2.31-2.26-2.15-2.48C665.89,258.76,667.78,256.58,670,253.87Z"/>
      <path class="cls-1" d="M681.08,275a25.24,25.24,0,0,1-2.57-3c1.83-2.22,3.82-4.3,5.78-6.42.68.77,2.08,2,1.93,2.24C684.79,270.14,683.09,272.27,681.08,275Z"/>
      <path class="cls-1" d="M687.62,280.89c-1.26-1.7-2.51-3-2.35-3.22,1.8-2.26,3.81-4.36,5.77-6.49.74.67,2.2,1.81,2.1,2C691.57,275.59,689.8,277.92,687.62,280.89Z"/>
      <path class="cls-1" d="M674.27,269.86c-1.34-2-2.72-3.41-2.49-3.74a38.37,38.37,0,0,1,5-5.65,10.55,10.55,0,0,1,2.47,1.93C677.93,264.68,676.38,266.83,674.27,269.86Z"/>
      <path class="cls-1" d="M379,766.46c3.24-.59,5.67-.89,8-1.48,4.23-1.08,6.3-3.8,6.44-8.27,0-1.22,1.4-2.47,2.36-3.52.2-.22,1.88.38,1.89.61a10.28,10.28,0,0,1-.5,4.12c-2.19,5-5.29,8.7-11.38,9.76-7.63,1.33-11,7.55-13.41,14.25a41,41,0,0,1-4.94,10.53c.06-1.37-.19-2.84.24-4.08,2.75-7.92,2-14.74-3.06-22.07-2.55-3.69-1.29-10.09-1.43-15.27,0-.49,2.26-1,3.48-1.57.35,1.62,1.56,3.79.92,4.78-5.21,8.16-2.09,11.1,5.12,18.17,2.22-6,4.42-11.45,6.28-17,1.19-3.57,1.73-7.36,2.88-10.94a11.78,11.78,0,0,1,2.79-3.88c.14-.16,1.81.55,1.8.84,0,1.57.08,3.42-.7,4.65C381.87,752.22,380.12,759,379,766.46Z"/>
      <path class="cls-1" d="M399.35,735.62c-1.91,1.49-3.42,3.41-4.25,3.15-1.39-.43-2.35-2.25-3.5-3.49,1.26-1.09,2.42-2.79,3.83-3C396.34,732.1,397.62,734.06,399.35,735.62Z"/>
      <path class="cls-1" d="M408.52,738.57c-2.29,1.54-3.93,3.33-4.69,3-1.57-.66-2.68-2.44-4-3.76,1.23-.89,2.5-2.56,3.68-2.49C404.92,735.41,406.22,737,408.52,738.57Z"/>
      <path class="cls-1" d="M417.19,741.88c-2.34,1.28-3.85,2.79-4.88,2.51-1.35-.37-2.33-2.14-3.46-3.31,1.14-1,2.4-3,3.4-2.84C413.68,738.41,414.93,740.1,417.19,741.88Z"/>
      <path class="cls-1" d="M495.87,182.39c6.87,0,13.74-.16,20.6.13,1.48.06,2.89,1.73,4.34,2.67-1.41,1-2.7,2.69-4.23,2.95-12.12,2.07-15.9,5.86-18.13,17.77-.32,1.7-2.72,3.37-4.55,4.29-1.37.7-3.37.23-5.08.19-10.62-.24-10.68-.24-10.91-10.76-.06-2.94-.47-5-4-5.79-4.44-1-3.79-5.1-3-8,.45-1.68,3.14-3.76,4.94-3.88,6.65-.46,13.34-.18,20-.18Z"/>
      <path class="cls-1" d="M525.37,206.45c-1.92-2.36-4.32-4.09-4.08-5.27.42-2.06,2.48-3.78,3.86-5.65,1.64,2,3.59,3.93,4.71,6.22C530.12,202.29,527.58,204.19,525.37,206.45Z"/>
      <path class="cls-1" d="M507.08,204.76c-2-2-4.45-3.92-4.21-4.37,1.22-2.24,3.15-4.09,4.84-6.08,1.35,2.05,3.11,4,3.83,6.23C511.76,201.24,509.18,202.84,507.08,204.76Z"/>
      <path class="cls-1" d="M516,220.93l-5.84-4.52L515,210.7c1.53,1.77,3.5,3.35,4.36,5.4C519.65,216.91,517.53,218.76,516,220.93Z"/>
      <path class="cls-1" d="M515.85,189.28c2.4,2.19,5.32,4.15,5.06,4.75-.86,2-2.85,3.55-4.41,5.27-1.52-1.7-3.49-3.21-4.32-5.19C511.86,193.34,514.1,191.49,515.85,189.28Z"/>
      <path class="cls-1" d="M506.29,203.52c1.92,2.7,4.11,4.44,3.9,5.8-.29,1.85-2.43,3.4-3.77,5.08-1.37-2-3.12-3.86-3.91-6.06C502.23,207.56,504.31,205.94,506.29,203.52Z"/>
      <path class="cls-1" d="M524.52,205.37c2.09,2.44,4.39,4.28,4.09,4.94-.91,2-2.83,3.56-4.35,5.28-1.27-1.67-3.13-3.2-3.58-5.06C520.43,209.49,522.55,207.89,524.52,205.37Z"/>
      <path class="cls-1" d="M594.19,736.8c-2.4-5.77-5.67-10.18-5.42-14.38.14-2.37,5.9-5,9.54-6.34,2.64-1,9.3,8.34,7.46,11.77S599.21,733.12,594.19,736.8Z"/>
      <path class="cls-3" d="M554.42,749.39c-1.22,3.46-7.4,7.52-11.31,7.53-2.73,0-9-9-7.13-12.09s7.9-7,10-6C549.63,740.51,551.69,745.67,554.42,749.39Z"/>
      <path class="cls-1" d="M280.17,456.83c-2.54,3.55-5,7.17-7.7,10.6-.49.62-2.66.91-2.85.6-.6-1-1.25-2.84-.77-3.36,3-3.3,6.33-6.33,9.54-9.44Z"/>
      <path class="cls-1" d="M574.84,357.45c5.34,3.62,5.07,9.06,5.3,13.93.14,3-2.12,3.65-4.65,1.53C571.13,369.25,570.69,362.93,574.84,357.45Z"/>
      <path class="cls-1" d="M634.78,322.05c-2.69,1.95-4.42,3.63-6.49,4.46-.62.25-2.19-1.9-3.32-2.95a42.14,42.14,0,0,1,5.51-5C630.87,318.35,632.74,320.37,634.78,322.05Z"/>
      <path class="cls-1" d="M610.35,329.16c-1.9-2.43-4-4-4-5.46s2.2-3,3.43-4.45c1.42,1.36,3.74,2.57,4,4.12S612,326.57,610.35,329.16Z"/>
      <path class="cls-1" d="M636.53,337.11c-1.26-2.05-2.81-3.76-2.5-4.22a46.26,46.26,0,0,1,5-5.59c1.05,1.09,3.18,2.86,3,3.17A58.74,58.74,0,0,1,636.53,337.11Z"/>
      <path class="cls-1" d="M614.31,333.32c2.29-1.68,3.68-3.15,5.37-3.73.63-.22,3,2.16,2.83,2.43a11.39,11.39,0,0,1-3.63,4.35C618.35,336.7,616.47,334.82,614.31,333.32Z"/>
      <path class="cls-1" d="M627.47,346.11c-1.39-2.08-3.24-3.84-2.9-4.56.77-1.59,2.63-2.66,4-3.94,1,1.14,3.07,2.63,2.83,3.37C630.89,342.67,629.22,344,627.47,346.11Z"/>
      <path class="cls-1" d="M606.15,333.35c-2.1,1.45-3.58,3.22-4.54,3-1.68-.44-3-2.12-4.53-3.27,1.16-1.22,2.46-3.53,3.45-3.4C602.21,329.88,603.7,331.63,606.15,333.35Z"/>
      <path class="cls-1" d="M610,346.76c-1.56-2.15-3.44-3.65-3.19-4.63.34-1.37,2.25-2.37,3.48-3.52,1,1.22,2.71,2.39,2.79,3.67S611.46,344.73,610,346.76Z"/>
      <path class="cls-3" d="M623.3,350.78c-2,1.48-3.32,3.19-4.54,3.13s-2.39-1.86-3.57-2.9c1.23-1.25,2.29-3.08,3.77-3.54C619.8,347.22,621.33,349.21,623.3,350.78Z"/>
      <path class="cls-1" d="M677.73,367a28.7,28.7,0,0,1-9.92-7.59,15.3,15.3,0,0,1-1.82-3.56c1.34-.23,3.28-1.14,3.92-.58,4.91,4.34,10.13,4.33,15.85,2.05.76-.3,2.21.36,2.92,1a2.55,2.55,0,0,1-.26,2.47C685,363,681.35,364.94,677.73,367Z"/>
      <path class="cls-3" d="M318.82,640.46c4.49,1,8.63,4.57,13.61-.43,3.22-3.24,9.71-1.45,11.95,2.39,1.9,3.26-.09,11-3.29,12.67-4.5,2.42-9.34.57-12-4.2-1-1.81-2.67-4.11-4.38-4.47-3.84-.8-6.6.76-6.7,5.48,0,1.25-1.67,2.46-2.58,3.69-1-1.34-2.8-2.6-2.92-4a64,64,0,0,1-.08-14.24c.26-1.9,2.76-4.24,4.75-5,2.35-.84,5.3-.4,7.91,0,1.17.19,2.13,1.65,3.19,2.54-1.08.85-2,2.07-3.29,2.47a43,43,0,0,1-6.34,1.17Z"/>
      <path class="cls-1" d="M654.91,431.53c-.71.82-1.45,1.58-2.09,2.43-4.64,6.18-9.11,5.66-13.48-.3-.54-.73-1.74-2-1.7-2,3-2.93,5.71-7.06,9.3-8.06C648.67,423.1,652.05,428.53,654.91,431.53Z"/>
      <path class="cls-1" d="M614.72,434c-3,1.72-4.74,3.54-6.2,3.34s-2.77-2.38-4.14-3.69c1.54-1.29,3-3.37,4.67-3.62C610.35,429.84,612,432,614.72,434Z"/>
      <path class="cls-1" d="M424.22,711.78c-3.7,2.2-6,4.62-8,4.43-1.63-.15-3-3.48-4.43-5.4,1.95-1.43,3.81-3.77,5.89-4C419.19,706.64,421,709.23,424.22,711.78Z"/>
      <path class="cls-1" d="M369,700.7c-2.28-3.21-4.8-5.25-4.5-6.72.38-1.91,2.86-4.39,4.73-4.67,1.4-.21,4.59,2.69,4.58,4.19C373.82,695.44,371.41,697.36,369,700.7Z"/>
      <path class="cls-1" d="M386.35,381.08c-.55.93-1.24,3.17-2,3.2-2.08.07-4.81-.14-6.18-1.43a72,72,0,0,1-8-9.69A156.91,156.91,0,0,1,360,358.67c-.83-1.41-.12-5.05,1.14-6s5.27-.92,6.18.21c6.31,7.88,12.15,16.14,18.05,24.34C386,378.08,385.94,379.39,386.35,381.08Z"/>
      <path class="cls-1" d="M396,373.55c-.88,1.41-1.58,3.58-2.4,3.63-2.1.11-5.18,0-6.22-1.29-6.52-8.18-12.69-16.65-18.62-25.27-.62-.91.63-4.36,1.85-5,1.6-.8,4.82-.77,5.94.33,3,2.89,5.17,6.56,7.68,9.91,3,4,6,7.85,8.87,11.9A43.64,43.64,0,0,1,396,373.55Z"/>
      <path class="cls-1" d="M377.11,387.46c-.79,1.12-1.77,3.74-2.79,3.75-2.23,0-5.11-.64-6.59-2.13-2.9-2.93-5-6.61-7.46-10-3.32-4.63-6.86-9.12-9.73-14-.76-1.29,0-4.65,1.19-5.57s4.93-.95,5.75.07c6.5,8.14,12.6,16.62,18.77,25A11.84,11.84,0,0,1,377.11,387.46Z"/>
      <path class="cls-1" d="M577.22,641.93c.8-3.36,2.22-6.6,6.8-6.58,4.18,0,8.38,3.78,7.87,7.37-.6,4.26-3.58,6.68-7.73,7.14C580.64,650.25,577.1,646.14,577.22,641.93Z"/>
      <path class="cls-1" d="M583.74,593.73c-3.54,1.37-7.16,4-8.79,3.1-2.39-1.35-3.35-5.22-4.93-8,2.7-1.1,5.81-3.57,8-2.91S581.41,590.34,583.74,593.73Z"/>
      <path class="cls-1" d="M442,325.06c-8-.06-9-.83-9.27-7.27-.36-7.37,1-8.5,10.32-8.44,8.12.06,10.28,2.62,9.08,10.35C451.11,326.18,446.2,324.86,442,325.06Z"/>
      <path class="cls-3" d="M687.34,469.46c0,4.93.12,9.86-.05,14.78-.1,2.92-10.42,10.51-12.94,9.44-1-.44-2-2.31-2-3.56-.18-6.64-.24-13.3,0-19.94.16-4.09,7.06-10.28,11-9.93,1.15.1,2.75,1.76,3.08,3,.52,1.94.14,4.13.14,6.22Z"/>
      <path class="cls-3" d="M357.83,531c-8.47,5.49-16.69,5.58-19.08,1.25-1.91-3.43,2.08-12.42,7.85-16.05C346.8,523.41,350,528.57,357.83,531Z"/>
      <path class="cls-3" d="M370.63,522l-13.19-14.11c2.59-3.9,7.76-2.57,12.34-2.2,1.61.13,4.47,2.49,4.32,3.45C373.43,513.53,371.88,517.74,370.63,522Z"/>
      <path class="cls-3" d="M514,573.23c-3.4,3.11-6,7.3-9,7.62-2.19.24-7-4.7-6.87-7.19.1-2.73,4.26-7,7.06-7.39C507.6,566,510.57,570.31,514,573.23Z"/>
      <path class="cls-3" d="M304,326.58c-3.67,2.91-6.28,6.53-9,6.62-2,.07-5.94-4.55-5.79-6.88s4.3-5.89,6.81-6S300.88,324,304,326.58Z"/>
      <path class="cls-1" d="M350.48,607.1c-2.89-3.67-6.1-6.16-5.67-7.54.76-2.49,3.69-4.31,5.72-6.41,1.82,1.88,5,3.67,5.11,5.67S353.05,603.23,350.48,607.1Z"/>
      <path class="cls-1" d="M420.48,647c-2.13,1.74-4.29,4.88-6.38,4.83s-5.13-3.06-5.65-5.28c-.36-1.48,2.83-5.25,4.69-5.43,2.25-.22,4.77,2.25,7.18,3.56C420.37,645.49,420.42,646.26,420.48,647Z"/>
      <path class="cls-3" d="M411.46,322.75c1.92,2.81,3.88,4.46,3.91,6.15,0,1.21-2.86,3.7-3.86,3.43a6.72,6.72,0,0,1-4.1-4.16C407.14,327.09,409.42,325.35,411.46,322.75Z"/>
    </g>
  </g>
</svg>
