<svg xmlns="http://www.w3.org/2000/svg" width="419.16" height="434.63" viewBox="0 0 419.16 434.63"><defs><style>.cls-1{fill:#939a9e;}.cls-1,.cls-2,.cls-3,.cls-4,.cls-5,.cls-6,.cls-7,.cls-8{stroke:#000;stroke-miterlimit:10;}.cls-1,.cls-2,.cls-3,.cls-4,.cls-7{fill-rule:evenodd;}.cls-2{fill:#fa9010;}.cls-3{fill:#fcfcfc;}.cls-4{fill:#2e2f30;}.cls-5{fill:#d13b3b;}.cls-6{fill:#d14646;}.cls-7{fill:#c43b3b;}.cls-8{fill:#eadfdf;}</style></defs><g id="Layer_2" data-name="Layer 2"><g id="Layer_1-2" data-name="Layer 1"><path id="path3" class="cls-1" d="M199.65,433.66c-4.52-.33-5-1.21-1-1.83,6.68-1,40.21-.31,39.93.85s-27.56,1.79-38.91,1"/><path class="cls-2" d="M201.22,1.35c-36.1,3.85-65.05,20.32-83.34,47.43-3.56,5.27-10.71,18.35-10.73,19.64,0,.33,49.37.59,109.74.59s109.75-.23,109.75-.51c0-1.37-8-15.71-12-21.64C292,13.83,248.4-3.68,201.22,1.35"/><path class="cls-2" d="M343.54,27.68c-2.26,2.18-2.78,3.28-2.8,6-.08,9.84,11,13.62,17,5.79L359.66,36l26.17.21,26.06.21V35l0-2.61-26.18-.21L359.44,32l-.95-1.53c-3.25-6-10.22-7.34-14.95-2.79"/><path class="cls-3" d="M353.23,31.24c2.82,2.76.48,8.26-3.51,8.26-1.78,0-4.94-3.22-4.94-5,0-3.82,5.65-6,8.45-3.24"/><path class="cls-2" d="M104,76.72c-1.25,2.68-5.4,19.08-6.71,26.51-2.18,12.41-1.19,37.39,1.89,47.71l.89,3H333.87l.79-3c3-11.36,4-35.23,1.84-47.71-1.29-7.6-4.82-21.7-6.39-25.55l-1.21-3H105l-.93,2"/><path class="cls-2" d="M102.27,160.72c0,2.57,11.74,23.79,21,37.94,5.83,8.93,13.42,21.67,16.86,28.32l6.25,12.07H287.49L293.68,227c3.4-6.65,8-14.75,10.18-18,13.55-20.15,27.64-44.74,27.64-48.24,0-.62-32.15-.87-114.61-.87s-114.62.25-114.62.87"/><path class="cls-2" d="M148.44,244.65c0,.34.93,4.53,2.05,9.31,1.44,6.09,2.28,12.81,2.81,22.43,1.1,19.63,2.79,25.56,8.07,28.23,3.49,1.76,107.43,1.82,110.92.05,5.43-2.74,7.23-8.74,8.18-27.26.56-10.87,1.3-17,2.81-23.45,1.13-4.78,2.05-9,2.05-9.31s-30.8-.6-68.44-.6-68.45.27-68.45.6"/><path id="path2" class="cls-4" d="M167.07,313.18a3.92,3.92,0,0,0-2.27,3.49,6,6,0,0,1-1.42,3.45c-.68.55-1.17,2.34-1.17,4.31s.49,3.77,1.17,4.32c1.77,1.44,1.92,5.74.25,7.37-2.08,2-1.94,8.17.2,9.49a3.76,3.76,0,0,1,1.62,3.44,5.51,5.51,0,0,1-1.62,3.9c-1.13,1-1.62,2.44-1.62,4.75s.49,3.75,1.62,4.75a4.7,4.7,0,0,1,1.62,2.7,3.28,3.28,0,0,1-1.62,2.26c-2.52,1.55-2.27,7.49.41,9.55a4.78,4.78,0,0,1,2,4.32c0,2.84,1.17,4.3,4.55,5.72,3.79,1.6,16.28,12.95,16.76,15.23,1.29,6.16,5.94,7.32,29.32,7.32,23.6,0,28.5-1.3,29.86-7.93.43-2.14,12.57-13.07,16.23-14.62,3.44-1.46,4.53-2.88,4.53-5.9,0-2.32.43-3.16,2-4,2.72-1.42,3-8.1.4-9.69a3.25,3.25,0,0,1-1.62-2.2,4.41,4.41,0,0,1,1.62-2.58c1.16-1,1.62-2.33,1.62-4.8s-.47-3.87-1.62-4.88a5.55,5.55,0,0,1-1.62-3.9,3.78,3.78,0,0,1,1.62-3.44c2.22-1.36,2.35-8.44.18-9.77-1.71-1-1.5-5.64.31-7.12,1.51-1.22,1.48-7.37,0-8.6a5.91,5.91,0,0,1-1.42-3.45c-.46-4.55.26-4.49-52.09-4.49-36.78,0-48.26.23-49.82,1"/><path class="cls-2" d="M350,196.26c-2.25,2.2-2.75,3.3-2.75,6,0,9.85,11.13,13.53,17.08,5.66l1.85-3.48h52.23v-4H366l-1-1.53c-3.29-6-10.27-7.26-15-2.67"/><path class="cls-3" d="M359.77,199.57c2.82,2.75.48,8.25-3.51,8.25-1.77,0-4.93-3.21-4.93-5,0-3.82,5.64-6,8.44-3.23"/><path class="cls-2" d="M116.91,281.83c2.25-2.19,2.76-3.29,2.76-6,0-9.85-11.13-13.54-17.09-5.66l-1.85,3.48H48.5v4H101l1,1.53c3.29,6,10.27,7.25,15,2.66"/><path class="cls-3" d="M107.17,278.53c-2.82-2.75-.48-8.26,3.51-8.26,1.77,0,4.94,3.22,4.94,5,0,3.81-5.65,6-8.45,3.23"/><path class="cls-2" d="M68.91,120.63c2.25-2.2,2.76-3.3,2.76-6,0-9.85-11.13-13.53-17.09-5.66l-1.85,3.48H.5v4H53L54,118c3.29,6,10.27,7.26,15,2.67"/><path class="cls-3" d="M59.17,117.32c-2.82-2.75-.48-8.25,3.51-8.25,1.77,0,4.94,3.22,4.94,5,0,3.82-5.65,6-8.45,3.23"/></g><g id="fills"><g id="shadow"><polyline class="cls-5" points="199.19 433.62 218.25 434.13 234.25 433.29 237.94 432.95 236.56 432.19 226.25 431.6 214.92 431.33 204.67 431.33 198.19 431.91 195.96 432.67 196.78 433.26 199.19 433.62"/></g><g id="bulb1"><polygon class="cls-6" points="285.25 244.33 285.21 244.53 282.33 258.52 281.56 263.64 280.72 273.01 280.37 279.18 279.61 288.67 278.64 294.69 276.17 301.23 273.27 304.12 268.76 305.13 193.5 305.84 162.08 304.79 158.43 302.33 155.63 296.36 154.99 293.5 153.99 285.93 153.25 276.33 152.3 264.36 151.16 257.07 150.33 253.27 148.59 245.49 148.45 244.72 154.6 244.4 191.92 244.33 248.25 244.33 282.25 244.33 285.25 244.33"/></g><g id="bulb2"><polygon class="cls-6" points="287.25 239.33 146.5 239.05 140.85 228.39 131.47 211.82 117.69 189.79 111.06 178.5 106.83 170.79 103.48 164.11 102.28 160.88 104.48 160.47 132.31 160.03 175.25 160.33 261.42 160.03 318.47 160.19 330.84 160.58 331.41 161.35 328.9 167.28 319.79 183.69 317.54 187.52 315.02 191.56 311.1 197.88 305.71 206.23 299.25 216.33 292.81 228.75 287.25 239.33"/></g><g id="bulb3"><polygon class="cls-6" points="105.25 74.33 328.77 74.71 330.49 78.7 332.9 87.03 334.31 92.79 336.25 101.33 336.78 105.1 337.11 107.99 337.43 112.19 337.57 115.54 337.65 122.08 337.53 127.11 337.18 133.52 336.63 139.61 335.83 145.41 335.14 148.97 333.93 153.68 332.13 153.91 100.25 154.33 98.54 148.31 97.42 141.77 96.64 134.05 96.25 126.33 96.25 119.33 96.33 112.99 96.82 106.76 97.56 101.95 99.32 93.87 102.31 82.12 104.27 76.21 105.25 74.33"/></g><g id="bulb4"><polyline class="cls-6" points="107.33 68.45 107.69 66.9 113.57 55.84 117.18 49.84 120.9 44.53 125.08 39.3 128.26 35.73 137.83 26.72 146.25 20.44 156.61 14.31 167.74 9.29 181.17 4.97 197.84 1.75 212.13 0.58 222.1 0.58 238.49 2.1 253.5 5.26 267.89 10.14 282.71 17.46 294.02 25.12 306.24 36.33 314.17 46.21 320.87 57.1 325.17 65.04 326.56 68.13 325.72 68.57 107.25 68.33"/></g><g id="arrow1"><polygon id="arrow" class="cls-7" points="105.94 283.25 103.16 280.84 101.13 277.74 100.16 277.52 59.16 277.52 48.72 277.52 48.51 276.28 48.62 273.56 68.85 273.56 100.58 273.56 101.21 272.68 101.85 271.48 102.4 270.44 102.95 269.63 104.47 268.1 105.64 267.25 106.71 266.67 108.77 265.99 111.45 265.85 114.07 266.52 116.14 267.77 117.81 269.53 119.03 271.88 119.66 275 119.35 278.37 118 280.59 115.82 282.65 113.36 283.98 110.31 284.49 107.6 284.01 105.94 283.25"/><path id="circle1" class="cls-3" d="M106.6,278.6c-2.82-2.75-.48-8.26,3.51-8.26,1.77,0,4.93,3.22,4.93,5,0,3.82-5.64,6-8.44,3.23"/></g><g id="arrow2"><polygon id="arrow-2" data-name="arrow" class="cls-7" points="361.23 195.09 364.01 197.5 366.03 200.59 367.01 200.82 408.01 200.82 418.44 200.82 418.66 202.06 418.55 204.78 398.32 204.78 366.59 204.78 365.95 205.66 365.32 206.86 364.77 207.9 364.22 208.71 362.7 210.24 361.53 211.09 360.45 211.67 358.4 212.35 355.71 212.49 353.1 211.82 351.03 210.57 349.36 208.81 348.13 206.46 347.51 203.33 347.81 199.97 349.17 197.75 351.34 195.69 353.81 194.36 356.86 193.85 359.57 194.33 361.23 195.09"/><path id="circle2" class="cls-3" d="M360.57,199.74c2.82,2.75.48,8.26-3.51,8.26-1.77,0-4.94-3.22-4.94-5,0-3.82,5.65-6,8.45-3.23"/></g><g id="arrow3"><polygon id="arrow-3" data-name="arrow" class="cls-7" points="57.94 122.25 55.16 119.84 53.13 116.74 52.16 116.51 11.16 116.51 0.72 116.51 0.51 115.27 0.62 112.55 20.85 112.55 52.58 112.55 53.21 111.67 53.84 110.48 54.4 109.43 54.95 108.62 56.46 107.1 57.63 106.25 58.71 105.67 60.77 104.99 63.45 104.85 66.06 105.52 68.14 106.76 69.81 108.53 71.03 110.88 71.65 114 71.35 117.36 70 119.58 67.82 121.65 65.36 122.97 62.3 123.48 59.59 123.01 57.94 122.25"/><path id="circle3" class="cls-3" d="M58.6,117.6c-2.82-2.76-.48-8.26,3.51-8.26,1.77,0,4.93,3.22,4.93,5,0,3.82-5.64,6-8.44,3.24"/></g><g id="arrow4"><polygon id="arrow-4" data-name="arrow" class="cls-7" points="354.47 26.4 357.25 28.81 359.28 31.91 360.25 32.13 401.25 32.13 411.69 32.13 411.9 33.38 411.79 36.09 391.56 36.09 359.83 36.09 359.2 36.98 358.56 38.17 358.01 39.22 357.46 40.03 355.94 41.55 354.77 42.4 353.7 42.98 351.64 43.66 348.96 43.8 346.35 43.13 344.27 41.88 342.6 40.12 341.38 37.77 340.75 34.65 341.06 31.29 342.41 29.06 344.59 27 347.05 25.67 350.1 25.16 352.81 25.64 354.47 26.4"/><path id="circle4" class="cls-3" d="M353.81,31.05c2.82,2.75.48,8.26-3.51,8.26-1.77,0-4.93-3.22-4.93-5,0-3.81,5.64-6,8.44-3.23"/></g><g id="bottom"><path class="cls-8" d="M230.09,409.31l7.38-.68,4.17-1,2.93-1.7,1.8-2.89.7-2.08,3.64-4.08,8.64-7.51,3.45-2.26,3.17-1.83,1.08-1.47.46-2.34.08-1.69.15-.75.09-.25.22-.41.32-.42.51-.43.45-.27.47-.28.4-.33,1.18-2.15.36-3.43-1.06-2.95-1.89-1.74-.18-.27-.27-.74,0-.48.11-.32.1-.21.23-.41.35-.47,1.17-1.19.9-1.61.31-3.5-.51-2.66-.67-1.1-1.45-1.83-.29-.71-.19-.68a2.11,2.11,0,0,0-.09-.64,5.61,5.61,0,0,1-.1-1.19l.19-.45.27-.83.29-.55.74-.76,1.09-1.16.62-1.79.15-.92-.35-1.54v-2l-.66-2.08-.91-.8-.22-.33-.13-.26-.11-.27-.16-.59-.06-.37,0-.37v-.53l0-.62.18-1.12.26-.78.31-.64.31-.45.3-.32.39-.41.36-.74.37-1.65.05-2.48-.21-1.5-.4-1.22-.39-.58-.44-.46-.63-1.2-.4-1.41-.42-2.34L268,314l-.37-.24-.78-.34-1.24-.32-2.19-.32-3.06-.24-5.52-.22-12.58,0h-39l-33.38.4-2.62.6-.7.15-1.1,1.1-.44,1-.41,2.2-.87,2-.84,1.05-.19.44-.35,1.43-.1,2.67.31,1.87.65,1.38.4.39.44.57s.35.31.28.55.3,1,.3,1l.16,1.14-.09,1.59-.43,1.39-.4.66-.67.79-.4.75-.27.71-.22.93s-.06,1.14-.06.72v1.58l0,1.25.41,1.5.31.63.36.5.35.31.61.45.41.47.36.64s.28,1.1.22.68l.13.95v.69l-.06.54-.07.35-.37,1.09-.39.72-.26.36-.68.7-.52.64-.28.51-.2.5-.15.49-.08.39-.09.54,0,.46,0,.75,0,.89.13,1.4.16.63.53,1.19.2.3.45.49.43.41.52.62.51.84.11.24.12.4,0,.5-.14.46-.24.43-.5.6-.4.35-.6.42-.39.39-.38.56-.18.35-.15.37-.15.51-.08.59-.1.41,0,.59v.56l0,.46.14.93.16.69.18.53.34.79.39.64.42.53.31.3.56.45.52.53.44.57.32.65.26.87.09.73v.72l0,.7.11.74.15.57.28.66.26.43.25.33,1,.89,1.24.76,1.61.75.69.38,2.63,1.82,2.42,1.92,6.48,5.85,3.69,4.12.44.77.14.49.08.35.11.38.18.53.18.42.33.64.6.83.49.5.78.6.65.39.9.41,1.29.45,1.84.44,1.52.26,2.23.28,5,.32,14.44,0,10.16.05,1.68-.07"/></g></g></g></svg>