<svg height="512" viewBox="0 0 60 60" width="512" xmlns="http://www.w3.org/2000/svg"><g id="Page-1" fill="none" fill-rule="evenodd"><g id="021---Monitor" fill="rgb(0,0,0)" fill-rule="nonzero" transform="translate(-1)"><path id="Shape" d="m58 0h-54c-1.7044406.05441939-3.04487651 1.47528146-3 3.18v43.64c-.04487651 1.7047185 1.2955594 3.1255806 3 3.18h17.38l-2 4h-3.38c-1.6568542 0-3 1.3431458-3 3s1.3431458 3 3 3h30c1.6568542 0 3-1.3431458 3-3s-1.3431458-3-3-3h-3.38l-2-4h17.38c1.7044406-.0544194 3.0448765-1.4752815 3-3.18v-43.64c.0448765-1.70471854-1.2955594-3.12558061-3-3.18zm-11 57c0 .5522847-.4477153 1-1 1h-30c-.5522847 0-1-.4477153-1-1s.4477153-1 1-1h30c.5522847 0 1 .4477153 1 1zm-6.62-3h-18.76l2-4h14.76zm17.62-6h-54c-.5950221-.0630621-1.03538712-.5826928-1-1.18v-2.82h4c.55228475 0 1-.4477153 1-1s-.44771525-1-1-1h-4v-38.82c-.03538712-.59730719.4049779-1.11693791 1-1.18h54c.5950221.06306209 1.0353871.58269281 1 1.18v38.82h-48c-.5522847 0-1 .4477153-1 1s.4477153 1 1 1h48v2.82c.0353871.5973072-.4049779 1.1169379-1 1.18z"/><path id="Shape" d="m6 10c.26580298.0015368.52128117-.10281349.71-.29l4-4c.3921222-.39212217.3921222-1.02787783 0-1.42s-1.02787783-.39212217-1.42 0l-4 4c-.18931265.1877666-.29579832.44336246-.29579832.71s.10648567.5222334.29579832.71c.18871883.18718651.44419702.2915368.71.29z"/><path id="Shape" d="m16.71 4.29c-.1877666-.18931265-.4433625-.29579832-.71-.29579832s-.5222334.10648567-.71.29579832l-10 10c-.18931265.1877666-.29579832.4433625-.29579832.71s.10648567.5222334.29579832.71c.1877666.1893127.44336246.2957983.71.2957983s.5222334-.1064856.71-.2957983l10-10c.1893127-.1877666.2957983-.44336246.2957983-.71s-.1064856-.5222334-.2957983-.71z"/></g></g></svg>