<svg xmlns="http://www.w3.org/2000/svg" viewBox="0 0 438.37 408.84">
  <defs>
    <style>
      .cls-1 {
        fill: #ff6a7b;
      }

      .cls-2 {
        fill: #fff;
      }

      .cls-3 {
        fill: #f5ff15;
      }
    </style>
  </defs>
  <g id="Layer_2" data-name="Layer 2">
    <g id="Layer_1-2" data-name="Layer 1">
      <path class="cls-1" d="M218.94,408.76H84.48c-6.66,0-6.94-.37-7.7-6.84Q70.92,351.6,65,301.29c-2-17.18-4-34.37-6.11-51.54-.44-3.55.69-5.93,3.47-8.14q76.8-60.81,153.45-121.78c2.95-2.35,4.81-1.64,7.33.35q65.81,51.72,131.7,103.37c7.47,5.86,14.84,11.86,22.48,17.49,3.35,2.46,4.59,5.09,4,9.23-2.58,18-4.91,35.94-7.35,53.91-4.21,31-8.32,62-12.69,93-1.9,13.43.67,11.57-12.85,11.59Q283.67,408.85,218.94,408.76Z"/>
      <path class="cls-2" d="M225.34,259.54v27c0,8,0,8,7.79,8h43c11.21,0,11,0,11.61-11.08,1-17.94,2-35.88,3.45-53.8.31-3.93-.62-4.91-4.38-4.88q-28.23.21-56.47,0c-4.08,0-5.12,1.48-5,5.28C225.47,239.89,225.34,249.72,225.34,259.54Z"/>
      <path class="cls-2" d="M212.78,259.52c0-10-.09-20,0-29.95.05-3.34-1-4.78-4.56-4.75q-28.2.18-56.41,0c-3.92,0-4.88,1.63-4.63,5.12.46,6.47.68,12.95,1.09,19.42.84,13.43,1.83,26.86,2.56,40.3.21,4,2,5,5.7,5,17-.13,34-.16,50.92,0,4.26,0,5.43-1.66,5.35-5.64C212.65,279.16,212.78,269.34,212.78,259.52Z"/>
      <path class="cls-2" d="M182.44,307.64c-8.32,0-16.64.11-25-.05-3.7-.07-5.57.93-5.29,5.07q1.69,25.62,3.06,51.26c.18,3.38,2.27,3.56,4.77,3.56,16,0,32-.08,47.92,0,3.71,0,4.92-1.43,4.89-5q-.18-25,0-49.91c0-3.65-1.26-5.06-4.93-5C199.41,307.76,190.93,307.65,182.44,307.64Z"/>
      <path class="cls-2" d="M255.71,307.64c-8.33,0-16.65.15-25-.07-4.07-.1-5.53,1.25-5.48,5.44q.3,24.47,0,48.93c-.06,4.51,1.6,5.67,5.82,5.62,15-.2,30-.25,44.94,0,4.61.09,6.25-1.76,6.52-5.95,1-16.26,2-32.52,3.19-48.77.28-3.89-1.09-5.37-5.05-5.28C272.35,307.78,264,307.64,255.71,307.64Z"/>
      <path class="cls-1" d="M.1,274.14c-.49-2.63.92-4.44,1.71-6.35Q27.73,205,53.71,142.16a27.34,27.34,0,0,1,8.37-11.48c9.5-7.59,18.77-15.48,28.15-23.21,1.25-1,2.42-3,4.15-2.25s1.42,2.88,1.59,4.45c1.49,14.07,2.87,28.14,4.3,42.22.15,1.44-.44,3.33,1.06,4.14s2.69-.89,3.78-1.75q39.21-30.6,78.38-61.25a7.73,7.73,0,0,0,3.38-6.77c-.49-19.18,1-38.26,2.74-57.34a9.65,9.65,0,0,1,3.66-7.23c8-6.53,16-13.1,23.82-19.83,2.75-2.37,4.82-2.55,7.71-.09q60.48,51.54,121.11,103c10.28,8.74,20.54,17.51,30.88,26.19a19,19,0,0,1,5.71,7.39q27.21,65.25,54.5,130.5c.61,1.48,1.7,2.91,1.28,4.76-1.63.91-2.42-.57-3.34-1.31q-98.32-78.75-196.6-157.54c-4.29-3.44-8.83-6.62-12.8-10.4-3.45-3.29-5.83-2.57-9.24.13q-57.57,45.6-115.3,91Q53,233.26,5.15,271C3.65,272.19,2.29,273.68.1,274.14Z"/>
      <path class="cls-1" d="M139.24,59.31H175.7c6.52,0,5.73.23,6.77,6.76,2.41,15.14-3.58,24.7-16.05,33.33-19.55,13.51-37.68,29.07-56.44,43.72-1.39,1.08-2.76,3.21-4.59,2.38s-1.41-3.18-1.59-5Q99.92,103.07,96,65.63c-.58-5.56-.07-6.29,5.77-6.3C114.26,59.29,126.75,59.31,139.24,59.31Z"/>
      <path class="cls-1" d="M139,56.69H101.51c-5.82,0-6.08-.41-4.14-6.07,3.07-9,6.3-17.91,9.26-26.93,1.05-3.21,2.85-4.41,6.21-4.4q33.48.15,67,0c3.19,0,5.67.38,5.28,4.56-.83,9.11-1.61,18.23-2.25,27.36-.29,4.17-2.15,5.63-6.36,5.55C164,56.54,151.49,56.69,139,56.69Zm2.47-9.18h14c14.28,0,14.14,0,15.56-14.42.36-3.72-.74-4.68-4.18-4.64-10.64.12-21.29-.11-31.93.07C117,28.83,121.86,25.4,115.6,42.9a1.48,1.48,0,0,1-.15.48c-1.25,3.1-.08,4.19,3.11,4.15C126.18,47.42,133.83,47.5,141.47,47.51Z"/>
    </g>
    <g id="housewindowfills">
      <path class="cls-3" d="M225.28,259v27c0,8,0,8,7.79,8h43c11.21,0,11,0,11.61-11.08,1-17.94,2-35.88,3.45-53.8.31-3.93-.62-4.91-4.38-4.88q-28.23.21-56.47,0c-4.08,0-5.12,1.48-5,5.28C225.41,239.38,225.28,249.21,225.28,259Z"/>
      <path class="cls-3" d="M212.72,260c0-10-.09-20,0-29.95.05-3.34-1-4.78-4.56-4.75q-28.2.18-56.41,0c-3.92,0-4.88,1.63-4.63,5.12.46,6.47.68,12.95,1.09,19.42.84,13.43,1.83,26.86,2.56,40.3.21,4,2,5,5.7,5,17-.13,34-.16,50.92,0,4.26,0,5.43-1.66,5.35-5.64C212.59,279.65,212.72,269.83,212.72,260Z"/>
      <path class="cls-3" d="M182.38,308.13c-8.32,0-16.64.11-25-.05-3.7-.07-5.57.93-5.29,5.07q1.68,25.62,3.06,51.26c.18,3.38,2.27,3.56,4.77,3.56,16,0,32-.08,47.92,0,3.71,0,4.92-1.43,4.89-5q-.18-25,0-49.91c0-3.65-1.26-5.06-4.93-5C199.35,308.25,190.87,308.14,182.38,308.13Z"/>
      <path class="cls-3" d="M255.65,308.13c-8.33,0-16.65.15-25-.07-4.07-.1-5.53,1.25-5.48,5.44q.3,24.47,0,48.93c-.06,4.51,1.6,5.67,5.82,5.62,15-.2,30-.25,44.94,0,4.61.09,6.25-1.76,6.52-5.95,1-16.26,2-32.52,3.19-48.77.28-3.89-1.09-5.37-5.05-5.28C272.29,308.27,263.94,308.13,255.65,308.13Z"/>
    </g>
  </g>
</svg>
