<svg xmlns="http://www.w3.org/2000/svg" width="419.94" height="435.13" viewBox="0 0 419.94 435.13"><defs><style>.cls-1{fill:#939a9e;}.cls-1,.cls-2,.cls-3,.cls-4,.cls-5,.cls-6,.cls-7,.cls-8,.cls-9{stroke:#000;stroke-miterlimit:10;}.cls-1,.cls-2,.cls-3,.cls-4,.cls-5,.cls-8{fill-rule:evenodd;}.cls-2{fill:none;}.cls-2,.cls-5{stroke-width:2px;}.cls-3{fill:#fcfcfc;}.cls-4{fill:#2e2f30;}.cls-5{fill:#fff;}.cls-6{fill:#d13b3b;}.cls-7{fill:#d14646;}.cls-8{fill:#c43b3b;}</style></defs><g id="Layer_2" data-name="Layer 2"><g id="Layer_1-2" data-name="Layer 1"><path id="path3" class="cls-1" d="M200.15,434.16c-4.52-.33-5-1.21-1-1.83,6.68-1,40.21-.31,39.93.85s-27.56,1.79-38.91,1"/><path class="cls-2" d="M201.72,1.85c-36.1,3.85-65.05,20.32-83.34,47.43-3.56,5.27-10.71,18.35-10.73,19.64,0,.33,49.37.59,109.74.59s109.75-.23,109.75-.51c0-1.37-8-15.71-12-21.64-22.6-33-66.23-50.54-113.41-45.51"/><path class="cls-2" d="M344,28.18c-2.26,2.18-2.78,3.28-2.8,6-.08,9.84,11,13.62,17,5.79l1.88-3.47,26.17.21,26.06.21V35.53l0-2.61-26.18-.21-26.3-.21L359,31c-3.25-6-10.22-7.34-14.95-2.79"/><path class="cls-3" d="M353.73,31.74c2.82,2.76.48,8.26-3.51,8.26-1.78,0-4.94-3.22-4.94-5,0-3.82,5.65-6,8.45-3.24"/><path class="cls-2" d="M104.53,77.22c-1.25,2.68-5.4,19.08-6.71,26.51-2.18,12.41-1.19,37.39,1.89,47.71l.89,3H334.37l.79-3c3-11.36,4-35.23,1.84-47.71-1.29-7.6-4.82-21.7-6.39-25.55l-1.21-3H105.46l-.93,2"/><path class="cls-2" d="M102.77,161.22c0,2.57,11.74,23.79,21,37.94,5.83,8.93,13.42,21.67,16.86,28.32l6.25,12.07H288l6.19-12.07c3.4-6.65,8-14.75,10.18-18C317.91,189.31,332,164.72,332,161.22c0-.62-32.15-.87-114.61-.87s-114.62.25-114.62.87"/><path class="cls-2" d="M148.94,245.15c0,.34.93,4.53,2.05,9.31,1.44,6.09,2.28,12.81,2.81,22.43,1.1,19.63,2.79,25.56,8.07,28.23,3.49,1.76,107.43,1.82,110.92.05,5.43-2.74,7.23-8.74,8.18-27.26.56-10.87,1.3-17,2.81-23.45,1.13-4.78,2.05-9,2.05-9.31s-30.8-.6-68.44-.6-68.45.27-68.45.6"/><path id="path2" class="cls-4" d="M167.57,313.68a3.92,3.92,0,0,0-2.27,3.49,6,6,0,0,1-1.42,3.45c-.68.55-1.17,2.34-1.17,4.31s.49,3.77,1.17,4.32c1.77,1.44,1.92,5.74.25,7.37-2.08,2-1.94,8.17.2,9.49a3.76,3.76,0,0,1,1.62,3.44,5.51,5.51,0,0,1-1.62,3.9c-1.13,1-1.62,2.44-1.62,4.75s.49,3.75,1.62,4.75a4.7,4.7,0,0,1,1.62,2.7,3.28,3.28,0,0,1-1.62,2.26c-2.52,1.55-2.27,7.49.41,9.55a4.78,4.78,0,0,1,2,4.32c0,2.84,1.17,4.3,4.55,5.72,3.79,1.6,16.28,12.95,16.76,15.23,1.29,6.16,5.94,7.32,29.32,7.32,23.6,0,28.5-1.3,29.86-7.93.43-2.14,12.57-13.07,16.23-14.62,3.44-1.46,4.53-2.88,4.53-5.9,0-2.32.43-3.16,2-4,2.72-1.42,3-8.1.4-9.69a3.25,3.25,0,0,1-1.62-2.2,4.41,4.41,0,0,1,1.62-2.58c1.16-1,1.62-2.33,1.62-4.8s-.47-3.87-1.62-4.88a5.55,5.55,0,0,1-1.62-3.9,3.78,3.78,0,0,1,1.62-3.44c2.22-1.36,2.35-8.44.18-9.77-1.71-1-1.5-5.64.31-7.12,1.51-1.22,1.48-7.37,0-8.6a5.91,5.91,0,0,1-1.42-3.45c-.46-4.55.26-4.49-52.09-4.49-36.78,0-48.26.23-49.82,1"/><path class="cls-2" d="M350.53,196.76c-2.25,2.2-2.75,3.3-2.75,6,0,9.85,11.13,13.53,17.08,5.66l1.85-3.48h52.23v-4H366.46l-1-1.53c-3.29-6-10.27-7.26-15-2.67"/><path class="cls-5" d="M360.27,200.07c2.82,2.75.48,8.25-3.51,8.25-1.77,0-4.93-3.21-4.93-5,0-3.82,5.64-6,8.44-3.23"/><path class="cls-2" d="M116.41,282.33c2.25-2.19,2.76-3.29,2.76-6,0-9.85-11.13-13.54-17.09-5.66l-1.85,3.48H48v4h52.48l1,1.53c3.29,6,10.27,7.25,15,2.66"/><path class="cls-5" d="M106.67,279c-2.82-2.75-.48-8.26,3.51-8.26,1.77,0,4.94,3.22,4.94,5,0,3.81-5.65,6-8.45,3.23"/><path class="cls-2" d="M69.41,121.13c2.25-2.2,2.76-3.3,2.76-6,0-9.85-11.13-13.53-17.09-5.66L53.23,113H1v4H53.48l1,1.53c3.29,6,10.27,7.26,15,2.67"/><path class="cls-5" d="M59.67,117.82c-2.82-2.75-.48-8.25,3.51-8.25,1.77,0,4.94,3.22,4.94,5,0,3.82-5.65,6-8.45,3.23"/></g><g id="fills"><g id="shadow"><polyline class="cls-6" points="199.69 434.12 218.75 434.63 234.75 433.79 238.44 433.45 237.06 432.69 226.75 432.1 215.42 431.83 205.17 431.83 198.69 432.41 196.46 433.17 197.28 433.76 199.69 434.12"/></g><g id="bulb1"><polygon class="cls-7" points="285.75 244.83 285.71 245.03 282.83 259.02 282.06 264.14 281.22 273.51 280.87 279.68 280.11 289.17 279.14 295.19 276.67 301.73 273.77 304.62 269.26 305.63 194 306.34 162.58 305.29 158.93 302.83 156.13 296.86 155.49 294 154.49 286.43 153.75 276.83 152.8 264.86 151.66 257.57 150.83 253.77 149.09 245.99 148.95 245.22 155.1 244.9 192.42 244.83 248.75 244.83 282.75 244.83 285.75 244.83"/></g><g id="bulb2"><polygon class="cls-7" points="287.75 239.83 147 239.55 141.35 228.89 131.97 212.32 118.19 190.29 111.56 179 107.33 171.29 103.98 164.61 102.78 161.38 104.98 160.97 132.81 160.53 175.75 160.83 261.92 160.53 318.97 160.69 331.34 161.08 331.91 161.85 329.4 167.78 320.29 184.19 318.04 188.02 315.52 192.06 311.6 198.38 306.21 206.73 299.75 216.83 293.31 229.25 287.75 239.83"/></g><g id="bulb3"><polygon class="cls-7" points="105.75 74.83 329.27 75.21 330.99 79.2 333.4 87.53 334.81 93.29 336.75 101.83 337.28 105.6 337.61 108.49 337.93 112.69 338.07 116.04 338.15 122.58 338.03 127.61 337.68 134.02 337.13 140.11 336.33 145.91 335.64 149.47 334.43 154.18 332.63 154.41 100.75 154.83 99.04 148.81 97.92 142.27 97.14 134.55 96.75 126.83 96.75 119.83 96.83 113.49 97.32 107.26 98.06 102.45 99.82 94.37 102.81 82.62 104.77 76.71 105.75 74.83"/></g><g id="bulb4"><polyline class="cls-7" points="107.83 68.95 108.19 67.4 114.07 56.34 117.68 50.34 121.4 45.03 125.58 39.8 128.76 36.23 138.33 27.22 146.75 20.94 157.11 14.81 168.24 9.79 181.67 5.47 198.34 2.25 212.63 1.08 222.6 1.08 238.99 2.6 254 5.76 268.39 10.64 283.21 17.96 294.52 25.62 306.74 36.83 314.67 46.71 321.37 57.6 325.67 65.54 327.06 68.63 326.22 69.07 107.75 68.83"/></g><g id="arrow1"><polygon id="arrow" class="cls-8" points="106.44 283.75 103.66 281.34 101.63 278.24 100.66 278.02 59.66 278.02 49.22 278.02 49.01 276.78 49.12 274.06 69.35 274.06 101.08 274.06 101.71 273.18 102.35 271.98 102.9 270.94 103.45 270.13 104.97 268.6 106.14 267.75 107.21 267.17 109.27 266.49 111.95 266.35 114.57 267.02 116.64 268.27 118.31 270.03 119.53 272.38 120.16 275.5 119.85 278.87 118.5 281.09 116.32 283.15 113.86 284.48 110.81 284.99 108.1 284.51 106.44 283.75"/><path id="circle1" class="cls-3" d="M107.1,279.1c-2.82-2.75-.48-8.26,3.51-8.26,1.77,0,4.93,3.22,4.93,5,0,3.82-5.64,6-8.44,3.23"/></g><g id="arrow2"><polygon id="arrow-2" data-name="arrow" class="cls-8" points="361.73 195.59 364.51 198 366.53 201.09 367.51 201.32 408.51 201.32 418.94 201.32 419.16 202.56 419.05 205.28 398.82 205.28 367.09 205.28 366.45 206.16 365.82 207.36 365.27 208.4 364.72 209.21 363.2 210.74 362.03 211.59 360.95 212.17 358.9 212.85 356.21 212.99 353.6 212.32 351.53 211.07 349.86 209.31 348.63 206.96 348.01 203.83 348.31 200.47 349.67 198.25 351.84 196.19 354.31 194.86 357.36 194.35 360.07 194.83 361.73 195.59"/><path id="circle2" class="cls-3" d="M361.07,200.24c2.82,2.75.48,8.26-3.51,8.26-1.77,0-4.94-3.22-4.94-5,0-3.82,5.65-6,8.45-3.23"/></g><g id="arrow3"><polygon id="arrow-3" data-name="arrow" class="cls-8" points="58.44 122.75 55.66 120.34 53.63 117.24 52.66 117.01 11.66 117.01 1.22 117.01 1.01 115.77 1.12 113.05 21.35 113.05 53.08 113.05 53.71 112.17 54.34 110.98 54.9 109.93 55.45 109.12 56.96 107.6 58.13 106.75 59.21 106.17 61.27 105.49 63.95 105.35 66.56 106.02 68.64 107.26 70.31 109.03 71.53 111.38 72.15 114.5 71.85 117.86 70.5 120.08 68.32 122.15 65.86 123.47 62.8 123.98 60.09 123.51 58.44 122.75"/><path id="circle3" class="cls-3" d="M59.1,118.1c-2.82-2.76-.48-8.26,3.51-8.26,1.77,0,4.93,3.22,4.93,5,0,3.82-5.64,6-8.44,3.24"/></g><g id="arrow4"><polygon id="arrow-4" data-name="arrow" class="cls-8" points="354.97 26.9 357.75 29.31 359.78 32.41 360.75 32.63 401.75 32.63 412.19 32.63 412.4 33.88 412.29 36.59 392.06 36.59 360.33 36.59 359.7 37.48 359.06 38.67 358.51 39.72 357.96 40.53 356.44 42.05 355.27 42.9 354.2 43.48 352.14 44.16 349.46 44.3 346.85 43.63 344.77 42.38 343.1 40.62 341.88 38.27 341.25 35.15 341.56 31.79 342.91 29.56 345.09 27.5 347.55 26.17 350.6 25.66 353.31 26.14 354.97 26.9"/><path id="circle4" class="cls-3" d="M354.31,31.55c2.82,2.75.48,8.26-3.51,8.26-1.77,0-4.93-3.22-4.93-5,0-3.81,5.64-6,8.44-3.23"/></g><g id="bottom"><path class="cls-9" d="M230.59,409.81l7.38-.68,4.17-1,2.93-1.7,1.8-2.89.7-2.08,3.64-4.08,8.64-7.51,3.45-2.26,3.17-1.83,1.08-1.47.46-2.34.08-1.69.15-.75.09-.25.22-.41.32-.42.51-.43.45-.27.47-.28.4-.33,1.18-2.15.36-3.43-1.06-2.95-1.89-1.74-.18-.27-.27-.74,0-.48L269,365l.1-.21.23-.41.35-.47,1.17-1.19.9-1.61.31-3.5-.51-2.66-.67-1.1-1.45-1.83-.29-.71-.19-.68a2.11,2.11,0,0,0-.09-.64,5.61,5.61,0,0,1-.1-1.19l.19-.45.27-.83.29-.55.74-.76,1.09-1.16.62-1.79.15-.92-.35-1.54v-2l-.66-2.08-.91-.8-.22-.33-.13-.26-.11-.27-.16-.59-.06-.37,0-.37v-.53l0-.62.18-1.12.26-.78.31-.64.31-.45.3-.32.39-.41.36-.74.37-1.65L272,324l-.21-1.5-.4-1.22-.39-.58-.44-.46-.63-1.2-.4-1.41-.42-2.34-.63-.77-.37-.24-.78-.34-1.24-.32-2.19-.32-3.06-.24-5.52-.22-12.58,0h-39l-33.38.4-2.62.6-.7.15-1.1,1.1-.44,1-.41,2.2-.87,2-.84,1.05-.19.44-.35,1.43-.1,2.67.31,1.87.65,1.38.4.39.44.57s.35.31.28.55.3,1,.3,1l.16,1.14-.09,1.59-.43,1.39-.4.66-.67.79-.4.75-.27.71-.22.93s-.06,1.14-.06.72v1.58l0,1.25.41,1.5.31.63.36.5.35.31.61.45.41.47.36.64s.28,1.1.22.68l.13.95v.69l-.06.54-.07.35-.37,1.09-.39.72-.26.36-.68.7-.52.64-.28.51-.2.5-.15.49-.08.39-.09.54,0,.46,0,.75,0,.89.13,1.4.16.63.53,1.19.2.3.45.49.43.41.52.62.51.84.11.24.12.4,0,.5-.14.46-.24.43-.5.6-.4.35-.6.42-.39.39-.38.56-.18.35-.15.37-.15.51-.08.59-.1.41,0,.59v.56l0,.46.14.93.16.69.18.53.34.79.39.64.42.53.31.3.56.45.52.53.44.57.32.65.26.87.09.73v.72l0,.7.11.74.15.57.28.66.26.43.25.33,1,.89,1.24.76,1.61.75.69.38,2.63,1.82,2.42,1.92,6.48,5.85,3.69,4.12.44.77.14.49.08.35.11.38.18.53.18.42.33.64.6.83.49.5.78.6.65.39.9.41,1.29.45,1.84.44,1.52.26,2.23.28,5,.32,14.44,0,10.16.05,1.68-.07"/></g></g></g></svg>