<svg xmlns="http://www.w3.org/2000/svg" width="419.15" height="434.54" viewBox="0 0 419.15 434.54"><defs><style>.cls-1{fill:#d13b3b;}.cls-1,.cls-2,.cls-3,.cls-4,.cls-5{stroke:#000;stroke-miterlimit:10;}.cls-2{fill:#d14646;}.cls-3{fill:#c43b3b;}.cls-3,.cls-4{fill-rule:evenodd;}.cls-4{fill:#fcfcfc;}</style></defs><g id="Layer_2" data-name="Layer 2"><g id="fills"><g id="shadow"><polyline class="cls-1" points="199.18 433.53 218.24 434.04 234.24 433.2 237.94 432.87 236.55 432.1 226.24 431.52 214.91 431.25 204.66 431.25 198.18 431.82 195.95 432.59 196.78 433.18 199.18 433.53"/></g><g id="bulb1"><polygon class="cls-2" points="285.24 244.25 285.2 244.45 282.32 258.43 281.55 263.56 280.71 272.93 280.37 279.09 279.6 288.58 278.64 294.61 276.17 301.14 273.26 304.03 268.75 305.04 193.49 305.76 162.07 304.71 158.42 302.25 155.62 296.28 154.99 293.42 153.98 285.85 153.24 276.25 152.29 264.27 151.15 256.99 150.32 253.18 148.58 245.41 148.44 244.63 154.6 244.32 191.91 244.25 248.24 244.25 282.24 244.25 285.24 244.25"/></g><g id="bulb2"><polygon class="cls-2" points="287.24 239.25 146.49 238.97 140.85 228.3 131.47 211.73 117.68 189.71 111.06 178.42 106.82 170.71 103.48 164.03 102.28 160.79 104.47 160.38 132.31 159.94 175.24 160.25 261.41 159.94 318.47 160.11 330.83 160.49 331.4 161.27 328.89 167.2 319.79 183.61 317.53 187.44 315.01 191.48 311.1 197.79 305.7 206.15 299.24 216.25 292.81 228.67 287.24 239.25"/></g><g id="bulb3"><polygon class="cls-2" points="105.24 74.25 328.76 74.63 330.48 78.62 332.89 86.95 334.31 92.7 336.24 101.25 336.77 105.02 337.1 107.9 337.42 112.1 337.56 115.46 337.64 122 337.52 127.02 337.17 133.44 336.62 139.52 335.82 145.32 335.14 148.88 333.93 153.59 332.12 153.83 100.24 154.25 98.53 148.22 97.42 141.69 96.64 133.97 96.24 126.25 96.24 119.25 96.32 112.9 96.82 106.67 97.55 101.86 99.31 93.78 102.3 82.03 104.26 76.13 105.24 74.25"/></g><g id="bulb4"><polyline class="cls-2" points="107.32 68.37 107.69 66.82 113.56 55.76 117.17 49.76 120.89 44.45 125.07 39.21 128.25 35.64 137.82 26.64 146.24 20.35 156.61 14.23 167.73 9.21 181.17 4.88 197.83 1.67 212.13 0.5 222.1 0.5 238.48 2.01 253.49 5.18 267.88 10.05 282.7 17.38 294.02 25.04 306.23 36.24 314.17 46.12 320.86 57.02 325.16 64.96 326.56 68.04 325.71 68.48 107.24 68.25"/></g><g id="arrow1"><polygon id="arrow" class="cls-3" points="105.94 283.17 103.15 280.75 101.13 277.66 100.15 277.43 59.15 277.43 48.72 277.43 48.5 276.19 48.61 273.47 68.84 273.47 100.57 273.47 101.21 272.59 101.84 271.4 102.4 270.35 102.94 269.54 104.46 268.01 105.63 267.17 106.71 266.58 108.76 265.91 111.45 265.77 114.06 266.44 116.13 267.68 117.8 269.45 119.03 271.8 119.65 274.92 119.35 278.28 117.99 280.5 115.82 282.57 113.36 283.89 110.3 284.4 107.59 283.93 105.94 283.17"/><path id="circle1" class="cls-4" d="M106.59,278.52c-2.82-2.76-.48-8.26,3.51-8.26,1.78,0,4.94,3.22,4.94,5,0,3.82-5.64,6-8.45,3.24"/></g><g id="arrow2"><polygon id="arrow-2" data-name="arrow" class="cls-3" points="361.22 195 364 197.41 366.03 200.51 367 200.74 408 200.74 418.44 200.74 418.65 201.98 418.54 204.7 398.31 204.7 366.58 204.7 365.95 205.58 365.31 206.77 364.76 207.82 364.21 208.63 362.69 210.16 361.52 211 360.45 211.59 358.39 212.26 355.71 212.4 353.1 211.73 351.02 210.49 349.35 208.72 348.13 206.37 347.5 203.25 347.81 199.89 349.16 197.66 351.34 195.6 353.8 194.28 356.85 193.77 359.56 194.24 361.22 195"/><path id="circle2" class="cls-4" d="M360.56,199.65c2.82,2.76.48,8.26-3.51,8.26-1.77,0-4.93-3.22-4.93-5,0-3.82,5.64-6,8.44-3.24"/></g><g id="arrow3"><polygon id="arrow-3" data-name="arrow" class="cls-3" points="57.93 122.16 55.15 119.75 53.12 116.66 52.15 116.43 11.15 116.43 0.71 116.43 0.5 115.19 0.61 112.47 20.84 112.47 52.57 112.47 53.2 111.59 53.84 110.39 54.39 109.35 54.94 108.54 56.46 107.01 57.63 106.16 58.7 105.58 60.76 104.9 63.44 104.76 66.06 105.43 68.13 106.68 69.8 108.44 71.03 110.79 71.65 113.92 71.34 117.28 69.99 119.5 67.81 121.56 65.35 122.89 62.3 123.4 59.59 122.92 57.93 122.16"/><path id="circle3" class="cls-4" d="M58.59,117.51c-2.82-2.75-.48-8.26,3.51-8.26,1.77,0,4.93,3.22,4.93,5,0,3.82-5.64,6-8.44,3.23"/></g><g id="arrow4"><polygon id="arrow-4" data-name="arrow" class="cls-3" points="354.46 26.31 357.24 28.73 359.27 31.82 360.24 32.05 401.24 32.05 411.68 32.05 411.89 33.29 411.78 36.01 391.56 36.01 359.83 36.01 359.19 36.89 358.56 38.08 358 39.13 357.45 39.94 355.94 41.47 354.77 42.32 353.69 42.9 351.64 43.58 348.95 43.72 346.34 43.05 344.26 41.8 342.6 40.03 341.37 37.69 340.75 34.56 341.05 31.2 342.4 28.98 344.58 26.91 347.04 25.59 350.1 25.08 352.81 25.55 354.46 26.31"/><path id="circle4" class="cls-4" d="M353.81,31c2.81,2.76.47,8.26-3.52,8.26-1.77,0-4.93-3.22-4.93-5,0-3.82,5.64-6,8.45-3.24"/></g><g id="bottom"><path class="cls-5" d="M230.09,409.22l7.37-.68,4.18-1,2.92-1.7,1.8-2.89.71-2.08,3.63-4.08,8.64-7.51,3.45-2.26,3.17-1.84,1.08-1.47.46-2.33.08-1.7.16-.75.09-.24.21-.42.32-.41.51-.43.45-.28.48-.27.39-.33,1.19-2.15.35-3.44L270.67,368l-1.89-1.75-.18-.26-.27-.74,0-.48.12-.33.09-.2.24-.41.34-.48,1.17-1.18.9-1.62.31-3.5-.51-2.66-.67-1.1-1.45-1.82-.29-.72-.18-.67a1.92,1.92,0,0,0-.1-.64,5.61,5.61,0,0,1-.1-1.19l.19-.46.27-.83.3-.54.74-.76,1.09-1.16.61-1.8.15-.91-.35-1.54v-2l-.66-2.08-.91-.81-.22-.33-.13-.26-.1-.26-.16-.59-.07-.37,0-.38,0-.52,0-.63.19-1.11.25-.79.31-.64L270,329l.31-.32.38-.42.37-.74.36-1.65.05-2.47-.21-1.5-.4-1.22-.39-.58-.44-.47-.63-1.2-.39-1.4-.42-2.34L268,314l-.37-.24-.78-.33-1.24-.32-2.18-.33-3.07-.24-5.51-.21-12.59,0h-39l-33.38.4-2.62.6-.7.14-1.1,1.11-.44,1-.41,2.2-.87,2-.84,1.06-.18.44-.36,1.43-.1,2.67.32,1.87.64,1.37.41.39.43.57s.35.31.28.56.31,1,.31,1l.15,1.14-.09,1.58-.42,1.4-.41.65-.67.8-.4.74-.26.72-.23.92s-.06,1.14-.06.73v1.58l0,1.24.41,1.5.31.63.36.5.35.32.61.45.41.46.36.65s.28,1.1.22.67.14.95.14.95v.7l-.06.53-.07.35-.37,1.09-.39.73-.26.35-.67.7-.53.65-.28.51-.2.5-.14.48-.09.39-.08.54,0,.46,0,.75,0,.9.14,1.4.15.63.53,1.19.21.29.44.5.43.41.52.62.51.84.11.24.13.39,0,.51-.15.46-.24.42-.5.61-.39.35-.6.42-.4.39-.38.55-.18.35-.14.37-.16.52-.08.58-.1.41,0,.59v.56l0,.46.14.94.17.69.17.53.34.78.39.65.43.52.3.3.56.46.53.52.43.58.33.64.25.87.09.73v.73l0,.69.1.75.16.57.28.66.25.42.25.33,1,.89,1.25.77,1.6.74.69.38,2.64,1.83,2.41,1.92,6.48,5.85,3.69,4.11.45.77.13.5.08.34.11.39.18.52.18.42.34.65.59.82.49.5.79.61.65.38.9.42,1.28.44,1.84.44,1.53.27,2.22.27,5,.32,14.44,0,10.17.05,1.68-.08"/></g></g></g></svg>