<svg xmlns="http://www.w3.org/2000/svg" viewBox="0 0 546.89 525.33">
  <defs>
    <style>
      .cls-1 {
        fill: #bf2500;
        stroke: #000;
        stroke-miterlimit: 10;
      }
    </style>
  </defs>
  <g id="Layer_2" data-name="Layer 2">
    <g id="Layer_1-2" data-name="Layer 1">
      <g id="Layer_2-2" data-name="Layer 2">
        <g id="globeoutlines">
          <path class="cls-1" d="M153.54,170.53c0-13.24,2.44-15.57,16.11-15.47,13.12.1,16.61,3.39,16.6,15.67,0,13.71-3.32,17-17.26,17C155.68,187.67,153.53,185.27,153.54,170.53Z"/>
          <path class="cls-1" d="M191.53,171.09c0-13.12,2.92-16,15.88-16,12.47,0,17,4.29,16.93,15.88-.13,13.06-3.86,16.77-16.84,16.73C193.61,187.65,191.5,185.45,191.53,171.09Z"/>
          <path class="cls-1" d="M186.56,218.44c-.05,13.22-1.9,14.9-16.34,14.89-14.14,0-16.51-2.32-16.52-16,0-12.73,3.18-15.85,16.15-15.83C183.94,201.51,186.6,204.2,186.56,218.44Z"/>
          <path class="cls-1" d="M208.27,233.34c-14.64,0-16.51-1.65-16.56-14.83,0-12.66,3.06-16.95,12.28-17,17.26-.06,20.61,2.6,20.59,16.35C224.56,230.86,222,233.31,208.27,233.34Z"/>
          <path class="cls-1" d="M357.7,211.48c-7.24,0-14.48.11-21.72,0-4-.08-7.26-1.64-7.36-6.24s2.56-7.76,7-7.85c15.07-.29,30.16-.34,45.23,0,4.49.11,8.38,3,8.1,8s-4.54,6-8.67,6.1c-7.54.17-15.08,0-22.62,0Z"/>
          <path class="cls-1" d="M359,231.44c-6.64,0-13.29.11-19.93,0-5.07-.12-10.18-.91-10.31-7.49-.12-6.07,5.17-6.31,9.13-6.42,14.18-.4,28.37-.41,42.56-.23,4.5.06,8.75,2,8.59,7.36-.16,5.54-4.93,6.44-9.21,6.63-6.93.32-13.88.09-20.83.09Z"/>
          <path class="cls-1" d="M264.42,70c.4-4.52-.88-9,2-12.63,2-2.51,25.07-1.73,27.09.76,2.83,3.48,2.79,19.46-.05,22.71-1.79,2-25.36,3.06-27,1C263.47,78.23,265,73.76,264.42,70Z"/>
          <path class="cls-1" d="M297.49,69.91c0-1.8-.06-3.6,0-5.4.19-5.06,2-9.2,7.74-9.07s6.22,4.85,6.56,9.13a74.48,74.48,0,0,1,0,9.91c-.27,4.41-1.25,8.78-6.84,8.87-5.76.08-7.75-3.66-7.64-8.93V69.91Z"/>
          <path id="lines" class="cls-1" d="M295.71,175.59v58.17c0,2.42,0,4.85.1,7.27.13,3.22.8,6.22,4.83,6.42,4.48.21,5.7-2.83,5.72-6.51q.17-21.81.14-43.62c0-21.35,2.9-23.7,23.86-24.65,20.27-.92,40.5,1.3,60.79-.47,13.81-1.2,20.5,6.14,20.59,20.35.09,14.85.38,29.7-.1,44.53-.27,8.48,3.16,11,11.26,10.95,34.24-.29,68.48-.14,102.73-.11,18.48,0,21.86,2.57,20.5,21-3,40.6-13.56,79.22-33.47,115Q475.8,450.24,410.14,488.24A269.12,269.12,0,0,1,293.08,524.1c-44.26,3.08-87-3.58-127.61-21a265.56,265.56,0,0,1-85.74-58.22c-19.36-19.68-35.67-41.13-48.55-65.24-17.59-33-28-68.13-30.31-105.56-.1-1.51-.09-3-.17-4.54-1-19.17,1.3-21.62,20.3-21.63H121c14.26,0,14.3-.06,14.31-13.92V147.65c0-14.55,4.09-19.39,18.7-21.52,5.12-.75,6.34-3.29,6.65-7.84,1.15-17.15,1.22-17.24,16.75-22,4.1-1.25,4.9-4.08,4.93-7.61.08-8.18,0-16.36.15-24.54.09-5.12,1-10.44,7.54-10.24,5.87.18,6.73,5.43,6.91,10.07.3,7.56.27,15.14.19,22.71,0,4.83,1.34,8.73,6.71,9,12.75.59,15.75,8.89,16.71,19.57.31,3.41-1.46,9.67,4.13,9.35,5.2-.3,3.08-6.23,3.38-9.83.34-4.22,0-8.49.27-12.72.48-7.18,3.63-12.39,11.57-12.44,6.45,0,8.37-3.2,8.26-9.09-.19-10-.15-20,.05-30,.24-11.41,3.22-14.92,14.43-15.25,7.27-.21,9.59-3.28,9.33-10-.16-3.89.63-7.82,1-11.73C274,5,278.28.35,287.31.5s15.05,4.66,16.8,13.36a24.68,24.68,0,0,1,.3,2.71c.34,5.11-.55,10.71,1.27,15.22,2.38,5.92,9.24,2.38,13.92,4,6.59,2.22,8.63,7.15,8.69,13.37.11,10.61.2,21.21.07,31.81-.06,5.42,1.57,8.71,7.69,8.6,8.17-.14,11.49,5.18,11.61,12.25q.51,27.72,0,55.42c-.08,4.8-1.32,10.54-7.87,10.17-6.74-.38-7.36-5.72-7.36-11.35,0-14.83-.27-29.67-.56-44.49-.08-3.82.56-8.79-5.33-8.62-5.64.17-5.13,4.84-5.15,8.83-.08,14.84-.16,29.68-.33,44.52-.06,5.14.51,11.35-6.9,11.5-8,.16-7.55-6.46-7.61-11.86-.16-13.93.13-27.88-.17-41.8-.09-4.28,2.24-11.35-5.42-11-6.94.34-5.2,7.07-5.24,11.58-.16,20.29-.07,40.59-.07,60.89ZM15.62,272.45c.5,18.58,4.38,38.95,11,58.91,13,38.84,32.94,73.2,62.28,102,4.61,4.54,8.41,5.21,13.14.92,13.53-12.3,29.09-21.63,45-30.33,4.79-2.61,5.21-5.26,3.33-10.21-5.48-14.4-11.17-28.81-15.14-43.66-6.88-25.73-11.56-51.94-11.09-78.78.1-6-2.33-9-8.56-9-31.19.08-62.37,0-93.56,0C17,262.39,13.79,264.21,15.62,272.45Zm514.75,5.8c-1-7.3,2.85-16-9-15.94q-44.52.24-89.06,0c-6.43,0-9.08,2.68-9.46,9.21-.69,11.75-1.72,23.52-3.41,35.17-4.36,30-11.15,59.46-23.76,87.27-2.17,4.8-.86,7.82,3.82,10.27,15.6,8.18,30.49,17.48,43.48,29.49,6,5.56,10.76,4.7,16-1.29,12.2-13.88,24.19-27.9,33.93-43.65C514.08,354.55,527.18,317.55,530.37,278.25ZM344.71,262.37c-18.18,0-36.35.08-54.52,0-5.65,0-9.37,1.39-9.35,8,.11,31.79.08,63.59.07,95.38,0,4.77,2.11,7.3,7,7.49,29.94,1.12,58.53,8.42,86.26,19.37,3.95,1.56,6,.9,7.69-3.11a339.85,339.85,0,0,0,26.39-117c.33-7.41-2.44-10.33-10-10.19C380.45,262.61,362.58,262.38,344.71,262.37Zm-143.63,0h0c-18.19,0-36.37.12-54.56-.06-6.47-.07-9.3,2.09-8.94,9.05A356,356,0,0,0,163,386c2.61,6.49,5.33,8.14,12.09,5.37,26.21-10.74,53.67-16.37,81.91-18,6.9-.39,9.09-4.12,8.68-10.05-2.13-30.27-.55-60.57-.86-90.85-.08-7.38-2.63-10.31-10.12-10.18-17.85.32-35.7.1-53.62.1Zm65.06,144.32c-.09-1.53-.12-3.35-.3-5.16-1.38-13.73-1.56-14.06-15.47-13.49-24.8,1-48.06,8.62-71.13,17-5.05,1.83-5.73,4.77-3.09,9.06,4.27,6.95,8.37,14,12.82,20.85,18.49,28.35,40.64,53.33,68,73.44,2,1.45,4,3.14,6.56,2s2.56-4,2.44-6.34c-.26-5.43-1.11-10.85-1.08-16.27.24-27-1.44-53.95,1.25-81.11Zm14.7,43v52.69c0,2.63-.67,5.83,2.13,7.45,3,1.78,4.93-1.14,7.11-2.56,14.84-9.71,26.53-22.83,38.58-35.58,15.91-16.83,28.92-35.72,40.08-55.94,2.65-4.79,4-9.14-3-11.41-24.42-8-48.71-16.4-74.93-16.52-7.51,0-10.24,2.67-10.11,10.08.36,17.22.15,34.49.14,51.75Zm-52.66-254.6c0-14.84-.15-29.68.07-44.52.1-6.88-2.61-9.87-9.67-9.79q-29.55.36-59.07,0c-7.18-.08-9.57,3.22-9.53,10q.21,44.07,0,88.13c0,6.63,2.7,9.19,9.24,9.12q30-.3,60,0c6.68.07,9.15-2.82,9-9.31-.22-14.59,0-29.13,0-43.67Zm90.21,310c13.08.2,25-3.7,36.84-7.79a262.34,262.34,0,0,0,75-39.88c9-6.88,8.68-8.45.37-15.65-10.85-9.39-23.28-16.27-35.6-23.41-6.55-3.79-9.67-2.14-13.52,4.18-8.92,14.68-16.52,30.19-28.11,43.26S330.63,492.22,318.39,505.1Zm-90.48-.32c-3.26-7.52-10.52-10.35-15.28-15.62-18.52-20.5-35.35-42.2-48.42-66.58-3.83-7.15-7.79-7.89-14.35-3.81C138,426.14,126.23,433.52,115.17,442c-8.29,6.38-8.17,8.34.17,14.82,26.1,20.31,55.31,34.68,86.8,44.19C210.08,503.42,218.36,507.82,227.91,504.78ZM358.2,247.93h0c9.68,0,19.35-.08,29,0,5.59.07,8.42-2.23,8.38-8q-.15-23.13,0-46.25c0-5.46-2.79-7.49-7.93-7.47q-29,.09-58,0c-6.26,0-8.55,3.11-8.51,9,.11,14.5.24,29-.07,43.52-.15,7.3,3.23,9.51,10,9.29C340.05,247.71,349.13,247.93,358.2,247.93ZM282.71,175h0V111.49c0-4.88-.38-9.44-7.06-9-6.21.39-6.82,4.54-6.71,9.62q.66,32.14,1,64.31c.16,20-.05,39.93.11,59.89,0,4.81-1.53,11.36,6.63,11.23,7.56-.13,6-6.31,6-10.83C282.79,216.17,282.71,195.61,282.71,175Zm-39.78-.57c0,21.16-.06,42.32,0,63.48,0,4-1,9.4,5.39,9.47s6.66-5.1,6.71-9.74c.14-10.58.1-21.16.07-31.74-.07-31.43-.1-62.86-.37-94.29,0-4,.3-9.25-6.13-9.08s-5.6,5.27-5.6,9.37c-.12,20.86-.07,41.72-.07,62.57Zm44.82-85v-.12c6.05,0,12.11-.11,18.16,0,5.32.12,7.8-2.21,7.71-7.58-.12-7.87-.1-15.74,0-23.61.06-5.63-2.53-8.41-8.21-8.39-7.26,0-14.53-.08-21.79-.08-20.15,0-20.14,0-21.19,19.64-.13,2.41-.68,4.81-.63,7.21.2,11.7,1.55,13,13.2,13Zm-96.86,36.44V126h7.27c5,.1,8.1-1.55,8.13-7.23,0-5.4-1.7-8.84-7.69-8.77-5.75.06-11.52-.14-17.25.23-5.23.34-5.89,4.31-5.89,8.57s1.77,7,6.35,7.09c3,.11,6.05,0,9.08,0Z"/>
        </g>
      </g>
    </g>
  </g>
</svg>
