<svg xmlns="http://www.w3.org/2000/svg" viewBox="0 0 673.52 392.12">
  <defs>
    <style>
      .cls-1 {
        fill: #22b573;
      }

      .cls-2 {
        fill: #39b54a;
      }
    </style>
  </defs>
  <g id="Layer_2" data-name="Layer 2">
    <g id="tablets">
      <path class="cls-1" d="M477.94,258.12c0-36.41.15-72.82-.09-109.23-.07-10.85,8.06-21.34,19.42-23.73A17.86,17.86,0,0,1,501,125q74.37,0,148.73-.06a24,24,0,0,1,23.76,23.66c.06,3.16,0,6.33,0,9.5V366.27c0,15.28-10.46,25.8-25.73,25.81-48.58,0-97.15-.06-145.73,0-12.52,0-24.24-11.41-24.17-24C478.06,331.45,477.94,294.78,477.94,258.12Zm19-7.66v99.47c0,.91,0,1.83,0,2.75a1.69,1.69,0,0,0,1.88,1.84l2.25,0h148c.67,0,1.33,0,2,0,1.69,0,2.44-.81,2.4-2.45,0-.75,0-1.5,0-2.25q0-99.46,0-198.94c0-4.35,0-4.35-4.24-4.35q-74.1,0-148.2,0c-4.07,0-4.07,0-4.07,4.19ZM574.9,380.55c4.19,0,7-2.65,7.08-6.64a7,7,0,0,0-13.9-.21A6.5,6.5,0,0,0,574.9,380.55Zm30.21,0c4.14,0,6.91-2.81,6.84-6.89a6.78,6.78,0,0,0-6.57-6.48c-4,0-7.29,3-7.3,6.61A6.64,6.64,0,0,0,605.11,380.55Zm-61.22,0c4.21,0,6.88-2.59,7-6.82.08-3.51-3.24-6.64-7-6.64a6.37,6.37,0,0,0-6.33,6.58C537.44,378,539.82,380.54,543.89,380.55Z"/>
      <path class="cls-1" d="M297.42,309.57H130c-4.74,0-4.89-.15-4.9-4.91q0-20.25,0-40.5c0-4,.24-4.21,4.28-4.21,54.82,0,109.65.33,164.47-.09,56.73-.44,113.47-.05,170.2-.28.75,0,1.5,0,2.25,0,2.82.09,3.3.55,3.31,3.44,0,11.66,0,23.33,0,35,0,2.91.13,5.82.22,8.73.06,1.86-.82,2.8-2.68,2.81l-2.75,0Zm7.13-24.7c0-5.17-3.38-8.77-8.37-8.83a8.44,8.44,0,0,0-8.66,8.66c0,5.35,3.33,8.81,8.59,8.84S304.51,290.2,304.55,284.87Z"/>
      <path class="cls-1" d="M296,0q87,0,174,0A38.78,38.78,0,0,1,488.7,4.52C500.59,11,507.75,20.84,510,34.23a50.19,50.19,0,0,1,.57,8.22q0,34.11,0,68.23c0,4.08-.34,4.34-4.44,4.42-4.91.09-9.82-.29-14.72.39-2.46.34-2.87-.27-2.88-3.34q0-36.87,0-73.74a16.64,16.64,0,0,0-1.61-7.24C482.94,23,476.07,20,467.34,20c-20.83.09-41.66,0-62.49,0q-140.49,0-281,0c-4.15,0-8.34.06-12.09,2.29-6.28,3.74-9.29,9.29-9.29,16.58q0,54,0,108,0,25.13,0,50.24c0,4.12-.63,4.48-4.72,4.11-4.39-.38-8.81-.43-13.22-.46-2,0-2.73-.85-2.67-2.7,0-1.09,0-2.17,0-3.25q0-77,0-154c0-11.61,3.76-21.53,12.12-29.62A38,38,0,0,1,121,.06q64.61-.15,129.22,0H296Z"/>
      <path class="cls-2" d="M118.07,299.21q0,32,0,64c0,12.22-10.17,24.66-22.09,27.44a36.14,36.14,0,0,1-8.4.9c-19.58,0-39.16,0-58.74,0-13.22,0-25.66-10.71-28-23.78a55.17,55.17,0,0,1-.8-9.92c0-40,0-80,0-120,0-10.53,3.94-19.36,13-25.3a29.45,29.45,0,0,1,16.5-5c19.91.06,39.82,0,59.74,0a29.43,29.43,0,0,1,27.88,21.76,27.48,27.48,0,0,1,.87,7.14ZM14,299.36v61.23c0,3.4.09,3.48,3.53,3.48h84c3.39,0,3.45-.07,3.45-3.55q0-60.86,0-121.7c0-4-.21-4.22-4.26-4.22H17.46c-3.4,0-3.46.06-3.46,3.53Q14,268.76,14,299.36ZM59.1,384.54c4.18,0,6.69-2.67,6.64-7a6.5,6.5,0,0,0-6.52-6.46,6.94,6.94,0,0,0-7.09,6.84A6.74,6.74,0,0,0,59.1,384.54Zm.35-162c5.4,0,10.8,0,16.2,0,.68,0,1.82.23,1.8-.76s-1.15-.71-1.84-.71q-16.08,0-32.15,0c-.7,0-1.87-.25-1.9.64-.05,1.21,1.21.83,1.94.84C48.81,222.56,54.13,222.54,59.45,222.54Z"/>
      <path class="cls-2" d="M295.77,391.55q-34.72,0-69.46,0c-6.63,0-10.29-3.39-10.85-10-.34-4-.66-7.91,2.44-11.21a11.22,11.22,0,0,1,8.65-3.74c8.25,0,16.49-.08,24.74,0,2.34,0,3.26-.66,3.22-3.1-.09-6.66-.08-13.32-.44-20a69.41,69.41,0,0,1,.34-11c.51-4.84,3.41-8.19,8.27-8.42,9.3-.46,18.59-1,27.93-.28a143.84,143.84,0,0,0,18.45-.11c6.8-.38,13.66-.81,20.43.34,5.65,1,8.4,4,8.46,9.72.08,7.57.4,15.15-.28,22.72a52.5,52.5,0,0,0,.12,7c.11,2.59,1.3,3.14,3.63,3.1,7.5-.13,15-.12,22.49-.07,4.12,0,7.74,1,10.63,4.46s2.87,14.49-1,17.78a12.27,12.27,0,0,1-8.3,2.81H295.77Z"/>
    </g>
  </g>
</svg>
