<svg xmlns="http://www.w3.org/2000/svg" viewBox="0 0 399.51 403.07">
  <defs>
    <style>
      .cls-1 {
        fill: #00d9e9;
      }
    </style>
  </defs>
  <g id="Layer_2" data-name="Layer 2">
    <g id="Layer_1-2" data-name="Layer 1">
      <g id="Layer_2-2" data-name="Layer 2">
        <g id="tv">
          <path id="tvknob2" class="cls-1" d="M341.94,243.24c15.07,0,27.82,12.25,27.57,26.39-.26,14.5-12.8,26.48-27.68,26.44-15.56,0-27.84-12-27.72-26.92C314.22,254.57,326.45,243.18,341.94,243.24Zm-.33,15.35c-6.66,0-11.35,4.53-11.38,11a11.21,11.21,0,0,0,11.3,11.14H342a11.51,11.51,0,0,0,11.37-11.31c-.06-6.07-5.22-10.83-11.76-10.82Z"/>
          <path id="tvknob1" class="cls-1" d="M341.72,171.59c15.13,0,28,12.08,27.81,26.09-.2,14.8-12.41,26.37-27.85,26.38-15.67,0-27.65-11.48-27.58-26.42C314.17,183,326.28,171.58,341.72,171.59Zm-11.49,26.28c-.05,6.18,4.93,11,11.46,11.15A11.55,11.55,0,0,0,353.36,198c.09-6-5.48-11.41-11.8-11.36a11.21,11.21,0,0,0-11.33,11.09Z"/>
          <path id="tvscreen" class="cls-1" d="M164.94,346.32H57.06c-19,0-31.76-12.18-31.76-30.33,0-54.78.28-109.56-.18-164.34C25,135.08,38.24,121,57.25,121q107.88.12,215.75,0c19.55,0,32.54,12.41,32.55,31v163.3c0,18.77-13,31-32.74,31.05Zm.51-14.92c35.47,0,70.94-.16,106.4.09,10.86.08,17.8-6.57,17.74-16.93-.32-54-.14-107.92-.15-161.89,0-11.23-5.35-16.33-17.14-16.33H57c-5.38,0-9.71,1.8-13,5.8-2.62,3.19-3.05,7-3.05,10.85V317c.5,7.86,5.26,13,13.38,14.17a38.93,38.93,0,0,0,5.81.29l105.36,0Z"/>
          <path id="tvoutlines" class="cls-1" d="M179.07,93.41c-.25-1.59-1.64-2.29-2.62-3.22q-39-37.27-78-74.51a29.57,29.57,0,0,1-3.59-3.91A7,7,0,0,1,95.92,2a8.08,8.08,0,0,1,10.33-.28,31.4,31.4,0,0,1,2.89,2.64l87.07,83.07c3.54,3.38,3.55,3.38,7.08,0l87.32-83.3c1.63-1.55,3.14-3.23,5.53-3.81,3.45-.84,6.3,0,8.39,2.73s2.37,5.36.51,8.11a25.94,25.94,0,0,1-3.72,4.25q-39.1,37.39-78.26,74.76c-1,.93-2.36,1.64-2.62,3.22,1.48.91,3.09.49,4.6.49H353.69c26.58,0,45.81,18.28,45.82,43.53V330.25c0,24.86-19.06,43-45.1,43.08H315.47c-.45,1.6.79,2.06,1.48,2.72,4.6,4.46,9.29,8.84,13.89,13.29,3.83,3.71,4.12,8.3.81,11.36-3.59,3.32-7.82,3.11-11.86-.73-8.68-8.27-17.35-16.54-25.9-24.93a6.22,6.22,0,0,0-4.87-1.72H111.9a9.64,9.64,0,0,0-7.58,3c-8.13,8.13-16.54,16-24.91,23.92-3.83,3.62-8.08,3.74-11.6.49-3.22-3-3-7.58.56-11.1,4.42-4.31,8.93-8.53,13.39-12.79.92-.87,1.8-1.78,2.76-2.74-1.45-1.15-2.84-.72-4.1-.72H44.71C19.18,373.29,0,355,0,330.62V136.75c0-24.18,19.42-42.81,44.71-42.83H174.45C176,93.89,177.57,94.31,179.07,93.41ZM199.75,358H353.91c18.16,0,29.51-10.84,29.51-28.24V137.63c0-17.51-11.43-28.34-29.88-28.34H46c-18.44,0-29.87,10.84-29.88,28.34V329.77C16.08,347.14,27.44,358,45.6,358Z"/>
        </g>
      </g>
    </g>
  </g>
</svg>
